<svg width="70" height="70" viewBox="0 0 70 70" fill="none" xmlns="http://www.w3.org/2000/svg">
<path d="M35 70C54.3305 70 70 54.3305 70 35C70 15.6695 54.3305 0 35 0C15.6695 0 0 15.6695 0 35C0 54.3305 15.6695 70 35 70Z" fill="#E84142"/>
<path fill-rule="evenodd" clip-rule="evenodd" d="M25.082 48.9283H18.2895C16.8622 48.9283 16.1571 48.9283 15.7272 48.6533C15.2629 48.3522 14.9792 47.8536 14.9448 47.3032C14.919 46.7961 15.2715 46.1768 15.9766 44.9387L32.7482 15.3765C33.4618 14.1211 33.8229 13.4935 34.2786 13.2613C34.7687 13.012 35.3534 13.012 35.8435 13.2613C36.2992 13.4935 36.6603 14.1211 37.3739 15.3765L40.8218 21.3952L40.8394 21.4259C41.6102 22.7726 42.0011 23.4556 42.1717 24.1723C42.3609 24.9548 42.3609 25.7802 42.1717 26.5626C41.9998 27.2849 41.6128 27.9728 40.8304 29.3399L32.0207 44.9129L31.9979 44.9528C31.222 46.3106 30.8288 46.9988 30.2839 47.518C29.6906 48.0856 28.977 48.4981 28.1945 48.7307C27.4809 48.9283 26.6813 48.9283 25.082 48.9283ZM42.2353 48.9283H51.9682C53.4041 48.9283 54.1265 48.9283 54.5566 48.6449C55.0208 48.3438 55.313 47.8363 55.3391 47.2864C55.3638 46.7956 55.019 46.2005 54.3432 45.0343C54.3199 44.9946 54.2966 44.9542 54.2728 44.9131L49.3975 36.5729L49.3421 36.479C48.657 35.3205 48.3112 34.7355 47.867 34.5094C47.3772 34.26 46.8007 34.26 46.3109 34.5094C45.8637 34.7415 45.5026 35.352 44.789 36.5815L39.931 44.9217L39.9144 44.9504C39.2033 46.178 38.8478 46.7914 38.8735 47.2948C38.9079 47.8452 39.1916 48.3522 39.6559 48.6533C40.0772 48.9283 40.7995 48.9283 42.2353 48.9283Z" fill="white"/>
</svg>
