<svg width="70" height="70" viewBox="0 0 70 70" fill="none" xmlns="http://www.w3.org/2000/svg">
<g clip-path="url(#clip0_3562_96)">
<path d="M70 35C70 54.33 54.33 70 35 70C15.67 70 0 54.33 0 35C0 15.67 15.67 0 35 0C54.33 0 70 15.67 70 35Z" fill="url(#paint0_linear_3562_96)"/>
<path fill-rule="evenodd" clip-rule="evenodd" d="M51.9705 18.0294C52.7515 18.8104 52.7515 20.0767 51.9705 20.8578L46.3136 26.5147C43.8095 29.0187 40.9309 29.9394 38.1135 28.9049C35.5245 27.9542 33.5362 25.5298 32.1332 22.6978C30.8876 20.1834 28.6124 18.8404 25.818 18.8236C21.9399 18.8003 18.8003 21.9399 18.8236 25.818C18.8471 29.7149 22.0542 32.922 25.9511 32.9455L35.012 33C36.1165 33.0066 37.0065 33.9074 36.9999 35.012C36.9933 36.1165 36.0925 37.0065 34.9879 36.9999L25.927 36.9454C19.8398 36.9088 14.8603 31.9293 14.8237 25.8421C14.787 19.7361 19.7361 14.787 25.8421 14.8237C30.0651 14.8491 33.7647 16.9802 35.7175 20.9222C36.9319 23.3735 38.3092 24.7156 39.4923 25.15C40.4469 25.5005 41.7467 25.4248 43.4852 23.6862L49.1421 18.0294C49.9231 17.2483 51.1894 17.2483 51.9705 18.0294Z" fill="white"/>
<path fill-rule="evenodd" clip-rule="evenodd" d="M18.0294 51.9705C17.2483 51.1895 17.2483 49.9231 18.0294 49.1421L23.6862 43.4852C26.1903 40.9811 29.069 40.0605 31.8863 41.095C34.4753 42.0456 36.4637 44.4701 37.8666 47.302C39.1122 49.8165 41.3874 51.1595 44.1818 51.1763C48.0599 51.1996 51.1996 48.0599 51.1762 44.1818C51.1528 40.285 47.9457 37.0778 44.0488 37.0544L34.9879 36.9999C33.8834 36.9933 32.9933 36.0925 33 34.9879C33.0066 33.8834 33.9074 32.9933 35.012 33L44.0728 33.0545C50.1601 33.0911 55.1396 38.0706 55.1762 44.1578C55.2129 50.2638 50.2638 55.2129 44.1578 55.1762C39.9348 55.1508 36.2351 53.0197 34.2823 49.0777C33.068 46.6264 31.6907 45.2843 30.5076 44.8499C29.5529 44.4993 28.2532 44.5751 26.5146 46.3136L20.8578 51.9705C20.0767 52.7516 18.8104 52.7516 18.0294 51.9705Z" fill="white"/>
</g>
<defs>
<linearGradient id="paint0_linear_3562_96" x1="0" y1="0" x2="70" y2="70" gradientUnits="userSpaceOnUse">
<stop stop-color="#7664FF"/>
<stop offset="1" stop-color="#00B79A"/>
</linearGradient>
<clipPath id="clip0_3562_96">
<rect width="70" height="70" fill="white"/>
</clipPath>
</defs>
</svg>
