<svg width="70" height="70" viewBox="0 0 70 70" fill="none" xmlns="http://www.w3.org/2000/svg">
<path d="M66.7791 19.1688C68.9939 20.9639 70.391 24.6786 69.9027 27.417L65.1362 53.7438C64.6393 56.4881 62.0156 59.505 59.3115 60.4553L33.347 69.5732C30.6426 70.5235 26.6206 69.8329 24.4132 68.039L3.21661 50.8228C1.00186 49.0278 -0.3966 45.3201 0.10027 42.5759L4.86693 16.2491C5.3638 13.5048 7.98735 10.4879 10.6916 9.53748L36.6549 0.426911C39.3591 -0.52351 43.3813 0.167154 45.5885 1.96102L66.7791 19.1688Z" fill="#2DCEFF"/>
<path d="M44.6916 30.9888L45.7493 25.6398L35.8353 25.655L37.2472 18.6003H34.0361C34.0361 18.6003 31.0347 23.8282 24.417 26.3875L23.5049 31.0007L27.8405 31.0091C27.8405 31.0091 26.3727 37.6391 25.8891 40.0849C24.6581 46.3103 27.7385 50.7277 32.4745 50.7277C34.8505 50.7277 37.5188 50.7277 40.4793 50.7277L41.883 44.8146C41.5416 44.8146 39.3098 44.8146 35.1872 44.8146C32.2113 44.8146 32.3678 43.1905 32.9394 40.3001L34.7812 30.9858L44.6916 30.9888Z" fill="white"/>
</svg>
