<svg width="70" height="70" viewBox="0 0 70 70" fill="none" xmlns="http://www.w3.org/2000/svg">
<circle cx="35" cy="35" r="35" fill="#F8A608"/>
<path fill-rule="evenodd" clip-rule="evenodd" d="M35.2146 15H18.116V28.1528H12.4946V32.5563H18.116V37.5219H12.4946V41.9254H18.116V55.006H35.2146C43.8285 55.006 51.1708 49.5612 53.9874 41.9254H59.1059V37.5219H55.0605C55.1642 36.6969 55.2176 35.8562 55.2176 35.003C55.2176 34.1747 55.1672 33.3582 55.0694 32.5563H59.1059V28.1528H54.0139C51.217 20.4792 43.8556 15 35.2146 15ZM49.2335 28.1528C46.6969 22.9715 41.3724 19.4035 35.2146 19.4035H22.5194V28.1528H49.2335ZM22.5194 32.5563V37.5219H50.6118C50.7449 36.702 50.8141 35.8606 50.8141 35.003C50.8141 34.1706 50.7489 33.3534 50.6233 32.5563H22.5194ZM49.1979 41.9254H22.5194V50.6026H35.2146C41.3438 50.6026 46.6474 47.0677 49.1979 41.9254Z" fill="white"/>
</svg>
