<svg width="70" height="71" viewBox="0 0 70 71" fill="none" xmlns="http://www.w3.org/2000/svg">
<path d="M34.3466 50.8667V34.8134L58.3332 21.28V36.96L34.3466 50.8667Z" fill="#BD967F"/>
<path d="M34.3466 54.6466L10.6399 40.04V21.98L34.3466 35.7466V54.6466Z" fill="#886B59"/>
<path d="M48.8599 63.56V57.12L37.7999 50.9133V56.8867L48.8599 63.56Z" fill="#29121A"/>
<path d="M48.86 63.56L58.7533 57.82V51.3334L48.86 57.12V63.56Z" fill="#3C1A26"/>
<path d="M42.3267 53.5266L52.22 47.7866L58.7533 51.3333L48.86 57.12L42.3267 53.5266Z" fill="#421D2A"/>
<path d="M34.3467 27.72L10.5 13.86L34.3467 0L58.24 13.86L34.3467 27.72Z" fill="#F2716A"/>
<path d="M37.5666 70V63.56L21.3733 54.6V60.5733L37.5666 70Z" fill="#29121A"/>
<path d="M37.5667 70L47.46 64.26V57.7733L37.5667 63.56V70Z" fill="#3C1A26"/>
<path d="M31.0333 59.9667L40.9267 54.2267L47.46 57.7734L37.5667 63.56L31.0333 59.9667Z" fill="#421D2A"/>
<path d="M28.0466 59.4533V55.3933L20.1133 57.2133V64.1666L28.0466 59.4533Z" fill="#BD967F"/>
<path d="M20.1133 64.1667L12.0399 59.5001V53.3867L20.1133 58.2867V64.1667Z" fill="#886B59"/>
<path d="M34.4399 63.28V55.4867L23.5666 47.9267L10.6399 40.04V48.7667L18.5266 51.1934L25.1999 57.8667L34.4399 63.28Z" fill="#9F4256"/>
<path d="M22.5866 56.2333L9.65991 48.9066V52.6866L22.5866 60.0133V56.2333Z" fill="#9F4256"/>
<path d="M22.5867 60.0133L30.4267 55.3V51.8467L22.5867 56.2333V60.0133Z" fill="#DA625C"/>
<path d="M22.5866 56.28L9.61328 48.9534L17.6399 44.3334L19.3666 45.4067L29.4466 52.4534L22.5866 56.28Z" fill="#D5545A"/>
<path d="M34.3932 55.9533V52.7333L32.8999 51.9866L22.5866 39.4333V31.8266L19.6466 30.1V37.6133L18.2466 42.84V46.34L34.3932 55.9533Z" fill="#898989"/>
<path d="M60.0599 37.9867L58.3799 36.96L34.3932 50.82L24.1732 38.4067V30.8L21.3732 29.2134L19.6932 30.1934L22.5399 31.7334V39.3867L32.8532 51.94L34.3932 52.7334L60.0599 37.9867Z" fill="white"/>
<path d="M34.4399 55.4866V63.28L58.3799 49.5133V42.0466L34.4399 55.4866Z" fill="#DA625C"/>
<path d="M34.3933 55.9067V52.7333L60.0133 38.0333V41.2533L55.1133 47.6467L54.5533 47.3667L51.94 51.0533L51.1 50.4467L48.02 55.2533L44.7533 53.8533L44.0533 55.6733L41.3466 54.7867L40.88 55.7667L35.9333 55.0667L34.3933 55.9067Z" fill="#D6D6D6"/>
<path d="M40.0399 44.6134L46.3866 40.9267V33.6934L40.0399 37.2867V44.6134Z" fill="white"/>
<path d="M49.4666 39.1066L55.8132 35.42V28.1866L49.4666 31.78V39.1066Z" fill="white"/>
<path d="M43.1666 42.84L46.34 40.9494V37.24L43.1666 39.0827V42.84Z" fill="#493239"/>
<path d="M52.5933 37.3333L55.7666 35.4427V31.7333L52.5933 33.576V37.3333Z" fill="#493239"/>
<path d="M34.3466 36.7267V27.2067L10.5933 13.8134V23.0534L34.3466 36.7267Z" fill="#A24741"/>
<path d="M58.2866 22.96L34.3466 36.7266V27.44L58.2866 13.72V22.96Z" fill="#DB5B54"/>
<path d="M47.5532 34.58L39.5732 30.1V33.6933L47.5532 38.3133V34.58Z" fill="#A24741"/>
<path d="M47.5066 34.6267V38.2667C52.3599 33.6747 58.0533 31.5 60.2933 30.9867V27.3467C55.7759 27.384 49.8866 32.2156 47.5066 34.6267Z" fill="#DB5B54"/>
<path d="M52.3132 22.6333L60.3865 27.3466C55.0105 28.504 49.6221 32.6822 47.5999 34.6266C45.1577 33.2111 40.1425 30.3146 39.6199 30.0533C43.4279 25.9466 49.6688 23.3955 52.3132 22.6333Z" fill="#F2716A"/>
</svg>
