<svg width="70" height="70" viewBox="0 0 70 70" fill="none" xmlns="http://www.w3.org/2000/svg">
<path d="M35 70C54.33 70 70 54.33 70 35C70 15.67 54.33 0 35 0C15.67 0 0 15.67 0 35C0 54.33 15.67 70 35 70Z" fill="#FF6B00"/>
<path d="M17.5999 48.5081C17.733 48.7494 17.8162 48.9262 17.8525 49.0042C18.6949 50.6258 19.7294 52.2594 21.1435 53.1856L21.2811 53.274C22.8812 54.2527 25.7456 55.1039 28.6933 55.576C28.8899 53.319 30.251 51.2777 31.6031 49.773C29.8371 50.3 28.0029 50.5686 26.1585 50.5703C23.1794 50.5742 20.2432 49.8668 17.5984 48.5081H17.5999ZM40.1496 39.9309C38.4708 39.3959 35.9527 36.8975 32.1279 37.8028C28.9761 38.5491 28.0278 40.7283 27.5257 41.5226C26.3506 40.3731 25.1014 39.5937 24.0654 39.4199C23.2789 39.2865 22.7617 39.5248 22.4668 39.7451C21.9299 40.1497 21.9163 40.1647 25.487 47.5219L25.785 48.1349C25.7895 48.1454 25.7971 48.1544 25.8046 48.1649L26.1253 48.8213C26.1253 48.8213 26.3309 49.5092 27.5166 49.184C27.5166 49.184 35.7349 48.4047 38.8595 42.7695C39.1272 42.2884 40.1632 39.9369 40.1496 39.9324V39.9309ZM7.653 30.0964C7.6772 29.6243 7.64695 28.5737 6.96487 28.0326C6.41588 30.0315 6.10025 32.0862 6.02416 34.1564C6.57467 34.2058 7.17811 34.4112 7.78458 34.8803C7.63334 33.9061 7.30818 32.2605 7.653 30.0964ZM38.5994 54.7787C37.2579 53.3399 37.0295 50.6468 37.9279 46.7426C37.9986 46.4369 38.0732 46.1322 38.1517 45.8284C36.8783 47.1832 34.7519 48.5081 33.4437 49.7625C31.9978 51.1488 30.1739 53.3714 30 55.7574C31.5426 55.9417 33.058 56.0286 34.3798 55.9327C36.9176 55.7469 38.1411 54.9825 38.5994 54.7787ZM54.0862 20.8673C54.724 21.6507 55.2577 22.512 55.6742 23.4301C56.5892 25.1386 59.5777 30.0064 63.525 29.0757C63.3102 27.7254 63.0062 26.3316 62.5949 24.9198C62.5646 24.8374 62.5374 24.7549 62.5056 24.671L62.5208 24.6665C62.1149 23.3189 61.6125 22.0017 61.0175 20.7249C58.7504 21.6646 56.0871 21.3618 54.0862 20.8688V20.8673ZM49.9695 10.8109C50.0701 10.9015 50.14 11.0206 50.1698 11.152C50.1995 11.2834 50.1877 11.4207 50.1359 11.5452C49.1573 13.8862 46.9296 15.8121 45.0255 17.116C46.7708 17.0905 49.0802 17.4307 51.7859 18.7331C52.6479 19.0958 57.1548 20.8583 60.4352 19.5514C60.4261 19.5334 60.4125 19.5124 60.4049 19.4914C60.3384 19.3655 60.2688 19.2412 60.1993 19.1168C59.0952 17.14 56.1582 12.6333 50.7665 9.24022C47.8987 7.51595 44.6956 6.41175 41.3671 6C41.6861 7.62289 41.5091 9.3032 40.8589 10.8259C45.8951 8.63474 48.5766 9.55196 49.9695 10.8109ZM39.9031 54.1882C42.3728 53.0507 44.3646 52.0286 45.9692 51.1129C45.8377 51.0589 45.7136 51.0034 45.6017 50.942C43.1532 49.6156 41.7845 45.0535 41.1689 41.0685C41.0819 41.2946 40.9891 41.5184 40.8907 41.7399C40.4642 42.822 39.711 44.8767 39.2134 47.0483C38.1457 51.6944 38.9488 53.5048 39.9031 54.1882ZM55.7271 31.2174C52.6525 32.9109 49.6232 33.7607 46.6725 33.7607C45.0125 33.761 43.3639 33.4891 41.7935 32.9559C42.3395 35.126 41.9418 37.3142 42.2624 39.2925C42.4136 39.3434 42.5649 39.3959 42.7176 39.4424C47.2532 40.9156 50.7756 41.1719 52.9035 40.1827C53.5145 39.8995 54.0076 39.5158 54.3962 39.0287C55.8874 37.1703 55.7967 33.2916 55.7271 31.2174Z" fill="white"/>
<path d="M48.6008 49.4717L48.6038 49.4762C51.7647 47.6283 53.6643 43.36 54.3312 40.8736C54.0568 41.0633 53.7663 41.2293 53.4631 41.3697C52.3742 41.8762 51.0887 42.0831 49.7124 42.0831C47.3712 42.0831 44.773 41.4836 42.4545 40.7417C43.0473 44.5814 44.3389 48.7643 46.2354 49.7925C46.9463 50.1761 47.7176 50.0712 48.6008 49.4717ZM41.4518 31.4362C41.9913 31.6522 42.5433 31.8364 43.1048 31.9877C47.0975 33.0428 51.3201 32.2905 55.6652 29.7441C55.6213 27.3672 55.1525 25.4803 54.4704 23.9861C54.2859 23.6369 54.186 23.4166 54.1739 23.3881H54.1755C53.4272 21.9619 52.3404 20.7372 51.0085 19.8196C48.0594 18.4468 45.6456 18.3269 44.0667 18.5008C48.5827 20.2603 49.3525 22.7946 49.3873 22.9175L49.4175 23.0224C49.4871 23.2622 49.3752 23.514 49.1498 23.6264L49.0515 23.6758C44.711 25.8535 40.6018 24.635 38.359 23.5934C39.0199 25.1401 39.8955 27.2083 40.2373 28.0086L40.2464 28.0041C40.3871 28.3234 40.5232 28.6561 40.6578 28.9993L40.6669 29.0188C40.9723 29.8101 41.2348 30.6171 41.4533 31.4362H41.4518ZM56.1703 50.3575C55.0088 48.6969 54.6277 46.281 54.5732 44.0569C54.2089 44.9121 53.8 45.748 53.3482 46.5612L53.3512 46.5642C53.2892 46.6991 53.2166 46.834 53.1349 46.9719C52.4589 48.2848 50.2826 52.8858 51.2929 55.8413C51.5606 56.6726 52.1502 57.3647 52.9323 57.7656C53.752 57.1661 56.134 55.2898 58.4555 52.144C57.5405 51.8142 56.7722 51.2192 56.1718 50.3575H56.1703ZM11.8605 43.8935C10.3602 41.9482 9.27733 40.2696 8.73136 38.5056C8.43191 37.533 7.42164 35.7075 6 35.4827C6.01966 38.3483 6.46733 41.1179 7.27948 43.7287C9.05955 43.4289 10.5795 43.5428 11.8605 43.8935Z" fill="white"/>
<path d="M50.0406 56.2579C49.351 54.2346 49.8622 51.7048 50.5548 49.6591C50.1858 49.9498 49.7775 50.2436 49.3419 50.5433L49.3464 50.5493C49.2738 50.5973 49.2043 50.6407 49.1332 50.6842C48.6243 51.0276 48.1069 51.3584 47.5815 51.6763L47.586 51.6838C47.2745 51.8727 40.136 56.3478 43.5434 62.7369C46.5193 61.8254 49.3271 60.4438 51.8585 58.6454C50.9984 58.0753 50.3578 57.234 50.0406 56.2579ZM63.705 30.3751C63.3072 30.4605 62.9095 30.507 62.5132 30.507C60.5517 30.507 58.6113 29.4654 56.8221 27.4346L56.807 27.4166C56.928 28.2664 56.9885 29.1581 56.9885 30.0873C57.0097 30.3616 57.0263 30.6374 57.0384 30.9101C57.1791 32.4688 57.725 35.9293 59.8439 37.7862C60.8799 38.693 62.1881 39.1051 63.7413 39.0227L63.7806 38.8174C63.9258 37.6544 63.9999 36.4719 63.9999 35.2729C64.0029 33.7937 63.9243 32.1361 63.705 30.3751Z" fill="white"/>
<path d="M58.9681 38.762C58.0048 37.9167 57.3212 36.8256 56.8402 35.7031C56.7041 36.7956 56.509 37.8447 56.2761 38.8459C56.1052 39.853 55.0828 46.5088 57.2561 49.6127C57.7749 50.3575 58.4297 50.8146 59.2434 51.0155C60.2502 49.5103 61.1048 47.9104 61.7948 46.239L61.8039 46.2435C62.6 44.3435 63.1861 42.3637 63.5522 40.3386C61.7555 40.3836 60.2159 39.856 58.9697 38.7634L58.9681 38.762ZM18.0279 51.8697C17.3655 50.9285 16.815 49.8974 16.3295 48.9113C15.5007 47.4785 12.9932 44.2008 7.70894 44.9846C8.78274 47.9371 10.3284 50.6648 12.2582 53.0822C13.8371 51.4336 16.0588 51.3676 18.0279 51.8682V51.8697ZM34.7534 57.2306C32.8251 57.3895 30.5641 57.2261 28.3741 56.8604C26.774 56.6926 22.3155 56.5277 19.197 59.3558C22.8534 61.7253 27.0058 63.2397 31.3399 63.7845C31.287 61.8602 32.1869 59.8729 33.979 57.992C34.2272 57.7284 34.4855 57.4745 34.7534 57.2306ZM20.5082 54.3381C19.7823 53.9065 15.475 51.5175 13.1475 54.0504C13.7933 54.8342 15.4569 56.6986 18.0869 58.5945C19.802 56.9369 21.8648 56.1216 23.7493 55.7469C21.8074 55.1849 20.543 54.3606 20.5082 54.3381ZM43.1789 54.0728C41.5531 54.8821 37.1732 56.3509 34.6657 59.185C33.5435 60.4559 32.5589 62.0805 32.6633 63.8774C33.548 63.9734 35.5731 64.1172 38.2167 63.8325L38.6054 63.7875L38.7642 63.768C39.9484 63.6167 41.1114 63.3934 42.2472 63.1026C40.4006 59.4158 41.5561 56.2834 43.1789 54.0728ZM17.4668 39.3165C17.5485 39.3809 17.6892 39.4723 18.1444 39.4723C18.6934 39.4723 19.6961 39.3375 21.6047 38.8579C23.965 38.2611 26.2716 37.4726 28.5012 36.5004C28.8082 36.3595 29.5901 35.9818 30.4975 35.5367C30.816 35.8845 31.0654 36.2887 31.2325 36.7282C36.3898 35.6102 38.3513 37.8297 40.511 38.6585C40.9526 36.5708 40.88 33.8372 40.3431 32.3909C35.3311 30.1728 32.1385 25.8685 30.9603 24.0476C29.7807 24.9543 28.0248 26.1652 26.957 28.3039C24.7868 32.6532 22.4955 36.5648 18.4045 37.8103C17.7043 38.0231 17.2491 38.1954 17.1901 38.6975C17.179 38.8155 17.1987 38.9344 17.2471 39.0427C17.2956 39.1511 17.3712 39.2453 17.4668 39.3165Z" fill="white"/>
<path d="M20.9349 30.0769C22.1296 29.2226 24.2863 27.6984 25.0425 27.0839C26.4127 25.9659 30.2088 22.9954 31.1661 22.2446C31.2795 22.1547 31.4474 22.1951 31.514 22.324C34.4722 28.154 39.8699 30.6973 39.8699 30.6973C39.6271 29.961 39.3485 29.2368 39.035 28.5272L39.0426 28.5257L37.9113 25.882L37.1945 24.2124C36.9278 23.5873 36.6586 22.9634 36.3869 22.3405L35.5263 20.3892C35.4976 20.3232 35.5717 20.2648 35.6322 20.3052L37.3775 21.5492C37.4289 21.5866 42.4636 25.0712 47.8643 22.7811C47.3168 21.9179 45.7016 20.1074 41.3838 19.0208L39.9122 18.6507C39.8064 18.6237 39.7927 18.4798 39.8926 18.4348L41.2658 17.7934C41.3233 17.7664 46.8314 15.1646 48.7067 11.4868C46.2415 9.81273 41.9388 11.6412 39.516 12.9286L36.7529 14.3973C36.6863 14.4333 36.6213 14.3523 36.6697 14.2954L38.7008 11.9289C38.787 11.827 40.7622 9.44854 40.0468 6.13488C38.7038 5.92956 34.1349 5.61333 30.0999 9.79625L29.2953 10.631C29.2792 10.6482 29.2584 10.6604 29.2354 10.6661C29.2124 10.6718 29.1883 10.6708 29.1659 10.6632C29.1435 10.6556 29.1238 10.6417 29.1092 10.6232C29.0945 10.6047 29.0857 10.5825 29.0836 10.5591L28.7463 7.24993C26.7303 8.1042 21.4022 11.0612 20.6142 18.6342C20.3359 21.3289 19.8958 23.6429 19.2939 25.6107L19.2894 25.6092L19.2107 25.8865C19.0118 26.5113 18.7832 27.1265 18.5256 27.7299C18.3341 28.144 18.1106 28.5428 17.8572 28.9229C17.414 29.5793 17.6121 30.0169 17.7951 30.1983C18.1536 30.561 19.92 30.8008 20.9349 30.0769ZM26.9133 17.6825C27.8086 17.113 28.7584 18.0542 28.1852 18.9414C28.1474 19.0014 28.0945 19.0538 28.0355 19.0913C27.1402 19.6608 26.1889 18.7166 26.7636 17.8294C26.8014 17.7709 26.8543 17.7215 26.9133 17.681V17.6825ZM22.1947 17.6825C23.09 17.113 24.0398 18.0542 23.4651 18.9414C23.4288 19.0014 23.3743 19.0538 23.3153 19.0913C22.42 19.6608 21.4702 18.7166 22.0449 17.8294C22.0827 17.7709 22.1342 17.7215 22.1932 17.681L22.1947 17.6825Z" fill="white"/>
</svg>
