<svg width="70" height="70" viewBox="0 0 70 70" fill="none" xmlns="http://www.w3.org/2000/svg">
<path d="M59.6392 59.9399C56.3788 63.201 52.4967 65.7717 48.224 67.4989C43.9513 69.2261 39.3754 70.0744 34.7686 69.9935C30.1907 70.0836 25.6425 69.2378 21.4019 67.5078C17.1612 65.7777 13.3173 63.1997 10.1048 59.9313C6.81669 56.7242 4.22329 52.8731 2.48623 48.6179C0.749174 44.3627 -0.0943081 39.7947 0.00836463 35.1986C0.00836463 25.1422 3.37958 16.7627 10.122 10.0604C13.3365 6.79283 17.1823 4.21609 21.4244 2.48752C25.6665 0.758947 30.2158 -0.0851533 34.7945 0.00677779C39.4003 -0.0713788 43.9748 0.779138 48.2459 2.50775C52.517 4.23635 56.3975 6.80774 59.6565 10.069C66.5482 16.7771 69.9941 25.1594 69.9941 35.2159C70.0812 39.832 69.2051 44.4155 67.4221 48.6729C65.639 52.9303 62.9881 56.7679 59.6392 59.9399Z" fill="white"/>
<g clip-path="url(#clip0_1133_592)">
<path d="M21.3266 38.7519L22.8082 27.3463L9.95703 18.2056L21.699 22.2808L24.472 17.9215L34.5977 11.484L56.9168 24.0829L58.0736 43.306L48.1302 57.4636L40.2706 58.6975L44.3351 51.0748V43.7363L41.3798 38.0051L38.3769 35.9675L33.7578 40.8463V46.0093L30.1528 49.4675L25.5733 50.0357L23.545 51.2128L20.2174 50.125L18.8308 45.0108L21.3266 41.4146V38.7519Z" fill="white"/>
<path d="M41.8471 18.1082C39.3989 17.5887 36.7209 17.7267 36.7209 17.7267C36.7209 17.7267 35.8415 21.8911 30.3904 22.9871C30.43 22.9871 37.5924 25.4955 41.8471 18.1082Z" fill="#94A6C3"/>
<path d="M44.0656 55.8971C47.0209 53.5267 49.2394 50.2633 50.2614 46.5697C50.309 46.4317 50.721 46.1882 50.9983 46.0014C51.4578 45.7173 51.9253 45.4819 52.0124 45.1004C52.1947 44.0126 52.2897 42.8761 52.2897 41.7396C52.2897 41.3174 51.8698 40.8872 51.4578 40.4651C51.133 40.1809 50.8081 39.8481 50.8081 39.6127C50.3486 35.3021 48.4075 31.2756 45.3095 28.3451L44.9847 28.6779C47.9875 31.5679 49.9287 35.4969 50.3486 39.6614C50.3961 40.0429 50.7606 40.4164 51.133 40.7979C51.4578 41.082 51.8302 41.5123 51.8302 41.699C51.8302 42.7868 51.7351 43.8746 51.5529 44.9624C51.5054 45.1491 51.0934 45.3439 50.7685 45.5306C50.309 45.766 49.8891 46.0014 49.8019 46.383C48.6927 50.4094 46.1494 53.9164 42.7742 56.1894C43.3763 54.8661 45.2699 50.5556 46.2841 48.3719L46.1018 41.3661L40.2309 35.5456L36.9032 36.0165L33.2507 42.0805C33.2507 42.0805 34.9621 44.3048 32.5535 46.9106C30.2003 49.4678 28.3463 50.036 28.3463 50.036L26.635 49.0862C27.142 48.4206 28.1641 47.4302 28.9485 46.7645C30.2875 45.628 31.6265 45.5306 31.6265 44.3048C31.6819 41.7396 28.996 42.4458 28.996 42.4458L28.0215 43.3956L27.6095 46.9025L25.5812 49.5084L25.3514 49.4596L22.0238 48.7047C22.0238 48.7047 24.06 47.6169 24.3848 46.383C24.7097 45.1978 23.7351 41.2687 23.6876 41.0333C23.7351 41.082 24.6621 41.8857 25.0741 43.2089C25.811 41.1226 26.7855 39.1337 27.0628 38.947C27.3401 38.7603 31.0798 36.7227 31.0798 36.7227L29.8359 40.0835L30.7629 39.564L32.9813 33.9789C32.9813 33.9789 35.1522 32.8911 36.7685 32.8911C39.6763 32.8424 43.9785 29.1975 42.0373 22.6626C42.592 22.898 52.2026 27.8256 53.8664 37.4858C55.1103 44.9136 50.9983 51.8707 44.0656 55.8971Z" fill="#94A6C3"/>
<path d="M33.0686 19.1475C34.1303 17.8648 33.7183 15.9734 33.7183 15.9734L30.6204 20.6655C30.5728 20.6655 31.7217 20.7142 33.0686 19.1475Z" fill="#1B314F"/>
<path d="M22.6656 44.7674L23.0379 42.876C23.0379 42.876 21.5088 45.6198 21.3741 46.0013C21.2315 46.4316 21.4692 47.1866 22.0634 47.1378C22.6656 47.0891 23.4024 46.1881 23.4024 45.5305C23.4024 44.6781 22.6656 44.7674 22.6656 44.7674Z" fill="#1B314F"/>
<path d="M50.1191 14.65C50.1191 14.65 52.4326 14.7474 54.8333 15.0315C49.4218 10.6722 44.2956 9.39774 40.136 9.39774C34.4077 9.39774 30.5254 11.8169 30.2877 11.9549L32.0942 9.0162C32.0942 9.0162 24.8842 8.30183 22.3409 16.1193C21.6912 14.4633 21.097 12.0442 21.097 12.0442C21.097 12.0442 17.3494 15.4131 19.1083 20.9981C14.8061 19.3908 8.66575 17.1584 8.42805 17.1178C8.10321 17.0691 8.00813 17.2152 8.00813 17.2152C8.00813 17.2152 7.91306 17.3532 8.19036 17.5968C8.70536 18.0108 18.4111 25.3574 20.5424 26.7781C20.0828 28.4828 20.0828 29.2865 20.5424 30.0901C21.1921 31.1779 21.2317 31.7462 21.1445 32.5499C21.0494 33.3535 20.2175 40.3186 20.0353 41.171C19.8531 42.0234 17.9119 45.0513 17.9991 45.9524C18.0942 46.8535 19.2905 50.6851 20.3601 51.1154C21.1445 51.3995 23.0857 52.0165 24.3771 52.0165C24.8367 52.0165 25.2566 51.919 25.4388 51.7323C26.2232 51.0261 26.453 50.88 27.0076 50.88C27.0551 50.88 27.1026 50.88 27.1423 50.88C27.372 50.88 27.6493 50.9287 27.9742 50.9287C28.711 50.9287 29.6856 50.7825 30.3749 50.125C31.389 49.0859 33.1479 47.6653 33.7025 46.9996C34.3998 46.0985 34.7642 44.8727 34.582 43.6388C34.4394 42.5023 35.0415 41.5038 35.7388 40.5135C36.6182 39.3283 38.2345 37.2014 38.2345 37.2014C41.4275 39.653 43.4162 43.3953 43.4162 47.5598C43.4162 54.947 37.1332 60.9136 29.3686 60.9136C28.1643 60.9136 27.0155 60.7756 25.8587 60.4915C29.4162 61.766 32.419 62.1962 34.8751 62.1962C40.0964 62.1962 42.8695 60.2561 42.8695 60.2561C42.8695 60.2561 41.9029 61.5387 40.3262 62.9999C40.3737 62.9999 40.3737 62.9999 40.3737 62.9999C49.0178 61.766 53.2249 54.4762 53.2249 54.4762C53.2249 54.4762 52.9 56.8466 52.488 58.4539C63.9844 49.5973 62.0432 38.5165 61.9957 38.143C62.0908 38.2811 63.2475 39.7017 63.8417 40.4648C65.6957 20.9494 50.1191 14.65 50.1191 14.65ZM32.419 45.8144C32.2368 46.0498 31.4524 46.7642 30.8978 47.2837C30.3432 47.8033 29.741 48.3228 29.2815 48.8018C29.0992 48.9885 28.7269 49.0859 28.1723 49.0859C27.99 49.0859 27.7999 49.0859 27.6652 49.0859C27.5701 49.0859 27.4829 49.0859 27.3879 49.0859C27.2928 49.0859 27.2453 49.0859 27.2056 49.0859C27.063 49.0859 26.9283 49.0859 26.7857 49.0859C27.4829 48.1361 29.5112 45.9605 30.2085 45.4897C31.0404 44.9215 31.4603 44.3532 30.9453 43.3628C30.4382 42.3643 29.0992 42.6079 29.0992 42.6079C29.0992 42.6079 29.8836 42.275 30.5809 42.275C29.7014 42.0396 28.5922 42.275 28.0851 42.7946C27.5305 43.3141 27.6256 45.165 27.3958 46.3421C27.166 47.576 26.3816 48.1929 25.1773 49.3294C24.5277 49.9464 24.0681 50.1331 23.6957 50.1331C22.9114 49.9951 21.9844 49.7516 21.3347 49.5162C20.8751 48.8992 20.1779 46.8616 19.9957 46.0092C20.1304 45.5384 20.685 44.5399 20.9623 43.9717C21.5169 42.8839 21.8417 42.2669 21.9368 41.6987C22.1191 40.895 22.7212 35.9188 22.951 33.8406C23.5531 34.6443 24.385 35.9756 24.1949 36.828C25.5339 34.8878 24.5673 32.9882 24.0998 32.2333C23.6878 31.4783 23.1332 29.9603 23.5927 28.3529C24.0523 26.7456 25.7161 22.2889 25.7161 22.2889C25.7161 22.2889 26.2707 23.2874 27.0551 23.0926C27.8395 22.9058 34.17 13.1482 34.17 13.1482C34.17 13.1482 35.8814 16.9798 34.0749 19.7805C32.2288 22.573 30.4224 23.0926 30.4224 23.0926C30.4224 23.0926 32.9657 23.5634 35.3188 21.8099C36.2854 24.1316 37.2124 26.5426 37.26 26.8755C37.1174 27.2083 35.2713 31.7543 35.0891 32.0384C34.994 32.1358 34.3522 32.3226 33.8848 32.42C33.1004 32.6554 32.6408 32.8015 32.4507 32.9395C32.1258 33.2236 30.6442 37.3881 29.9549 39.4257C29.123 39.6611 28.2911 40.14 27.6889 41.0817C28.0138 40.8463 29.0279 40.7002 29.7727 40.6109C30.4224 40.5622 32.4032 41.65 32.9182 43.6875C32.9182 43.7362 32.9182 43.7362 32.9182 43.785C33.0211 44.5318 32.7914 45.2462 32.419 45.8144ZM28.0772 46.3827C28.4971 45.7657 28.4496 44.7266 28.4971 44.3938C28.5446 44.061 28.6318 43.444 29.0042 43.3547C29.3766 43.2573 30.256 43.4034 30.256 44.061C30.256 44.6779 29.6063 44.8159 29.1468 45.2462C28.814 45.5709 28.1643 46.2853 28.0772 46.3827ZM46.5141 37.3313C46.9736 34.9203 47.0211 32.834 46.8865 31.1292C48.685 33.5889 49.7942 36.5763 50.1191 39.653C50.1666 40.0345 50.5311 40.4079 50.9034 40.7895C51.2283 41.0736 51.6007 41.4551 51.6007 41.6906C51.6007 42.7783 51.5056 43.8661 51.3234 44.962C51.2758 45.1 50.8638 45.3436 50.539 45.5303C50.0794 45.7657 49.6595 46.0011 49.5724 46.3827C48.5582 50.0276 46.3794 53.2504 43.4716 55.5234C47.7659 50.9287 49.8417 43.3466 46.5141 37.3313ZM43.6063 55.9455C46.6092 53.5751 48.9227 50.263 49.9368 46.5207C49.9844 46.3827 50.3964 46.1391 50.6737 45.9524C51.1332 45.717 51.6007 45.4329 51.6878 45.0513C51.87 43.9635 51.9651 42.8271 51.9651 41.6906C51.9651 41.2684 51.5452 40.8382 51.1332 40.416C50.9034 40.1319 50.5311 39.7991 50.5311 39.5637C50.1587 36.1055 48.8197 32.8421 46.7438 30.1388C45.8168 24.4564 42.1247 22.7029 42.0296 22.6542C42.1247 22.8003 44.5254 26.3478 42.8616 30.5123C41.1502 34.7254 36.7608 34.0679 36.3884 34.1085C36.0161 34.1085 34.5899 35.9999 32.7835 39.5068C32.5537 39.4094 31.5792 39.174 30.4699 39.3688C31.3019 36.9984 32.5537 33.6376 32.7835 33.3535C32.8785 33.2561 33.5678 33.0694 34.0353 32.9314C34.9148 32.696 35.3268 32.5499 35.4694 32.3631C35.5644 32.217 36.024 31.1292 36.4835 29.9927C36.9034 29.9927 37.9651 29.8953 38.0523 29.8466C38.1474 29.7492 39.0268 27.4356 39.0268 27.1515C39.0268 26.9161 37.2204 22.3214 36.5311 20.5679C36.8559 20.1864 37.1807 19.7155 37.4977 19.196C46.9736 20.2432 54.3737 28.4828 54.3737 38.4678C54.3737 46.1391 49.9844 52.8201 43.6063 55.9455Z" fill="#1B314F"/>
<path d="M31.3097 30.3745C32.1891 29.3354 31.7296 27.3952 30.1054 27.0624C30.5253 26.072 31.1195 24.0831 31.1195 24.0831C31.1195 24.0831 26.4053 31.6571 25.9933 31.8032C25.5734 31.9493 25.1614 30.2852 25.1614 30.2852C24.2819 33.7434 26.643 34.2142 26.9203 33.1264C28.2118 32.7855 30.4302 31.3648 31.3097 30.3745Z" fill="#1B314F"/>
<path d="M27.2848 32.2169L29.6854 28.0038C29.6854 28.0038 31.072 28.7182 30.3747 29.8546C29.5032 31.1779 27.2848 32.2169 27.2848 32.2169Z" fill="#FFD923"/>
<path d="M57.004 51.7322C56.3068 52.682 55.5224 53.6724 54.6033 54.6222C60.5614 42.8756 54.8806 32.1276 54.6509 31.7054C55.0708 32.1357 55.4828 32.6065 55.8552 33.0287C60.4267 38.2322 60.9814 46.0497 57.004 51.7322Z" fill="#D82122"/>
<path d="M62.55 36.625C60.4663 30.8938 57.511 26.015 50.9983 21.6151C44.7153 17.3532 37.9649 17.6861 37.5925 17.7348C37.5449 17.7348 37.4974 17.7348 37.4974 17.7348C37.7272 17.6374 37.9569 17.5887 38.1867 17.5481C39.6208 17.0772 41.4668 16.6957 43.3208 16.4603C48.2252 15.7378 53.1692 17.4425 56.5444 21.0956C56.5919 21.1443 56.5919 21.1443 56.6395 21.193C60.4742 25.3574 62.4629 30.561 62.55 36.625Z" fill="#D82122"/>
<path d="M49.5168 13.1807C42.6317 11.8574 38.1948 12.515 35.0018 13.7489C34.9067 13.3674 34.5819 12.6124 34.3046 11.9954C33.3459 13.1807 32.3238 14.6013 31.682 15.5024C29.9231 16.7363 29.1863 17.9215 29.1863 17.9215C30.2004 14.3659 33.1636 11.7194 36.7686 11.0538C37.7828 10.8671 38.892 10.7697 40.0963 10.7697C43.2814 10.8184 46.4664 11.622 49.5168 13.1807Z" fill="#D82122"/>
<path d="M24.0522 22.2727C18.6487 22.086 20.4472 15.6404 20.5423 15.267C20.5423 15.3157 20.9067 20.3325 24.0522 22.2727Z" fill="#D82122"/>
<path d="M29.3684 10.6722C25.2088 13.2294 26.0408 19.334 26.0408 19.334C22.0634 13.1401 29.0436 10.8184 29.3684 10.6722Z" fill="#D82122"/>
<path d="M22.5308 23.9775C22.8081 24.213 23.0854 24.6432 22.7606 25.2602C22.5783 25.593 22.301 25.5443 21.8811 25.3576C21.3265 25.0735 17.9988 23.0846 14.996 21.047C18.4188 22.2809 21.8811 23.6041 22.4357 23.8882C22.4357 23.8882 22.4833 23.937 22.5308 23.9775Z" fill="white"/>
</g>
<defs>
<clipPath id="clip0_1133_592">
<rect width="56" height="54" fill="white" transform="translate(8 9)"/>
</clipPath>
</defs>
</svg>
