<svg width="70" height="70" viewBox="0 0 70 70" fill="none" xmlns="http://www.w3.org/2000/svg">
<path d="M35 70C54.33 70 70 54.33 70 35C70 15.67 54.33 0 35 0C15.67 0 0 15.67 0 35C0 54.33 15.67 70 35 70Z" fill="#0F0E1A"/>
<path d="M44.4722 45.9643C13.1736 61.6376 6.47388 55.4566 3.33942 51.3161C1.22751 48.5263 4.67668 43.7237 15.4183 37.3954C15.9411 37.0874 17.6577 37.7595 18.2153 37.4443C18.7481 37.1432 18.1204 35.8549 18.6853 35.5473C20.8314 34.3785 23.2104 33.1636 25.8318 31.9051C26.4028 31.631 27.7264 32.7358 28.3205 32.4576C28.7832 32.2409 28.5118 30.642 28.9886 30.4229C29.4603 30.2061 29.9389 29.9881 30.4245 29.7689C32.6573 28.7612 34.7615 27.9418 36.7385 27.2853C37.3645 27.0774 38.4823 28.5058 39.0829 28.3297C39.5545 28.1915 39.5138 26.4428 39.9698 26.3233C51.8391 23.2127 58.4193 26.3205 60.1333 28.7317C60.6546 31.1682 58.2522 38.026 44.4722 45.9643Z" fill="#D6A95F"/>
<path d="M3.33934 51.316C6.47379 55.4565 13.1735 61.6375 44.4721 45.9642C56.7478 38.8925 59.9944 32.6783 60.1884 29.6833C47.4122 47.4654 21.9108 51.6314 11.5559 52.3864C6.15584 52.7801 3.95945 50.427 3.26846 47.9072C2.60225 49.2491 2.63854 50.3903 3.33934 51.316Z" fill="#AA7D3B"/>
<path d="M39.9208 26.4269C39.0951 27.935 37.4945 27.4514 36.7974 27.0211L36.7974 27.0212C41.3382 33.1084 41.3382 33.1085 48.5811 36.8752C42.5749 33.2266 41.7323 29.7739 39.9208 26.4269Z" fill="white"/>
<path d="M29.0312 30.7176C28.2056 32.2256 26.605 31.7421 25.9079 31.3118L25.9079 31.3118C30.4487 37.3991 30.4487 37.3991 37.6916 41.1658C31.6854 37.5173 30.8428 34.0645 29.0312 30.7176Z" fill="white"/>
<path d="M18.5695 35.8268C17.9528 37.4381 16.303 37.1871 15.5552 36.8603C18.7616 39.8777 22.0265 43.0659 26.3234 44.3692C21.3308 41.6901 20.81 38.8837 18.5695 35.8268Z" fill="white"/>
<path d="M43.2299 51.5671C12.4825 34.7684 13.3355 25.5275 14.7082 20.4649C15.633 17.0539 21.4192 17.0846 32.7118 22.288C33.2614 22.5413 33.7535 24.3694 34.3294 24.6474C34.8796 24.913 35.5124 23.6274 36.0866 23.9159C38.2683 25.0122 40.6238 26.275 43.1567 27.7141C43.7085 28.0276 43.6306 29.7844 44.1992 30.1147C44.642 30.3719 45.728 29.1993 46.1811 29.4668C46.6293 29.7315 47.0826 30.0012 47.5409 30.276C49.6483 31.5398 51.5327 32.8078 53.2149 34.0663C53.7476 34.4648 53.2957 36.2417 53.7884 36.6379C54.1754 36.949 55.5146 35.8799 55.8778 36.1891C65.3291 44.2368 66.8014 51.5588 65.9362 54.4142C64.3451 56.2909 57.5763 58.3489 43.2299 51.5671Z" fill="#EABF78"/>
<path d="M14.7084 20.4648C13.3357 25.5273 12.4827 34.7682 43.2301 51.567C56.0103 57.6084 62.7771 56.6347 65.227 55.0234C43.8001 54.9052 25.4561 36.1245 18.7377 27.9441C15.2341 23.6781 15.7686 20.4552 17.3241 18.3878C15.8835 18.6271 15.0153 19.3329 14.7084 20.4648Z" fill="#CC984C"/>
<path d="M55.7681 36.2097C54.1036 36.4145 53.5331 34.7947 53.4559 33.9592L53.4559 33.9592C51.3979 41.3459 51.3979 41.3459 52.7487 49.6101C52.0379 42.4462 54.231 39.7003 55.7681 36.2097Z" fill="white"/>
<path d="M45.9767 29.6767C44.3122 29.8815 43.7417 28.2617 43.6645 27.4262L43.6645 27.4262C41.6065 34.8129 41.6065 34.8129 42.9573 43.0772C42.2465 35.9132 44.4396 33.1673 45.9767 29.6767Z" fill="white"/>
<path d="M35.8001 23.9849C34.1788 24.4249 33.3978 22.9018 33.2099 22.0853C32.7555 26.5429 32.2025 31.1505 33.73 35.502C32.8633 29.7564 34.743 27.6612 35.8001 23.9849Z" fill="white"/>
</svg>
