<svg width="70" height="70" viewBox="0 0 70 70" fill="none" xmlns="http://www.w3.org/2000/svg">
<path d="M35 70C54.33 70 70 54.33 70 35C70 15.67 54.33 0 35 0C15.67 0 0 15.67 0 35C0 54.33 15.67 70 35 70Z" fill="#E7BE30"/>
<path d="M29.6851 10.2869C27.481 10.7519 26.1723 11.2168 23.8305 12.3705C21.2647 13.6448 19.3361 15.0912 17.0976 17.4158C12.7066 21.9618 10.468 27.1966 10.0375 33.8089C9.60705 40.8345 12.9132 48.8245 18.1996 53.491C20.1282 55.1957 23.796 57.6581 24.0371 57.4171C24.0715 57.3826 23.4861 56.5044 22.7284 55.4885C20.3865 52.3373 18.6474 48.3423 17.9414 44.5712C17.5797 42.5565 17.5281 37.7006 17.8725 35.7892C18.2169 33.7573 18.9229 31.1916 19.56 29.5901C21.1786 25.5952 24.261 21.8585 27.5327 19.9644C31.4588 17.6741 35.8842 17.2953 40.6713 18.8279L42.0316 19.2584L43.8569 18.8106C44.141 18.7439 44.4047 18.6818 44.6494 18.6242C46.9084 18.0926 47.5404 17.9438 47.5623 18.0069C47.5709 18.0314 47.4873 18.0879 47.3713 18.1663C47.3596 18.1742 47.3476 18.1824 47.3353 18.1907C45.2861 19.6027 44.339 20.6015 43.5642 22.2373C41.5839 26.3873 43.3059 31.5015 47.3697 33.5679C50.8825 35.3415 54.7741 34.7216 57.8392 31.8803C59.0618 30.7438 59.7334 29.8484 59.7334 29.3318C59.7334 29.1252 59.5268 29.2285 58.9241 29.7623C54.7914 33.3957 48.4718 31.5359 46.8187 26.1979C46.4743 25.0441 46.3882 23.7527 46.6465 23.1328C46.767 22.8228 46.7842 22.84 46.8876 23.305C47.2492 24.9753 47.5591 25.6468 48.2651 26.3873C49.5049 27.6615 50.2454 27.9543 52.1568 27.9543C53.9993 27.9543 54.6708 27.696 55.9795 26.525C60.8699 22.1168 51.5024 13.0937 39.3281 10.4763C36.8313 9.92531 31.8548 9.83921 29.6851 10.2869Z" fill="black"/>
<path d="M36.5558 20.4637C35.2815 20.9975 35.3676 22.9089 36.6935 23.3738C37.7611 23.7527 38.9837 22.7023 38.7599 21.583C38.6049 20.722 37.3823 20.1021 36.5558 20.4637Z" fill="black"/>
<path d="M50.0732 49.3583C53.2072 47.3953 56.7544 43.9858 58.7863 40.9896C59.4407 40.008 60.0089 39.2848 60.0434 39.3881C60.1467 39.6981 58.8552 44.0891 58.2353 45.4667C55.0152 52.8022 49.2811 57.7098 41.6873 59.5868C39.4831 60.1378 35.6087 60.1378 33.5596 59.5868C28.1698 58.1231 24.4332 54.6103 22.7457 49.3927C22.2979 48.0496 21.6436 45.2428 21.7469 45.1395C21.7814 45.105 22.1946 45.6044 22.6768 46.2588C23.8994 47.8946 26.1551 50.0126 27.7049 50.9769C29.2547 51.9412 31.08 52.6817 32.9569 53.1122C34.6616 53.5082 38.7427 53.5599 40.5335 53.1983C43.3748 52.6472 47.4903 50.9942 50.0732 49.3583Z" fill="black"/>
</svg>
