<svg width="70" height="70" viewBox="0 0 70 70" fill="none" xmlns="http://www.w3.org/2000/svg">
<path d="M35 70C54.33 70 70 54.33 70 35C70 15.67 54.33 0 35 0C15.67 0 0 15.67 0 35C0 54.33 15.67 70 35 70Z" fill="#323532"/>
<path fill-rule="evenodd" clip-rule="evenodd" d="M35 68C53.2254 68 68 53.2254 68 35C68 16.7746 53.2254 2 35 2C16.7746 2 2 16.7746 2 35C2 53.2254 16.7746 68 35 68ZM70 35C70 54.33 54.33 70 35 70C15.67 70 0 54.33 0 35C0 15.67 15.67 0 35 0C54.33 0 70 15.67 70 35Z" fill="#D7AF74"/>
<path fill-rule="evenodd" clip-rule="evenodd" d="M22.7977 61.9557C24.8964 60.7996 29.0731 57.8754 29.0731 55.3777C29.0731 53.3216 27.4707 50.9097 26.0982 48.8438C25.3831 47.7676 24.7304 46.7852 24.3992 45.9959C23.4322 43.6916 21.4981 39.083 22.9486 34.8036C22.0461 35.1987 20.9609 35.9558 20.5311 36.285C20.2087 33.8161 21.4659 27.9237 29.0731 24.1051C28.7541 25.7343 28.4054 26.9805 28.1102 28.0357C27.2123 31.2448 26.8085 32.6879 29.2343 37.7663C30.8444 41.137 33.9422 43.5632 36.6198 45.6603C39.3029 47.7616 41.564 49.5325 41.4833 51.592C42.4503 49.4523 42.7727 46.3251 41.8056 43.8562C42.0298 44.0215 42.2558 44.1858 42.4821 44.3503C45.1846 46.3148 47.9177 48.3016 47.769 52.2504C47.64 55.6739 48.0376 59.1633 48.2525 60.48C49.3807 59.1633 51.895 56.3652 52.9265 55.7068C54.2158 54.8839 56.9557 52.5796 57.1169 50.7691C57.1836 50.0193 56.8634 48.8179 56.5225 47.5389C56.0402 45.7295 55.5166 43.7648 55.9887 42.7041C54.2158 42.5395 51.7983 46.8189 51.7983 48.794C50.8312 44.8438 43.4174 36.1204 37.454 34.8036C37.7764 35.6266 38.0987 38.9184 37.7764 40.0706C36.6482 37.7663 35.0365 35.7912 32.7801 33.8161C30.5237 31.841 28.912 29.2075 30.2013 25.5865C30.268 25.753 30.3324 25.9146 30.3948 26.0715L30.3959 26.0743L30.3971 26.0774C31.6902 29.3275 32.1694 30.5319 36.1647 30.6888C35.6489 29.5038 34.4455 27.8908 33.9083 27.2324C36.6482 28.5491 37.7764 27.8908 38.9046 27.2324C39.0029 27.175 39.1147 27.1064 39.2388 27.0302C40.5385 26.2323 43.1867 24.6065 45.8349 26.4094C42.7727 27.2324 40.8386 28.22 40.9998 30.6888C41.161 33.1577 44.5456 34.4745 47.4466 34.1453C50.3477 33.8161 52.9265 33.3223 53.5711 32.0056C54.0869 30.9522 53.786 29.811 53.5711 29.3721C52.7653 28.4943 50.7023 26.6728 48.8972 26.4094C50.7041 25.6918 53.1989 25.932 54.9015 26.0959C55.9325 26.1952 56.673 26.2665 56.7946 26.0803C57.1169 25.5865 55.8275 23.6114 53.2488 22.13C51.1858 20.945 51.0998 20.539 51.3147 20.4841C51.9594 20.923 53.3133 21.6692 53.5711 21.1425C53.8935 20.4841 52.9265 18.3444 46.802 15.2172C46.0283 15.0855 45.8349 16.0401 45.8349 16.5339C44.7604 15.3818 41.3221 13.1762 36.1647 13.5713C37.454 13.9663 37.9913 14.6137 38.0987 14.888C37.078 15.0526 35.0042 15.678 34.8753 16.8631C31.6519 15.9414 27.5151 15.3818 25.8497 15.2172C25.5274 16.479 25.1728 19.4966 26.3332 21.4717C24.786 19.7599 24.2917 18.3444 24.238 17.8506C22.1965 19.2771 17.9201 22.6896 17.1465 24.9281C18.8227 24.9281 20.3162 25.367 20.8534 25.5865C17.7912 27.6713 12.3113 34.6061 14.8901 45.6667C15.9216 44.745 17.1465 43.0881 17.63 42.3749C17.5225 43.5819 17.6945 46.6213 19.2417 49.1231C19.4628 49.4807 19.686 49.8253 19.9072 50.1668C21.6068 52.7907 23.1891 55.2336 22.7977 61.9557ZM27.7581 17.686C28.8326 18.3993 31.3039 19.727 32.5932 19.332C30.6592 21.3071 29.6921 22.7884 29.6921 23.6114C28.0804 21.6363 27.7581 18.6736 27.7581 17.686ZM38.3954 22.2946C39.3624 20.1549 41.6188 20.4841 42.9082 20.8133C44.1975 21.1425 46.2928 21.1424 46.6151 20.8133C46.3704 21.0632 46.1463 21.2709 45.9533 21.4499C45.3837 21.978 45.085 22.255 45.3257 22.6238C45.6481 23.1176 45.9704 24.2697 45.6481 24.4343C45.4427 24.1827 45.3002 23.9738 45.1831 23.8022C44.8406 23.3004 44.7159 23.1176 43.8752 23.1176C43.688 23.1176 43.4963 23.1221 43.3039 23.1267C42.3369 23.1495 41.3506 23.1729 40.8129 22.6238C40.2972 22.0971 40.1683 21.746 40.1683 21.6363C39.7922 21.6362 38.9111 21.7679 38.3954 22.2946Z" fill="url(#paint0_linear_1133_17755)"/>
<path d="M37.7764 54.3901C38.2062 53.5671 39.0013 51.6249 38.7434 50.4399C40.3551 51.9212 41.9668 57.0236 40.0328 59.4925C38.0987 61.9613 34.0694 64.4302 34.2306 63.9364C34.2424 63.9004 34.261 63.8478 34.2849 63.7802C34.5889 62.9204 35.7482 59.6414 34.5529 57.3528C34.0828 56.4525 33.1197 55.1802 32.0623 53.7833C30.2199 51.3492 28.091 48.5366 27.7838 46.6543C27.3003 43.6916 27.4614 42.2103 27.7838 41.2227C29.0731 43.6916 30.6931 45.6822 32.4577 47.3126C35.8423 50.4399 38.2599 52.7442 37.7764 54.3901Z" fill="url(#paint1_linear_1133_17755)"/>
<path d="M57.5747 31.5118C58.4773 29.9317 57.7359 27.4518 57.2524 26.4094C56.9838 26.7935 56.2209 27.792 55.3184 28.7137C54.1902 29.8659 54.1902 32.0056 54.8348 32.4993C55.4795 32.9931 56.4465 33.4869 57.5747 31.5118Z" fill="url(#paint2_linear_1133_17755)"/>
<path d="M44.5199 34.9682C45.1646 35.462 46.9374 36.3508 48.8715 35.9558C50.0307 35.719 50.8194 35.2173 51.5395 34.7593C52.3213 34.262 53.0223 33.8161 54.029 33.8161C55.963 33.8161 56.7689 35.7912 56.7689 36.9433C56.7689 38.0955 56.2854 40.4327 55.1572 40.8935C54.3956 41.2046 54.2458 40.9645 54.0446 40.6419C53.82 40.2819 53.5313 39.8192 52.2561 39.906C51.5465 39.9543 51.1786 40.3483 50.8569 40.6928C50.594 40.9743 50.362 41.2227 49.9997 41.2227C49.1938 41.2227 44.5199 38.2601 44.5199 34.9682Z" fill="url(#paint3_linear_1133_17755)"/>
<path d="M12.7692 27.5616C14.0585 23.348 20.183 17.6861 23.0841 15.3818H16.6373C9.93257 19.8587 6.75213 28.0005 6 31.5118L8.7399 31.018C8.57873 33.9258 8.35309 40.1364 8.7399 41.7165C8.86884 39.2147 13.6288 31.018 15.9926 27.2324C15.724 27.2873 14.7032 27.4299 12.7692 27.5616Z" fill="url(#paint4_linear_1133_17755)"/>
<path d="M25.6629 13.4067C22.3105 12.7483 17.8192 13.2421 15.9926 13.5713C18.5713 9.45357 25.3405 9.00261 28.4028 9.29184C28.0267 8.68834 27.2746 7.18508 27.2746 6C28.0804 7.15214 31.9485 7.81053 35.3331 7.48135C38.7177 7.15216 45.0034 6.65838 46.4539 8.79808C47.9045 10.9378 46.4539 14.065 44.3587 14.5588C45.3902 9.81854 40.0608 9.62103 37.2672 10.1148C37.8581 10.1697 39.4269 10.7732 40.9741 12.7483C38.7177 11.9253 34.0438 11.267 30.3368 11.9253C31.8841 12.3204 33.7751 14.1748 34.5273 15.0526C32.9693 14.7783 29.0152 14.065 25.6629 13.4067Z" fill="url(#paint5_linear_1133_17755)"/>
<defs>
<linearGradient id="paint0_linear_1133_17755" x1="47.3214" y1="23.7742" x2="15.5452" y2="51.6049" gradientUnits="userSpaceOnUse">
<stop stop-color="#C79C5F"/>
<stop offset="0.555475" stop-color="#F5D29A"/>
<stop offset="1" stop-color="#9D7946"/>
</linearGradient>
<linearGradient id="paint1_linear_1133_17755" x1="47.3214" y1="23.7742" x2="15.5452" y2="51.6049" gradientUnits="userSpaceOnUse">
<stop stop-color="#C79C5F"/>
<stop offset="0.555475" stop-color="#F5D29A"/>
<stop offset="1" stop-color="#9D7946"/>
</linearGradient>
<linearGradient id="paint2_linear_1133_17755" x1="47.3214" y1="23.7742" x2="15.5452" y2="51.6049" gradientUnits="userSpaceOnUse">
<stop stop-color="#C79C5F"/>
<stop offset="0.555475" stop-color="#F5D29A"/>
<stop offset="1" stop-color="#9D7946"/>
</linearGradient>
<linearGradient id="paint3_linear_1133_17755" x1="47.3214" y1="23.7742" x2="15.5452" y2="51.6049" gradientUnits="userSpaceOnUse">
<stop stop-color="#C79C5F"/>
<stop offset="0.555475" stop-color="#F5D29A"/>
<stop offset="1" stop-color="#9D7946"/>
</linearGradient>
<linearGradient id="paint4_linear_1133_17755" x1="47.3214" y1="23.7742" x2="15.5452" y2="51.6049" gradientUnits="userSpaceOnUse">
<stop stop-color="#C79C5F"/>
<stop offset="0.555475" stop-color="#F5D29A"/>
<stop offset="1" stop-color="#9D7946"/>
</linearGradient>
<linearGradient id="paint5_linear_1133_17755" x1="47.3214" y1="23.7742" x2="15.5452" y2="51.6049" gradientUnits="userSpaceOnUse">
<stop stop-color="#C79C5F"/>
<stop offset="0.555475" stop-color="#F5D29A"/>
<stop offset="1" stop-color="#9D7946"/>
</linearGradient>
</defs>
</svg>
