<svg width="70" height="70" viewBox="0 0 70 70" fill="none" xmlns="http://www.w3.org/2000/svg">
<path d="M35 69.1751C53.8744 69.1751 69.1751 53.8744 69.1751 35C69.1751 16.1257 53.8744 0.824951 35 0.824951C16.1256 0.824951 0.82489 16.1257 0.82489 35C0.82489 53.8744 16.1256 69.1751 35 69.1751Z" fill="url(#paint0_radial_1133_17642)"/>
<path d="M63.5185 38.4176C63.4007 39.596 63.2828 40.8923 63.0471 42.0708C61.633 43.8385 58.569 46.431 52.2054 49.6129C55.6229 49.3772 58.9226 48.3166 61.7509 46.431C58.569 54.9159 51.1448 61.2795 42.1886 62.9294L42.5421 62.8115C43.9562 62.2223 44.899 60.926 45.0168 59.5119C45.0168 59.0405 45.1347 58.5691 45.0168 58.0977C45.0168 57.862 45.0168 57.5085 45.0168 57.2728C44.899 54.2088 43.6027 51.2627 41.3636 49.1415V48.1987C41.5993 48.0809 41.835 47.963 42.1886 47.8452C43.367 47.3738 44.4276 46.6667 45.3704 45.8418L45.9596 45.3704C54.2088 37.7105 55.8586 19.3267 42.1886 6.83508C47.1381 8.24922 51.734 10.9597 55.3872 14.495C55.3872 14.6129 55.7408 16.2627 54.4445 20.5051C55.3872 19.091 56.0943 17.4411 56.6835 15.7913C58.6869 18.1482 60.2189 20.8587 61.2795 23.6869C61.633 24.6297 61.9865 25.6903 62.2222 26.6331C60.8081 29.4613 59.0404 32.0539 57.0371 34.4108C59.2761 32.9967 61.1616 31.229 62.8115 29.2257C63.165 31.229 63.4007 33.3502 63.4007 35.3536C63.6364 36.5321 63.5185 37.4748 63.5185 38.4176Z" fill="url(#paint1_linear_1133_17642)"/>
<path d="M58.569 25.926C58.6869 22.5085 58.0976 19.091 56.8013 15.9092C58.8047 18.2661 60.3367 20.8587 61.3973 23.687C61.7508 24.6297 62.1044 25.6903 62.3401 26.6331C60.9259 29.4614 59.1582 32.054 57.1549 34.4109C57.9798 31.7004 58.4512 28.8721 58.569 25.926Z" fill="url(#paint2_linear_1133_17642)"/>
<path d="M63.5185 38.4177C63.4007 39.5961 63.2828 40.8924 63.0471 42.0709C61.633 43.8385 58.569 46.4311 52.2054 49.6129C55.3872 46.0776 62.8114 34.6466 62.9293 29.4614C63.2828 31.4648 63.5185 33.586 63.5185 35.5894C63.6364 36.5321 63.5185 37.4749 63.5185 38.4177Z" fill="url(#paint3_linear_1133_17642)"/>
<path d="M50.0842 12.1382C52.2054 15.4378 59.9832 34.1752 46.1953 45.2526C54.4445 37.5927 56.0943 19.2089 42.4243 6.71729C47.3737 8.13143 51.8519 10.8419 55.6229 14.4951C53.8552 13.5523 52.0876 12.7274 50.0842 12.1382Z" fill="url(#paint4_linear_1133_17642)"/>
<path d="M41.5993 48.0809V49.0237C43.9562 51.2627 45.2525 54.3267 45.2525 57.5085C45.2525 57.6263 45.2525 57.862 45.2525 58.0977C45.2525 59.5119 45.2525 61.9866 42.3064 63.0472C41.7172 64.1078 41.0101 65.1684 40.1852 65.9934C41.0101 63.99 41.3636 61.7509 41.0101 59.5119C40.3768 62.9158 37.2442 65.9476 34.3271 69C32.5 69 31.5 69 29.088 68.3271C35.0922 57.8397 32.7609 51.7341 32.7609 51.7341L30.9933 47.256V47.1381C30.9933 46.7846 30.8754 46.4311 30.8754 46.0775C30.6397 43.9563 30.7576 41.8351 31.229 39.8317C31.936 36.8856 34.1751 34.6466 37.1212 34.0573C35.5892 33.4681 34.6465 32.1718 34.4108 30.522C34.7643 31.1112 36.1784 31.9361 39.8316 32.8789C46.6667 34.4109 44.7811 37.5927 45.0168 37.8284C46.3131 39.0068 46.7845 40.8923 46.431 42.66C45.2525 40.5388 43.1313 39.2425 40.6566 39.3604C40.0673 39.3604 39.596 39.4782 39.1246 39.7139C36.4141 40.6567 38.2997 45.1348 41.5993 48.0809Z" fill="url(#paint5_linear_1133_17642)"/>
<path d="M46.1953 42.3065C46.1953 42.3065 46.431 39.0069 42.4243 37.1213C43.0135 37.1213 43.6027 37.1214 44.0741 37.357C43.6027 36.2964 42.1886 34.1752 38.4175 34.5288C39.0068 34.2931 39.7138 34.1752 40.4209 34.1752C40.4209 34.1752 35.825 33.4681 34.293 30.4042C34.6465 30.9934 36.0606 31.8183 39.7138 32.7611C46.5489 34.2931 44.6633 37.4749 44.899 37.7106C46.0775 38.7712 46.6667 40.6567 46.1953 42.3065Z" fill="url(#paint6_linear_1133_17642)"/>
<path d="M42.4242 36.1785C41.9528 36.2964 41.4814 36.2964 41.0101 36.0607C40.6565 35.825 40.303 35.7072 39.9495 35.5893C39.9495 35.5893 41.7171 35.0001 42.4242 36.1785Z" fill="#E92929"/>
<path d="M45.2525 55.8586C45.2525 52.9125 43.9562 50.0842 41.5993 48.1987C38.2996 45.1347 36.2963 40.7744 38.771 39.4781C37.4747 40.0674 36.7677 41.5994 37.0033 43.0135C37.239 45.8418 38.8889 47.6095 38.8889 52.6768C39.3602 51.3805 39.4781 50.0842 39.4781 48.7879C40.4209 49.0236 45.1347 51.4984 45.0168 58.9226C45.2525 57.862 45.2525 56.8014 45.2525 55.8586Z" fill="#D17F2A"/>
<path d="M61.7508 46.431C58.569 54.9159 51.1448 61.2795 42.1885 62.9293C43.7205 60.1011 44.0741 56.8014 43.2491 53.7374C44.4276 55.2694 45.0168 57.0371 45.0168 58.9226C45.1347 57.862 45.2525 56.9192 45.1347 55.8586C54.2087 55.8586 61.5151 46.6667 61.7508 46.431Z" fill="url(#paint7_linear_1133_17642)"/>
<path d="M45.8417 55.8587C45.8417 57.0371 45.606 58.2156 45.1347 59.394V59.5119C45.1347 59.6297 45.0168 59.7476 45.0168 59.8654C44.899 58.3334 44.5454 56.9193 44.0741 55.5051C44.4276 57.9799 43.9562 60.4546 42.7778 62.6937C42.7778 62.6937 42.7778 62.6937 42.7778 62.8115L42.4242 62.9294C43.9562 60.1011 44.3098 56.8014 43.4848 53.7375C44.6633 55.2695 45.2525 57.0371 45.2525 58.9227C45.2525 58.5691 45.3704 57.9799 45.3704 57.5085C45.3704 57.3907 45.3704 57.2728 45.3704 57.2728C45.3704 56.8014 45.3704 56.3301 45.3704 55.8587C45.3704 52.9126 44.0741 50.0843 41.7172 48.1988C41.9529 48.0809 42.1885 47.9631 42.5421 47.8452C44.6633 49.9664 45.8417 52.7947 45.8417 55.8587Z" fill="url(#paint8_linear_1133_17642)"/>
<path d="M28.4007 69.0573C24.3939 67.5 23.5 67 19.0562 65C20.6642 63.6989 22.4477 62.5639 24.3939 61.6331C25.6902 61.0439 27.1044 60.4546 28.5185 60.1011C25.6902 59.6297 22.8619 60.1011 20.3872 61.6331C14.7306 57.862 10.6061 52.2055 8.60269 45.6062C11.6667 47.8452 15.4377 49.1415 19.2087 49.2593C12.0202 46.4311 8.72053 42.7779 7.42424 40.7745C6.71717 35.5893 7.0707 30.4041 8.72053 25.4546C8.72053 25.4546 8.72053 25.4546 8.72053 25.3368C10.2525 28.8721 12.4916 32.054 15.202 34.7644C10.9596 28.2829 10.4882 22.9799 10.4882 20.7408C12.138 17.4412 14.3771 14.3772 17.0875 11.9024C16.734 14.9664 17.0875 18.0304 18.3838 20.7408C18.266 16.9698 18.7374 13.3166 19.798 9.66339C23.569 6.95295 27.9293 5.42097 32.5252 4.94958C17.2054 18.7375 21.2121 37.8284 28.6364 45.2526C29.3434 45.9597 30.0505 46.5489 30.7576 47.0203C32.7609 48.788 34.1751 51.1449 34.6465 53.8553C35.8249 58.4513 32.5252 65.0506 28.4007 69.0573Z" fill="url(#paint9_linear_1133_17642)"/>
<path d="M15.3198 34.7644C13.67 29.8149 12.6094 20.1516 17.2054 11.9025C15.7912 16.2627 16.0269 20.8587 17.5589 25.1011C17.2054 29.5792 17.9124 34.0573 19.5623 38.1819C18.0303 37.2392 16.6161 36.0607 15.3198 34.7644Z" fill="url(#paint10_linear_1133_17642)"/>
<path d="M15.3198 34.7644C11.0774 28.2829 10.606 22.9799 10.606 20.7409C12.2558 17.4412 14.4949 14.3772 17.2053 11.9025C12.6094 20.1516 13.67 29.9328 15.3198 34.7644Z" fill="url(#paint11_linear_1133_17642)"/>
<path d="M19.3266 49.2593C12.1381 46.431 8.83839 42.7778 7.5421 40.7745C6.83503 35.5893 7.18856 30.4041 8.83839 25.4546C7.65994 43.8384 18.6195 48.9058 19.3266 49.2593Z" fill="url(#paint12_linear_1133_17642)"/>
<path d="M28.7542 45.2526C13.9057 31.5826 24.2761 10.3705 27.2222 8.01356C24.8653 7.89571 20.1515 9.54554 19.9158 9.66339C23.6869 6.95295 28.0471 5.42097 32.6431 4.94958C17.4411 18.8553 21.4478 37.8284 28.7542 45.2526Z" fill="url(#paint13_linear_1133_17642)"/>
<path d="M24.7474 49.1415C22.9798 49.3771 21.0942 49.3771 19.3266 49.2593C18.7373 49.0236 7.77775 43.8384 8.83835 25.4546C12.6094 40.1852 21.4478 47.4916 24.7474 49.1415Z" fill="url(#paint14_linear_1133_17642)"/>
<path d="M19.798 65.736C22.0464 63.667 24.872 61.7583 28.4007 60.1011C25.5724 59.6298 22.7441 60.1011 20.2694 61.6331C14.6128 57.8621 10.4882 52.2055 8.48486 45.6062C14.6128 53.0304 23.6869 54.7981 29.3435 54.7981C30.2862 57.9799 29.9327 61.5153 28.2828 64.4614C27.7509 65.5879 26.9282 66.5564 26 67.6098C24 67 22.5 67 19.798 65.736Z" fill="url(#paint15_linear_1133_17642)"/>
<path d="M19 65.0392C20.6226 63.7229 22.425 62.5747 24.3939 61.6331C25.6902 61.0438 27.1044 60.4546 28.4007 60.1011C24.9752 61.6996 22.2135 63.5441 20 65.5475C19.5 65.0392 19.5 65 19 65.0392Z" fill="url(#paint16_linear_1133_17642)"/>
<path d="M28.5185 69.0573C32.5252 65.0506 35.8249 58.4513 34.8821 53.7375C34.4107 51.027 32.9966 48.6701 30.9932 46.9024V46.7846C30.9932 46.4311 30.8754 46.0775 30.8754 45.724C30.7575 45.8418 43.2491 55.5051 28.5185 69.0573Z" fill="url(#paint17_linear_1133_17642)"/>
<path d="M35 70C15.6734 70 0 54.3266 0 35C0 15.6734 15.6734 0 35 0C54.3266 0 69.8821 15.6734 69.8821 35C69.8821 54.3266 54.3266 69.8822 35 70ZM35 1.64983C16.6162 1.64983 1.64983 16.6162 1.64983 35C1.64983 53.3838 16.6162 68.3502 35 68.3502C53.3838 68.3502 68.2323 53.3838 68.2323 35C68.2323 16.6162 53.3838 1.64983 35 1.64983Z" fill="url(#paint18_linear_1133_17642)"/>
<defs>
<radialGradient id="paint0_radial_1133_17642" cx="0" cy="0" r="1" gradientUnits="userSpaceOnUse" gradientTransform="translate(35 35) scale(34.1094)">
<stop stop-color="#3E57A6"/>
<stop offset="0.18" stop-color="#3C54A1"/>
<stop offset="0.4" stop-color="#354B92"/>
<stop offset="0.65" stop-color="#2B3D79"/>
<stop offset="0.91" stop-color="#1C2856"/>
<stop offset="1" stop-color="#162048"/>
</radialGradient>
<linearGradient id="paint1_linear_1133_17642" x1="27.0036" y1="54.892" x2="64.7141" y2="14.4005" gradientUnits="userSpaceOnUse">
<stop stop-color="#EB2627"/>
<stop offset="0.13" stop-color="#ED4229"/>
<stop offset="0.43" stop-color="#F2822D"/>
<stop offset="0.69" stop-color="#F5B130"/>
<stop offset="0.89" stop-color="#F7CD31"/>
<stop offset="1" stop-color="#F8D832"/>
</linearGradient>
<linearGradient id="paint2_linear_1133_17642" x1="53.5651" y1="35.9968" x2="62.2738" y2="14.6433" gradientUnits="userSpaceOnUse">
<stop stop-color="#B78A3E"/>
<stop offset="1" stop-color="#CEAE4C"/>
</linearGradient>
<linearGradient id="paint3_linear_1133_17642" x1="66.4936" y1="30.2041" x2="46.9903" y2="61.1502" gradientUnits="userSpaceOnUse">
<stop stop-color="#B78A3E"/>
<stop offset="1" stop-color="#EB2627"/>
</linearGradient>
<linearGradient id="paint4_linear_1133_17642" x1="45.4535" y1="50.0717" x2="51.9467" y2="-21.7078" gradientUnits="userSpaceOnUse">
<stop stop-color="#EB2627"/>
<stop offset="0.06" stop-color="#ED4129"/>
<stop offset="0.16" stop-color="#F0692B"/>
<stop offset="0.26" stop-color="#F28C2D"/>
<stop offset="0.37" stop-color="#F4A72F"/>
<stop offset="0.49" stop-color="#F6BD30"/>
<stop offset="0.62" stop-color="#F7CC31"/>
<stop offset="0.78" stop-color="#F8D532"/>
<stop offset="1" stop-color="#F8D832"/>
</linearGradient>
<linearGradient id="paint5_linear_1133_17642" x1="28.3243" y1="89.2845" x2="42.8664" y2="31.1044" gradientUnits="userSpaceOnUse">
<stop stop-color="#EB2627"/>
<stop offset="1" stop-color="#F8D832"/>
</linearGradient>
<linearGradient id="paint6_linear_1133_17642" x1="54.7628" y1="42.4863" x2="31.6769" y2="32.5048" gradientUnits="userSpaceOnUse">
<stop stop-color="#EB2627"/>
<stop offset="1" stop-color="#F8D832"/>
</linearGradient>
<linearGradient id="paint7_linear_1133_17642" x1="69.842" y1="47.6019" x2="28.6904" y2="64.3124" gradientUnits="userSpaceOnUse">
<stop stop-color="#B78A3E"/>
<stop offset="1" stop-color="#EB2627"/>
</linearGradient>
<linearGradient id="paint8_linear_1133_17642" x1="43.5669" y1="65.2278" x2="43.9793" y2="39.6907" gradientUnits="userSpaceOnUse">
<stop stop-color="#8E5323"/>
<stop offset="1" stop-color="#E59B29"/>
</linearGradient>
<linearGradient id="paint9_linear_1133_17642" x1="18.913" y1="100.188" x2="21.6942" y2="26.8531" gradientUnits="userSpaceOnUse">
<stop stop-color="#EB2627"/>
<stop offset="0.11" stop-color="#EC2E27"/>
<stop offset="0.28" stop-color="#ED4429"/>
<stop offset="0.49" stop-color="#F0682B"/>
<stop offset="0.74" stop-color="#F3992E"/>
<stop offset="1" stop-color="#F8D832"/>
</linearGradient>
<linearGradient id="paint10_linear_1133_17642" x1="20.8293" y1="39.8275" x2="15.6088" y2="21.0313" gradientUnits="userSpaceOnUse">
<stop stop-color="#B78A3E"/>
<stop offset="1" stop-color="#CEAE4C"/>
</linearGradient>
<linearGradient id="paint11_linear_1133_17642" x1="14.7426" y1="34.9202" x2="12.4211" y2="-16.1421" gradientUnits="userSpaceOnUse">
<stop stop-color="#B78A3E"/>
<stop offset="1" stop-color="#CEAE4C"/>
</linearGradient>
<linearGradient id="paint12_linear_1133_17642" x1="14.3801" y1="48.0242" x2="-1.16371" y2="-1.40007" gradientUnits="userSpaceOnUse">
<stop stop-color="#B78A3E"/>
<stop offset="1" stop-color="#CEAE4C"/>
</linearGradient>
<linearGradient id="paint13_linear_1133_17642" x1="33.8663" y1="45.1943" x2="22.1054" y2="-0.447134" gradientUnits="userSpaceOnUse">
<stop stop-color="#EB2627"/>
<stop offset="0.06" stop-color="#ED4129"/>
<stop offset="0.16" stop-color="#F0692B"/>
<stop offset="0.26" stop-color="#F28C2D"/>
<stop offset="0.37" stop-color="#F4A72F"/>
<stop offset="0.49" stop-color="#F6BD30"/>
<stop offset="0.62" stop-color="#F7CC31"/>
<stop offset="0.78" stop-color="#F8D532"/>
<stop offset="1" stop-color="#F8D832"/>
</linearGradient>
<linearGradient id="paint14_linear_1133_17642" x1="27.0947" y1="50.4105" x2="7.82701" y2="31.7791" gradientUnits="userSpaceOnUse">
<stop stop-color="#B78A3E"/>
<stop offset="1" stop-color="#CEAE4C"/>
</linearGradient>
<linearGradient id="paint15_linear_1133_17642" x1="11.7122" y1="108.818" x2="21.7762" y2="32.7024" gradientUnits="userSpaceOnUse">
<stop stop-color="#EB2627"/>
<stop offset="0.19" stop-color="#E4332A"/>
<stop offset="0.56" stop-color="#D25732"/>
<stop offset="1" stop-color="#B78A3E"/>
</linearGradient>
<linearGradient id="paint16_linear_1133_17642" x1="10.1812" y1="113.304" x2="20.858" y2="61.169" gradientUnits="userSpaceOnUse">
<stop stop-color="#602E8A"/>
<stop offset="0.51" stop-color="#E92929"/>
<stop offset="1" stop-color="#F8D833"/>
</linearGradient>
<linearGradient id="paint17_linear_1133_17642" x1="29.6548" y1="70.8992" x2="35.5352" y2="39.2695" gradientUnits="userSpaceOnUse">
<stop stop-color="#8E5323"/>
<stop offset="1" stop-color="#E59B29"/>
</linearGradient>
<linearGradient id="paint18_linear_1133_17642" x1="0" y1="35" x2="69.8821" y2="35" gradientUnits="userSpaceOnUse">
<stop stop-color="#EF7126"/>
<stop offset="1" stop-color="#F8D832"/>
</linearGradient>
</defs>
</svg>
