<svg width="70" height="70" viewBox="0 0 70 70" fill="none" xmlns="http://www.w3.org/2000/svg">
<path d="M35 70C54.33 70 70 54.33 70 35C70 15.67 54.33 0 35 0C15.67 0 0 15.67 0 35C0 54.33 15.67 70 35 70Z" fill="white"/>
<path d="M44.4057 56.3124C39.6067 56.6272 36.1203 53.0798 36.0642 48.8295C36.0509 47.8338 36.2266 46.8639 36.5624 45.9683C37.1337 44.4412 38.175 43.1328 39.5518 42.2839C40.7798 41.5263 42.2765 41.1354 43.9478 41.2833C43.0836 41.1074 42.1497 41.0144 41.1509 41.0011C35.0572 40.9156 29.9214 45.861 30.0009 50.8552C30.0327 52.8477 30.8163 54.5751 32.1421 55.9201V55.9215C34.0488 57.8542 37.0774 58.9987 40.6141 59C41.0143 58.9081 41.4099 58.8069 41.8016 58.6945C44.9658 57.7941 47.8652 56.2608 50.3518 54.2416L51 53.671C50.7448 53.8763 47.9444 56.079 44.4057 56.3124Z" fill="url(#paint0_radial_1133_17604)"/>
<path d="M46.1207 32.9764C42.6449 30.1639 40.4841 30.67 38.0999 30C34.905 30.0862 30.727 31.0735 26.34 34.4953C26.4374 34.4484 28.3597 33.5286 31.4519 33.9232C31.8189 33.9712 32.2039 34.036 32.603 34.1234C27.0275 36.6445 23 42.3272 23 47.9046C23 50.4498 23.7942 52.8311 25.1774 54.8666C26.5028 56.8203 28.3698 58.4556 30.596 59.6104C32.0448 59.8666 33.5369 60 35.0615 60C35.2501 60 35.4373 59.9972 35.6234 59.9933H35.6248C37.3801 59.9554 39.0919 59.741 40.742 59.3652C37.0245 59.3638 33.8411 58.1753 31.8369 56.1681V56.1667C30.4433 54.7698 29.6197 52.9759 29.5863 50.9065C29.5029 45.7199 34.901 40.584 41.3066 40.6728C42.3561 40.6869 43.3377 40.7831 44.2461 40.9659C45.2945 41.1739 48.3907 42.2981 48.1019 43.5668C48.1019 43.5668 48.5933 43.4348 49.099 42.8031C50.808 40.6717 50.2293 36.3006 46.1207 32.9764Z" fill="url(#paint1_radial_1133_17604)"/>
<path d="M46.1207 32.9764C42.6449 30.1639 40.4841 30.67 38.0999 30C34.905 30.0862 30.727 31.0735 26.34 34.4953C26.4374 34.4484 28.3597 33.5286 31.4519 33.9232C31.8189 33.9712 32.2039 34.036 32.603 34.1234C27.0275 36.6445 23 42.3272 23 47.9046C23 50.4498 23.7942 52.8311 25.1774 54.8666C26.5028 56.8203 28.3698 58.4556 30.596 59.6104C32.0448 59.8666 33.5369 60 35.0615 60C35.2501 60 35.4373 59.9972 35.6234 59.9933H35.6248C37.3801 59.9554 39.0919 59.741 40.742 59.3652C37.0245 59.3638 33.8411 58.1753 31.8369 56.1681V56.1667C30.4433 54.7698 29.6197 52.9759 29.5863 50.9065C29.5029 45.7199 34.901 40.584 41.3066 40.6728C42.3561 40.6869 43.3377 40.7831 44.2461 40.9659C45.2945 41.1739 48.3907 42.2981 48.1019 43.5668C48.1019 43.5668 48.5933 43.4348 49.099 42.8031C50.808 40.6717 50.2293 36.3006 46.1207 32.9764Z" fill="url(#paint2_radial_1133_17604)"/>
<path d="M35.0217 10C21.2026 10 10 21.2243 10 35.1601C10 42.2676 12.9136 48.6886 17.6031 53.2741C19.1068 54.7459 20.7923 56.027 22.6226 57.0822V57.0808C22.4435 56.8809 22.2696 56.6777 22.0993 56.4702C22.4829 56.8106 22.8868 57.141 23.3085 57.4627C24.6499 58.1814 26.0646 58.7805 27.538 59.2444C28.5338 59.5593 29.5563 59.8133 30.6016 60C28.398 58.8345 26.5499 57.1833 25.2379 55.2109C23.8685 53.1563 23.0824 50.7522 23.0824 48.1827C23.0824 42.552 27.0694 36.815 32.588 34.2699C32.193 34.1817 31.8122 34.1162 31.4488 34.0674C28.3877 33.6693 26.4852 34.5977 26.3885 34.6453C30.7311 31.1908 34.8667 30.1941 38.0295 30.1071C41.5351 30.0096 43.8429 31.0307 43.9115 31.0601C42.4737 27.5608 40.4528 27.7722 40.4528 27.7722C41.3787 27.5773 42.1054 27.6031 43.087 27.6031C50.9441 27.6031 57.5452 34.0126 57.5452 42.0769C57.5452 44.9536 56.2661 48.1737 54.8674 50.4344C55.8519 49.1242 56.7194 47.7087 57.4461 46.2089C59.0694 42.867 60 39.1065 60 35.1601C60 21.2243 48.8407 10 35.0217 10Z" fill="url(#paint3_radial_1133_17604)"/>
<path opacity="0.19" d="M35.0217 10C21.2026 10 10 21.2243 10 35.1601C10 42.2676 12.9136 48.6886 17.6031 53.2741C19.1068 54.7459 20.7923 56.027 22.6226 57.0822V57.0808C22.4435 56.8809 22.2696 56.6777 22.0993 56.4702C22.4829 56.8106 22.8868 57.141 23.3085 57.4627C24.6499 58.1814 26.0646 58.7805 27.538 59.2444C28.5338 59.5593 29.5563 59.8133 30.6016 60C28.398 58.8345 26.5499 57.1833 25.2379 55.2109C23.8685 53.1563 23.0824 50.7522 23.0824 48.1827C23.0824 42.552 27.0694 36.815 32.588 34.2699C32.193 34.1817 31.8122 34.1162 31.4488 34.0674C28.3877 33.6693 26.4852 34.5977 26.3885 34.6453C30.7311 31.1908 34.8667 30.1941 38.0295 30.1071C41.5351 30.0096 43.8429 31.0307 43.9115 31.0601C42.4737 27.5608 40.4528 27.7722 40.4528 27.7722C41.3787 27.5773 42.1054 27.6031 43.087 27.6031C50.9441 27.6031 57.5452 34.0126 57.5452 42.0769C57.5452 44.9536 56.2661 48.1737 54.8674 50.4344C55.8519 49.1242 56.7194 47.7087 57.4461 46.2089C59.0694 42.867 60 39.1065 60 35.1601C60 21.2243 48.8407 10 35.0217 10Z" fill="url(#paint4_radial_1133_17604)"/>
<path d="M59 38.0193C59 37.5425 58.9838 37.0697 58.9512 36.6007C58.2295 26.2071 49.6363 18 39.1423 18C33.586 18 28.5619 20.3006 24.9574 24.0096C24.9574 24.0096 26.2052 23.5863 28.1446 23.5546C28.8639 23.5419 29.6782 23.5838 30.5602 23.7211C22.8227 27.1048 17.4342 34.6599 17.0207 43.7035C16.7763 49.0774 18.7058 53.2211 22.3867 56.4967C22.7649 56.8348 23.1633 57.1629 23.5795 57.4815C24.9024 58.1947 26.2981 58.7898 27.7514 59.2499C28.7337 59.5627 29.7421 59.8141 30.7734 60C28.5995 58.8432 26.7765 57.2048 25.4824 55.2473C24.1319 53.2086 23.3564 50.8227 23.3564 48.2729C23.3564 42.6853 27.2889 36.9922 32.7328 34.4668C32.3432 34.379 31.9672 34.3143 31.6088 34.2659C28.5896 33.8706 26.7127 34.7921 26.6176 34.8391C30.9011 31.411 34.9804 30.4222 38.0999 30.3356C41.5578 30.2392 43.8343 31.2521 43.9019 31.2813C42.4837 27.8088 40.4903 28.0185 40.4903 28.0185C41.4039 27.8254 42.1204 27.8507 43.089 27.8507C50.8391 27.8507 57.35 34.2112 57.35 42.2138C57.35 45.0687 56.0885 48.264 54.7091 50.5074C55.6802 49.2072 56.5359 47.8028 57.2524 46.3142L57.2258 46.3014C58.3665 43.7771 59 40.9734 59 38.0193Z" fill="url(#paint5_radial_1133_17604)"/>
<path d="M33.4856 52.0424C33.4856 55.6145 36.0338 58.379 42 58.6891C41.6009 58.8034 41.1984 58.9066 40.7906 59C37.1896 58.9986 34.106 57.8345 32.1645 55.869V55.8676C31.4213 54.5408 31 53.0276 31 51.4211C31 46.5983 34.7934 42.6137 39.7093 42C38.3071 42.8636 37.247 44.1942 36.6653 45.7472C34.8108 47.0963 33.4856 49.58 33.4856 52.0424Z" fill="url(#paint6_radial_1133_17604)"/>
<path d="M44 41.2849C42.3225 41.1361 40.8202 41.5292 39.5875 42.2908C34.7417 42.8975 31.0018 46.8363 31.0018 51.6043C31.0018 53.1922 31.4172 54.6883 32.1501 56C30.8193 54.6478 30.0328 52.9111 30.0009 50.9079C29.9211 45.887 35.0761 40.9152 41.1927 41.0011C42.1952 41.0145 43.1326 41.1079 44 41.2849Z" fill="url(#paint7_radial_1133_17604)"/>
<path opacity="0.25" d="M47.7928 43.8572C48.0743 42.6029 47.0488 42.1489 47.0488 42.1489C46.2194 41.7149 45.2913 41.3949 44.2696 41.1893C43.3838 41.0086 42.427 40.9132 41.4039 40.8995C35.1602 40.8118 29.8981 45.8892 29.9796 51.0169C30.0118 53.0626 30.815 54.8359 32.1734 56.2174V56.2182C34.1271 58.2026 37.2302 59.3779 40.8535 59.379C39.2451 59.7505 37.5765 59.9624 35.8654 60H35.8643C31.8142 58.3468 29 54.7032 29 50.4737C29 44.6887 34.2647 40 40.7573 40C43.9681 40 46.8787 41.1465 49 43.0053C48.5396 43.6551 47.7928 43.8572 47.7928 43.8572Z" fill="url(#paint8_radial_1133_17604)"/>
<path d="M23.7147 49.3821C23.7147 51.4168 24.2543 53.3046 25.224 54.9869L25.2058 55C23.8046 52.9539 23 50.5595 23 48.0006C23 42.3934 27.0802 36.6801 32.7286 34.1455C32.3243 34.0577 31.9342 33.9925 31.5624 33.9442C28.4297 33.5475 26.4823 34.4723 26.3837 34.5194C30.8281 31.0792 35.0606 30.0867 38.2973 30C40.7127 30.6736 42.5714 31.486 44 32.3445L43.9935 32.3534C40.0938 30.1851 34.1793 32.4172 34.1793 32.4172C39.509 32.9913 40.0938 34.4516 40.0938 34.4516C31.0074 35.1431 23.7147 41.9074 23.7147 49.3821Z" fill="url(#paint9_radial_1133_17604)"/>
<path d="M23.7147 49.3821C23.7147 51.4168 24.2543 53.3046 25.224 54.9869L25.2058 55C23.8046 52.9539 23 50.5595 23 48.0006C23 42.3934 27.0802 36.6801 32.7286 34.1455C32.3243 34.0577 31.9342 33.9925 31.5624 33.9442C28.4297 33.5475 26.4823 34.4723 26.3837 34.5194C30.8281 31.0792 35.0606 30.0867 38.2973 30C40.7127 30.6736 42.5714 31.486 44 32.3445L43.9935 32.3534C40.0938 30.1851 34.1793 32.4172 34.1793 32.4172C39.509 32.9913 40.0938 34.4516 40.0938 34.4516C31.0074 35.1431 23.7147 41.9074 23.7147 49.3821Z" fill="url(#paint10_radial_1133_17604)"/>
<path opacity="0.29" d="M22 47.809C22 41.6809 26.0297 36.4092 31.8067 34.0705L31.8159 34C32.1935 34.0488 32.5895 34.1142 33 34.2029C27.2649 36.7544 23.122 42.5064 23.122 48.152C23.122 50.7279 23.9389 53.1385 25.3617 55.1985C26.7251 57.1759 28.6455 58.8312 30.9355 60C29.8493 59.8122 28.7867 59.5582 27.7521 59.2421L27.7599 59.2163C24.2334 56.4605 22 52.3716 22 47.809Z" fill="url(#paint11_radial_1133_17604)"/>
<path d="M28.1576 23.4829C26.2159 23.5143 24.9667 23.9321 24.9667 23.9321C28.5754 20.2709 33.6053 18 39.168 18C49.6742 18 58.2774 26.1013 59 36.3608C55.7227 29.3973 48.1753 24.5244 39.3877 24.5244C27.5933 24.5244 18.033 33.3019 18.033 44.1285C18.033 48.5901 19.6572 52.7053 22.393 56C18.7078 52.7667 16.776 48.6765 17.0207 43.3719C17.4347 34.4449 22.8294 26.9873 30.576 23.6473C29.693 23.5117 28.8777 23.4704 28.1576 23.4829Z" fill="url(#paint12_radial_1133_17604)"/>
<path opacity="0.53" d="M28.1576 23.4829C26.2159 23.5143 24.9667 23.9321 24.9667 23.9321C28.5754 20.2709 33.6053 18 39.168 18C49.6742 18 58.2774 26.1013 59 36.3608C55.7227 29.3973 48.1753 24.5244 39.3877 24.5244C27.5933 24.5244 18.033 33.3019 18.033 44.1285C18.033 48.5901 19.6572 52.7053 22.393 56C18.7078 52.7667 16.776 48.6765 17.0207 43.3719C17.4347 34.4449 22.8294 26.9873 30.576 23.6473C29.693 23.5117 28.8777 23.4704 28.1576 23.4829Z" fill="url(#paint13_radial_1133_17604)"/>
<path opacity="0.25" d="M27.5798 23.0022C28.3005 22.9893 29.1163 23.0318 30 23.1709C22.2476 26.5996 16.8489 34.2559 16.4346 43.4203C16.19 48.866 18.1229 53.065 21.8108 56.3843C21.9791 56.5932 22.1509 56.7976 22.328 56.9986V57C20.5192 55.9383 18.8534 54.6506 17.3675 53.1706C15.8496 50.1593 15 46.7886 15 43.2308C15 34.534 20.0748 26.9591 27.5798 23.0022Z" fill="url(#paint14_radial_1133_17604)"/>
<defs>
<radialGradient id="paint0_radial_1133_17604" cx="0" cy="0" r="1" gradientUnits="userSpaceOnUse" gradientTransform="translate(47.5803 55.8622) scale(21.1646 23.4578)">
<stop stop-color="#867BC4"/>
<stop offset="1" stop-color="#5F2E86"/>
</radialGradient>
<radialGradient id="paint1_radial_1133_17604" cx="0" cy="0" r="1" gradientUnits="userSpaceOnUse" gradientTransform="translate(42.2453 44.0133) scale(32.1627 31.802)">
<stop stop-color="#998FDF"/>
<stop offset="0.4863" stop-color="#6E5CBE"/>
<stop offset="1" stop-color="#000009"/>
</radialGradient>
<radialGradient id="paint2_radial_1133_17604" cx="0" cy="0" r="1" gradientUnits="userSpaceOnUse" gradientTransform="translate(26.2729 48.2016) rotate(120.4) scale(30.6309 61.7992)">
<stop stop-color="#9564AC"/>
<stop offset="0.6435" stop-color="#5C3B9C" stop-opacity="0"/>
</radialGradient>
<radialGradient id="paint3_radial_1133_17604" cx="0" cy="0" r="1" gradientUnits="userSpaceOnUse" gradientTransform="translate(54.8358 26.9255) scale(54.1831 54.641)">
<stop stop-color="#998FDF"/>
<stop offset="0.4275" stop-color="#6E5CBE"/>
<stop offset="0.8446" stop-color="#8C4192"/>
</radialGradient>
<radialGradient id="paint4_radial_1133_17604" cx="0" cy="0" r="1" gradientUnits="userSpaceOnUse" gradientTransform="translate(27.6541 26.3214) rotate(49.5369) scale(11.6422 16.3326)">
<stop stop-color="white"/>
<stop offset="1" stop-color="white" stop-opacity="0"/>
</radialGradient>
<radialGradient id="paint5_radial_1133_17604" cx="0" cy="0" r="1" gradientUnits="userSpaceOnUse" gradientTransform="translate(26.2378 55.0514) scale(47.3191 48.0068)">
<stop stop-color="#51339D"/>
<stop offset="0.4171" stop-color="#9E84D5" stop-opacity="0.5725"/>
<stop offset="0.9259" stop-color="#9489DB" stop-opacity="0"/>
</radialGradient>
<radialGradient id="paint6_radial_1133_17604" cx="0" cy="0" r="1" gradientUnits="userSpaceOnUse" gradientTransform="translate(39.6383 46.5757) scale(13.5998 13.5939)">
<stop offset="0.0181" stop-color="#4B338C"/>
<stop offset="1" stop-color="#4B338C" stop-opacity="0"/>
</radialGradient>
<radialGradient id="paint7_radial_1133_17604" cx="0" cy="0" r="1" gradientUnits="userSpaceOnUse" gradientTransform="translate(38.5376 43.0067) scale(16.6434 16.683)">
<stop stop-color="#352086"/>
<stop offset="1" stop-color="#352086" stop-opacity="0"/>
</radialGradient>
<radialGradient id="paint8_radial_1133_17604" cx="0" cy="0" r="1" gradientUnits="userSpaceOnUse" gradientTransform="translate(34.9411 54.3622) scale(13.5367 13.575)">
<stop stop-color="white"/>
<stop offset="1" stop-color="white" stop-opacity="0"/>
</radialGradient>
<radialGradient id="paint9_radial_1133_17604" cx="0" cy="0" r="1" gradientUnits="userSpaceOnUse" gradientTransform="translate(23.1299 49.5737) scale(20.082 19.7056)">
<stop stop-color="#422085"/>
<stop offset="1" stop-color="#422085" stop-opacity="0"/>
</radialGradient>
<radialGradient id="paint10_radial_1133_17604" cx="0" cy="0" r="1" gradientUnits="userSpaceOnUse" gradientTransform="translate(26.3797 26.1032) scale(23.2166 22.7815)">
<stop offset="0.0829" stop-color="#422085"/>
<stop offset="0.7132" stop-color="#422085" stop-opacity="0"/>
</radialGradient>
<radialGradient id="paint11_radial_1133_17604" cx="0" cy="0" r="1" gradientUnits="userSpaceOnUse" gradientTransform="translate(25.7841 49.4389) scale(10.2169 11.0054)">
<stop stop-color="white"/>
<stop offset="1" stop-color="white" stop-opacity="0"/>
</radialGradient>
<radialGradient id="paint12_radial_1133_17604" cx="0" cy="0" r="1" gradientUnits="userSpaceOnUse" gradientTransform="translate(17.343 47.5475) scale(39.2169 39.228)">
<stop stop-color="#4C2376"/>
<stop offset="0.6989" stop-color="#301C86" stop-opacity="0"/>
</radialGradient>
<radialGradient id="paint13_radial_1133_17604" cx="0" cy="0" r="1" gradientUnits="userSpaceOnUse" gradientTransform="translate(13.2038 14.1733) scale(31.5842 31.593)">
<stop stop-color="#4C2376"/>
<stop offset="1" stop-color="#301C86" stop-opacity="0"/>
</radialGradient>
<radialGradient id="paint14_radial_1133_17604" cx="0" cy="0" r="1" gradientUnits="userSpaceOnUse" gradientTransform="translate(19.2677 54.5335) scale(24.4124 25.0507)">
<stop stop-color="white"/>
<stop offset="1" stop-color="white" stop-opacity="0"/>
</radialGradient>
</defs>
</svg>
