<svg width="70" height="70" viewBox="0 0 70 70" fill="none" xmlns="http://www.w3.org/2000/svg">
<path d="M59.6392 59.9399C56.3788 63.201 52.4967 65.7717 48.224 67.4989C43.9513 69.2261 39.3754 70.0744 34.7686 69.9935C30.1907 70.0836 25.6425 69.2378 21.4019 67.5078C17.1612 65.7777 13.3173 63.1997 10.1048 59.9313C6.81669 56.7242 4.22329 52.8731 2.48623 48.6179C0.749174 44.3627 -0.0943081 39.7947 0.00836463 35.1986C0.00836463 25.1422 3.37958 16.7627 10.122 10.0604C13.3365 6.79283 17.1823 4.21608 21.4244 2.48752C25.6665 0.758947 30.2158 -0.0851533 34.7945 0.00677779C39.4003 -0.0713788 43.9748 0.779138 48.2459 2.50775C52.517 4.23635 56.3975 6.80774 59.6565 10.069C66.5482 16.7771 69.9941 25.1594 69.9941 35.2159C70.0812 39.832 69.2051 44.4155 67.4221 48.6729C65.639 52.9303 62.9881 56.7679 59.6392 59.9399Z" fill="white"/>
<g clip-path="url(#clip0_1133_11677)">
<path d="M19.9095 46.6447C20.0232 46.8527 20.0943 47.0052 20.1253 47.0724C20.8449 48.4703 21.7286 49.8786 22.9367 50.677L23.0542 50.7532C24.4211 51.5969 26.8682 52.3307 29.3863 52.7377C29.5542 50.792 30.717 49.0323 31.8721 47.7351C30.3634 48.1895 28.7965 48.421 27.2209 48.4225C24.6759 48.4258 22.1676 47.816 19.9082 46.6447H19.9095ZM39.1731 39.2506C37.739 38.7894 35.5878 36.6357 32.3204 37.416C29.6279 38.0594 28.8178 39.938 28.3888 40.6227C27.385 39.6318 26.3178 38.9599 25.4328 38.8101C24.7609 38.6951 24.3191 38.9005 24.0671 39.0904C23.6085 39.4393 23.5969 39.4522 26.6472 45.7946L26.9018 46.323C26.9056 46.332 26.9121 46.3398 26.9186 46.3488L27.1925 46.9147C27.1925 46.9147 27.3682 47.5078 28.3811 47.2274C28.3811 47.2274 35.4018 46.5556 38.071 41.6977C38.2997 41.2829 39.1847 39.2558 39.1731 39.2519V39.2506ZM11.4121 30.7726C11.4328 30.3656 11.4069 29.4599 10.8242 28.9935C10.3553 30.7167 10.0856 32.488 10.0206 34.2726C10.4909 34.3152 11.0064 34.4922 11.5245 34.8966C11.3953 34.0568 11.1175 32.6382 11.4121 30.7726ZM37.8488 52.0504C36.7028 50.8101 36.5077 48.4884 37.2752 45.1227C37.3356 44.8592 37.3993 44.5965 37.4664 44.3346C36.3785 45.5026 34.562 46.6447 33.4444 47.7261C32.2093 48.9212 30.6511 50.8372 30.5025 52.8941C31.8204 53.053 33.1149 53.1279 34.2441 53.0452C36.4121 52.885 37.4573 52.2261 37.8488 52.0504ZM51.0788 22.8165C51.6236 23.4919 52.0795 24.2344 52.4354 25.0258C53.217 26.4987 55.77 30.6951 59.1421 29.8928C58.9586 28.7287 58.6989 27.5271 58.3475 26.3101C58.3217 26.239 58.2984 26.168 58.2713 26.0956L58.2842 26.0917C57.9375 24.93 57.5083 23.7945 57 22.6938C55.0633 23.5039 52.7881 23.2429 51.0788 22.8178V22.8165ZM47.562 14.1473C47.6479 14.2254 47.7076 14.3281 47.7331 14.4414C47.7585 14.5547 47.7484 14.673 47.7041 14.7804C46.8682 16.7984 44.9651 18.4587 43.3385 19.5827C44.8294 19.5607 46.8023 19.854 49.1137 20.9767C49.8501 21.2894 53.7002 22.8088 56.5025 21.6822C56.4948 21.6667 56.4832 21.6486 56.4767 21.6305C56.4199 21.522 56.3604 21.4147 56.301 21.3075C55.3578 19.6034 52.8488 15.7183 48.2429 12.7933C45.793 11.3069 43.0566 10.355 40.2131 10C40.4857 11.399 40.3345 12.8476 39.779 14.1602C44.0814 12.2713 46.3721 13.062 47.562 14.1473ZM38.9625 51.5413C41.0723 50.5607 42.7739 49.6796 44.1447 48.8902C44.0323 48.8437 43.9263 48.7959 43.8307 48.7429C41.739 47.5995 40.5697 43.6667 40.0439 40.2313C39.9695 40.4262 39.8903 40.6192 39.8062 40.8101C39.4418 41.7429 38.7984 43.5142 38.3733 45.3863C37.4612 49.3915 38.1472 50.9522 38.9625 51.5413ZM52.4806 31.739C49.854 33.199 47.2661 33.9315 44.7454 33.9315C43.3274 33.9318 41.919 33.6974 40.5775 33.2377C41.0439 35.1085 40.7041 36.9948 40.978 38.7003C41.1072 38.7442 41.2364 38.7894 41.3669 38.8295C45.2416 40.0995 48.2506 40.3204 50.0684 39.4677C50.5904 39.2235 51.0116 38.8928 51.3436 38.4729C52.6175 36.8708 52.54 33.5271 52.4806 31.739Z" fill="#FF6B00"/>
<path d="M46.3928 47.4755L46.3954 47.4793C49.0956 45.8863 50.7183 42.2067 51.2881 40.0633C51.0536 40.2269 50.8055 40.3699 50.5465 40.491C49.6163 40.9277 48.5181 41.1059 47.3424 41.1059C45.3424 41.1059 43.1227 40.5891 41.1421 39.9496C41.6486 43.2597 42.7519 46.8656 44.3721 47.7519C44.9793 48.0827 45.6382 47.9923 46.3928 47.4755ZM40.2855 31.9277C40.7464 32.1139 41.218 32.2727 41.6977 32.4031C45.1085 33.3127 48.7158 32.6641 52.4277 30.469C52.3902 28.4199 51.9897 26.7933 51.407 25.5052C51.2494 25.2041 51.1641 25.0142 51.1537 24.9897H51.155C50.5158 23.7602 49.5874 22.7045 48.4496 21.9134C45.9302 20.73 43.8682 20.6266 42.5194 20.7765C46.3773 22.2933 47.0349 24.478 47.0646 24.584L47.0904 24.6744C47.1499 24.8811 47.0543 25.0982 46.8618 25.1951L46.7778 25.2377C43.0698 27.115 39.5594 26.0646 37.6434 25.1667C38.208 26.5 38.9561 28.283 39.2481 28.9729L39.2558 28.969C39.376 29.2442 39.4922 29.531 39.6072 29.8269L39.615 29.8437C39.8759 30.5259 40.1002 31.2215 40.2868 31.9277H40.2855ZM52.8592 48.239C51.8669 46.8075 51.5413 44.7248 51.4948 42.8075C51.1836 43.5448 50.8343 44.2654 50.4483 44.9664L50.4509 44.969C50.3979 45.0853 50.3359 45.2016 50.2662 45.3204C49.6886 46.4522 47.8295 50.4186 48.6925 52.9664C48.9212 53.6831 49.4249 54.2797 50.093 54.6253C50.7933 54.1085 52.8282 52.491 54.8114 49.7791C54.0297 49.4948 53.3734 48.9819 52.8605 48.239H52.8592ZM15.0065 42.6667C13.7248 40.9897 12.7997 39.5426 12.3333 38.022C12.0775 37.1835 11.2145 35.6098 10 35.416C10.0168 37.8863 10.3992 40.2739 11.093 42.5246C12.6137 42.2662 13.9121 42.3643 15.0065 42.6667Z" fill="#FF6B00"/>
<path d="M47.6227 53.3256C47.0336 51.5814 47.4703 49.4005 48.062 47.6369C47.7468 47.8876 47.3979 48.1408 47.0258 48.3992L47.0297 48.4044C46.9677 48.4457 46.9083 48.4832 46.8475 48.5207C46.4128 48.8167 45.9708 49.1019 45.522 49.376L45.5258 49.3824C45.2597 49.5452 39.1615 53.4031 42.0724 58.9108C44.6145 58.1251 47.0132 56.934 49.1757 55.3837C48.4409 54.8923 47.8937 54.167 47.6227 53.3256ZM59.2959 31.0129C58.9561 31.0866 58.6163 31.1266 58.2778 31.1266C56.6021 31.1266 54.9444 30.2287 53.416 28.478L53.4031 28.4625C53.5065 29.1951 53.5581 29.9638 53.5581 30.7649C53.5762 31.0013 53.5904 31.239 53.6008 31.4742C53.7209 32.8178 54.1873 35.801 55.9974 37.4018C56.8824 38.1835 58 38.5388 59.3269 38.4677L59.3605 38.2907C59.4845 37.2881 59.5478 36.2687 59.5478 35.2351C59.5504 33.9599 59.4832 32.531 59.2959 31.0129Z" fill="#FF6B00"/>
<path d="M55.2493 38.2429C54.4263 37.5142 53.8423 36.5736 53.4315 35.6059C53.3152 36.5478 53.1485 37.4522 52.9496 38.3152C52.8036 39.1834 51.9302 44.9212 53.7868 47.5969C54.2299 48.239 54.7894 48.633 55.4844 48.8062C56.3445 47.5086 57.0746 46.1294 57.664 44.6886L57.6718 44.6925C58.3519 43.0545 58.8526 41.3478 59.1653 39.602C57.6304 39.6408 56.3152 39.186 55.2506 38.2442L55.2493 38.2429ZM20.2751 49.5426C19.7093 48.7312 19.239 47.8423 18.8242 46.9922C18.1162 45.7571 15.9741 42.9315 11.4599 43.6072C12.3772 46.1524 13.6976 48.5038 15.3462 50.5878C16.695 49.1666 18.593 49.1098 20.2751 49.5413V49.5426ZM34.5633 54.164C32.916 54.301 30.9844 54.1602 29.1136 53.8449C27.7467 53.7002 23.9379 53.5581 21.2739 55.9961C24.3975 58.0387 27.9447 59.3443 31.6472 59.8139C31.602 58.155 32.3708 56.4418 33.9018 54.8204C34.1137 54.5932 34.3344 54.3742 34.5633 54.164ZM22.394 51.6705C21.7739 51.2984 18.0943 49.239 16.1059 51.4224C16.6576 52.0982 18.0788 53.7054 20.3255 55.3398C21.7906 53.9108 23.5529 53.208 25.1627 52.885C23.5038 52.4005 22.4237 51.6899 22.394 51.6705ZM41.7609 51.4418C40.372 52.1395 36.6304 53.4057 34.4883 55.8488C33.5297 56.9444 32.6886 58.3449 32.7777 59.894C33.5335 59.9767 35.2635 60.1007 37.5219 59.8553L37.854 59.8165L37.9896 59.7997C39.0012 59.6692 39.9948 59.4767 40.9651 59.2261C39.3875 56.0478 40.3746 53.3475 41.7609 51.4418ZM19.7958 38.7209C19.8656 38.7765 19.9857 38.8553 20.3746 38.8553C20.8436 38.8553 21.7002 38.739 23.3307 38.3255C25.347 37.8111 27.3175 37.1313 29.2222 36.2932C29.4844 36.1718 30.1524 35.8462 30.9276 35.4625C31.1997 35.7623 31.4127 36.1108 31.5555 36.4896C35.9612 35.5258 37.6369 37.4392 39.4819 38.1537C39.8591 36.354 39.7971 33.9974 39.3384 32.7506C35.0568 30.8385 32.3294 27.1279 31.3229 25.5581C30.3152 26.3398 28.8152 27.3837 27.9031 29.2274C26.049 32.9767 24.0917 36.3488 20.5968 37.4224C19.9987 37.6059 19.6098 37.7545 19.5594 38.1873C19.5499 38.289 19.5667 38.3915 19.6081 38.4849C19.6495 38.5783 19.7141 38.6595 19.7958 38.7209Z" fill="#FF6B00"/>
<path d="M22.7585 30.7558C23.7791 30.0194 25.6215 28.7054 26.2675 28.1757C27.438 27.2119 30.6809 24.6512 31.4988 24.0039C31.5957 23.9264 31.7391 23.9612 31.7959 24.0723C34.323 29.0982 38.9342 31.2907 38.9342 31.2907C38.7268 30.656 38.4888 30.0316 38.221 29.4199L38.2274 29.4186L37.261 27.1395L36.6486 25.7003C36.4209 25.1614 36.1909 24.6235 35.9587 24.0866L35.2236 22.4044C35.199 22.3475 35.2623 22.2972 35.314 22.332L36.805 23.4044C36.8489 23.4367 41.1499 26.4406 45.7636 24.4664C45.2959 23.7222 43.9161 22.1615 40.2274 21.2248L38.9703 20.9057C38.8799 20.8824 38.8683 20.7584 38.9535 20.7196L40.1267 20.1667C40.1758 20.1434 44.8812 17.9005 46.4832 14.73C44.3773 13.2868 40.7016 14.863 38.6318 15.9729L36.2714 17.239C36.2145 17.27 36.159 17.2003 36.2003 17.1512L37.9354 15.1111C38.0091 15.0233 39.6964 12.9729 39.0853 10.1163C37.938 9.93927 34.0349 9.66667 30.5879 13.2726L29.9006 13.9922C29.8868 14.0071 29.869 14.0176 29.8494 14.0225C29.8298 14.0274 29.8091 14.0265 29.79 14.02C29.7709 14.0134 29.754 14.0014 29.7415 13.9855C29.7291 13.9696 29.7215 13.9504 29.7197 13.9302L29.4316 11.0775C27.7094 11.814 23.1577 14.363 22.4846 20.8915C22.2468 23.2145 21.8709 25.2093 21.3566 26.9057L21.3528 26.9044L21.2856 27.1434C21.1157 27.6821 20.9204 28.2124 20.7003 28.7326C20.5367 29.0895 20.3458 29.4334 20.1293 29.761C19.7507 30.3269 19.92 30.7041 20.0763 30.8605C20.3825 31.1731 21.8915 31.3798 22.7585 30.7558ZM27.8657 20.0711C28.6305 19.5801 29.4419 20.3915 28.9522 21.1563C28.9199 21.208 28.8747 21.2532 28.8243 21.2855C28.0595 21.7765 27.2468 20.9625 27.7378 20.1977C27.7701 20.1473 27.8153 20.1046 27.8657 20.0698V20.0711ZM23.8347 20.0711C24.5995 19.5801 25.4109 20.3915 24.92 21.1563C24.8889 21.208 24.8424 21.2532 24.792 21.2855C24.0272 21.7765 23.2158 20.9625 23.7068 20.1977C23.7391 20.1473 23.783 20.1046 23.8334 20.0698L23.8347 20.0711Z" fill="#FF6B00"/>
</g>
<defs>
<clipPath id="clip0_1133_11677">
<rect width="49.6124" height="50" fill="white" transform="translate(10 10)"/>
</clipPath>
</defs>
</svg>
