<svg width="70" height="70" viewBox="0 0 70 70" fill="none" xmlns="http://www.w3.org/2000/svg">
<path d="M59.6392 59.9399C56.3788 63.201 52.4967 65.7717 48.224 67.4989C43.9513 69.2261 39.3754 70.0744 34.7686 69.9935C30.1907 70.0836 25.6425 69.2378 21.4019 67.5078C17.1612 65.7777 13.3173 63.1997 10.1048 59.9313C6.81669 56.7242 4.22329 52.8731 2.48623 48.6179C0.749174 44.3627 -0.0943081 39.7947 0.00836463 35.1986C0.00836463 25.1422 3.37958 16.7627 10.122 10.0604C13.3365 6.79283 17.1823 4.21608 21.4244 2.48752C25.6665 0.758947 30.2158 -0.0851533 34.7945 0.00677779C39.4003 -0.0713788 43.9748 0.779138 48.2459 2.50775C52.517 4.23635 56.3975 6.80774 59.6565 10.069C66.5482 16.7771 69.9941 25.1594 69.9941 35.2159C70.0812 39.832 69.2051 44.4155 67.4221 48.6729C65.639 52.9303 62.9881 56.7679 59.6392 59.9399Z" fill="white"/>
<path d="M34.5334 46.3333V34.8666L51.6667 25.2V36.3999L34.5334 46.3333Z" fill="#BD967F"/>
<path d="M34.5333 49.0333L17.6 38.6V25.7L34.5333 35.5333V49.0333Z" fill="#886B59"/>
<path d="M44.9 55.4V50.8L37 46.3667V50.6334L44.9 55.4Z" fill="#29121A"/>
<path d="M44.9 55.4001L51.9667 51.3001V46.6667L44.9 50.8001V55.4001Z" fill="#3C1A26"/>
<path d="M40.2333 48.2333L47.3 44.1333L51.9667 46.6666L44.9 50.8L40.2333 48.2333Z" fill="#421D2A"/>
<path d="M34.5333 29.8L17.5 19.9L34.5333 10L51.6 19.9L34.5333 29.8Z" fill="#F2716A"/>
<path d="M36.8333 60V55.4L25.2667 49V53.2667L36.8333 60Z" fill="#29121A"/>
<path d="M36.8333 59.9999L43.9 55.8999V51.2666L36.8333 55.3999V59.9999Z" fill="#3C1A26"/>
<path d="M32.1667 52.8334L39.2333 48.7334L43.9 51.2667L36.8333 55.4001L32.1667 52.8334Z" fill="#421D2A"/>
<path d="M30.0333 52.4667V49.5667L24.3667 50.8667V55.8333L30.0333 52.4667Z" fill="#BD967F"/>
<path d="M24.3667 55.8333L18.6 52.5V48.1333L24.3667 51.6333V55.8333Z" fill="#886B59"/>
<path d="M34.6 55.2V49.6333L26.8333 44.2333L17.6 38.6V44.8333L23.2333 46.5666L28 51.3333L34.6 55.2Z" fill="#9F4256"/>
<path d="M26.1334 50.1667L16.9 44.9333V47.6334L26.1334 52.8667V50.1667Z" fill="#9F4256"/>
<path d="M26.1333 52.8667L31.7333 49.5V47.0333L26.1333 50.1667V52.8667Z" fill="#DA625C"/>
<path d="M26.1333 50.2001L16.8667 44.9667L22.6 41.6667L23.8333 42.4334L31.0333 47.4667L26.1333 50.2001Z" fill="#D5545A"/>
<path d="M34.5667 49.9667V47.6667L33.5 47.1333L26.1334 38.1667V32.7333L24.0334 31.5V36.8667L23.0334 40.6V43.1L34.5667 49.9667Z" fill="#898989"/>
<path d="M52.9 37.1334L51.7 36.4L34.5667 46.3L27.2667 37.4334V32L25.2667 30.8667L24.0667 31.5667L26.1 32.6667V38.1334L33.4667 47.1L34.5667 47.6667L52.9 37.1334Z" fill="white"/>
<path d="M34.6 49.6333V55.2L51.7 45.3667V40.0333L34.6 49.6333Z" fill="#DA625C"/>
<path d="M34.5667 49.9333V47.6666L52.8667 37.1666V39.4666L49.3667 44.0333L48.9667 43.8333L47.1 46.4666L46.5 46.0333L44.3 49.4666L41.9667 48.4666L41.4667 49.7666L39.5333 49.1333L39.2 49.8333L35.6667 49.3333L34.5667 49.9333Z" fill="#D6D6D6"/>
<path d="M38.6 41.8667L43.1333 39.2333V34.0667L38.6 36.6333V41.8667Z" fill="white"/>
<path d="M45.3333 37.9333L49.8667 35.3V30.1333L45.3333 32.7V37.9333Z" fill="white"/>
<path d="M40.8333 40.6L43.1 39.2495V36.6L40.8333 37.9162V40.6Z" fill="#493239"/>
<path d="M47.5667 36.6666L49.8333 35.3162V32.6666L47.5667 33.9829V36.6666Z" fill="#493239"/>
<path d="M34.5333 36.2334V29.4334L17.5667 19.8667V26.4667L34.5333 36.2334Z" fill="#A24741"/>
<path d="M51.6334 26.4L34.5334 36.2334V29.6L51.6334 19.8V26.4Z" fill="#DB5B54"/>
<path d="M43.9667 34.7L38.2667 31.5V34.0667L43.9667 37.3667V34.7Z" fill="#A24741"/>
<path d="M43.9333 34.7333V37.3333C47.4 34.0533 51.4667 32.5 53.0667 32.1333V29.5333C49.84 29.56 45.6333 33.0111 43.9333 34.7333Z" fill="#DB5B54"/>
<path d="M47.3667 26.1666L53.1333 29.5333C49.2933 30.36 45.4444 33.3444 44 34.7333C42.2555 33.7222 38.6733 31.6533 38.3 31.4666C41.02 28.5333 45.4778 26.7111 47.3667 26.1666Z" fill="#F2716A"/>
</svg>
