<svg width="70" height="70" viewBox="0 0 70 70" fill="none" xmlns="http://www.w3.org/2000/svg">
<path d="M35 70C54.33 70 70 54.33 70 35C70 15.67 54.33 0 35 0C15.67 0 0 15.67 0 35C0 54.33 15.67 70 35 70Z" fill="#97C0D8"/>
<path d="M29.187 49.3689C29.0936 49.2899 28.9817 49.3256 28.8788 49.3255C22.585 49.3236 16.2912 49.3265 9.99747 49.3341C9.49667 49.3354 8.99223 49.3814 8.48867 49.3813C8.18794 49.3812 8.17639 49.3654 8.31948 49.0891C9.32691 47.1435 10.3528 45.2072 11.3375 43.2501C11.6312 42.6333 11.8782 41.9954 12.0766 41.3417C12.259 40.8131 12.5513 40.3292 12.9343 39.9218C13.5629 39.2198 14.2338 38.5587 14.903 37.8962C15.0059 37.7944 15.1177 37.7022 15.2372 37.6205C15.8868 37.1765 15.9318 36.4294 16.158 35.7771C16.3058 35.3512 16.4064 34.9091 16.5341 34.4759C16.5656 34.384 16.6197 34.3014 16.6912 34.2357C17.2662 33.6577 17.8625 33.0998 18.3906 32.4774C19.2025 31.6763 19.8235 30.7026 20.2074 29.6286C20.4789 28.5807 20.5607 27.4927 20.4491 26.416C20.4293 26.1972 20.6088 26.0514 20.7533 25.9203C21.3141 25.4055 21.9256 24.9487 22.5783 24.5568C22.7622 24.4543 22.9102 24.2976 23.002 24.108C23.9559 22.182 25.016 20.3103 26.1773 18.5017C26.4461 18.0796 26.7123 17.6557 26.9806 17.2333C27.1044 16.9726 27.1764 16.6903 27.1925 16.4022C27.3226 15.7149 27.4173 15.0208 27.5295 14.3091C27.6476 14.3714 27.7669 14.4269 27.8789 14.4946C28.2019 14.6898 28.1946 14.6885 28.3761 14.3434C28.4993 14.1234 28.5578 13.873 28.5448 13.6212C28.5479 12.9559 28.6277 12.2931 28.7826 11.646C28.8113 11.476 28.9639 11.372 29.0668 11.254C29.4413 10.8251 29.7907 10.3703 30.1874 9.96655C30.3709 9.76762 30.6075 9.62527 30.8692 9.55629C31.1309 9.4873 31.4069 9.49455 31.6647 9.57717C32.1328 9.69196 32.613 9.75004 33.0949 9.75017C33.1709 9.75605 33.247 9.73929 33.3135 9.70201C33.38 9.66473 33.434 9.6086 33.4687 9.54068C34.0802 8.61793 34.7044 7.70353 35.3278 6.78874C35.3732 6.72223 35.3841 6.60281 35.4976 6.61318C35.6024 6.62276 35.6187 6.73196 35.651 6.80692C36.302 8.3186 36.9496 9.83175 37.5937 11.3464C37.6212 11.4275 37.6696 11.5 37.734 11.5566C37.7983 11.6131 37.8764 11.6518 37.9604 11.6686C38.0437 11.6832 38.1205 11.7228 38.1806 11.7821C38.2408 11.8414 38.2815 11.9176 38.2974 12.0006C38.679 13.1919 39.0967 14.3722 39.4506 15.5715C39.5117 15.799 39.6369 16.0043 39.8113 16.1627C39.9858 16.3211 40.2021 16.426 40.4344 16.465C40.6828 16.5442 40.9424 16.582 41.203 16.577C41.2512 16.5704 41.3002 16.5767 41.3451 16.5953C41.3901 16.6138 41.4293 16.6439 41.4588 16.6825C42 17.3719 42.6841 17.9248 43.2772 18.5658C43.5114 18.7327 43.7768 18.851 44.0575 18.9136C44.4324 19.064 44.8081 19.213 45.1879 19.3504C45.2385 19.3595 45.2839 19.387 45.3155 19.4276C45.347 19.4682 45.3624 19.519 45.3587 19.5703C45.4733 21.1706 45.9499 22.7241 46.7524 24.1134C46.9271 24.4404 47.2627 24.5045 47.5233 24.6891C47.9472 24.9892 48.3793 25.2788 48.82 25.5537C48.9136 25.6173 48.9917 25.7014 49.0484 25.7995C49.105 25.8976 49.1388 26.0072 49.1471 26.1201C49.2818 26.8375 49.4059 27.5574 49.5673 28.2688C49.6876 28.594 49.8536 28.9004 50.0602 29.1788C50.5105 29.9857 51.0068 30.7672 51.4461 31.5798C51.7127 32.0819 51.9437 32.6021 52.1375 33.1366C52.5266 33.9757 53.0331 34.7553 53.6417 35.4518C54.1894 36.1955 54.766 36.9179 55.3132 37.662C55.4731 37.9791 55.5775 38.3212 55.6218 38.6736C55.7053 38.9484 55.7304 39.241 55.8146 39.5155C55.9473 39.8155 56.1303 40.0905 56.3557 40.3289C57.4638 41.8305 58.5888 43.3199 59.6832 44.8314C60.1781 45.6256 60.596 46.4654 60.931 47.3392C61.1867 47.8882 61.4011 48.4564 61.6362 49.015C61.8155 49.4411 61.8171 49.4405 61.3432 49.4405C53.8043 49.4405 46.2653 49.4388 38.7264 49.4353C38.4643 49.4351 38.3046 49.4769 38.2135 49.7578C38.1011 50.1041 37.8991 50.4213 37.7867 50.7677C37.7162 50.9848 37.6088 51.0421 37.4112 51.0151C37.4108 50.4121 37.4492 49.8057 37.3975 49.2071C37.3927 48.7279 37.345 48.2501 37.2551 47.7794C36.9919 46.7973 36.7011 45.8246 36.3679 44.8646C36.3374 44.793 36.3305 44.7135 36.3484 44.6377C36.3663 44.5619 36.4081 44.4938 36.4675 44.4434C36.7615 44.1176 37.0127 43.7536 37.2978 43.419C37.4858 43.1984 37.6021 42.8986 38.0089 42.9292C38.2092 42.9412 38.4103 42.929 38.6077 42.893C39.5527 42.724 40.4832 42.4817 41.3907 42.1684C41.5277 42.125 41.648 42.0403 41.735 41.9259C42.0327 41.5461 42.3762 41.2047 42.7578 40.9094C42.8132 40.8646 42.8643 40.8273 42.9436 40.8732C42.9255 40.9563 42.8851 41.0328 42.8267 41.0946C42.6375 41.3107 42.5078 41.5724 42.4505 41.8538C42.3797 42.0888 42.506 42.2413 42.7389 42.1878C42.9552 42.1568 43.169 42.1112 43.3791 42.0511C43.6674 41.9433 43.9414 41.8046 44.2301 41.6935C43.7067 42.3303 42.9664 42.7511 42.1515 42.8751C42.4688 43.2544 42.8512 43.5741 43.2808 43.8192C43.7563 44.0126 44.2296 44.2136 44.6932 44.4336C45.1176 44.635 45.6332 44.7351 45.7375 45.33C45.7831 45.4577 45.8682 45.5674 45.9805 45.6433C46.06 45.7339 46.1579 45.8065 46.2677 45.8562C46.3775 45.9059 46.4966 45.9315 46.6171 45.9313C46.7377 45.9312 46.8567 45.9052 46.9664 45.8553C47.0761 45.8053 47.1738 45.7324 47.253 45.6416C47.4521 45.3977 47.6358 45.1416 47.8027 44.8747C48.2326 44.1545 48.8429 43.5589 49.5732 43.1466C50.2519 42.8262 50.8607 42.3751 51.3649 41.8192C51.4506 41.7259 51.5182 41.6416 51.4539 41.5151C51.222 41.0128 50.9547 40.5275 50.6542 40.0629C50.5729 39.9467 50.5157 39.9627 50.4184 40.0345C50.2381 40.1659 50.0361 40.2649 49.8217 40.3267C49.8834 40.1285 49.9189 39.9703 49.9814 39.8237C50.091 39.5666 49.9481 39.5714 49.7588 39.5695C49.4238 39.6076 49.1171 39.7753 48.9041 40.0366C48.5255 40.3643 48.1689 40.7191 47.7755 41.0272C47.4363 41.2929 47.127 41.5473 47.1654 42.0357C47.1493 42.1461 47.1156 42.2532 47.0656 42.353C46.5177 41.4227 45.9115 40.5281 45.2504 39.6745C45.2237 40.1058 45.2413 40.5387 45.3029 40.9663C45.2673 40.9584 45.2352 40.9394 45.2112 40.912C45.1872 40.8846 45.1725 40.8502 45.1694 40.8139C44.9617 40.1336 44.797 39.4396 44.529 38.7785C44.4617 38.5798 44.3337 38.4072 44.1631 38.285C43.6094 37.9217 42.9631 37.7247 42.3008 37.7175C41.7429 37.6938 41.1862 37.6568 40.6308 37.6063C40.4101 37.5863 40.1232 37.4889 39.9631 37.6707C39.4833 38.2154 39.0461 38.7974 38.5866 39.3601C38.017 40.0577 37.4561 40.7631 36.8633 41.4405C36.5358 41.8147 36.4864 42.0885 36.7146 42.3625C37.0568 42.7736 36.8484 43.0138 36.6091 43.304C36.5428 43.3843 36.4918 43.477 36.4277 43.5593C36.2174 43.8787 35.9771 44.1773 35.7102 44.4511C35.2093 44.8795 34.6485 45.2324 34.0455 45.4987C33.9298 45.5488 33.8304 45.6304 33.7587 45.7342C33.0935 46.7103 32.4318 47.6888 31.7632 48.6626C31.7188 48.7206 31.6913 48.7898 31.6837 48.8624C31.6761 48.935 31.6887 49.0083 31.7201 49.0742C31.972 49.7192 32.2517 50.3536 32.4601 51.0151C32.3122 51.0435 32.2269 50.9465 32.1454 50.8516C31.7408 50.3813 31.3322 49.9142 30.9396 49.434C30.9218 49.406 30.8983 49.3821 30.8705 49.3639C30.8427 49.3457 30.8113 49.3337 30.7785 49.3286C30.7457 49.3236 30.7122 49.3255 30.6802 49.3345C30.6482 49.3434 30.6185 49.359 30.593 49.3804C30.5692 49.2248 30.6877 49.1324 30.7615 49.026C31.4244 48.0696 32.0957 47.119 32.7566 46.1612C32.8909 45.9666 33.1862 45.7588 33.1098 45.5782C33.0443 45.4232 32.6772 45.4534 32.4495 45.3853C32.3881 45.3605 32.3202 45.3567 32.2564 45.3747C32.1927 45.3926 32.1366 45.4311 32.0971 45.4843C31.8985 45.6963 31.6896 45.8988 31.482 46.1023C31.4029 46.1799 31.3321 46.296 31.1911 46.2052C31.3348 45.9223 31.4766 45.6385 31.624 45.3576C31.6826 45.2458 31.7167 45.179 31.5635 45.0898C31.2638 44.9154 30.9879 44.7001 30.7026 44.5012C30.593 44.4248 30.5185 44.3951 30.4517 44.5663C30.3935 44.8105 30.2719 45.0351 30.099 45.2171C30.0714 44.2062 29.7658 43.2224 29.2159 42.3737C29.1592 42.5857 29.1933 42.7748 29.0465 42.9011C28.9691 42.8484 28.9721 42.7671 28.9512 42.6938C28.8089 42.0908 28.6158 41.501 28.3739 40.9307C28.0848 40.3383 27.8481 39.7216 27.6668 39.0879C27.425 38.5558 27.3689 37.9579 27.5077 37.3902C27.5553 37.0993 27.6388 36.8154 27.7562 36.5451C27.7865 36.5844 27.806 36.5984 27.8087 36.6152C27.8181 36.672 27.824 36.7293 27.8267 36.7868C27.8685 38.6359 28.5724 40.4086 29.8103 41.7828C29.9702 41.9598 30.256 42.0605 30.2893 42.3066C30.4311 43.0815 30.7862 43.8014 31.3145 44.3857C31.3604 44.4432 31.377 44.5497 31.4737 44.5262C31.551 44.5073 31.5192 44.4107 31.5418 44.3509C31.5836 44.2401 31.6039 44.1109 31.7739 44.2444C32.2923 44.5841 32.8676 44.8276 33.4723 44.9633C33.6131 45.0124 33.7624 45.0324 33.9112 45.0223C34.06 45.0121 34.2052 44.972 34.338 44.9042C35.1685 44.4564 35.8689 43.8013 36.3715 43.0028C36.5087 42.8072 36.3179 42.5953 36.2383 42.4129C36.188 42.2976 36.0591 42.4426 35.9628 42.456C35.8097 42.4772 35.6591 42.5266 35.5059 42.535C35.3645 42.5606 35.219 42.55 35.0828 42.5042C34.9467 42.4584 34.8243 42.3789 34.7272 42.2731C34.63 42.1673 34.5612 42.0387 34.5271 41.8991C34.4931 41.7596 34.4949 41.6137 34.5324 41.475C34.5745 41.2681 34.4503 41.2854 34.3517 41.2784C34.08 41.2786 33.8101 41.3233 33.5529 41.4109C33.081 41.5339 33.0814 41.5348 33.0309 41.0697C33.0267 41.0314 33.0148 40.9939 33.0098 40.9557C32.8654 40.0448 32.5727 39.1638 32.1433 38.3476C32.0903 38.2392 31.9979 38.1353 32.0694 37.9801C32.4111 38.1039 32.535 38.4592 32.842 38.7186C32.6443 37.9459 32.354 37.2 31.9773 36.4971C31.8065 36.147 31.6017 35.9083 31.1709 36.0161C31.1225 36.0221 31.0734 36.0198 31.0258 36.0091C30.9692 36.0024 30.8912 36.009 30.8755 35.9452C30.8535 35.8557 30.9441 35.8425 31.0021 35.8147C32.0627 35.2485 33.0295 34.5218 33.8681 33.6602C33.9644 33.5697 34.0346 33.4372 34.1928 33.4334L34.2442 33.4767C34.1905 33.6318 34.1073 33.7751 33.999 33.8984C33.5519 34.4835 33.061 35.0339 32.5305 35.5447C32.4764 35.5845 32.4363 35.6405 32.416 35.7045C32.3957 35.7685 32.3962 35.8373 32.4174 35.9011C32.5725 36.4102 32.6841 36.9352 32.8745 37.4303C33.1645 38.1382 33.3489 38.8849 33.4216 39.6465C33.4139 40.0942 33.4471 40.5416 33.5208 40.9832C33.9726 40.8325 34.4359 40.7187 34.9061 40.6429C34.9863 40.6314 35.063 40.6027 35.131 40.5588C35.199 40.5148 35.2567 40.4567 35.3001 40.3883C35.9446 39.5085 36.5977 38.6348 37.2373 37.7515C37.3378 37.6128 37.4958 37.4987 37.5153 37.2908C37.1392 37.2365 36.7753 37.1873 36.413 37.1298C36.2843 37.1093 36.225 37.1632 36.1641 37.2705C35.9928 37.5729 35.812 37.8697 35.6217 38.161C35.5738 38.2344 35.5458 38.3885 35.4347 38.3511C35.3028 38.3067 35.4128 38.1663 35.3939 38.0704C35.3888 38.0447 35.4087 38.0149 35.413 37.9863C35.5872 37.3001 35.6147 36.5848 35.4937 35.8873C35.4565 35.7481 35.4581 35.599 35.4327 35.456C35.4062 35.3576 35.4112 35.2534 35.4471 35.1581C35.483 35.0627 35.5481 34.9811 35.633 34.9248C35.7955 34.7844 35.9143 34.6003 35.9754 34.3944C36.0676 34.1183 36.1409 33.8361 36.1946 33.55C36.3859 33.6711 36.2946 33.872 36.3917 34.016C36.7231 33.5844 36.9367 33.0742 37.0117 32.5353C37.0611 32.0539 37.1258 31.5741 37.1739 31.0926C37.1896 30.9356 37.235 30.8938 37.3667 30.9957C37.4196 31.0366 37.4715 31.0788 37.5239 31.1204L37.5618 31.2074C37.5968 31.1691 37.5834 31.1265 37.5728 31.0841C37.4796 30.5303 37.2909 29.9969 37.0151 29.5077C36.8848 29.2582 36.7864 28.9815 36.4418 28.9137C36.2832 28.8824 36.2201 28.7553 36.4196 28.6374C36.5316 28.5612 36.6393 28.479 36.7423 28.3912C36.8316 28.3242 36.8895 28.1599 37.0145 28.212C37.1161 28.2544 37.0974 28.4103 37.114 28.5206C37.1241 28.5877 37.1237 28.6563 37.1312 28.7239C37.1996 29.1346 37.3888 29.5157 37.6745 29.8186C37.7435 29.6322 37.6475 29.4235 37.8768 29.3138C37.9258 29.4924 37.97 29.667 38.0218 29.8394C38.0762 30.028 38.1597 30.2069 38.2695 30.3697C38.3566 30.2132 38.4334 30.0709 38.5144 29.931C38.5711 29.833 38.6313 29.6816 38.7587 29.7391C38.8699 29.7893 38.7654 29.9299 38.7649 30.0305C38.7647 30.0727 38.7328 30.1238 38.8198 30.1677C38.9318 30.0471 39.0524 29.924 39.1638 29.7932C39.1967 29.7546 39.2198 29.7104 39.275 29.7237C39.3366 29.7386 39.3221 29.7983 39.3302 29.8431C39.33 30.0512 39.3165 30.2592 39.2899 30.4656C39.4848 30.3281 39.6447 30.1469 39.7569 29.9365C39.8294 29.8274 39.8997 29.6862 40.0366 29.7378C40.1898 29.7956 40.0674 29.9312 40.049 30.0318C40.0402 30.0798 40.0136 30.1328 40.0552 30.1676C40.1132 30.216 40.1617 30.1578 40.2086 30.1312C40.4107 29.9995 40.5897 29.8353 40.7383 29.6452C40.8238 29.5495 40.9159 29.4156 41.0466 29.488C41.1622 29.552 41.0091 29.6771 41.0328 29.7783C41.0361 29.7926 41.0533 29.8036 41.0801 29.8348C41.3338 29.5791 41.4839 29.2384 41.5013 28.8785C41.4445 28.6217 41.4586 28.3543 41.5422 28.1049C41.6763 27.8696 41.758 27.6082 41.7818 27.3385C41.7869 27.2585 41.8112 27.1809 41.8526 27.1123C41.894 27.0437 41.9514 26.986 42.0199 26.9443C42.1673 26.8708 42.2974 26.7669 42.4017 26.6395C42.5061 26.512 42.5823 26.364 42.6253 26.205C42.6683 26.046 42.6772 25.8797 42.6513 25.717C42.6254 25.5544 42.5654 25.399 42.4752 25.2612C42.4183 25.1281 42.3688 24.9919 42.3268 24.8532C42.1036 24.1815 41.9596 23.486 41.8977 22.7808C41.7212 23.0597 41.7484 23.3669 41.5406 23.6942C41.3562 22.9019 40.9135 22.1935 40.2821 21.6806C40.2777 21.8656 40.256 22.0498 40.2173 22.2308C40.1782 22.4298 40.095 22.4418 39.9363 22.3543C39.5876 22.1827 39.2081 22.0828 38.8201 22.0605C38.2592 22.0261 37.7025 21.9415 37.1567 21.8076C37.0136 21.7307 36.8491 21.7029 36.6886 21.7284C36.834 21.8964 36.9952 22.0499 37.1701 22.1869C37.4412 22.3748 37.4376 22.3786 37.1536 22.5264C36.7931 22.6933 36.4518 22.899 36.1359 23.14C36.2345 23.2325 36.408 23.1188 36.4202 23.2666C36.4285 23.367 36.2787 23.3794 36.1959 23.4214C35.9024 23.5698 35.6232 23.7452 35.3621 23.9451C34.904 24.269 34.4866 24.6469 34.1187 25.0705C34.0722 25.1271 34.0095 25.1681 33.939 25.188C33.8684 25.2079 33.7935 25.2057 33.7243 25.1818C33.5877 25.1209 33.7181 24.969 33.7579 24.8765C33.9299 24.477 34.1215 24.086 34.3062 23.692C34.3777 23.4932 34.3964 23.2791 34.3603 23.0709C34.3243 22.8627 34.2348 22.6674 34.1006 22.5041C33.5821 22.1292 33.1292 21.6711 32.7603 21.1483C32.5343 20.9218 32.3867 20.6288 32.3393 20.3124L32.332 20.3169C32.4661 20.2632 32.5173 20.3838 32.597 20.4435C32.8655 20.6663 33.1749 20.8347 33.5077 20.9393C33.1677 20.4649 32.8933 19.9467 32.6923 19.3987C32.4862 18.632 32.3333 17.8519 32.2347 17.0641C32.0997 16.3209 31.9895 15.5733 31.8696 14.8274C31.8488 14.6982 31.8361 14.5786 31.6603 14.7068C31.3193 14.9441 30.9524 15.1419 30.5668 15.2965C29.8654 15.5968 29.9065 15.7288 29.8264 14.8655C29.805 14.6343 29.734 14.6536 29.5864 14.7611C29.2479 15.0051 28.9401 15.2893 28.6699 15.6074C28.526 15.7785 28.4327 15.8009 28.2834 15.6317C28.2041 15.5418 28.1133 15.3822 27.995 15.4297C27.8935 15.4705 27.9301 15.6508 27.9096 15.7701C27.9068 15.8089 27.9059 15.8478 27.9071 15.8866C27.8499 16.767 27.7893 17.6471 27.7375 18.5278C27.7113 18.6813 27.7178 18.8386 27.7565 18.9894C27.8415 18.9476 27.9038 18.9223 27.9604 18.8876C28.0247 18.8482 28.095 18.7585 28.1608 18.8152C28.2359 18.88 28.1676 18.9716 28.1338 19.0524C28.048 19.2573 27.9627 19.4632 27.8934 19.674C27.6222 20.5539 27.4543 21.4623 27.3929 22.3809C27.3247 22.8975 27.3058 23.4195 27.3362 23.9397C27.4659 23.6961 27.6351 23.4756 27.8369 23.2873C27.8611 23.2635 27.8905 23.2456 27.9227 23.2348C27.9549 23.2241 27.9892 23.2208 28.0228 23.2253C28.1203 23.2432 28.0831 23.3349 28.0814 23.3934C28.0744 24.7733 28.3476 26.1403 28.8844 27.4115C29.125 28.0299 29.1152 28.0202 29.7247 27.7711C29.9971 27.6065 30.2967 27.4919 30.6093 27.4325C30.5912 27.6055 30.4663 27.681 30.3716 27.7737C30.0078 28.1373 29.7168 28.5669 29.5142 29.0396C28.8032 30.7561 27.7779 32.3248 26.4909 33.665C26.0719 34.1066 25.749 34.6303 25.5427 35.203C25.3363 35.7757 25.2509 36.3849 25.2919 36.9923C25.3055 37.7968 25.3775 38.5992 25.5073 39.3933C25.5914 39.9021 25.6758 40.4109 25.7592 40.9143C25.9224 40.9069 25.9204 40.6909 26.0397 40.7428C26.1482 40.7899 26.1198 40.9411 26.1348 41.0482C26.2536 41.8064 26.5341 42.5301 26.9573 43.1704C27.1234 43.4337 27.127 43.4302 27.2854 43.159C27.3179 43.1034 27.3282 43.0137 27.413 43.0168C27.5178 43.0205 27.5089 43.1267 27.5343 43.1924C27.6376 43.4642 27.7684 43.7248 27.9247 43.9701C28.6572 45.0657 29.5122 46.0744 30.4732 46.9764C30.6319 47.131 30.6693 47.2422 30.5298 47.4402C30.2017 47.9059 29.9095 48.3967 29.5878 48.8671C29.4677 49.0425 29.402 49.2673 29.187 49.3689ZM21.0833 33.8679L21.0306 33.8186C21.9291 32.5655 22.6409 31.1886 23.1439 29.731C23.4706 28.8809 23.7263 28.0052 23.9082 27.1129C23.9402 26.9197 23.8472 26.7015 24.0296 26.5337C24.4296 26.1656 24.7861 25.7539 25.2052 25.4026C25.3961 25.2787 25.5607 25.1183 25.6897 24.9307C25.8186 24.7431 25.9093 24.532 25.9567 24.3093C26.0148 23.8699 26.1495 23.4409 26.2432 23.0058C26.2725 22.9127 26.2753 22.8133 26.2513 22.7187C26.1416 22.43 26.1157 22.1163 26.1765 21.8135C26.2373 21.5108 26.3823 21.2314 26.595 21.0075C26.8843 20.4963 27.0283 19.9158 27.0115 19.3287C27.0217 19.2672 27.0296 19.1803 26.9404 19.1599C26.9069 19.1519 26.8716 19.1547 26.8397 19.1679C26.8079 19.1812 26.781 19.2042 26.7631 19.2337C26.2265 19.9432 25.7501 20.6964 25.339 21.4853C24.9418 22.3506 24.7148 23.2788 24.3988 24.1744C24.3678 24.3052 24.2907 24.4204 24.1818 24.4991C23.5254 24.9417 22.8916 25.417 22.283 25.9234C21.9616 26.1629 21.7396 26.5123 21.659 26.9049C21.5632 27.4077 21.4054 27.8986 21.2773 28.3954C21.2561 28.4778 21.2198 28.5858 21.2974 28.6384C21.3739 28.6902 21.4548 28.612 21.5347 28.5759C21.6547 28.5216 21.7194 28.3799 21.8575 28.3621C21.9178 28.449 21.8628 28.5107 21.8335 28.5641C21.5359 29.1074 21.2489 29.6575 20.9285 30.1873C20.1011 31.6663 19.087 33.0328 17.9112 34.2533C17.7764 34.3766 17.6937 34.5467 17.6801 34.7288C17.64 35.1132 17.561 35.4934 17.4991 35.8755C17.3997 36.2094 17.2609 36.5303 17.0856 36.8314C17.0595 36.8943 17.0244 36.967 17.0722 37.0234C17.1199 37.0796 17.201 37.0568 17.2657 37.0447C17.3214 37.0286 17.3755 37.0074 17.4273 36.9812C18.5173 36.5518 19.6011 36.1057 20.7274 35.7742C20.9216 35.7171 21.0218 35.7271 21.0154 35.963C21.0047 36.7294 21.0678 37.4951 21.2038 38.2494C21.2892 39.0703 21.555 39.8622 21.982 40.5684C22.0214 40.623 22.0471 40.6862 22.0569 40.7528C22.0668 40.8194 22.0605 40.8874 22.0386 40.951C21.8446 41.6608 21.7222 42.3882 21.6731 43.1224C21.667 43.201 21.6263 43.3089 21.7436 43.3478C21.8566 43.3852 21.8928 43.2832 21.9411 43.2154C22.07 43.0343 22.1925 42.8486 22.3235 42.6691C22.3741 42.5996 22.431 42.5055 22.5191 42.5076C22.6314 42.5104 22.6193 42.6397 22.6419 42.7124C22.783 43.1966 23.0141 43.6499 23.3231 44.0484C23.3865 44.128 23.4572 44.2068 23.5661 44.1582C23.6689 44.1124 23.6336 44.0035 23.622 43.9251C23.5638 43.5319 23.5352 43.1369 23.5053 42.7406C23.3843 41.3769 23.4356 40.0033 23.6581 38.6523C23.6716 38.5761 23.7183 38.491 23.6387 38.4417C23.5523 38.3882 23.4786 38.4487 23.4066 38.5082C23.2575 38.6592 23.0839 38.7839 22.8932 38.877C22.8913 38.839 22.8934 38.8009 22.8995 38.7633C22.9243 38.6901 22.9521 38.6177 22.9824 38.5465C23.5586 37.2714 23.8802 35.8962 23.9293 34.4978C23.9931 33.6272 23.9945 32.7531 23.9335 31.8823C23.9243 31.8095 23.966 31.7132 23.879 31.6714C23.7754 31.6216 23.7217 31.7191 23.6625 31.7774C23.2686 32.1931 22.8533 32.5879 22.4181 32.9601C22.0248 33.3324 21.5741 33.6389 21.0833 33.8679ZM14.8541 47.8057C15.0087 47.8359 15.0772 47.7518 15.1422 47.624C16.1871 45.7261 17.3382 43.8886 18.5902 42.1204C18.7769 41.8374 19.0832 41.6054 19.0722 41.2194C19.1148 39.9393 19.3713 38.6752 19.8312 37.4798C19.8565 37.3985 19.9305 37.3136 19.8623 37.2363C19.798 37.1635 19.7013 37.1979 19.6162 37.2221C18.7131 37.4788 17.81 37.7351 16.9068 37.991C16.7835 38.0189 16.6694 38.0779 16.5754 38.1623C16.2126 38.5123 15.8389 38.851 15.4798 39.2046C14.9898 39.6872 14.4682 40.1327 13.9408 40.573C13.7396 40.7125 13.5919 40.9164 13.522 41.1511C13.4222 41.5848 13.3158 42.0175 13.1936 42.4454C13.0784 43.0926 12.9093 43.7291 12.6881 44.3482C12.3352 45.0917 12.001 45.8442 11.6488 46.5881C11.5752 46.7436 11.5732 46.8322 11.7265 46.9461C12.1291 47.2455 12.5148 47.5678 12.9051 47.8837C12.9684 47.9349 13.025 47.9808 13.1126 47.9479C13.6662 47.729 14.2723 47.6795 14.8541 47.8057ZM38.775 32.4448C38.895 32.4606 38.9327 32.4697 38.9705 32.47C39.4563 32.4663 39.937 32.5684 40.3792 32.7695C40.8215 32.9705 41.2146 33.2655 41.5311 33.6339C41.5933 33.7031 41.7189 33.7711 41.6624 33.869C41.6054 33.9678 41.4923 33.875 41.4026 33.864C41.2149 33.8411 41.0236 33.7017 40.8518 33.9367C40.5553 34.3418 40.2353 34.7296 39.9244 35.1241C38.9441 36.3682 37.9636 37.6123 36.9831 38.8562C36.356 39.6531 35.7285 40.4497 35.108 41.2516C35.0667 41.2965 35.0367 41.3505 35.0204 41.4092C35.0041 41.468 35.002 41.5297 35.0143 41.5895C35.0266 41.6492 35.0529 41.7051 35.0911 41.7526C35.1293 41.8001 35.1782 41.8379 35.2339 41.8628C35.3088 41.9134 35.3932 41.9483 35.4819 41.9655C35.5707 41.9826 35.662 41.9815 35.7504 41.9624C35.8387 41.9433 35.9223 41.9064 35.996 41.8541C36.0697 41.8017 36.1321 41.735 36.1793 41.6579C36.9068 40.7189 37.6371 39.782 38.3703 38.8475C39.5458 37.3507 40.729 35.8599 41.8979 34.3581C42.0311 34.1869 42.1172 34.1722 42.2639 34.3134C42.5143 34.5563 42.7469 34.8169 42.96 35.0931C43.2925 35.5603 43.5968 36.047 43.8712 36.5505C43.9757 35.9632 43.9517 35.3602 43.8011 34.7829C43.6504 34.2057 43.3766 33.6679 42.9984 33.2065C42.8403 33.0239 42.8064 32.8928 42.9841 32.6866C43.2685 32.3567 43.2443 32.2976 42.8956 32.0337C42.811 31.9697 42.7231 31.9101 42.6371 31.8479C42.4876 31.7397 42.3916 31.7448 42.2671 31.9196C41.9823 32.3193 41.9693 32.3021 41.4926 32.1628C40.585 31.8944 39.6081 31.9958 38.775 32.4448ZM32.7495 13.9696C32.7932 14.3259 32.8317 14.662 32.8761 14.9973C32.9415 15.6032 33.0586 16.2024 33.2262 16.7883C33.2484 16.8596 33.2586 16.9512 33.3544 16.9628C33.4499 16.9744 33.4767 16.8894 33.5209 16.8255C34.5796 15.3955 35.491 13.862 36.2412 12.2486C36.2658 12.1918 36.3041 12.142 36.3527 12.1037C36.4013 12.0654 36.4587 12.0397 36.5197 12.029C36.877 11.9256 36.9041 11.8922 36.7528 11.5541C36.3138 10.5736 35.8653 9.59742 35.4148 8.62212C35.2915 8.35533 35.2142 8.35302 35.0516 8.60769C34.6564 9.22648 34.2703 9.85101 33.8751 10.4698C33.7607 10.6489 33.7996 10.7281 34.0085 10.7533C34.3463 10.7773 34.6792 10.8482 34.9975 10.964C35.1359 11.0219 35.2423 11.0859 35.1538 11.2649C34.9986 11.642 34.7461 11.9711 34.4221 12.2186C34.0947 12.4408 33.7667 12.664 33.456 12.9084C33.2677 13.0228 33.1068 13.1771 32.9847 13.3605C32.8626 13.5439 32.7823 13.7518 32.7495 13.9696ZM29.2475 14.2347C29.5405 14.1374 29.8133 14.0421 30.0893 13.957C30.2517 13.907 30.3242 13.9657 30.2964 14.1459C30.267 14.337 30.253 14.5305 30.2368 14.7234C30.2264 14.846 30.2546 14.9149 30.3987 14.8387C30.749 14.6734 31.0679 14.4485 31.3412 14.1742C31.4302 14.0772 31.4786 13.7699 31.6905 14.0876C31.7441 14.1679 31.8055 14.0549 31.8436 14.0143C32.1216 13.7447 32.3705 13.4467 32.5862 13.1252C32.8244 12.7129 33.1904 12.3892 33.6288 12.2033C33.8662 12.1151 34.0803 11.974 34.2549 11.7905C34.3898 11.6369 34.6798 11.484 34.58 11.3014C34.4788 11.1162 34.1639 11.138 33.9302 11.1593C33.4873 11.1996 33.0455 11.2526 32.6034 11.3008C32.5339 11.3083 32.4612 11.314 32.4212 11.2446C32.4011 11.2108 32.3932 11.1711 32.3987 11.1322C32.4043 11.0933 32.423 11.0574 32.4517 11.0306C32.5577 10.9168 32.6727 10.8112 32.7742 10.6937C32.8294 10.6298 32.9154 10.5309 32.8975 10.4789C32.866 10.3882 32.7428 10.3954 32.6477 10.3968C32.2206 10.4184 31.7926 10.3852 31.374 10.2981C31.2339 10.2566 31.0849 10.2562 30.9446 10.2968C30.8043 10.3374 30.6785 10.4175 30.5823 10.5274C30.3358 10.7862 30.1323 11.0878 29.8747 11.3338C29.5968 11.5924 29.4214 11.9425 29.3805 12.3199C29.2439 12.9484 29.1991 13.5934 29.2475 14.2347ZM37.5551 12.7177C37.5827 12.5069 37.5783 12.4715 37.5219 12.4521C37.4895 12.4413 37.4547 12.4401 37.4217 12.4486C37.3886 12.4571 37.3587 12.475 37.3355 12.5C36.898 12.8701 36.5513 13.3357 36.3221 13.8609C36.0894 14.4648 35.8964 15.0839 35.6805 15.6944C35.6529 15.7653 35.6412 15.8414 35.6462 15.9173C35.6513 15.9933 35.6729 16.0671 35.7096 16.1338C36.1968 17.1222 36.6656 18.1195 37.0668 19.1468C37.0958 19.2211 37.1138 19.314 37.2072 19.3056C37.3376 19.294 37.2855 19.1752 37.2996 19.0976C37.3668 18.5017 37.3976 17.9022 37.392 17.3025C37.481 15.7763 37.505 14.2463 37.5551 12.7177ZM45.5397 28.303C45.5523 28.3693 45.5143 28.4447 45.5862 28.4693C45.6287 28.4813 45.6739 28.4798 45.7155 28.465C45.7572 28.4502 45.7932 28.4229 45.8186 28.3867C46.4926 27.7058 47.2557 27.1192 48.0871 26.6429C48.2297 26.5526 48.2599 26.4453 48.1167 26.3506C47.6821 26.0631 47.2409 25.7851 46.7972 25.5117C46.6331 25.4106 46.527 25.4416 46.4558 25.6539C46.1819 26.4703 45.8873 27.2798 45.6015 28.0922C45.5759 28.1649 45.558 28.2401 45.5397 28.303ZM52.1966 35.4679C52.2365 35.9808 52.2799 36.4807 52.3117 36.9814C52.3208 37.1239 52.4238 37.1516 52.5173 37.1913C53.059 37.4212 53.6021 37.6481 54.1464 37.8718C54.2396 37.9099 54.3718 37.993 54.438 37.8901C54.5012 37.7918 54.4165 37.6686 54.3411 37.5763C54.1339 37.3227 53.9222 37.0727 53.7173 36.8173C53.296 36.2922 52.8767 35.7656 52.4593 35.2375C52.4394 35.2039 52.4089 35.1779 52.3726 35.1636C52.3363 35.1493 52.2963 35.1475 52.2588 35.1586C52.1762 35.1871 52.2028 35.2713 52.1974 35.3353C52.1933 35.3834 52.1966 35.4322 52.1966 35.4679Z" fill="#3E5A80"/>
<path d="M29.3805 12.3199C29.2439 12.9484 29.199 13.5934 29.2474 14.2347C29.3357 14.2054 29.4222 14.1763 29.5074 14.1476C29.7052 14.0809 29.8965 14.0165 30.0893 13.957C30.2517 13.907 30.3242 13.9657 30.2964 14.1459C30.2707 14.3129 30.2568 14.4818 30.2428 14.6505C30.2408 14.6748 30.2388 14.6991 30.2367 14.7233C30.2264 14.8459 30.2545 14.9148 30.3987 14.8386C30.7489 14.6733 31.0679 14.4485 31.3412 14.1741C31.3622 14.1513 31.3808 14.1168 31.3999 14.0816C31.462 13.9671 31.5285 13.8446 31.6905 14.0875C31.734 14.1527 31.7826 14.0906 31.8198 14.0432C31.8284 14.0321 31.8364 14.0219 31.8436 14.0143C32.1216 13.7447 32.3705 13.4467 32.5862 13.1252C32.8244 12.7128 33.1904 12.3892 33.6288 12.2033C33.8662 12.1151 34.0803 11.9739 34.2549 11.7905C34.2912 11.7492 34.3386 11.7079 34.3867 11.6662C34.5176 11.5525 34.653 11.4349 34.58 11.3014C34.4788 11.1162 34.1639 11.138 33.9301 11.1592C33.6101 11.1884 33.2907 11.2241 32.9712 11.2599C32.8486 11.2736 32.726 11.2874 32.6034 11.3007C32.5339 11.3083 32.4612 11.3139 32.4212 11.2445C32.4011 11.2107 32.3932 11.1711 32.3987 11.1322C32.4043 11.0932 32.423 11.0574 32.4517 11.0305C32.4945 10.9845 32.5389 10.9398 32.5832 10.8951C32.6485 10.8294 32.7137 10.7636 32.7742 10.6937L32.7753 10.6923C32.8307 10.6284 32.9153 10.5305 32.8975 10.4789C32.8677 10.3928 32.7554 10.3949 32.6627 10.3965C32.6576 10.3966 32.6526 10.3967 32.6477 10.3968C32.2206 10.4183 31.7926 10.3852 31.374 10.298C31.2339 10.2566 31.0849 10.2561 30.9446 10.2968C30.8043 10.3374 30.6785 10.4174 30.5823 10.5273C30.4741 10.641 30.3742 10.7628 30.2743 10.8846C30.1467 11.0402 30.0192 11.1957 29.8746 11.3337C29.5968 11.5924 29.4214 11.9425 29.3805 12.3199Z" fill="#FEFEFE"/>
<path fill-rule="evenodd" clip-rule="evenodd" d="M31.448 46.1376C31.3811 46.209 31.312 46.2827 31.1918 46.2057C31.2299 46.1305 31.2679 46.055 31.3059 45.9797C31.4108 45.7718 31.5158 45.5639 31.624 45.3577C31.6826 45.2458 31.7167 45.179 31.5634 45.0898C31.3493 44.9652 31.1474 44.8198 30.9454 44.6743C30.8647 44.6161 30.784 44.558 30.7025 44.5012C30.593 44.4248 30.5185 44.3951 30.4516 44.5663C30.3935 44.8106 30.2718 45.0351 30.0989 45.2172C30.0713 44.2063 29.7658 43.2225 29.2159 42.3738C29.1979 42.4409 29.1891 42.5057 29.1807 42.5669C29.1626 42.6992 29.1468 42.8148 29.0465 42.9012C28.9868 42.8605 28.9749 42.8028 28.963 42.7449C28.9595 42.7278 28.956 42.7106 28.9512 42.6938C28.8089 42.0909 28.6158 41.5011 28.3739 40.9308C28.0847 40.3384 27.8481 39.7217 27.6667 39.0879C27.4249 38.5559 27.3689 37.958 27.5076 37.3902C27.5553 37.0994 27.6388 36.8155 27.7562 36.5452C27.7675 36.5598 27.7772 36.5709 27.7852 36.58C27.7987 36.5953 27.807 36.6047 27.8087 36.6153C27.818 36.6721 27.824 36.7294 27.8267 36.7869C27.8685 38.636 28.5724 40.4087 29.8103 41.7829C29.8643 41.8426 29.9326 41.8937 30.0007 41.9446C30.1344 42.0444 30.2672 42.1437 30.2892 42.3067C30.4311 43.0815 30.7861 43.8015 31.3145 44.3858C31.3269 44.4013 31.3371 44.4205 31.3474 44.4396C31.3752 44.4914 31.4032 44.5434 31.4737 44.5262C31.5253 44.5136 31.5283 44.4664 31.5313 44.4185C31.5328 44.3947 31.5343 44.3708 31.5418 44.3509C31.5461 44.3395 31.5502 44.3278 31.5542 44.3163C31.5893 44.2163 31.6215 44.1248 31.7739 44.2444C32.2922 44.5842 32.8676 44.8277 33.4723 44.9634C33.6131 45.0124 33.7624 45.0325 33.9112 45.0223C34.06 45.0122 34.2051 44.972 34.338 44.9043C35.1684 44.4564 35.869 43.8013 36.3715 43.0027C36.4773 42.852 36.3881 42.6915 36.3053 42.5423C36.2806 42.498 36.2566 42.4546 36.2383 42.4128C36.2053 42.3372 36.1384 42.3736 36.0691 42.4114C36.0329 42.4312 35.9959 42.4513 35.9628 42.4559C35.9003 42.4646 35.8383 42.478 35.7764 42.4913C35.6864 42.5106 35.5966 42.53 35.5059 42.5349C35.3645 42.5605 35.219 42.5499 35.0828 42.5042C34.9467 42.4584 34.8243 42.3789 34.7272 42.2731C34.63 42.1673 34.5612 42.0386 34.5271 41.8991C34.4931 41.7595 34.4949 41.6136 34.5324 41.4749C34.5703 41.2885 34.4733 41.2841 34.3815 41.28C34.3715 41.2795 34.3614 41.279 34.3517 41.2783C34.08 41.2785 33.8101 41.3233 33.5529 41.4108L33.5499 41.4116C33.3127 41.4734 33.1955 41.5039 33.1312 41.459C33.0684 41.4151 33.0558 41.2993 33.031 41.0707L33.0309 41.0696C33.0287 41.0494 33.0243 41.0293 33.0199 41.0093C33.016 40.9915 33.0121 40.9736 33.0098 40.9556C32.8654 40.0448 32.5727 39.1637 32.1433 38.3476C32.1378 38.3363 32.1318 38.3251 32.1257 38.3139C32.1213 38.3059 32.1168 38.2978 32.1123 38.2897C32.0625 38.2005 32.0106 38.1075 32.0694 37.98C32.277 38.0553 32.4042 38.2159 32.5409 38.3886C32.6292 38.5002 32.7215 38.6167 32.842 38.7185C32.6443 37.9459 32.354 37.2 31.9773 36.497C31.8065 36.1469 31.6017 35.9083 31.1709 36.016C31.1225 36.0221 31.0734 36.0197 31.0258 36.009C31.0165 36.0079 31.0066 36.0072 30.9964 36.0064C30.9452 36.0026 30.8886 35.9984 30.8755 35.9451C30.8576 35.8723 30.9143 35.85 30.9673 35.8292C30.9794 35.8245 30.9913 35.8198 31.0021 35.8146C32.0627 35.2484 33.0295 34.5217 33.8681 33.6602C33.8911 33.6386 33.9126 33.6145 33.9342 33.5905C34.003 33.5137 34.0724 33.4363 34.1928 33.4334L34.2509 33.4046L34.2441 33.4766C34.1905 33.6318 34.1073 33.775 33.999 33.8983C33.5519 34.4835 33.061 35.0338 32.5305 35.5446C32.4764 35.5844 32.4363 35.6404 32.416 35.7044C32.3957 35.7684 32.3962 35.8373 32.4174 35.901C32.4725 36.0819 32.5222 36.2649 32.5718 36.4478C32.6618 36.7795 32.7518 37.1112 32.8745 37.4302C33.1645 38.1381 33.3489 38.8848 33.4216 39.6464C33.4139 40.0941 33.4471 40.5415 33.5208 40.9832C33.9726 40.8324 34.4359 40.7186 34.9061 40.6428C34.9863 40.6313 35.063 40.6026 35.131 40.5587C35.1991 40.5148 35.2567 40.4566 35.3001 40.3882C35.5516 40.0449 35.8043 39.7026 36.0571 39.3603C36.4522 38.8252 36.8473 38.2901 37.2374 37.7514C37.2639 37.7148 37.2944 37.6799 37.3254 37.6445C37.4116 37.5459 37.501 37.4437 37.5154 37.2907C37.408 37.2752 37.3016 37.2601 37.196 37.2452C36.9317 37.2077 36.6719 37.1708 36.413 37.1297C36.2843 37.1092 36.2249 37.1631 36.1641 37.2704C35.9925 37.5732 35.8117 37.87 35.6217 38.161C35.6097 38.1793 35.599 38.2026 35.5879 38.2268C35.5546 38.2993 35.518 38.3791 35.4347 38.351C35.349 38.3222 35.3654 38.2529 35.3822 38.1816C35.3913 38.1431 35.4005 38.104 35.3939 38.0704C35.3908 38.0547 35.397 38.0375 35.4032 38.02C35.4072 38.0088 35.4113 37.9974 35.413 37.9863C35.5872 37.3 35.6147 36.5848 35.4938 35.8872C35.4718 35.805 35.4634 35.7193 35.4549 35.6335C35.449 35.574 35.4431 35.5145 35.4328 35.4559C35.4062 35.3576 35.4112 35.2533 35.4471 35.158C35.4831 35.0626 35.5481 34.981 35.633 34.9247C35.7955 34.7843 35.9143 34.6003 35.9754 34.3944C36.0676 34.1182 36.1409 33.8361 36.1946 33.5499C36.3093 33.6225 36.3224 33.7238 36.3354 33.8243C36.3441 33.8914 36.3528 33.9582 36.3917 34.0159C36.7231 33.5844 36.9367 33.0742 37.0117 32.5353C37.0354 32.3049 37.0625 32.075 37.0897 31.845C37.1192 31.5946 37.1489 31.3434 37.174 31.0925C37.1897 30.9355 37.235 30.8938 37.3667 30.9956C37.4029 31.0237 37.4388 31.0523 37.4746 31.081L37.5239 31.1203L37.5728 31.084C37.4796 30.5302 37.2909 29.9968 37.0151 29.5076C37.0002 29.4789 36.9856 29.4499 36.9711 29.4209C36.859 29.1973 36.7469 28.9737 36.4419 28.9136C36.2833 28.8823 36.2201 28.7553 36.4197 28.6373C36.5316 28.5611 36.6393 28.479 36.7423 28.3911C36.7702 28.3702 36.7951 28.3397 36.8199 28.3094C36.8744 28.2426 36.9286 28.1761 37.0145 28.2119C37.0927 28.2445 37.0997 28.3442 37.1063 28.4387L37.1086 28.4703C37.11 28.4877 37.1116 28.5046 37.1141 28.5205C37.1199 28.559 37.1222 28.5979 37.1245 28.6369C37.1263 28.6659 37.128 28.695 37.1312 28.7238C37.1997 29.1345 37.3888 29.5156 37.6745 29.8185C37.6975 29.7563 37.7022 29.6916 37.7067 29.6289C37.7157 29.5038 37.7241 29.3868 37.8769 29.3137C37.8919 29.3685 37.9065 29.423 37.921 29.4772C37.9537 29.5994 37.986 29.7199 38.0219 29.8393C38.0762 30.0279 38.1598 30.2069 38.2695 30.3696L38.3068 30.3024L38.3471 30.2294C38.404 30.1262 38.4583 30.0279 38.5144 29.9309C38.5214 29.9188 38.5285 29.9058 38.5358 29.8925C38.5871 29.7986 38.6471 29.6887 38.7587 29.739C38.8335 29.7728 38.8108 29.8473 38.7877 29.9231C38.7765 29.9601 38.7651 29.9974 38.765 30.0304C38.7649 30.0348 38.7646 30.0393 38.764 30.0439C38.7635 30.0483 38.7628 30.0528 38.7622 30.0573C38.7567 30.0932 38.7507 30.1327 38.8198 30.1676C38.8504 30.1346 38.8817 30.1015 38.9132 30.0681C38.997 29.9792 39.0828 29.8881 39.1638 29.7931L39.1713 29.7841L39.1785 29.775C39.2047 29.7422 39.2284 29.7124 39.275 29.7237C39.3224 29.7351 39.3247 29.7731 39.327 29.8105C39.3273 29.8161 39.3277 29.8218 39.3282 29.8273C39.3287 29.8327 39.3293 29.8379 39.3302 29.843C39.33 30.0511 39.3165 30.2591 39.29 30.4655C39.4848 30.328 39.6447 30.1468 39.757 29.9364C39.7646 29.9248 39.7723 29.9129 39.78 29.9009C39.845 29.7996 39.9144 29.6917 40.0367 29.7378C40.1486 29.78 40.1133 29.8638 40.079 29.9452C40.0664 29.9751 40.0539 30.0046 40.049 30.0317C40.0472 30.0416 40.0446 30.0518 40.042 30.0619C40.0322 30.1008 40.0222 30.1399 40.0553 30.1675C40.1009 30.2057 40.1407 30.1776 40.1785 30.151L40.1896 30.1433C40.1934 30.1406 40.1972 30.1381 40.201 30.1357C40.2036 30.1341 40.2061 30.1326 40.2086 30.1311C40.4107 29.9994 40.5897 29.8352 40.7383 29.6451C40.7476 29.6348 40.7569 29.6239 40.7664 29.613C40.8442 29.5228 40.9301 29.4233 41.0467 29.4879C41.1151 29.5258 41.0893 29.5852 41.0618 29.6483C41.0428 29.6918 41.0232 29.737 41.0328 29.7782C41.0338 29.7827 41.0363 29.7869 41.0399 29.7915C41.0435 29.796 41.0484 29.8009 41.0543 29.807C41.0581 29.8108 41.0623 29.8151 41.0669 29.82C41.071 29.8244 41.0754 29.8293 41.0801 29.8348C41.3339 29.579 41.4839 29.2383 41.5013 28.8784C41.4445 28.6216 41.4587 28.3542 41.5422 28.1048C41.6763 27.8695 41.7581 27.6081 41.7818 27.3384C41.7869 27.2584 41.8112 27.1808 41.8526 27.1122C41.8941 27.0436 41.9514 26.986 42.0199 26.9442C42.1673 26.8707 42.2974 26.7668 42.4018 26.6394C42.5061 26.512 42.5823 26.3639 42.6253 26.2049C42.6683 26.0459 42.6772 25.8796 42.6513 25.7169C42.6254 25.5543 42.5654 25.399 42.4752 25.2612C42.4183 25.128 42.3688 24.9918 42.3269 24.8532C42.1036 24.1814 41.9596 23.4859 41.8977 22.7807C41.8131 22.9144 41.7754 23.0545 41.7361 23.2003C41.6934 23.3586 41.6489 23.5236 41.5406 23.6941C41.3563 22.9018 40.9135 22.1934 40.2821 21.6805C40.2777 21.8655 40.2561 22.0498 40.2174 22.2308C40.1782 22.4297 40.095 22.4417 39.9364 22.3542C39.5877 22.1827 39.2081 22.0828 38.8201 22.0604C38.2592 22.026 37.7025 21.9414 37.1568 21.8075C37.0136 21.7306 36.8492 21.7028 36.6887 21.7283C36.834 21.8963 36.9952 22.0498 37.1701 22.1868C37.4412 22.3747 37.4376 22.3785 37.1536 22.5263C36.7931 22.6932 36.4518 22.8989 36.136 23.1399C36.1793 23.1806 36.2372 23.1814 36.2895 23.1821C36.356 23.183 36.4134 23.1837 36.4202 23.2666C36.4263 23.3399 36.348 23.3663 36.273 23.3915C36.2454 23.4008 36.2182 23.41 36.1959 23.4213C35.9024 23.5697 35.6233 23.7451 35.3621 23.945C34.904 24.269 34.4865 24.6468 34.1187 25.0705C34.0721 25.1271 34.0094 25.1681 33.9389 25.188C33.8684 25.2078 33.7935 25.2057 33.7242 25.1818C33.6163 25.1336 33.6751 25.0287 33.7242 24.9411C33.7372 24.9179 33.7495 24.8959 33.7579 24.8765C33.8849 24.5813 34.0227 24.2907 34.1605 24.0002C34.2092 23.8975 34.2579 23.7949 34.3062 23.692C34.3777 23.4931 34.3963 23.2791 34.3603 23.0709C34.3242 22.8627 34.2348 22.6673 34.1006 22.5041C33.5821 22.1292 33.1292 21.671 32.7603 21.1483C32.5346 20.9222 32.3872 20.6298 32.3395 20.314C32.4342 20.2799 32.4866 20.3345 32.539 20.3891C32.5577 20.4086 32.5764 20.428 32.597 20.4434C32.8654 20.6663 33.1748 20.8347 33.5077 20.9393C33.1676 20.4649 32.8933 19.9466 32.6922 19.3987C32.4861 18.6319 32.3332 17.8519 32.2346 17.0641C32.1376 16.5301 32.0534 15.9938 31.9692 15.4575C31.9362 15.2474 31.9032 15.0373 31.8695 14.8274L31.8676 14.8152C31.8478 14.6909 31.8305 14.5826 31.6602 14.7068C31.3192 14.944 30.9524 15.1419 30.5668 15.2965C30.466 15.3396 30.3806 15.3793 30.3079 15.413C30.1226 15.4991 30.0202 15.5466 29.9584 15.5149C29.8822 15.4759 29.8676 15.3164 29.8351 14.9601L29.8264 14.8655C29.805 14.6342 29.7339 14.6536 29.5864 14.7611C29.2478 15.0051 28.94 15.2892 28.6698 15.6073C28.5259 15.7784 28.4326 15.8008 28.2833 15.6317C28.2686 15.615 28.2535 15.5959 28.2379 15.5762C28.1694 15.4897 28.0912 15.391 27.9949 15.4297C27.9231 15.4586 27.9204 15.5572 27.9177 15.6547C27.9166 15.695 27.9155 15.7352 27.9095 15.7701C27.9067 15.8089 27.9058 15.8477 27.907 15.8866C27.8913 16.129 27.8752 16.3714 27.8592 16.6138C27.8171 17.2514 27.775 17.8898 27.7375 18.5277C27.7113 18.6812 27.7177 18.8385 27.7565 18.9893C27.7842 18.9757 27.8095 18.9638 27.8329 18.9528C27.8814 18.9301 27.9222 18.911 27.9603 18.8876C27.9759 18.8781 27.9918 18.8656 28.0079 18.853C28.0583 18.8134 28.1108 18.7722 28.1607 18.8152C28.222 18.8681 28.1877 18.9389 28.1547 19.0071C28.1472 19.0224 28.1399 19.0375 28.1337 19.0523C28.0479 19.2572 27.9626 19.4631 27.8933 19.674C27.6222 20.5538 27.4542 21.4622 27.3929 22.3809C27.3247 22.8975 27.3057 23.4194 27.3362 23.9397C27.4658 23.696 27.635 23.4756 27.8368 23.2873C27.8611 23.2635 27.8904 23.2456 27.9226 23.2348C27.9548 23.2241 27.9891 23.2208 28.0228 23.2253C28.1008 23.2396 28.0925 23.3012 28.0852 23.3553C28.0834 23.3687 28.0816 23.3817 28.0813 23.3934C28.0744 24.7733 28.3475 26.1402 28.8843 27.4115L28.8903 27.427C29.0064 27.7254 29.0639 27.8732 29.1658 27.9164C29.2657 27.9588 29.4084 27.9004 29.691 27.7848L29.7247 27.771C29.9971 27.6065 30.2966 27.4918 30.6093 27.4325C30.5945 27.5733 30.5091 27.6494 30.4268 27.7229C30.4079 27.7397 30.3892 27.7564 30.3715 27.7737C30.0077 28.1372 29.7167 28.5669 29.5141 29.0395C28.8031 30.7561 27.7778 32.3248 26.4909 33.665C26.0719 34.1065 25.749 34.6302 25.5426 35.2029C25.3362 35.7756 25.2508 36.3849 25.2919 36.9923C25.3055 37.7968 25.3774 38.5992 25.5072 39.3933L25.7591 40.9143C25.8409 40.9105 25.8812 40.8545 25.9161 40.806C25.9508 40.7576 25.9801 40.7169 26.0396 40.7427C26.1218 40.7785 26.1254 40.8739 26.1289 40.9646C26.13 40.9937 26.1311 41.0222 26.1347 41.0481C26.2535 41.8063 26.534 42.5301 26.9572 43.1703C27.1233 43.4336 27.1269 43.4301 27.2854 43.159C27.2933 43.1454 27.2999 43.1299 27.3065 43.1141C27.3273 43.0652 27.3488 43.0144 27.4129 43.0167C27.4925 43.0196 27.5065 43.0815 27.5198 43.1399C27.5211 43.1457 27.5224 43.1515 27.5238 43.1572C27.5246 43.1605 27.5254 43.1638 27.5262 43.167C27.5278 43.1732 27.5296 43.1791 27.5315 43.1848C27.5323 43.1874 27.5332 43.1899 27.5342 43.1923C27.6375 43.4642 27.7683 43.7248 27.9246 43.97C28.6571 45.0657 29.5121 46.0744 30.4731 46.9764C30.6319 47.131 30.6693 47.2422 30.5297 47.4402C30.3493 47.6964 30.1797 47.9601 30.0101 48.2238C29.8713 48.4396 29.7325 48.6554 29.5877 48.8671C29.555 48.915 29.5263 48.9665 29.4975 49.0183C29.4207 49.1561 29.3433 49.2951 29.187 49.3689C29.6472 49.4916 30.1309 49.4956 30.593 49.3805C30.5746 49.2598 30.6416 49.1772 30.7071 49.0966C30.726 49.0732 30.7449 49.05 30.7615 49.0261C31.0577 48.5987 31.3556 48.1725 31.6535 47.7462L31.6552 47.7438C32.0234 47.217 32.3916 46.6902 32.7566 46.1612C32.7969 46.1028 32.8518 46.0432 32.9067 45.9834C33.0347 45.8443 33.1632 45.7046 33.1098 45.5782C33.0666 45.4762 32.8929 45.4545 32.7142 45.4321C32.6214 45.4204 32.5273 45.4086 32.4495 45.3854C32.3881 45.3605 32.3202 45.3568 32.2564 45.3747C32.1926 45.3926 32.1366 45.4312 32.0971 45.4844C31.9189 45.6745 31.7326 45.857 31.5463 46.0394L31.482 46.1024C31.4706 46.1135 31.4593 46.1255 31.448 46.1376ZM31.1919 46.2069L31.2006 46.2797L31.2244 46.2681L31.1919 46.2069ZM32.3324 20.3053L32.3333 20.2774L32.3081 20.2804L32.3324 20.3053ZM41.9302 26.2815C42.0286 26.4105 42.0764 26.5711 42.0645 26.7329C41.8436 26.5647 41.5679 26.485 41.2914 26.5093L41.3075 26.4924C41.4009 26.3949 41.474 26.3186 41.2863 26.2724C41.1388 26.2362 40.9948 26.1862 40.8507 26.1362C40.7655 26.1066 40.6802 26.077 40.5942 26.0503C40.5842 26.0472 40.5727 26.0425 40.5609 26.0377C40.5011 26.0133 40.432 25.9852 40.4998 26.1358C40.5461 26.2385 40.4669 26.2013 40.4241 26.1812C40.4182 26.1784 40.413 26.1759 40.4089 26.1742C39.8966 25.9684 39.3519 25.8549 38.8001 25.839C39.068 25.7257 39.3505 25.6508 39.6393 25.6164C39.648 25.6153 39.6578 25.6149 39.6679 25.6145C39.7152 25.6125 39.7707 25.6102 39.7553 25.5364C39.7517 25.5188 39.7188 25.5072 39.6793 25.4934C39.6591 25.4863 39.6372 25.4786 39.6166 25.4691C39.9217 25.4199 40.2345 25.4682 40.5105 25.6072C40.8356 25.7823 41.1772 25.9249 41.5303 26.0327C41.6895 26.064 41.8317 26.1525 41.9302 26.2815ZM40.2523 27.9723C40.4715 28.003 40.6337 27.987 40.7215 27.7401C40.7086 27.943 40.7941 28.1145 40.8791 28.2852C40.9679 28.4634 41.0562 28.6407 41.0316 28.8518C40.695 28.5033 40.2675 28.2559 39.7977 28.1377C39.3278 28.0195 38.8342 28.0352 38.3728 28.183C38.6339 27.9984 38.9459 27.8996 39.2656 27.9002C39.3947 27.9115 39.5244 27.918 39.654 27.9245C39.8543 27.9346 40.0545 27.9446 40.2523 27.9723ZM41.2744 27.6433C40.9936 26.9607 40.8127 26.9147 39.7826 27.0675C40.304 27.19 40.806 27.3838 41.2744 27.6433Z" fill="#FEFEFE"/>
<path fill-rule="evenodd" clip-rule="evenodd" d="M31.9355 49.6129C32.1227 50.0756 32.3099 50.5384 32.4601 51.0152L37.4112 51.0152C37.4111 50.8334 37.4145 50.6513 37.4179 50.4693C37.4258 50.0473 37.4336 49.6253 37.3975 49.2071C37.3927 48.7279 37.345 48.2501 37.2551 47.7794C36.9919 46.7973 36.7011 45.8247 36.3679 44.8647C36.3374 44.793 36.3305 44.7135 36.3484 44.6377C36.3663 44.5619 36.4081 44.4938 36.4675 44.4435C36.6324 44.2608 36.7838 44.066 36.9353 43.8712C37.0539 43.7187 37.1727 43.5659 37.2978 43.4191C37.3346 43.3759 37.3687 43.3296 37.4027 43.2835C37.5425 43.0937 37.6818 42.9047 38.0089 42.9292C38.2092 42.9412 38.4103 42.9291 38.6077 42.893C39.5527 42.724 40.4832 42.4818 41.3907 42.1684C41.5277 42.125 41.648 42.0403 41.735 41.9259C42.0326 41.5462 42.3762 41.2047 42.7577 40.9095C42.8132 40.8647 42.8643 40.8274 42.9436 40.8733C42.9255 40.9563 42.8851 41.0328 42.8267 41.0946C42.6375 41.3107 42.5078 41.5724 42.4504 41.8539C42.3797 42.0888 42.506 42.2413 42.7389 42.1879C42.9551 42.1569 43.169 42.1112 43.379 42.0512C43.5296 41.9949 43.6762 41.9302 43.8231 41.8654C43.9575 41.8061 44.0921 41.7467 44.23 41.6936C43.7066 42.3303 42.9664 42.7511 42.1515 42.8752C42.4688 43.2545 42.8513 43.5742 43.2809 43.8192C43.7564 44.0126 44.2296 44.2136 44.6933 44.4336C44.7666 44.4684 44.8426 44.5002 44.9188 44.532C45.2835 44.6843 45.6513 44.838 45.7376 45.3301C45.7831 45.4577 45.8683 45.5675 45.9806 45.6434C46.06 45.734 46.1579 45.8066 46.2677 45.8563C46.3775 45.9059 46.4967 45.9315 46.6172 45.9314C46.7377 45.9312 46.8568 45.9053 46.9664 45.8553C47.0761 45.8053 47.1738 45.7325 47.253 45.6416C47.4522 45.3978 47.6358 45.1416 47.8028 44.8747C48.2327 44.1545 48.8429 43.5589 49.5733 43.1466C50.2519 42.8262 50.8608 42.3751 51.365 41.8192C51.4507 41.7259 51.5182 41.6417 51.454 41.5151C51.222 41.0128 50.9548 40.5275 50.6543 40.0629C50.5729 39.9467 50.5157 39.9627 50.4185 40.0345C50.2381 40.166 50.0362 40.2649 49.8217 40.3268C49.8419 40.262 49.8593 40.2015 49.8757 40.1442C49.9095 40.0264 49.9394 39.9225 49.9814 39.8238C50.0885 39.5728 49.9547 39.5714 49.7722 39.5697L49.7588 39.5695C49.4239 39.6077 49.1171 39.7753 48.9041 40.0367C48.764 40.1579 48.627 40.2828 48.49 40.4077C48.2567 40.6204 48.0233 40.8332 47.7755 41.0273C47.4363 41.293 47.127 41.5474 47.1655 42.0357C47.1494 42.1462 47.1157 42.2533 47.0657 42.353C46.5178 41.4228 45.9115 40.5282 45.2505 39.6746C45.2237 40.1058 45.2413 40.5387 45.3029 40.9664C45.2673 40.9585 45.2352 40.9394 45.2112 40.912C45.1872 40.8846 45.1726 40.8503 45.1694 40.814C45.1084 40.6142 45.0511 40.4132 44.9939 40.2122C44.8561 39.7291 44.7182 39.2453 44.529 38.7785C44.4617 38.5798 44.3337 38.4072 44.1631 38.2851C43.6094 37.9217 42.9631 37.7247 42.3008 37.7175C41.7436 37.6938 41.187 37.6568 40.6308 37.6064C40.5854 37.6022 40.5372 37.5949 40.4879 37.5873C40.2975 37.5581 40.0903 37.5263 39.9631 37.6707C39.6475 38.029 39.3503 38.4034 39.0531 38.7779C38.8985 38.9727 38.7438 39.1676 38.5866 39.3602C38.4637 39.5106 38.3413 39.6614 38.2189 39.8122L38.2181 39.8132C37.7731 40.3613 37.328 40.9096 36.8633 41.4405C36.5358 41.8147 36.4865 42.0886 36.7146 42.3625C37.0518 42.7675 36.8545 43.0066 36.6197 43.2911L36.6091 43.304C36.5733 43.3474 36.542 43.3944 36.5106 43.4414C36.4839 43.4814 36.4572 43.5215 36.4277 43.5593C36.2174 43.8787 35.9772 44.1774 35.7102 44.4512C35.2093 44.8795 34.6485 45.2325 34.0455 45.4987C33.9298 45.5488 33.8304 45.6304 33.7587 45.7342C33.5357 46.0615 33.313 46.389 33.0904 46.7166L33.0874 46.7209L33.0863 46.7226C32.6463 47.37 32.2063 48.0174 31.7632 48.6627C31.7188 48.7207 31.6913 48.7898 31.6837 48.8624C31.6761 48.935 31.6887 49.0083 31.7201 49.0743C31.7905 49.2543 31.863 49.4337 31.9355 49.6129ZM43.0451 40.7182C43.0791 40.7035 43.1188 40.6862 43.1524 40.6445C43.125 40.79 43.0668 40.8099 43.0136 40.8281C42.9992 40.8331 42.9851 40.8379 42.9721 40.845C42.9552 40.7573 42.9935 40.7406 43.0451 40.7182Z" fill="#FEFEFE"/>
<path d="M38.775 32.4449C39.6081 31.9958 40.585 31.8945 41.4926 32.1629L41.5304 32.1739C41.9702 32.3028 41.99 32.3086 42.2671 31.9197C42.3916 31.7449 42.4876 31.7398 42.6371 31.848C42.669 31.8711 42.7012 31.8938 42.7334 31.9166C42.7879 31.9551 42.8425 31.9936 42.8957 32.0338C43.2443 32.2978 43.2685 32.3568 42.9841 32.6867C42.8064 32.8928 42.8403 33.024 42.9984 33.2066C43.3766 33.668 43.6504 34.2058 43.8011 34.783C43.9517 35.3603 43.9757 35.9633 43.8712 36.5506C43.5968 36.0471 43.2925 35.5604 42.96 35.0931C42.7469 34.8169 42.5143 34.5564 42.2639 34.3134C42.1172 34.1723 42.0311 34.1869 41.8979 34.3581C41.1373 35.3353 40.3707 36.3078 39.6041 37.2804C39.1926 37.8025 38.781 38.3246 38.3703 38.8475C37.6366 39.7817 36.9063 40.7185 36.1793 41.658C36.1321 41.7351 36.0697 41.8018 35.996 41.8541C35.9223 41.9065 35.8387 41.9433 35.7504 41.9624C35.662 41.9816 35.5707 41.9826 35.4819 41.9655C35.3932 41.9484 35.3088 41.9135 35.2339 41.8628C35.1782 41.838 35.1293 41.8002 35.0911 41.7527C35.0529 41.7051 35.0266 41.6492 35.0143 41.5895C35.002 41.5298 35.0041 41.468 35.0204 41.4093C35.0367 41.3505 35.0667 41.2965 35.108 41.2517C35.6943 40.494 36.2867 39.7412 36.8792 38.9884L36.9831 38.8563C37.9626 37.6115 38.943 36.3675 39.9244 35.1242C40.0112 35.014 40.0988 34.9043 40.1863 34.7947C40.4122 34.5117 40.6382 34.2287 40.8518 33.9367C40.9827 33.7578 41.1248 33.796 41.2681 33.8345C41.3129 33.8465 41.3579 33.8586 41.4026 33.8641C41.4295 33.8673 41.4585 33.878 41.4875 33.8886C41.5551 33.9135 41.6225 33.9382 41.6624 33.8691C41.7058 33.7938 41.6417 33.7363 41.5814 33.6822C41.5633 33.6659 41.5455 33.65 41.5312 33.634C41.2146 33.2655 40.8215 32.9705 40.3792 32.7695C39.937 32.5685 39.4562 32.4663 38.9705 32.47C38.9473 32.4699 38.9243 32.4664 38.8824 32.4601C38.8558 32.4562 38.8213 32.451 38.775 32.4449Z" fill="#FEFEFE"/>
<path d="M37.5728 31.0841C37.5834 31.1265 37.5968 31.1691 37.5618 31.2074L37.5239 31.1204L37.5728 31.0841Z" fill="#FEFEFE"/>
<path d="M42.0645 26.7328C41.8436 26.5646 41.5679 26.4849 41.2914 26.5093C41.3917 26.4036 41.4847 26.3211 41.2863 26.2724C41.0516 26.2147 40.8256 26.1222 40.5942 26.0502C40.5339 26.0314 40.4186 25.9553 40.4998 26.1357C40.5524 26.2526 40.4427 26.1883 40.4089 26.1741C39.8966 25.9683 39.3519 25.8548 38.8 25.8389C39.068 25.7257 39.3505 25.6507 39.6393 25.6163C39.6881 25.6101 39.774 25.626 39.7553 25.5363C39.7498 25.5096 39.6773 25.4969 39.6166 25.469C39.9217 25.4198 40.2345 25.4682 40.5105 25.6071C40.8356 25.7822 41.1772 25.9248 41.5303 26.0327C41.6895 26.0639 41.8317 26.1524 41.9302 26.2814C42.0286 26.4104 42.0764 26.571 42.0645 26.7328V26.7328Z" fill="#3E5A80"/>
<path d="M40.7216 27.7401C40.6953 28.1549 41.0798 28.4385 41.0316 28.8518C40.695 28.5033 40.2676 28.2559 39.7977 28.1377C39.3278 28.0195 38.8342 28.0352 38.3728 28.183C38.6339 27.9984 38.9459 27.8996 39.2657 27.9002C39.5943 27.929 39.9265 27.9267 40.2524 27.9723C40.4716 28.003 40.6338 27.987 40.7216 27.7401Z" fill="#3E5A80"/>
<path d="M41.2745 27.6433C40.8061 27.3837 40.3041 27.19 39.7827 27.0675C40.8128 26.9146 40.9937 26.9606 41.2745 27.6433Z" fill="#3E5A80"/>
<path d="M31.191 46.2052L31.2244 46.2681L31.2006 46.2797L31.1918 46.2055L31.191 46.2052Z" fill="#3E5A80"/>
<path d="M32.3393 20.3123L32.3082 20.2804L32.3334 20.2773L32.3321 20.3169L32.3393 20.3123Z" fill="#3E5A80"/>
<path d="M34.1928 33.4334L34.251 33.4047L34.2442 33.4767L34.1928 33.4334Z" fill="#3E5A80"/>
<path d="M43.1523 40.6445C43.1175 40.8295 43.033 40.8115 42.9721 40.845C42.944 40.6996 43.0679 40.7495 43.1523 40.6445Z" fill="#3E5A80"/>
<path d="M21.992 28.2636L21.9524 28.2832C21.9494 28.2683 21.948 28.2531 21.9484 28.2378C21.9493 28.2311 21.9617 28.2258 21.9689 28.2198L21.992 28.2636Z" fill="#3E5A80"/>
<path d="M21.0834 33.8679C21.062 33.9025 21.0263 33.93 20.9951 33.8992C20.9562 33.8609 21.0052 33.8402 21.0309 33.8187L21.0834 33.8679Z" fill="#3E5A80"/>
<path d="M21.9611 29.5485C21.95 29.5591 21.9382 29.5688 21.9258 29.5778L21.908 29.5622L21.946 29.5343L21.9611 29.5485Z" fill="#3E5A80"/>
<path d="M18.4923 39.2407L18.4831 39.2645C18.4743 39.2555 18.4665 39.2455 18.4597 39.2349L18.4784 39.2172L18.4923 39.2407Z" fill="#3E5A80"/>
</svg>
