<svg width="70" height="70" viewBox="0 0 70 70" fill="none" xmlns="http://www.w3.org/2000/svg">
<circle cx="35" cy="35" r="35" fill="black"/>
<path fill-rule="evenodd" clip-rule="evenodd" d="M40.3755 16.2558C34.0829 19.2081 26.878 25.1596 23.8444 28.4512C23.728 28.559 23.6141 28.6704 23.5027 28.7856C19.7201 32.7044 20.3123 39.6623 24.6897 44.8125L24.5985 44.8122C17.6418 44.8122 11.912 47.1549 11.1597 50.1677C10.92 50.8554 11.0086 52.7909 11.0549 53.8035C11.0667 54.0644 11.0761 54.2638 11.0761 54.365C11.0761 57.1315 17.2054 60 24.6182 60C32.0311 60 38.0401 57.5226 38.0401 54.4672C38.0401 54.4037 38.0441 54.2315 38.0497 53.9911C38.065 53.3306 38.0922 52.1554 38.0817 51.3067C38.155 50.8784 38.1262 50.4378 37.9975 50.0239C39.5154 49.6576 40.8991 48.926 42.0297 47.8157L41.9465 47.9031C41.6722 48.1874 41.3791 48.4513 41.0695 48.6928C42.9652 47.6753 44.3555 45.5137 46.0982 42.7111C51.6262 32.8144 56.9148 22.544 57.8722 15.3912C58.5497 10.3285 56.5402 10.4849 51.6668 11.7312C49.3032 12.3358 42.4416 15.2861 40.3755 16.2558ZM37.5569 49.1132C36.0571 46.8751 31.7209 45.1827 26.4085 44.8659C26.2755 44.858 26.1417 44.8509 26.0076 44.8446C21.2575 39.8677 20.7102 33.0601 24.1651 29.4807C27.6904 25.8289 34.5291 26.3853 39.4747 31.3777L26.4087 44.8659L39.475 31.3777C44.4192 36.3718 45.033 43.3256 41.527 46.9592H41.5268C40.4594 48.0658 39.0879 48.7859 37.5569 49.1132ZM49.7546 25.2576C49.7546 24.0115 47.641 19.8135 46.0996 19.0248C43.6615 17.7787 43.6615 19.0248 46.0996 21.5174C47.1292 22.5714 47.9413 23.6249 48.5359 24.3962C49.3485 25.4504 49.7546 25.9774 49.7546 25.2578V25.2576ZM47.4749 34.7714C47.7087 33.9874 47.1651 30.9318 46.3443 30.1321C45.0435 28.8694 44.8081 29.6536 45.875 31.7008C46.325 32.565 46.6383 33.3864 46.8681 33.9886C47.1823 34.8123 47.3395 35.2247 47.4749 34.7714ZM36.3899 52.5008C36.9576 51.9023 37.1811 51.3432 37.1811 50.8427C37.1811 50.3421 36.9576 49.7828 36.3899 49.1845C35.8184 48.5818 34.9446 47.9943 33.7908 47.4795C31.4861 46.4518 28.2368 45.7922 24.5985 45.7922C20.9602 45.7922 17.7106 46.4518 15.4062 47.4795C14.2523 47.9943 13.3784 48.5818 12.8071 49.1845C12.2393 49.7828 12.0158 50.3421 12.0158 50.8427C12.0158 51.3432 12.2393 51.9023 12.8069 52.5008C13.3784 53.1033 14.2521 53.691 15.4062 54.2055C17.7109 55.2333 20.9602 55.8928 24.5985 55.8928C28.2368 55.8928 31.4861 55.2333 33.7908 54.2055C34.9446 53.691 35.8184 53.1033 36.3899 52.5008Z" fill="white"/>
<path fill-rule="evenodd" clip-rule="evenodd" d="M40.3534 16.2558C34.0529 19.2081 26.839 25.1596 23.8016 28.4512C23.6852 28.559 23.571 28.6704 23.4595 28.7856C19.6722 32.7044 20.2651 39.6623 24.648 44.8125L24.5567 44.8122C17.5913 44.8122 10.9131 47.1549 10.1599 50.1677C9.91994 50.8554 10.0086 52.7909 10.055 53.8035C10.0668 54.0644 10.0762 54.2638 10.0762 54.365C10.0762 57.1315 17.1543 60 24.5765 60C31.9986 60 38.0151 57.5226 38.0151 54.4672C38.0151 54.4037 38.0191 54.2315 38.0247 53.9911C38.04 53.3306 38.0673 52.1554 38.0567 51.3067C38.1302 50.8784 38.1013 50.4378 37.9725 50.0239C39.4923 49.6576 40.8777 48.926 42.0097 47.8157L41.9264 47.9031C41.6517 48.1874 41.3583 48.4513 41.0483 48.6928C42.9464 47.6753 44.3384 45.5137 46.0833 42.7111C51.6182 32.8144 56.9135 22.544 57.8721 15.3912C58.5504 10.3285 56.5384 10.4849 51.6589 11.7312C49.2923 12.3358 42.4221 15.2861 40.3534 16.2558ZM37.6697 49.3352C36.2525 46.8825 31.4579 45.0337 25.6252 44.8309C20.9769 39.813 20.4148 32.9724 23.9572 29.3069C27.6113 25.5261 34.6097 26.155 39.6153 31.2015C44.62 36.2502 45.3118 43.3658 41.6723 47.1329C40.5868 48.2567 39.2059 48.9909 37.6697 49.3352ZM36.5301 52.673C37.1278 52.0439 37.3904 51.4262 37.3904 50.8427C37.3904 50.2591 37.1278 49.6412 36.5301 49.012C35.9297 48.3799 35.0259 47.7767 33.8529 47.2544C31.5096 46.2107 28.2235 45.5472 24.5565 45.5472C20.8899 45.5472 16.6623 46.2107 14.3192 47.2544C13.1463 47.7767 12.2423 48.3799 11.6418 49.012C11.0442 49.6412 10.7818 50.2591 10.7818 50.8427C10.7818 51.4262 11.0444 52.0439 11.6418 52.673C12.2423 53.3054 13.1463 53.9086 14.3192 54.4309C16.6623 55.4744 20.8899 56.1378 24.5567 56.1378C28.2235 56.1378 31.5096 55.4744 33.8529 54.4309C35.0259 53.9086 35.9297 53.3054 36.5301 52.673Z" fill="#8878C3"/>
<path d="M46.3338 19.4764C47.4583 20.2445 49 24.3346 49 25.5488C49 26.7631 48.1112 24.3346 46.3338 21.9046C44.5554 19.4764 44.5554 18.2621 46.3338 19.4764ZM46.5123 30.2977C47.111 31.0768 47.5075 34.0536 47.3369 34.8176C47.1662 35.5819 46.9473 33.8206 46.1701 31.826C45.3919 29.8315 45.5635 29.0674 46.5123 30.2977Z" fill="#6D619A"/>
<path d="M41.7151 46.6245C38.0668 50.3365 31.1625 49.6686 26.2744 44.8283C21.3882 39.9845 20.6444 33.0762 24.2843 29.3753C27.9342 25.6645 34.8399 26.3302 39.7263 31.1715C44.6125 36.0151 45.3552 42.9222 41.7151 46.6245Z" fill="#BFB7DE"/>
<path fill-rule="evenodd" clip-rule="evenodd" d="M39.1216 31.7811C34.4136 27.1167 28.0664 26.7289 24.8839 29.9646C21.7082 33.1936 22.1711 39.5511 26.8788 44.2184C31.5889 48.8826 37.9346 49.2716 41.1152 46.0354L41.1153 46.0353C44.2917 42.8046 43.8295 36.4481 39.1218 31.7812M23.5681 28.6704C27.7342 24.4346 35.2905 25.3873 40.4207 30.4701L40.4209 30.4703C45.5508 35.5555 46.5838 43.1056 42.4315 47.3291C38.2667 51.5667 30.7115 50.6111 25.5802 45.5298L25.5798 45.5295C20.4502 40.4442 19.4155 32.8927 23.5681 28.6704L23.5681 28.6704Z" fill="#6D619A"/>
<path d="M37 50.5001C37 51.1617 36.7002 51.833 36.0769 52.4882C35.4515 53.1454 34.5233 53.7595 33.3392 54.2858C30.9729 55.3377 27.6714 56 24 56C20.3286 56 17.0271 55.3377 14.6608 54.2858C13.4767 53.7595 12.5485 53.1454 11.9231 52.4882C11.2998 51.833 11 51.1617 11 50.5001C11 49.8383 11.2996 49.167 11.9231 48.5118C12.5485 47.8546 13.4767 47.2405 14.6608 46.7142C17.0271 45.6625 20.3286 45 24 45C27.6714 45 30.9729 45.6625 33.3392 46.7142C34.5233 47.2405 35.4515 47.8546 36.0769 48.5118C36.7002 49.167 37 49.8383 37 50.5001Z" fill="#E3DFF3"/>
<path fill-rule="evenodd" clip-rule="evenodd" d="M13.0913 48.615C12.2308 49.244 11.8667 49.8708 11.8667 50.5001C11.8667 51.1379 12.227 51.765 13.0672 52.3898C13.9098 53.0163 15.1163 53.5438 16.4963 53.9651C19.2511 54.8059 22.4247 55.1429 24 55.1429C25.4655 55.1429 28.6403 54.8064 31.4254 53.9643C32.8203 53.5425 34.0484 53.0139 34.9087 52.3851C35.7693 51.7561 36.1333 51.1294 36.1333 50.5001C36.1333 49.8624 35.773 49.2353 34.9328 48.6106C34.0902 47.984 32.8838 47.4564 31.5038 47.0352C28.749 46.1942 25.5754 45.8571 24 45.8571C22.5343 45.8571 19.3596 46.1936 16.5745 47.0358C15.1796 47.4576 13.9515 47.9862 13.0913 48.615ZM16.0317 45.2589C19.0042 44.36 22.3628 44 24 44C25.7425 44 29.1022 44.3595 32.0513 45.2597C33.5232 45.709 34.9613 46.3132 36.0504 47.123C37.1417 47.9346 38 49.0486 38 50.5001C38 51.9601 37.1186 53.0744 36.0139 53.8818C34.909 54.6893 33.4522 55.2924 31.9682 55.7411C28.9957 56.64 25.6371 57 24 57C22.2577 57 18.8979 56.6407 15.9488 55.7405C14.4769 55.2913 13.0387 54.6871 11.9497 53.8773C10.8583 53.0657 10 51.9517 10 50.5001C10 49.0401 10.8814 47.9258 11.9861 47.1184C13.091 46.3107 14.5477 45.7076 16.0317 45.2589Z" fill="#6D619A"/>
</svg>
