<?xml version="1.0" encoding="utf-8"?>
<svg version="1.1" xmlns="http://www.w3.org/2000/svg" xmlns:xlink="http://www.w3.org/1999/xlink" x="0px" y="0px"
	 viewBox="0 0 32 32" enable-background="new 0 0 32 32" xml:space="preserve">
<path fill="#F6BE4E" d="M16,32c8.8,0,16-7.2,16-16S24.8,0,16,0S0,7.2,0,16S7.2,32,16,32z"/>
<path fill="#E99534" d="M31.8,13.6c-1.1,6.4-6.5,11.8-13.4,13.4c-6.5,1.6-13.3-0.5-17.3-5.2c2.1,5.4,7.1,9.4,13.2,10
	c1.9,0.1,3.9,0,5.8-0.5c2-0.5,3.8-1.4,5.3-2.5C29.4,26,32,21.3,32,16C32,15.2,31.9,14.4,31.8,13.6z"/>
<g>
	<circle fill="#313076" cx="9.6" cy="15.2" r="1"/>
	<circle fill="#313076" cx="22.4" cy="15.2" r="1"/>
	<path fill="#313076" d="M14.8,15.9c-0.3,0-0.5,0.2-0.5,0.5c0,0.4,0.1,0.8,0.4,1c0.3,0.2,0.7,0.4,1.1,0.4c0.4,0,0.7-0.1,1-0.3
		c0.2-0.1,0.3-0.3,0.4-0.5c0.1-0.2,0.1-0.4,0.1-0.6c0-0.2-0.3-0.4-0.5-0.4C16.1,15.9,15.5,15.9,14.8,15.9"/>
</g>
</svg>