<?xml version="1.0" standalone="no"?>
<!DOCTYPE svg PUBLIC "-//W3C//DTD SVG 20010904//EN"
 "http://www.w3.org/TR/2001/REC-SVG-20010904/DTD/svg10.dtd">
<svg version="1.0" xmlns="http://www.w3.org/2000/svg"
 width="50.000000pt" height="50.000000pt" viewBox="0 0 50.000000 50.000000"
 preserveAspectRatio="xMidYMid meet">

<g transform="translate(0.000000,50.000000) scale(0.100000,-0.100000)"
fill="#000000" stroke="none">
<path d="M164 448 c-38 -27 -74 -54 -80 -61 -9 -9 13 -28 93 -80 91 -59 105
-65 100 -45 -3 13 -9 40 -13 62 l-7 39 99 -8 c65 -4 96 -3 89 3 -5 5 -55 39
-111 75 l-100 64 -70 -49z"/>
<path d="M70 346 c0 -4 18 -42 40 -86 45 -89 45 -90 28 -90 -7 0 -31 -5 -52
-11 l-39 -11 84 -55 c46 -30 91 -61 101 -69 19 -18 21 -15 38 86 6 36 13 72
16 81 3 11 -20 32 -78 71 -131 86 -138 91 -138 84z"/>
<path d="M379 265 l-75 -54 -12 -65 c-27 -143 -29 -138 23 -61 63 92 59 89 89
70 21 -14 27 -15 30 -4 6 20 26 163 22 166 -1 1 -36 -22 -77 -52z"/>
</g>
</svg>
