<svg width="70" height="70" viewBox="0 0 70 70" fill="none" xmlns="http://www.w3.org/2000/svg">
<path d="M35 70C54.3305 70 70 54.3305 70 35C70 15.6695 54.3305 0 35 0C15.6695 0 0 15.6695 0 35C0 54.3305 15.6695 70 35 70Z" fill="#863FF8"/>
<path d="M26.8682 14.5165C25.7069 13.8278 24.2667 13.8278 23.1055 14.5165L13.8292 20.0182C12.6959 20.6904 12 21.9171 12 23.2428V34.2868C12 35.6125 12.6959 36.8392 13.8292 37.5114L23.1055 43.013C24.2667 43.7017 25.7069 43.7017 26.8682 43.013L46.0132 31.6584L54.0526 36.4265V46.044L46.0132 50.8121L37.9737 46.044V39.9882L33.0263 43.1058V46.7572C33.0263 48.0829 33.7222 49.3096 34.8555 49.9818L44.1318 55.4835C45.2931 56.1722 46.7333 56.1722 47.8945 55.4835L57.1708 49.9818C58.3041 49.3096 59 48.0829 59 46.7572V35.7132C59 34.3875 58.3041 33.1608 57.1708 32.4886L47.8945 26.987C46.7333 26.2983 45.2931 26.2983 44.1318 26.987L24.9868 38.3416L16.9474 33.5735V23.956L24.9868 19.1879L33.0263 23.956V30.0118L37.9737 26.8942V23.2428C37.9737 21.9171 37.2778 20.6904 36.1445 20.0182L26.8682 14.5165Z" fill="white"/>
</svg>
