<?xml version="1.0" standalone="no"?>
<!DOCTYPE svg PUBLIC "-//W3C//DTD SVG 1.1//EN" "http://www.w3.org/Graphics/SVG/1.1/DTD/svg11.dtd">
<svg xmlns="http://www.w3.org/2000/svg" xmlns:xlink="http://www.w3.org/1999/xlink" width="150" zoomAndPan="magnify" viewBox="0 0 150 149.999998" height="150" preserveAspectRatio="xMidYMid meet" version="1.0"><defs><clipPath id="173c7b15c9"><path d="M 0.910156 0.910156 L 149.410156 0.910156 L 149.410156 149.410156 L 0.910156 149.410156 Z M 0.910156 0.910156 " clip-rule="nonzero"/></clipPath></defs><g clip-path="url(#173c7b15c9)"><path fill="#f4a7bb" d="M 74.957031 0.910156 C 34.027344 0.910156 0.910156 34.0625 0.910156 74.996094 C 0.910156 115.929688 34.027344 149.082031 74.957031 149.082031 C 115.890625 149.082031 149.082031 115.929688 149.082031 74.996094 C 149.082031 34.0625 115.890625 0.910156 74.957031 0.910156 Z M 106.332031 119.445312 L 74.996094 100.554688 L 43.65625 119.445312 L 51.953125 83.8125 L 24.320312 59.84375 L 60.769531 56.734375 L 74.996094 23.136719 L 89.21875 56.734375 L 125.671875 59.84375 L 98.035156 83.8125 Z M 106.332031 119.445312 " fill-opacity="1" fill-rule="nonzero"/></g></svg>