<svg width="70" height="70" viewBox="0 0 70 70" fill="none" xmlns="http://www.w3.org/2000/svg">
<path d="M69.9447 35.0672C69.9752 15.7744 54.3547 0.104361 35.0553 0.0672184C15.7559 0.0300756 0.0858281 15.6399 0.0552915 34.9327C0.0247548 54.2256 15.6453 69.8956 34.9447 69.9327C54.2441 69.9699 69.9142 54.3601 69.9447 35.0672Z" fill="#3574B9"/>
<path d="M27.8622 62.5106C27.8622 63.5045 27.2147 63.8524 26.2434 63.8524C20.3613 61.9052 15.2272 58.0513 11.5868 52.8505C7.94647 47.6497 5.98944 41.3729 6.00004 34.9319C6.01068 28.491 7.98835 22.2212 11.6459 17.0336C15.3034 11.8459 20.4502 8.01042 26.3386 6.08434C27.2909 5.75634 27.9574 6.42229 27.9479 7.43611V9.83152C27.9551 10.1764 27.8697 10.5164 27.7014 10.8133C27.5332 11.1101 27.2887 11.3519 26.9957 11.5113C22.3639 13.2515 18.3581 16.4386 15.5232 20.6392C12.6882 24.8399 11.1617 29.85 11.1513 34.9882C11.1409 40.1264 12.6471 45.1432 15.465 49.3563C18.2829 53.5694 22.2757 56.7742 26.9004 58.5348C27.1942 58.6933 27.4393 58.9349 27.6077 59.2319C27.7761 59.529 27.861 59.8695 27.8527 60.2146L27.8622 62.5106Z" fill="white"/>
<path d="M37.537 54.1614C37.526 54.5184 37.3884 54.8584 37.1509 55.1155C36.9134 55.3726 36.5929 55.5285 36.2515 55.553H33.6709C33.3357 55.5294 33.0203 55.3792 32.7837 55.1303C32.547 54.8815 32.4054 54.5512 32.3853 54.2012V50.2254C27.2241 49.5396 24.653 46.518 23.6913 42.1447C23.6913 41.4787 24.0246 40.8028 24.6435 40.8028H27.5479C28.1859 40.8028 28.5001 41.1408 28.8334 41.7968C29.4714 44.1524 30.7379 46.1701 34.9469 46.1801C38.1655 46.1801 40.4223 44.5102 40.4319 41.8266C40.4414 39.1429 39.1463 38.1291 34.6422 37.4433C27.8717 36.4493 24.653 34.4018 24.6626 28.6966C24.6626 24.3332 27.9002 20.9736 32.4139 20.3176V16.2027C32.4342 15.8537 32.5762 15.5246 32.813 15.2774C33.0498 15.0302 33.3651 14.8821 33.6994 14.8609H36.28C36.6143 14.8821 36.9297 15.0302 37.1665 15.2774C37.4033 15.5246 37.5453 15.8537 37.5656 16.2027V20.2381C41.4317 20.914 44.0028 23.2696 44.6408 26.9671C44.6408 27.6331 44.317 28.3089 43.6886 28.3089H41.127C40.4795 28.3089 40.1747 27.971 39.8415 27.315C39.2034 24.9593 37.5941 23.9455 34.6898 23.9455C31.4712 23.9455 29.8523 25.6153 29.8523 27.9213C29.8523 30.2273 30.8046 31.6188 35.642 32.3046C42.403 33.2985 45.6216 35.3461 45.6121 41.0513C45.6121 45.4147 42.384 49.1023 37.5465 50.1061L37.537 54.1614Z" fill="white"/>
<path d="M42.0315 62.5702C42.0315 63.5741 42.6886 64.25 43.6408 63.912C49.5286 61.9831 54.6754 58.148 58.3357 52.9621C61.996 47.7763 63.9799 41.509 64 35.0678C64.019 21.6396 55.344 10.1993 43.7551 6.14397C42.7838 6.14397 42.1363 6.49185 42.1363 7.48579V9.84144C42.1291 10.1863 42.2144 10.5263 42.3827 10.8232C42.551 11.12 42.7955 11.3618 43.0885 11.5212C47.7128 13.2828 51.7051 16.4885 54.5221 20.7022C57.3392 24.9159 58.8443 29.9331 58.8329 35.0713C58.8215 40.2095 57.294 45.2193 54.4581 49.4193C51.6223 53.6193 47.6159 56.8056 42.9838 58.5447C42.6907 58.7016 42.446 58.9414 42.2776 59.2367C42.1092 59.532 42.0239 59.871 42.0315 60.2146V62.5702Z" fill="white"/>
</svg>
