<svg width="70" height="70" viewBox="0 0 70 70" fill="none" xmlns="http://www.w3.org/2000/svg">
<path d="M0 29.8L35 64L70 29.8L55.5882 7H14.4118L0 29.8Z" fill="#009393"/>
<path fill-rule="evenodd" clip-rule="evenodd" d="M50.3184 15V20.6723H38.8181V24.605C46.8951 25.0253 52.955 26.7513 53 28.8202L52.9997 33.1334C52.9547 35.2023 46.8951 36.9283 38.8181 37.3486V47H31.1818V37.3486C23.1047 36.9283 17.0449 35.2023 17 33.1334L17.0001 28.8202C17.0451 26.7513 23.1047 25.0253 31.1818 24.605V20.6723H19.6815V15H50.3184ZM35 34.3856C43.6195 34.3856 50.8241 32.926 52.5872 30.9769C51.092 29.324 45.6839 28.0231 38.8181 27.6658V31.7835C37.5876 31.8475 36.3101 31.8812 35 31.8812C33.6898 31.8812 32.4124 31.8475 31.1818 31.7835V27.6658C24.316 28.0231 18.9078 29.324 17.4127 30.9769C19.1758 32.926 26.3803 34.3856 35 34.3856Z" fill="white"/>
</svg>
