<svg width="70" height="70" viewBox="0 0 70 70" fill="none" xmlns="http://www.w3.org/2000/svg">
<path fill-rule="evenodd" clip-rule="evenodd" d="M25.8997 30.1644C26.9115 32.24 25.3697 34.7306 22.8643 34.7306C21.4189 34.7306 19.5398 33.6237 19.5398 31.502C19.5398 26.9819 18.1426 24.8142 16.5526 24.2146C16.5526 33.3469 10 36.7139 10 47.0916C10 57.4693 16.4562 65.4948 25.5624 68.954C22.6716 66.5555 20.8407 63.0039 20.8407 59.0375C20.8407 46.9532 37.0777 43.9092 31.1033 31.2253C33.4641 34.2233 37.704 48.6598 32.7414 58.1612C35.7768 56.639 40.7876 51.3811 42.6667 48.6598C40.2576 61.2976 43.1003 60.3289 45.6539 59.4063C46.6176 59.0375 47.5811 58.6683 48.1593 59.0835C49.2673 59.7754 46.3285 66.6015 43.4376 69C52.5437 65.5868 59 57.1001 59 47.1376C59 24.9987 30.1396 23.8917 38.0895 0C30.3806 3.36698 18.4799 14.6671 25.8997 30.1644Z" fill="#FFA723"/>
</svg>
