<svg width="70" height="70" viewBox="0 0 70 70" fill="none" xmlns="http://www.w3.org/2000/svg">
<path d="M59.6392 59.9399C56.3788 63.201 52.4967 65.7717 48.224 67.4989C43.9513 69.2261 39.3754 70.0744 34.7686 69.9935C30.1907 70.0836 25.6425 69.2378 21.4019 67.5078C17.1612 65.7777 13.3173 63.1997 10.1048 59.9313C6.81669 56.7242 4.22329 52.8731 2.48623 48.6179C0.749174 44.3627 -0.0943081 39.7947 0.00836463 35.1986C0.00836463 25.1422 3.37958 16.7627 10.122 10.0604C13.3365 6.79283 17.1823 4.21609 21.4244 2.48752C25.6665 0.758947 30.2158 -0.0851533 34.7945 0.00677779C39.4003 -0.0713788 43.9748 0.779138 48.2459 2.50775C52.517 4.23635 56.3975 6.80774 59.6565 10.069C66.5482 16.7771 69.9941 25.1594 69.9941 35.2159C70.0812 39.832 69.2051 44.4155 67.4221 48.6729C65.639 52.9303 62.9881 56.7679 59.6392 59.9399V59.9399Z" fill="#49BC98"/>
<path d="M47.0009 22.3852L36.992 15L36.4869 15.0394C36.2463 15.3399 36.0521 15.6747 35.9106 16.0325C35.0258 19.8447 34.1603 23.6666 33.2953 27.4868L33.2947 27.4892L33.2928 27.4979C33.0552 28.5472 32.8176 29.5964 32.5796 30.6453C32.4997 31.0073 32.4246 31.3741 32.3394 31.7903L32.2639 32.1586C32.3792 32.0993 32.478 32.0511 32.5661 32.0081C32.689 31.9482 32.7909 31.8984 32.8875 31.8433L43.6462 25.9162C44.8381 25.2699 46.0221 24.6236 47.2061 23.9616C47.3251 23.9003 47.4265 23.8098 47.5008 23.6987C47.5751 23.5875 47.6199 23.4593 47.631 23.3261C47.642 23.1929 47.619 23.0591 47.564 22.9373C47.509 22.8154 47.4239 22.7095 47.3166 22.6295L47.0009 22.3852Z" fill="white"/>
<path d="M22.4524 23.2207C21.8155 23.6523 21.3188 24.2605 21.0237 24.9704L21 45.3763C21.2815 45.8924 21.6262 46.3716 22.0261 46.8029C24.2818 48.6574 26.5635 50.4902 28.8423 52.3206L28.8438 52.3218C29.6347 52.957 30.4251 53.592 31.2141 54.2275C31.514 54.4718 31.8377 54.6531 32.2165 54.4167C32.3763 54.3075 32.4949 54.1481 32.5535 53.9639C32.6122 53.7797 32.6075 53.5812 32.5402 53.3999C31.3456 47.5622 30.1643 41.7192 28.996 35.8709C28.9052 35.4209 28.9052 34.9573 28.996 34.5073C30.18 28.6801 31.3772 22.8581 32.5875 17.0414C32.6744 16.6158 32.6665 16.2217 32.256 15.9852C31.8455 15.7488 31.5219 15.9773 31.2141 16.2296C30.3924 16.8859 29.5714 17.5429 28.7504 18.1998C26.6534 19.8778 24.557 21.5554 22.4524 23.2207Z" fill="white"/>
<path d="M36.4158 55C36.1815 54.7139 35.99 54.3953 35.8475 54.0542C34.925 49.9928 34.022 45.9216 33.1194 41.8522C32.8711 40.7331 32.6229 39.6142 32.3744 38.4956C32.3744 38.3804 32.35 38.2653 32.3198 38.1224C32.3045 38.0501 32.2877 37.9708 32.2718 37.8808C32.3462 37.9168 32.4133 37.9484 32.4749 37.9774C32.6158 38.0436 32.7279 38.0964 32.8322 38.1567L46.993 45.9833C47.8692 46.472 47.9007 47 47.0719 47.5596L36.992 54.8897L36.921 54.9606L36.4158 55Z" fill="white"/>
<path d="M34.7503 33.6168L32.7059 34.7754L33.2348 35.0986L42.5806 40.3557L47.6876 43.2877C48.177 43.5636 48.6269 43.5163 48.8401 43.1458C48.9574 42.9003 49.0116 42.6294 48.9979 42.3577V27.3823C48.9979 26.2947 48.477 25.9951 47.5297 26.5232L34.7503 33.6168Z" fill="white"/>
</svg>
