<svg width="70" height="71" viewBox="0 0 70 71" fill="none" xmlns="http://www.w3.org/2000/svg">
<path d="M34.9938 0.985596L4.7562 18.6242V53.4982L34.9938 70.9856L65.2314 53.4982V18.4982L34.9938 0.985596ZM34.9938 0.985596L4.7562 18.6242V53.4982L34.9938 70.9856L65.2314 53.4982V18.4982L34.9938 0.985596Z" fill="#002D74"/>
<path d="M46.3835 17H23.3486L20.7432 28.7776H49.1594L46.3835 17Z" fill="white"/>
<path d="M27.6099 57L32.6746 52.2841L32.772 49.8406L27.6099 44.9536V37.2077L20.7189 32.8583L13 38.6005L23.4947 57H27.6099Z" fill="white"/>
<path d="M30.0692 37.2321L29.29 44.5626H40.7587L40.0282 37.2321L42.4632 30.6347H27.6342L30.0692 37.2321Z" fill="white"/>
<path d="M42.3658 56.9267H46.5053L57 38.5516L49.3055 32.7361L42.4875 37.2077V45.0757L37.3498 49.9627V52.2841L42.3658 56.9267Z" fill="white"/>
<path fill-rule="evenodd" clip-rule="evenodd" d="M34.9938 70.9856L65.2314 53.4982V18.4982L34.9938 0.985596L4.75623 18.6242V53.4982L34.9938 70.9856ZM6.75623 19.7729L34.9974 3.2989L63.2314 19.6511V52.3445L34.9938 68.6752L6.75623 52.3445V19.7729Z" fill="white"/>
</svg>
