<svg width="70" height="70" viewBox="0 0 70 70" fill="none" xmlns="http://www.w3.org/2000/svg">
<circle cx="35" cy="35" r="35" fill="url(#paint0_linear_987_186)"/>
<path d="M15.8625 27.9898C15.8625 18.1835 23.8121 10.2339 33.6184 10.2339C43.4247 10.2339 51.3742 18.1835 51.3742 27.9898C51.3742 27.9898 50.5555 38.633 58.6403 39.1959C58.9985 42.5731 56.8494 43.538 53.9327 43.9547C51.0161 44.3713 49.6994 45.4898 49.481 48.0482C49.2626 50.6067 49.174 53.6769 45.3874 53.6769C42.6532 53.6769 40.5941 54.7586 39.7076 57.5658C31.6228 62.6316 15.8625 50.5884 15.8625 40.7822V27.9898Z" fill="url(#paint1_linear_987_186)"/>
<path fill-rule="evenodd" clip-rule="evenodd" d="M33.8935 10.0294L34.1814 10.3362C31.3841 11.2402 25.3291 14.5321 23.487 20.4678C21.1843 27.8874 21.3379 37.1491 21.7472 42.1125C22.1423 46.9028 29.8295 55.5059 39.933 57.2964C39.926 57.3179 39.9191 57.3394 39.9123 57.3611C31.8275 62.4269 16.0673 50.3838 16.0673 40.5775V27.7851C16.0673 17.9788 24.0168 10.0292 33.8231 10.0292C33.8466 10.0292 33.87 10.0293 33.8935 10.0294Z" fill="#6CDEB6"/>
<path d="M33.2383 10.0762V10.6433C38.3552 11.769 45.9859 17.2053 45.7748 27.8874C45.519 40.8333 49.1009 41.7544 55.4971 43.3406C55.7644 43.4069 56.0194 43.4535 56.2626 43.4817C58.4271 42.9368 59.8589 41.7958 59.5614 38.9912C51.4766 38.4284 52.2953 27.7851 52.2953 27.7851C52.2953 17.9788 44.3458 10.0292 34.5395 10.0292C34.1019 10.0292 33.668 10.0451 33.2383 10.0762Z" fill="#02A0B3"/>
<circle cx="41.4679" cy="25" r="6.4679" fill="#1E2D47"/>
<path d="M41.4681 28.2342C41.0434 28.2342 40.6229 28.1505 40.2305 27.988C39.8381 27.8255 39.4816 27.5873 39.1813 27.287C38.881 26.9867 38.6428 26.6302 38.4803 26.2378C38.3178 25.8454 38.2341 25.4249 38.2341 25.0002C38.2341 24.5755 38.3178 24.155 38.4803 23.7626C38.6428 23.3703 38.881 23.0138 39.1813 22.7135C39.4816 22.4132 39.8381 22.175 40.2305 22.0124C40.6229 21.8499 41.0434 21.7663 41.4681 21.7663L41.4681 25.0002L41.4681 28.2342Z" fill="#4CC87F"/>
<circle cx="25.5" cy="25" r="6.5" fill="#1E2D47"/>
<path d="M25.5002 28.2502C25.0734 28.2502 24.6508 28.1661 24.2565 28.0028C23.8622 27.8395 23.5039 27.6001 23.2021 27.2983C22.9004 26.9965 22.661 26.6382 22.4976 26.2439C22.3343 25.8496 22.2502 25.427 22.2502 25.0002C22.2502 24.5734 22.3343 24.1508 22.4976 23.7565C22.661 23.3622 22.9004 23.0039 23.2021 22.7021C23.5039 22.4003 23.8622 22.1609 24.2565 21.9976C24.6508 21.8343 25.0734 21.7502 25.5002 21.7502L25.5002 25.0002L25.5002 28.2502Z" fill="#4CC87F"/>
<path fill-rule="evenodd" clip-rule="evenodd" d="M14.8392 27.7851C14.8392 17.4136 23.247 9.00586 33.6185 9.00586C43.99 9.00586 52.3977 17.4136 52.3977 27.7851V27.8244L52.3948 27.8625L52.3948 27.8626L52.3947 27.863L52.3947 27.8636L52.3946 27.8652C52.3944 27.8682 52.394 27.8737 52.3935 27.8816C52.3925 27.8975 52.3909 27.923 52.3891 27.9574C52.3856 28.0263 52.3811 28.1311 52.3781 28.2666C52.3719 28.538 52.3715 28.9312 52.3949 29.4066C52.442 30.3627 52.5844 31.6245 52.9571 32.8875C53.331 34.1544 53.9201 35.367 54.8236 36.2849C55.7076 37.1829 56.9378 37.8468 58.7115 37.9703L59.5676 38.0299L59.6581 38.8833C59.864 40.825 59.3501 42.2818 58.1705 43.2665C57.0798 44.1769 55.5643 44.5507 54.0775 44.7631C52.6999 44.9599 51.8805 45.3018 51.3812 45.753C50.9124 46.1765 50.5959 46.8159 50.5007 47.9306C50.4914 48.0401 50.4822 48.1535 50.4728 48.2699C50.3797 49.4211 50.2615 50.8818 49.6946 52.0608C49.3641 52.7483 48.8681 53.3797 48.1219 53.8292C47.3815 54.2752 46.472 54.4956 45.3875 54.4956C44.1483 54.4956 43.1608 54.7414 42.4077 55.2251C41.6706 55.6985 41.0659 56.4585 40.6835 57.6693L40.5701 58.0284L40.251 58.2283C37.9339 59.6802 35.1365 59.8614 32.3531 59.2547C29.5688 58.6478 26.7121 57.2378 24.1511 55.3738C21.5871 53.5075 19.2755 51.1545 17.5975 48.6133C15.9252 46.0806 14.8392 43.2942 14.8392 40.5775V27.7851ZM50.3509 27.7506C50.3323 18.5254 42.8481 11.0526 33.6185 11.0526C24.3774 11.0526 16.886 18.544 16.886 27.7851V40.5775C16.886 42.7639 17.7701 45.1602 19.3055 47.4854C20.8352 49.802 22.969 51.9818 25.3556 53.7189C27.7452 55.4582 30.3445 56.7221 32.7891 57.2549C35.0939 57.7573 37.1846 57.597 38.8619 56.6718C39.3792 55.2668 40.2013 54.2096 41.3016 53.5029C42.4833 52.744 43.8925 52.4488 45.3875 52.4488C46.1963 52.4488 46.7178 52.2855 47.0658 52.0759C47.408 51.8698 47.6578 51.5737 47.85 51.1739C48.2428 50.3569 48.3331 49.2811 48.4381 48.032C48.4457 47.9411 48.4534 47.8493 48.4614 47.7565C48.5846 46.3127 49.0356 45.1137 50.009 44.2343C50.9518 43.3824 52.249 42.9568 53.7881 42.7369C55.218 42.5326 56.2353 42.2157 56.8589 41.6952C57.2823 41.3417 57.6098 40.82 57.6519 39.9048C55.8351 39.6017 54.4287 38.8013 53.365 37.7208C52.1482 36.4847 51.4261 34.9309 50.994 33.4667C50.5608 31.9985 50.4026 30.5643 50.3506 29.5072C50.3244 28.976 50.3247 28.5333 50.3318 28.2204C50.3353 28.0638 50.3406 27.9394 50.3451 27.8521C50.3473 27.8091 50.3493 27.775 50.3509 27.7506Z" fill="#1F2B46"/>
<defs>
<linearGradient id="paint0_linear_987_186" x1="9.4152" y1="9.10818" x2="62.8874" y2="62.5804" gradientUnits="userSpaceOnUse">
<stop stop-color="#1D2C46"/>
<stop offset="1" stop-color="#075063"/>
</linearGradient>
<linearGradient id="paint1_linear_987_186" x1="24.5614" y1="13.2018" x2="45.8479" y2="49.4298" gradientUnits="userSpaceOnUse">
<stop stop-color="#8BD0B1"/>
<stop offset="1" stop-color="#3FAEC2"/>
</linearGradient>
</defs>
</svg>
