<svg width="70" height="70" viewBox="0 0 70 70" fill="none" xmlns="http://www.w3.org/2000/svg">
<path d="M59.6392 59.9399C56.3788 63.201 52.4967 65.7717 48.224 67.4989C43.9513 69.2261 39.3754 70.0744 34.7686 69.9935C30.1907 70.0836 25.6425 69.2378 21.4019 67.5078C17.1612 65.7777 13.3173 63.1997 10.1048 59.9313C6.81669 56.7242 4.22329 52.8731 2.48623 48.6179C0.749174 44.3627 -0.0943081 39.7947 0.00836463 35.1986C0.00836463 25.1422 3.37958 16.7627 10.122 10.0604C13.3365 6.79283 17.1823 4.21609 21.4244 2.48752C25.6665 0.758947 30.2158 -0.0851533 34.7945 0.00677779C39.4003 -0.0713788 43.9748 0.779138 48.2459 2.50775C52.517 4.23635 56.3975 6.80774 59.6565 10.069C66.5482 16.7771 69.9941 25.1594 69.9941 35.2159C70.0812 39.832 69.2051 44.4155 67.4221 48.6729C65.639 52.9303 62.9881 56.7679 59.6392 59.9399V59.9399Z" fill="white"/>
<path d="M45.4977 19.7146C41.9973 26.0469 38.3992 31.3808 34.7496 35.6231C31.0639 32.0069 27.1261 26.9265 22.8073 20.2216C25.8752 15.9689 29.8543 13.1546 33.998 13.0045C37.6065 12.8752 41.9201 15.524 45.4977 19.7146Z" fill="#47DBA7"/>
<path d="M32.145 41.0087L32.7163 57C22.3235 56.0637 15.5699 47.7446 17.2583 34.6298C17.6546 31.5464 18.4988 28.5458 19.6725 25.8142C19.6725 25.8142 25.8444 35.4317 32.145 41.0087Z" fill="#47DBA7"/>
<path d="M37.828 40.7497L38.3994 56.7979C48.6945 55.1216 54.8458 46.3319 52.2308 33.3723C51.6286 30.3871 50.5219 27.5211 49.0959 24.924C45.4411 31.2201 41.668 36.5177 37.828 40.7497Z" fill="#47DBA7"/>
</svg>
