<svg width="70" height="70" viewBox="0 0 70 70" fill="none" xmlns="http://www.w3.org/2000/svg">
<path d="M48.224 67.4989C52.4967 65.7717 56.3788 63.201 59.6392 59.9399C62.9881 56.7679 65.639 52.9303 67.4221 48.6729C69.2051 44.4155 70.0812 39.832 69.9941 35.2159C69.9941 25.1594 66.5482 16.7771 59.6565 10.069C56.3975 6.80774 52.517 4.23635 48.2459 2.50775C43.9748 0.779138 39.4003 -0.0713788 34.7945 0.00677779C30.2158 -0.0851533 25.6665 0.758947 21.4244 2.48752C17.1823 4.21608 13.3365 6.79283 10.122 10.0604C3.37958 16.7627 0.00836463 25.1422 0.00836463 35.1986C-0.0943081 39.7947 0.749174 44.3627 2.48623 48.6179C4.22329 52.8731 6.81669 56.7242 10.1048 59.9313C13.3173 63.1997 17.1612 65.7777 21.4019 67.5078C25.6425 69.2378 30.1907 70.0836 34.7686 69.9935C39.3754 70.0744 43.9513 69.2261 48.224 67.4989Z" fill="#165366"/>
<path d="M0.243622 39.9821C0.602246 42.9409 1.35463 45.8458 2.48624 48.6178C4.2233 52.873 6.8167 56.7241 10.1048 59.9312C13.3173 63.1996 17.1613 65.7776 21.4019 67.5077C25.6425 69.2378 30.1907 70.0836 34.7686 69.9934C39.3754 70.0744 43.9513 69.226 48.224 67.4988C52.4967 65.7717 56.3788 63.201 59.6392 59.9398C62.9882 56.7678 65.639 52.9302 67.4221 48.6728C69.2052 44.4154 70.0812 39.8319 69.9941 35.2158C69.9941 25.1594 66.5482 16.7771 59.6565 10.0689C56.3975 6.80769 52.517 4.2363 48.2459 2.50769C45.5278 1.40759 42.6867 0.663135 39.7929 0.287354C20.1113 4.73197 4.61967 20.2517 0.243622 39.9821Z" fill="#7FD0B3"/>
<path d="M35.0528 56.6211C46.9939 56.6211 56.674 46.9409 56.674 34.9999C56.674 23.0588 46.9939 13.3787 35.0528 13.3787C23.1117 13.3787 13.4316 23.0588 13.4316 34.9999C13.4316 46.9409 23.1117 56.6211 35.0528 56.6211Z" fill="#165366"/>
<path d="M35.0527 42.1894C39.0234 42.1894 42.2422 38.9706 42.2422 35C42.2422 31.0294 39.0234 27.8105 35.0527 27.8105C31.0821 27.8105 27.8633 31.0294 27.8633 35C27.8633 38.9706 31.0821 42.1894 35.0527 42.1894Z" fill="white"/>
</svg>
