<svg width="70" height="70" viewBox="0 0 70 70" fill="none" xmlns="http://www.w3.org/2000/svg">
<path d="M35 68C53.2254 68 68 53.2254 68 35C68 16.7746 53.2254 2 35 2C16.7746 2 2 16.7746 2 35C2 53.2254 16.7746 68 35 68Z" fill="#1D1D1D"/>
<path d="M24.3447 41.9924C23.3404 42.031 22.3233 41.8508 21.319 41.6319C20.3276 41.426 19.3748 41.1041 18.4735 40.6535C17.5722 40.2158 16.7482 39.688 15.9757 39.0572C15.1516 38.3749 14.4306 37.6025 13.8641 36.6756C13.2976 35.7487 12.9757 34.7445 13.0014 33.6503C13.0143 32.5431 13.4392 31.6162 14.2375 30.8567C14.9714 30.1615 15.8469 29.7495 16.7868 29.4792C17.6495 29.2217 18.525 29.1058 19.4263 29.0544C20.7396 28.9771 22.0529 29.0801 23.3533 29.2861C25.246 29.5822 27.0872 30.0714 28.8511 30.818C29.4949 31.0884 30.1515 31.3716 30.7438 31.745C31.2331 32.041 31.6322 32.4144 31.864 32.9551C31.9283 33.1224 31.9798 33.2898 32.0056 33.47C32.07 33.9335 32.3017 33.9721 32.6494 33.9077C33.4734 33.779 34.2974 33.7146 35.1215 33.7275C35.8811 33.7404 36.6279 33.8047 37.3747 33.9077C37.4777 33.9206 37.5807 33.9206 37.6837 33.9206C37.8253 33.9077 37.9154 33.8305 37.9541 33.7018C37.9927 33.5859 38.0184 33.4572 38.0442 33.3413C38.1987 32.6332 38.6107 32.1312 39.2287 31.7707C40.5163 31.024 41.8811 30.4705 43.3231 30.0714C44.4819 29.7495 45.6407 29.4663 46.8124 29.2475C48.1257 29.0029 49.439 28.9514 50.7651 29.0415C51.7952 29.1187 52.7995 29.3247 53.7651 29.7367C54.705 30.1486 55.5419 30.7151 56.1986 31.5132C56.7136 32.144 56.9711 32.8907 56.9969 33.7146C57.0355 34.6158 56.7136 35.4268 56.3016 36.1992C55.7479 37.242 54.9754 38.1174 54.087 38.8898C52.6192 40.1643 50.9454 41.0269 49.0784 41.5547C47.778 41.928 46.4519 42.031 45.1128 41.9924C43.9798 41.9667 42.8854 41.7349 41.8939 41.1685C40.7867 40.5505 39.9626 39.6623 39.3189 38.5809C38.7395 37.6025 38.3661 36.534 38.1086 35.4268C38.0828 35.3367 38.0571 35.2466 38.0313 35.1565C37.9026 34.796 37.645 34.59 37.2717 34.5514C36.9498 34.5128 36.6408 34.487 36.3189 34.4613C35.7266 34.4356 35.1472 34.3841 34.5549 34.3969C33.9755 34.4098 33.3961 34.4356 32.8296 34.5385C32.276 34.6287 32.0442 34.8475 31.9541 35.4011C31.761 36.5468 31.2846 37.5896 30.6794 38.5809C30.3189 39.1731 29.9327 39.7653 29.4176 40.2545C28.6065 41.0269 27.6408 41.5161 26.5593 41.7607C25.8125 41.9538 25.0915 42.0053 24.3447 41.9924Z" fill="url(#paint0_linear_1198_3829)"/>
<path opacity="0.5" d="M64.5 35C64.5 51.2924 51.2924 64.5 35 64.5C18.7076 64.5 5.5 51.2924 5.5 35C5.5 18.7076 18.7076 5.5 35 5.5C51.2924 5.5 64.5 18.7076 64.5 35Z" stroke="#72F26B" stroke-width="3"/>
<path d="M66.3 35C66.3 52.2865 52.2865 66.3 35 66.3C17.7135 66.3 3.7 52.2865 3.7 35C3.7 17.7135 17.7135 3.7 35 3.7C52.2865 3.7 66.3 17.7135 66.3 35Z" stroke="#1D1D1D" stroke-width="3.4"/>
<defs>
<linearGradient id="paint0_linear_1198_3829" x1="44.2845" y1="20.0708" x2="19.7404" y2="56.6033" gradientUnits="userSpaceOnUse">
<stop stop-color="#7BFD6B"/>
<stop offset="1" stop-color="#0C836F"/>
</linearGradient>
</defs>
</svg>
