<svg width="70" height="70" viewBox="0 0 70 70" fill="none" xmlns="http://www.w3.org/2000/svg">
<g clip-path="url(#clip0_1198_3830)">
<path d="M59.6392 59.9399C56.3788 63.201 52.4967 65.7717 48.224 67.4989C43.9513 69.2261 39.3754 70.0744 34.7686 69.9935C30.1907 70.0836 25.6425 69.2378 21.4019 67.5078C17.1612 65.7777 13.3173 63.1997 10.1048 59.9313C6.81669 56.7242 4.22329 52.8731 2.48623 48.6179C0.749173 44.3627 -0.0943081 39.7947 0.00836463 35.1986C0.00836463 25.1422 3.37958 16.7627 10.122 10.0604C13.3365 6.79283 17.1823 4.21609 21.4244 2.48752C25.6665 0.758947 30.2158 -0.0851533 34.7945 0.00677779C39.4003 -0.0713788 43.9748 0.779138 48.2459 2.50775C52.517 4.23635 56.3975 6.80774 59.6565 10.069C66.5482 16.7771 69.9941 25.1594 69.9941 35.2159C70.0812 39.832 69.2051 44.4155 67.4221 48.6729C65.639 52.9303 62.9881 56.7679 59.6392 59.9399V59.9399Z" fill="#181D23"/>
<path d="M35.5964 33.9614L34.0095 33.9771L33.9676 29.9215L32.3458 29.9376L32.3042 25.9137L30.0755 25.9357L30.0331 21.8271L28.7378 21.84L28.7043 18.5891L26.639 18.6095L26.647 19.3825L23.9516 19.4092L23.9768 21.8553L21.2815 21.8819L21.3067 24.3281L18.623 24.3546L18.6482 26.8006L15.9528 26.8273L15.978 29.2628L13.2826 29.2895L13.4339 43.9448L16.1293 43.918L16.1546 46.3641L18.85 46.3375L18.8752 48.7836L21.559 48.757L21.5841 51.1925L24.2795 51.1659L24.3047 53.6119L27.0002 53.5852L27.0254 56.0313L43.1745 55.8716L43.1493 53.4255L45.8329 53.3989L45.8077 50.9529L48.5031 50.9262L48.478 48.4907L51.1734 48.464L51.1481 46.018L53.8319 45.9915L53.8066 43.5454L56.502 43.5188L56.3506 28.8635L53.6552 28.8901L53.6301 26.4546L50.9464 26.4812L50.9211 24.0351L48.2257 24.0617L48.2004 21.6157L45.505 21.6423L45.4798 19.1963L42.796 19.2228L42.8216 21.7006L41.8998 21.7098L41.9584 27.3749L40.1847 27.3925L40.2271 31.4904L38.4068 31.5085L38.4474 35.437L37.5722 35.4456L37.5818 36.3775L37.6071 38.8236L35.6468 38.8429L35.5964 33.9614Z" fill="#E9E122"/>
<path d="M26.3712 37.8121L26.4216 42.6936L31.8007 42.6404L31.7504 37.7588L26.3712 37.8121Z" fill="#6B223C"/>
<path d="M26.4044 41.0312L26.4216 42.6936L28.2535 42.6755L28.2364 41.0131L26.4044 41.0312Z" fill="white"/>
<path d="M32.844 19.4172V18.7042H32.1155H31.387V16.5651V14.426H32.1155H32.844V13.713V13L35.7581 13L38.6722 13V13.713V14.426H39.4007H40.1293V16.5651V18.7042H39.4007H38.6722V19.4172V20.1302H35.7581H32.844V19.4172Z" fill="#E9E122"/>
<path d="M27.2339 37.8755L27.245 45.0239L29.4759 45.0206L29.4648 37.8721L27.2339 37.8755Z" fill="white"/>
<path d="M27.0414 23.4416L27.0526 30.5901L29.2835 30.5868L29.2724 23.4383L27.0414 23.4416Z" fill="white"/>
<path d="M28.7484 36.504L28.7595 43.6525L30.9904 43.6491L30.9793 36.5007L28.7484 36.504Z" fill="white"/>
<path d="M28.3276 21.8907L28.3387 29.0392L30.5697 29.0359L30.5585 21.8874L28.3276 21.8907Z" fill="white"/>
<path d="M29.4617 35.9336L29.4728 43.082L31.7037 43.0787L31.6926 35.9302L29.4617 35.9336Z" fill="white"/>
<path d="M31.9768 43.3057L31.346 43.3211L31.3322 43.9337L31.3183 44.5462L30.6925 44.5616L30.0666 44.577L30.0527 45.1895L30.0389 45.8021L29.4131 45.8175L28.7872 45.8329L28.7782 46.3393C28.7737 46.619 28.7692 46.8843 28.7643 46.9278C28.7644 47.0001 28.6905 47.0147 28.1632 47.0251L27.5571 47.0405L27.5481 50.7638L27.544 54.492L26.9527 54.4928L26.3612 54.4938L26.3333 36.5041L26.3054 18.5145L27.5127 18.5127L28.7201 18.5109L28.721 19.08C28.7216 19.4562 28.7417 19.6683 28.7811 19.7069C28.8206 19.7454 29.0326 19.7644 29.4218 19.7638L29.9985 19.7629L30.0142 20.3754L30.0299 20.9927L30.6607 21.0063L31.2866 21.0198L31.2934 25.3074L31.3 29.5951L30.6741 29.6104L30.0433 29.6258L30.0295 30.2383L30.0157 30.8509L29.3898 30.8663L28.764 30.8817L28.7511 32.1308C28.7428 33.1003 28.758 33.3896 28.8024 33.4234C28.8369 33.4426 29.1278 33.4615 29.4481 33.461L30.0246 33.4601L30.0256 34.0293C30.0262 34.4055 30.0462 34.6177 30.0857 34.6561C30.1252 34.6947 30.342 34.7136 30.7264 34.7131L31.3079 34.7122L31.3088 35.2861C31.3094 35.6527 31.3295 35.8745 31.364 35.8986C31.3936 35.9129 31.6795 35.927 32.0047 35.9218L32.5911 35.9112L32.5969 39.6008L32.6026 43.2903L31.9768 43.3057ZM30.7901 40.7996L30.1839 40.786L30.1831 40.2362L30.1822 39.6863L30.7883 39.671L31.3896 39.6556L31.4033 38.99L31.417 38.3244L30.737 38.3399L30.0569 38.3554L30.0431 38.9728L30.0292 39.5902L29.4428 39.5813C28.8268 39.5775 28.743 39.592 28.758 39.7222C28.763 39.7705 28.7634 40.0261 28.7589 40.2962L28.7548 40.7882L28.1535 40.8034L27.5474 40.8188L27.5485 41.4941L27.5495 42.1693L28.1507 42.1829L28.752 42.1964L28.7674 42.6401C28.7932 43.3587 28.8523 43.2959 28.1525 43.3115L27.5513 43.3267L27.5523 43.9779L27.5533 44.629L28.2186 44.628L28.8839 44.627L28.8977 44.0145L28.9116 43.4019L29.5374 43.3865L30.1633 43.3711L30.1771 42.7778L30.191 42.1894L30.7725 42.1886C31.0928 42.1881 31.3688 42.1732 31.3885 42.1539C31.4033 42.1346 31.4126 41.8259 31.4071 41.4691L31.3913 40.8131L30.7901 40.7996ZM30.1035 27.1516C30.0641 27.113 29.8472 27.0941 29.4629 27.0946L28.8813 27.0955L28.8804 26.5409L28.8796 25.991L29.5104 25.9756L30.1362 25.9603L30.1352 25.3092L30.1342 24.658L29.5428 24.6444C28.6655 24.6265 28.7296 24.5733 28.7306 25.2871L28.7316 25.89L28.1155 25.8909L27.4946 25.8919L27.5104 26.5526L27.5262 27.2181L28.1324 27.2317L28.7337 27.2452L28.7346 27.7951L28.7354 28.3449L28.1342 28.3602L27.5281 28.3756L27.5143 29.0412L27.5006 29.7068L28.1806 29.6913L28.8607 29.6758L28.8745 29.0826L28.8884 28.4942L29.465 28.4933C29.8543 28.4928 30.0662 28.4731 30.1055 28.4345C30.1892 28.3523 30.1875 27.2334 30.1035 27.1516Z" fill="black"/>
<path d="M28.2133 56.9991L27.6465 57L27.6447 55.8183L27.6429 54.6367L28.2096 54.6359L28.7763 54.635L28.7782 55.8166L28.78 56.9983L28.2133 56.9991Z" fill="black"/>
</g>
<defs>
<clipPath id="clip0_1198_3830">
<rect width="70" height="70" fill="white"/>
</clipPath>
</defs>
</svg>
