<svg width="70" height="70" viewBox="0 0 70 70" fill="none" xmlns="http://www.w3.org/2000/svg">
<path d="M35 70C54.33 70 70 54.33 70 35C70 15.67 54.33 0 35 0C15.67 0 0 15.67 0 35C0 54.33 15.67 70 35 70Z" fill="black"/>
<path d="M35.9103 38.5785C35.3727 38.6835 34.8221 38.7047 34.278 38.6412H34.0897L33.6188 38.5471C33.0739 38.4412 32.5458 38.2617 32.0493 38.0134C31.1604 37.5123 30.3981 36.8144 29.8206 35.9731C29.4468 35.4357 29.1608 34.8423 28.9731 34.2152C27.3616 35.5477 26.0646 37.2199 25.1749 39.1121C24.3758 40.8806 23.9382 42.7909 23.8879 44.7309C23.8084 45.9908 23.8822 47.2556 24.1076 48.4977C24.306 49.5044 24.6221 50.4842 25.0493 51.417C25.1079 51.5184 25.1603 51.6232 25.2062 51.7309C25.2709 51.8289 25.3236 51.9343 25.3632 52.0448C26.2421 53.6143 27.3094 54.713 29.5067 56.9417C30.2914 57.7892 31.0134 58.4484 31.5157 58.9193C30.6681 58.4798 29.5695 57.9148 28.3139 57.1928L27.4036 56.6906C25.8974 55.8657 24.4405 54.9538 23.0403 53.9596C22.1249 53.3168 21.2447 52.6252 20.4036 51.8879L20.1524 51.6681C20.0897 51.6054 20.0269 51.574 19.9955 51.5112C19.9641 51.4484 19.2735 50.8206 18.8968 50.4125C18.2486 49.721 17.6605 48.9754 17.139 48.1838C16.4238 47.1129 15.8538 45.9518 15.4439 44.7309C15.0918 43.7134 14.8497 42.661 14.7219 41.5919C14.5839 40.2653 14.605 38.927 14.7847 37.6054C14.8789 36.852 14.9731 36.1928 15.0672 35.6592C15.1928 34.843 15.3497 34.3094 15.3811 34.1525C15.6445 33.1255 15.9801 32.1185 16.3856 31.139L16.4798 30.8879C16.586 31.4863 16.7435 32.0744 16.9506 32.6457C17.1496 33.2488 17.4351 33.8198 17.7982 34.3408C18.1185 34.7894 18.511 35.1819 18.9596 35.5022C19.4305 33.6794 20.0934 31.9117 20.9372 30.2287C21.408 29.2556 21.6278 29.0359 24.9237 23.8251C25.7626 22.5625 26.5277 21.2523 27.2152 19.9013C27.8591 18.6304 28.3643 17.2939 28.7219 15.9148C28.95 14.7985 29.076 13.6638 29.0986 12.5246C29.1292 11.5373 29.0661 10.5494 28.9103 9.57397C30.6307 10.2228 32.1551 11.3039 33.3363 12.713C34.1544 13.6403 34.7645 14.7321 35.1255 15.9148C35.3816 16.919 35.4874 17.9557 35.4394 18.991C35.4387 20.0007 35.3547 21.0086 35.1883 22.0045C35.0627 22.7892 34.9372 23.2287 34.5291 24.9865L33.6816 28.5964C33.2421 30.7309 33.0224 31.861 33.2107 33.3677C33.3285 34.6166 33.737 35.8207 34.4036 36.8834C34.8009 37.5336 35.3112 38.1076 35.9103 38.5785V38.5785Z" fill="url(#paint0_linear_1198_3827)"/>
<path d="M16.4798 30.8251C16.5712 31.4266 16.7292 32.0162 16.9507 32.5829C17.1817 33.1999 17.4988 33.7811 17.8924 34.3094C18.1727 34.7685 18.5343 35.1728 18.9596 35.5022C19.3986 35.8185 19.9026 36.033 20.435 36.13L18.9596 42.4394C18.6854 42.2722 18.4413 42.06 18.2376 41.8116C17.8489 41.3866 17.5783 40.8671 17.4529 40.3049C16.7309 37.8565 16.3856 36.6323 16.2915 34.8116C16.2408 33.4798 16.3038 32.1462 16.4798 30.8251V30.8251Z" fill="#A33EFF"/>
<path d="M28.8162 27.3094C28.7251 27.6255 28.6827 27.9537 28.6906 28.2825C28.695 28.5768 28.674 28.8708 28.6278 29.1615L28.5337 29.4126C27.7465 30.3576 27.0229 31.3538 26.3677 32.3946C25.5599 33.5989 24.8762 34.882 24.3274 36.2242C23.7788 37.62 23.3892 39.0731 23.166 40.5561C22.9134 41.9979 22.8922 43.4708 23.1032 44.9193C23.2618 46.1547 23.6002 47.3603 24.1077 48.4978C24.3061 49.5044 24.6221 50.4842 25.0494 51.4171C24.8398 51.1383 24.6509 50.8445 24.4843 50.5381C24.1379 49.9702 23.8236 49.3833 23.5426 48.7803C22.8418 47.2037 22.3764 45.5326 22.1615 43.8207C22.1109 43.2361 22.0899 42.6494 22.0987 42.0628C22.1363 40.0893 22.5077 38.1365 23.1973 36.287C23.7638 34.796 24.4789 33.3657 25.3319 32.018C25.9283 31.0763 26.4933 30.2601 26.8386 29.7893C27.1839 29.3184 27.9059 28.4081 28.0628 28.1884C28.2198 27.9686 28.5964 27.5292 28.8162 27.3094Z" fill="#9F37FF"/>
<path d="M29.0673 40.4619C28.1817 41.6075 27.6768 43.0015 27.6233 44.4485C27.5496 45.6146 27.6878 46.7845 28.0314 47.9014C28.3767 49.0942 28.879 49.879 29.6009 50.9776C30.0802 51.7304 30.6043 52.4537 31.1704 53.1435L32.6772 54.9014L34.2467 56.6592C34.7175 57.2242 35.157 57.7265 35.6906 58.4485C36.057 58.885 36.3927 59.3465 36.6951 59.8296C37.1407 60.5298 37.5493 61.2527 37.9193 61.9955L38.4529 63.0942C38.6775 62.6138 38.9399 62.1519 39.2377 61.713C39.9463 60.6826 40.8031 59.7624 41.7803 58.9821C43.6009 57.4126 45.0763 56.2825 45.3902 56.0314C47.7444 54.1794 48.1525 53.9597 49.6906 52.7041C50.6637 51.8879 51.3543 51.3229 52.2332 50.4754C54.3677 48.435 55.2467 47.0852 55.435 46.7713C55.8747 46.0891 56.2429 45.3632 56.5337 44.6054C56.897 43.6994 57.1398 42.7496 57.2556 41.7803C57.3659 41.0531 57.3869 40.3153 57.3184 39.583C57.3013 39.0968 57.2382 38.6134 57.1301 38.139C56.8759 38.722 56.5489 39.2705 56.157 39.7713C55.6498 40.4407 55.0082 40.9967 54.2736 41.4036C53.5065 41.8055 52.6592 42.0307 51.7937 42.0628C51.8751 41.5858 51.9171 41.1028 51.9193 40.6189C51.9181 39.0567 51.4598 37.5291 50.6009 36.2242C50.199 35.5556 49.7367 34.9252 49.2198 34.3408C48.9372 33.9955 48.4664 33.4933 47.5247 32.5202C46.583 31.5471 46.3946 31.3588 46.2377 31.0763C45.8179 30.4158 45.5301 29.6803 45.3902 28.9103C45.1704 28.0628 45.139 27.3094 45.0449 25.7713C44.9507 24.2332 45.0135 24.0763 44.9193 22.9776C44.8669 22.1806 44.7301 21.3915 44.5112 20.6233C44.3693 20.0356 44.1586 19.4667 43.8834 18.9283C43.5577 18.3001 43.1338 17.7279 42.6278 17.2332C42.2333 16.7886 41.7912 16.3886 41.3094 16.0404C40.9183 15.7342 40.5095 15.4512 40.0852 15.1929C40.0852 15.1929 39.1435 14.6278 38.139 14.157C38.296 14.2198 38.5785 15.1301 38.5785 15.1301C38.5785 15.1301 38.6413 15.2556 38.7668 15.6637C38.9591 16.197 39.1164 16.7422 39.2377 17.296C39.3797 17.8721 39.4638 18.461 39.4888 19.0538C39.537 19.7448 39.516 20.4388 39.426 21.1256C39.3633 21.8476 39.2377 22.3812 39.1121 23.1032C38.9866 23.8251 38.7668 24.3902 38.5157 25.583C38.2811 26.4569 38.1235 27.3497 38.0449 28.2512C38.0212 29.042 38.095 29.8327 38.2646 30.6054C38.4264 31.3068 38.6578 31.9903 38.9552 32.6458C39.2377 33.1794 39.7399 33.8072 40.7444 35.0628L42.0942 36.8207C42.3033 37.0366 42.4827 37.2794 42.6278 37.5426C42.7534 37.7624 42.9103 38.139 43.1615 39.3005C43.2556 39.8969 43.3184 40.1794 43.3498 40.4933C43.4142 41.3039 43.3506 42.1195 43.1615 42.9103C43.0059 43.5079 42.7626 44.0792 42.4395 44.6054C42.0609 45.1588 41.5943 45.6465 41.0583 46.0494C40.6711 46.3421 40.2618 46.6045 39.8341 46.8341C39.1824 47.1485 38.4982 47.3906 37.7937 47.5561C37.2539 47.6417 36.708 47.6837 36.1615 47.6816C35.4681 47.6235 34.7835 47.4866 34.1211 47.2736C33.6636 47.1433 33.2293 46.942 32.8341 46.6772C32.4051 46.3933 32.0055 46.0674 31.6413 45.7041C31.3221 45.4168 31.0182 45.1129 30.731 44.7938C30.4163 44.4223 30.1524 44.0106 29.9462 43.5695C29.6716 42.9948 29.4509 42.3958 29.287 41.7803C29.183 41.3465 29.1095 40.906 29.0673 40.4619Z" fill="url(#paint1_linear_1198_3827)"/>
<path d="M57.2556 41.7802C57.1555 42.7523 56.9122 43.7043 56.5337 44.6053C56.2429 45.3631 55.8747 46.089 55.435 46.7712C55.2467 47.0851 54.3677 48.4349 52.2332 50.4753C51.3543 51.3228 50.6637 51.8878 49.6906 52.704C48.1525 53.9596 47.7444 54.1793 45.3902 56.0313C45.0763 56.2824 43.6009 57.4125 41.7803 58.982C40.8031 59.7623 39.9463 60.6825 39.2377 61.7129C38.9399 62.1518 38.6775 62.6137 38.4529 63.0941L37.9193 61.9954C37.5493 61.2526 37.1407 60.5297 36.6951 59.8295C36.3927 59.3464 36.057 58.8849 35.6906 58.4484C35.157 57.7264 34.7175 57.2241 34.2467 56.6591L32.6772 54.9013L31.1704 53.1434C30.6043 52.4536 30.0802 51.7303 29.6009 50.9775C28.879 49.8789 28.3767 49.0627 28.0314 47.9013C27.6878 46.7844 27.5496 45.6145 27.6233 44.4484C27.6768 43.0014 28.1817 41.6074 29.0673 40.4618C28.9782 40.7293 28.9048 41.0019 28.8476 41.278C28.4395 43.2241 29.0673 44.8878 29.3498 45.6412C29.7478 46.6286 30.3103 47.5414 31.0135 48.3407C32.0936 49.6428 33.553 50.5756 35.1884 51.0089C36.8758 51.4644 38.6711 51.2923 40.2413 50.5245C41.8114 49.7568 43.0498 48.4455 43.7265 46.834C44.3209 45.6123 44.6219 44.2688 44.6054 42.9102C44.5051 41.0936 43.8719 39.3468 42.7848 37.8878C42.7446 37.7676 42.692 37.6519 42.6278 37.5425C42.4827 37.2793 42.3033 37.0365 42.0942 36.8206L40.7444 35.0627C39.7399 33.8071 39.2377 33.1793 38.9552 32.6457C38.6578 31.9902 38.4264 31.3067 38.2646 30.6053C38.095 29.8326 38.0212 29.0418 38.0449 28.2511C38.1235 27.3496 38.2811 26.4568 38.5157 25.5829C38.6099 25.112 38.7041 24.7981 38.7668 24.5156C38.7982 24.8609 38.8296 25.1434 38.8296 25.3945C38.8087 26.0343 38.9044 26.6725 39.1121 27.278C39.2458 27.6386 39.414 27.9855 39.6144 28.3138C39.9437 28.9389 40.3215 29.5372 40.7444 30.1031C41.219 30.7698 41.7437 31.3995 42.3139 31.9865C43.444 33.2421 43.6951 33.399 45.0449 34.8116C45.7948 35.5512 46.4973 36.3376 47.148 37.1659C47.7861 37.9718 48.3335 38.8455 48.7803 39.7712C49.0659 40.3522 49.287 40.9627 49.4395 41.5919C49.5291 42.0693 49.592 42.5514 49.6278 43.0358C49.68 43.6639 49.6589 44.296 49.565 44.9192C49.4623 45.5184 49.3047 46.1068 49.0942 46.6771C48.8919 47.3496 48.6508 48.0099 48.3722 48.6546L49.3453 48.2466C50.0302 47.9773 50.6917 47.6518 51.3229 47.2735C52.2501 46.7611 53.1051 46.1277 53.8655 45.3901C54.5511 44.7081 55.1423 43.9375 55.6233 43.0986C56.4948 41.6014 57.0204 39.9283 57.1615 38.2017C57.2382 38.659 57.2906 39.12 57.3184 39.5829C57.3869 40.3152 57.3659 41.053 57.2556 41.7802V41.7802Z" fill="url(#paint2_linear_1198_3827)"/>
<path d="M46.5202 31.4216C46.0697 31.0925 45.6399 30.7361 45.2332 30.3543C44.982 30.1346 45.0762 30.166 44.1973 29.3184L42.6906 27.8117C42.2924 27.3999 41.9252 26.9592 41.5919 26.4933C41.2551 26.0339 40.9509 25.5514 40.6816 25.0494C40.3361 24.5627 40.0515 24.0356 39.8341 23.4799C39.6597 23.069 39.5435 22.6358 39.4888 22.1929L39.3946 21.5337C39.3946 21.4081 39.426 21.2826 39.426 21.1256C39.426 20.9687 39.4574 20.8745 39.4574 20.7175C39.5557 21.0417 39.6817 21.3567 39.8341 21.6592C40.0788 22.2937 40.3836 22.9034 40.7444 23.4799C41.1101 24.0842 41.5193 24.6612 41.9686 25.2063C42.6278 25.9911 43.1614 26.5561 43.287 26.6817C43.9057 27.3617 44.5775 27.9914 45.2959 28.5651L45.3901 28.9104C45.5301 29.6803 45.8179 30.4158 46.2376 31.0763C46.3017 31.213 46.3988 31.3317 46.5202 31.4216V31.4216Z" fill="#A70AF4"/>
<path d="M48.3722 48.6546C48.4978 48.3407 48.6861 47.9013 48.8431 47.399C48.9506 47.1674 49.0347 46.9255 49.0942 46.6771C49.3047 46.1068 49.4623 45.5184 49.565 44.9192C49.6589 44.296 49.68 43.6639 49.6278 43.0358C49.592 42.5514 49.5291 42.0693 49.4395 41.5919C49.287 40.9627 49.0659 40.3522 48.7803 39.7712C48.3335 38.8455 47.7861 37.9718 47.148 37.1659C46.4973 36.3376 45.7948 35.5512 45.0448 34.8116C43.6951 33.399 43.4439 33.2421 42.3139 31.9865C41.7436 31.3995 41.2189 30.7698 40.7444 30.1031C40.3215 29.5372 39.9436 28.9389 39.6143 28.3138C39.4267 27.9787 39.259 27.6328 39.1121 27.278C38.9351 26.8224 38.8087 26.3487 38.7354 25.8654C38.6847 25.4161 38.6953 24.9621 38.7668 24.5156V24.5156C38.861 24.1076 38.9552 23.7937 39.1121 23.1031C39.2691 22.4125 39.3004 22.0672 39.3946 21.5336C39.4035 21.7559 39.435 21.9768 39.4888 22.1928C39.6322 22.7616 39.8211 23.318 40.0538 23.8564C40.289 24.3516 40.551 24.8337 40.8386 25.3004C41.0626 25.7145 41.3143 26.113 41.5919 26.4932C41.9343 26.952 42.301 27.3921 42.6906 27.8116L44.1973 29.3183C45.0762 30.1659 44.9821 30.1345 45.2332 30.3542C45.6399 30.736 46.0697 31.0924 46.5202 31.4215L47.5247 32.5201C48.4664 33.4932 48.9372 33.9954 49.2197 34.3407C49.7367 34.9251 50.199 35.5555 50.6009 36.2241C51.4598 37.529 51.9181 39.0566 51.9193 40.6188C51.9171 41.1027 51.8751 41.5857 51.7937 42.0627C51.7309 42.3138 51.6682 42.7219 51.5426 43.1928C51.3941 43.7431 51.1723 44.2709 50.8834 44.7623C50.1304 46.1121 49.2916 47.4122 48.3722 48.6546V48.6546Z" fill="url(#paint3_linear_1198_3827)"/>
<path d="M43.7265 46.8341C43.0721 48.3604 41.9219 49.6212 40.4619 50.4126C39.1027 51.1236 37.5537 51.3872 36.0359 51.166C37.2555 51.1063 38.4462 50.7738 39.5202 50.1929C40.6534 49.5123 41.602 48.5637 42.2825 47.4305C42.7833 46.5422 43.1333 45.5769 43.3184 44.574C43.4638 43.4918 43.4848 42.3965 43.3812 41.3095C43.3667 40.7609 43.3037 40.2147 43.1928 39.6772C42.9708 38.5821 42.5448 37.5386 41.9372 36.601C42.565 37.2601 44.5426 39.5516 44.6054 42.9104C44.6173 44.2684 44.3166 45.6109 43.7265 46.8341Z" fill="#9612CD"/>
<path d="M35.9103 38.5785C35.6656 38.6488 35.4114 38.6806 35.1569 38.6726C34.7271 38.7096 34.2942 38.6885 33.87 38.6098C33.5283 38.5562 33.1922 38.4722 32.8655 38.3587C31.7939 37.956 30.843 37.286 30.1031 36.4125C29.6492 35.8288 29.2794 35.1842 29.0045 34.4977C28.8183 33.9865 28.6714 33.4618 28.565 32.9282C28.5336 32.6771 28.4709 32.4888 28.4395 32.2377C28.3375 31.2658 28.3586 30.2849 28.5022 29.3184C28.5257 29.2476 28.5363 29.1732 28.5336 29.0986C28.5964 28.4081 28.6906 27.843 28.7534 27.435C28.8161 27.0269 28.7848 27.3722 28.7848 27.3408L28.0628 28.1883C27.6233 28.7115 27.2152 29.2451 26.8386 29.7892C25.8455 31.1715 24.9638 32.6305 24.2018 34.1525C23.4484 35.6592 22.7578 37.0717 22.3812 39.1121C22.1871 40.0729 22.0924 41.0512 22.0987 42.0314V42.0314C22.1005 42.8836 22.174 43.7341 22.3184 44.574C22.507 45.8067 22.8552 47.0096 23.3543 48.1524C23.6805 48.9706 24.058 49.7674 24.4843 50.5381V50.5381C24.7668 51.0403 25.0179 51.417 25.2063 51.7309C25.2709 51.8289 25.3236 51.9343 25.3632 52.0448C26.2422 53.6143 27.3094 54.713 29.5067 56.9417C30.2915 57.7892 31.0135 58.4484 31.5157 58.9193L30.6996 58.4798L28.3139 57.1928C26.8771 56.4563 25.4832 55.6388 24.139 54.7444C22.9078 53.936 21.7331 53.0446 20.6233 52.0762L20.4036 51.8879L20.1525 51.6681C20.0897 51.6054 20.0269 51.574 19.9955 51.5112L18.6144 50.13C17.1096 48.5028 15.9839 46.5625 15.3184 44.4484C14.6572 42.3826 14.4432 40.1997 14.6906 38.0448C14.7848 37.2287 14.9103 36.4439 15.0673 35.6592C15.344 34.1097 15.786 32.5943 16.3857 31.139L16.4798 30.8879C16.3197 31.9261 16.2567 32.977 16.2915 34.0269C16.3009 35.7358 16.5871 37.4319 17.139 39.0493C17.5471 40.1794 18.2691 41.6233 18.3318 41.5919V41.5291C18.2691 41.2152 18.3318 38.861 19.4305 35.9731C20.3295 33.7311 21.5915 31.6525 23.1659 29.8206C23.6682 29.1928 23.9193 28.9417 24.861 27.8116C25.7891 26.6961 26.6588 25.5331 27.4664 24.3273C28.1212 23.3974 28.7086 22.4218 29.2242 21.4081C29.7664 20.4155 30.1879 19.3617 30.4798 18.269C30.7106 17.4191 30.837 16.5442 30.8565 15.6637C30.9 15.0667 30.879 14.4668 30.7937 13.8744C30.7623 13.4369 30.678 13.0047 30.5426 12.5874C30.2925 11.9453 29.988 11.3257 29.6323 10.7354L28.9103 9.57397L29.5067 9.95066L30.2915 10.6098C30.7692 11.1211 31.1805 11.6907 31.5157 12.3049C32.0297 13.2524 32.41 14.2665 32.6457 15.3184C32.8969 16.6681 32.8027 17.8924 32.5516 20.3408C32.3946 21.9731 32.2063 22.4753 31.5157 26.2421C30.8251 30.009 30.6996 31.2959 30.8565 32.5202C31.0135 33.7444 31.2018 34.9686 32.2377 36.2242C32.9339 37.0155 33.7758 37.6655 34.7175 38.139C35.1034 38.3155 35.5022 38.4624 35.9103 38.5785V38.5785Z" fill="url(#paint4_linear_1198_3827)"/>
<defs>
<linearGradient id="paint0_linear_1198_3827" x1="19.5811" y1="30.4139" x2="39.5892" y2="37.6211" gradientUnits="userSpaceOnUse">
<stop stop-color="#DF93FF"/>
<stop offset="0.41" stop-color="#B758FF"/>
</linearGradient>
<linearGradient id="paint1_linear_1198_3827" x1="28.0032" y1="35.2543" x2="60.5736" y2="45.9238" gradientUnits="userSpaceOnUse">
<stop offset="0.04" stop-color="#CE0FFF"/>
<stop offset="0.12" stop-color="#CE16FF"/>
<stop offset="0.24" stop-color="#CD2AFF"/>
<stop offset="0.38" stop-color="#CC4BFF"/>
<stop offset="0.54" stop-color="#CB79FF"/>
<stop offset="0.57" stop-color="#CB84FF"/>
<stop offset="0.61" stop-color="#C976FF"/>
<stop offset="0.69" stop-color="#C251FF"/>
<stop offset="0.79" stop-color="#B716FF"/>
<stop offset="0.8" stop-color="#B60EFF"/>
</linearGradient>
<linearGradient id="paint2_linear_1198_3827" x1="43.105" y1="33.2703" x2="40.8606" y2="67.5233" gradientUnits="userSpaceOnUse">
<stop stop-color="#B254FF"/>
<stop offset="0.04" stop-color="#B355FF"/>
<stop offset="0.1" stop-color="#AC50F7"/>
<stop offset="0.19" stop-color="#9942E1"/>
<stop offset="0.28" stop-color="#8131C5"/>
<stop offset="0.55" stop-color="#8B36CC"/>
<stop offset="1" stop-color="#A743DD"/>
</linearGradient>
<linearGradient id="paint3_linear_1198_3827" x1="38.7103" y1="35.0878" x2="51.9099" y2="35.0878" gradientUnits="userSpaceOnUse">
<stop stop-color="#FD35FF"/>
<stop offset="0.34" stop-color="#F63CFE"/>
<stop offset="0.84" stop-color="#E24FFB"/>
<stop offset="1" stop-color="#DA57FA"/>
</linearGradient>
<linearGradient id="paint4_linear_1198_3827" x1="19.217" y1="50.9116" x2="30.9475" y2="33.1291" gradientUnits="userSpaceOnUse">
<stop stop-color="#B254FF"/>
<stop offset="0.18" stop-color="#B65BFF"/>
<stop offset="0.46" stop-color="#C26FFF"/>
<stop offset="0.78" stop-color="#D690FF"/>
<stop offset="1" stop-color="#E5AAFF"/>
</linearGradient>
</defs>
</svg>
