<svg width="70" height="70" viewBox="0 0 70 70" fill="none" xmlns="http://www.w3.org/2000/svg">
<circle cx="35" cy="35" r="35" fill="#121122"/>
<path fill-rule="evenodd" clip-rule="evenodd" d="M10.5601 26.1318C10.1324 28.8848 10.6366 31.7176 11.1595 34.4399C11.3607 34.8752 11.8026 35.1673 12.3473 35.3554C11.2108 37.7339 10.6196 40.3362 10.617 42.9723C10.617 54.3648 21.6452 63.608 35.2482 63.608C48.8523 63.608 59.8893 54.3866 59.8893 42.9723C59.8865 40.3092 59.2835 37.6811 58.1251 35.2832C58.5801 35.0951 58.9432 34.8227 59.1204 34.4399C59.6443 31.7176 60.1452 28.8837 59.7176 26.1318C59.3173 22.4371 58.0496 21.3084 54.2423 22.2555C52.3063 22.7062 49.7524 23.8491 47.7891 25.1934C44.1152 23.3701 39.8266 22.3245 35.2493 22.3245C30.6173 22.3245 26.2849 23.3963 22.5837 25.259C20.6095 23.8863 18.0041 22.7127 16.0376 22.2555C12.228 21.3095 10.9626 22.4371 10.5601 26.1318V26.1318ZM24.9024 42.4199C22.0149 41.1468 17.0799 41.4684 17.0799 41.4684C17.0799 41.4684 17.3118 46.1146 20.1446 47.6918C23.5046 49.5599 29.7521 48.6346 29.7521 48.6346C29.7521 48.6346 29.2205 44.3143 24.9024 42.4112V42.4199V42.4199ZM40.9455 48.6423C40.9455 48.6423 47.193 49.5676 50.553 47.6995C53.3859 46.1223 53.6177 41.476 53.6177 41.476C53.6177 41.476 48.6827 41.1545 45.7952 42.4276C41.4771 44.3143 40.9455 48.6248 40.9455 48.6248V48.6423V48.6423ZM34.0155 51.917C34.0155 52.2593 34.6521 52.5371 35.4352 52.5371C36.2195 52.5371 36.8549 52.2593 36.8549 51.917C36.8549 51.5746 36.2195 51.2979 35.4352 51.2979C34.6521 51.2979 34.0155 51.5648 34.0155 51.917Z" fill="#F2F4F8"/>
<path fill-rule="evenodd" clip-rule="evenodd" d="M63.3204 49.057C61.015 48.1666 58.5664 47.7052 56.0951 47.6952H56.0995C55.4727 47.6952 55.4727 46.7229 56.0995 46.7229C58.6584 46.7314 61.1944 47.2066 63.5829 48.1251C63.7038 48.162 63.806 48.2437 63.8686 48.3535C63.9313 48.4633 63.9495 48.5929 63.9198 48.7157C63.885 48.8401 63.8025 48.9457 63.6903 49.0097C63.578 49.0736 63.4451 49.0906 63.3204 49.057V49.057ZM7.07648 48.147C9.46612 47.2285 12.0032 46.7534 14.5632 46.7448V46.7502C15.1888 46.7502 15.1866 47.7226 14.5632 47.7226C12.0913 47.7313 9.64133 48.1929 7.3357 49.0832C7.21158 49.1162 7.07946 49.0992 6.96777 49.0358C6.85608 48.9724 6.77376 48.8677 6.73851 48.7442C6.70718 48.62 6.72493 48.4885 6.78809 48.377C6.85124 48.2656 6.95493 48.1828 7.07758 48.1459L7.07648 48.147ZM12.0334 50.9327C13.2286 50.5523 14.4719 50.3435 15.7259 50.3126C16.3493 50.3159 16.3471 51.2849 15.7226 51.2849C14.5787 51.3148 13.4447 51.5051 12.3538 51.8504C11.3377 52.1479 10.1773 52.5679 9.4357 53.2548C8.97633 53.6813 8.28945 52.9945 8.74992 52.5679C9.65008 51.7367 10.8882 51.2773 12.0312 50.9327H12.0334ZM16.836 52.7407C15.8615 53.1585 14.923 53.6595 14.0338 54.2359C13.1355 54.7898 12.3451 55.5021 11.7009 56.3381C11.6361 56.4493 11.618 56.5816 11.6503 56.7061C11.6827 56.8307 11.763 56.9374 11.8737 57.0031C11.9858 57.0654 12.1176 57.0822 12.2418 57.05C12.366 57.0179 12.4731 56.9392 12.5409 56.8302C13.0877 56.0756 13.8709 55.4904 14.6463 54.9906C15.498 54.4502 16.3915 53.9787 17.3184 53.5807C17.429 53.515 17.5094 53.4085 17.5421 53.2841C17.5748 53.1596 17.5573 53.0273 17.4934 52.9157C17.426 52.807 17.3194 52.7282 17.1957 52.6957C17.072 52.6631 16.9405 52.6793 16.8284 52.7407H16.836V52.7407ZM54.9313 51.2652C56.0754 51.2937 57.2107 51.484 58.3012 51.8296C58.8655 51.9893 59.4157 52.1927 59.9484 52.4377C60.4077 52.639 60.8343 52.9081 61.2138 53.2351C61.6732 53.6595 62.3623 52.9748 61.9029 52.546C61.0082 51.7159 59.7766 51.2554 58.626 50.9109C57.4301 50.5303 56.186 50.3222 54.9313 50.2929C54.3057 50.2929 54.3035 51.2663 54.9313 51.2663V51.2652ZM56.0043 54.9621C55.1634 54.4419 54.284 53.9867 53.3738 53.6004V53.5906C53.2636 53.5245 53.1836 53.4179 53.1509 53.2937C53.1182 53.1694 53.1354 53.0373 53.1988 52.9256C53.2672 52.8173 53.3742 52.7391 53.4982 52.707C53.6221 52.6749 53.7537 52.6912 53.866 52.7527C55.7604 53.5796 57.7532 54.6406 58.9913 56.3501C59.0555 56.4615 59.0733 56.5936 59.041 56.718C59.0087 56.8423 58.9288 56.9491 58.8185 57.0151C58.7064 57.0771 58.5748 57.0935 58.4509 57.0609C58.3271 57.0283 58.2205 56.9492 58.1535 56.8401C57.5935 56.0679 56.8016 55.4696 56.0043 54.9621V54.9621Z" fill="#F2F4F8"/>
<path d="M3.38199 36.9172C3.83043 36.2172 7.77887 34.1107 12.6625 32.8605C13.7165 29.8668 15.0171 26.9657 16.5507 24.1871C16.5322 24.1871 20.4576 17.14 20.4401 17.1368C19.3142 16.6241 18.2331 16.0183 17.2081 15.3255C17.0348 15.1923 16.8777 15.0392 16.74 14.8694C16.6361 14.6977 16.5823 14.5003 16.5847 14.2996C16.5847 14.1355 16.8154 13.8446 16.9182 13.7155C17.1807 13.4071 17.4717 13.1216 17.7856 12.8646C18.5341 12.2515 19.3206 11.6864 20.1404 11.1725C20.5298 10.9155 20.9345 10.665 21.3326 10.4124C24.1326 8.62958 25.6672 7.28754 28.2309 5.81426C30.6809 4.40989 31.872 3.54473 34.7125 3.6902C38.2825 3.6902 47.1572 14.9952 51.1581 20.8205C53.5578 24.3205 56.7778 30.6227 57.9634 32.994C58.2478 33.065 58.5048 33.1329 58.7422 33.2029C62.3822 34.2966 65.9522 35.8979 66.825 36.9172C67.6026 37.8229 64.2033 38.2275 60.8531 38.8105C57.5029 39.3946 46.1378 39.6844 35.2156 39.7577C24.2934 39.8321 11.5468 39.4657 8.772 39.0293C5.99715 38.5918 2.82309 37.79 3.38199 36.9172V36.9172Z" fill="#6665DD"/>
<path d="M54.9194 27.1524C54.9194 27.1524 47.7247 25.3499 35.0481 25.3499C21.4375 25.3499 14.8827 27.4499 14.8827 27.4499C14.8827 27.4499 14.105 28.9275 13.767 29.7828C13.428 30.6381 12.6624 32.8606 12.6624 32.8606C12.6624 32.8606 22.5652 31.0888 35.2395 31.0888C42.8706 31.1194 50.4875 31.7636 58.0169 33.0138C58.0169 33.0138 56.8674 30.3231 56.1794 29.1769C55.7707 28.4951 55.3506 27.8201 54.9194 27.1524V27.1524Z" fill="#FF99A5"/>
<path d="M12.1002 11.9439C12.9249 11.8236 14.0449 14.3479 14.0449 14.3479C14.0449 14.3479 16.6381 13.6501 17.0428 14.3479C17.4475 15.0457 15.2195 16.7214 15.2195 16.7214C15.2195 16.7214 16.5649 19.0882 16.1383 19.5804C15.7128 20.0726 13.3131 18.5796 13.3131 18.5796C13.3131 18.5796 11.4833 20.6403 10.8872 20.3296C10.29 20.0179 10.967 17.3328 10.967 17.3328C10.967 17.3328 8.37814 16.2325 8.55533 15.5784C8.73252 14.9254 11.4297 14.7275 11.4297 14.7275C11.4297 14.7275 11.2777 12.0653 12.1002 11.945V11.9439Z" fill="#FFE600"/>
</svg>
