<svg width="70" height="70" viewBox="0 0 70 70" fill="none" xmlns="http://www.w3.org/2000/svg">
<path d="M70 35C70 54.331 54.331 70 35 70C15.669 70 0 54.331 0 35C0 15.669 15.669 0 35 0H36.395L36.7313 0.024911H37.1424L37.5036 0.0498221H37.6032L37.9395 0.0747331L38.5872 0.137011L39.0854 0.186833L39.5214 0.236655L39.7206 0.261566L40.0445 0.311388H40.1441L40.5676 0.373665H40.605L41.0907 0.448399L41.5267 0.535587L42.0747 0.635231L42.5356 0.734875L43.1335 0.871886L43.4573 0.959075L43.6068 0.996441L44.0053 1.09609L44.4413 1.20819L44.516 1.2331L44.9644 1.37011L45.8986 1.65658L46.7829 1.95552L46.8577 1.99288L47.2936 2.14235L48.2028 2.50356H48.2278L48.6512 2.67794L49.548 3.07651L49.984 3.2758L50.4199 3.48754L51.0178 3.78648L51.0801 3.82384L51.952 4.2847L52.2384 4.44662L52.8488 4.79537L53.3968 5.13167L53.7331 5.34342L54.0196 5.53025L54.3061 5.71708L54.5925 5.90391L55.153 6.29004L55.4021 6.47687L55.7758 6.73843L56.2616 7.09964L56.5231 7.31139L56.7473 7.48577L56.8221 7.54804L57.0587 7.74733L57.3203 7.95908C57.5071 8.10854 57.6815 8.24555 57.8434 8.39502L58.105 8.61922L58.3666 8.85587L58.6904 9.1548L59.363 9.77758C59.4377 9.86477 59.5249 9.9395 59.6121 10.0267L59.8488 10.2633L60.0854 10.5125L60.5587 10.9982L60.7954 11.2598L61.0196 11.5089L61.468 12.0071L61.6922 12.2811L61.9164 12.5427L62.1406 12.8043C62.2776 12.9786 62.4146 13.1655 62.5641 13.3399L62.9751 13.8754L63.1868 14.1619C63.2491 14.2491 63.3238 14.3363 63.3861 14.4359L63.9715 15.2705L64.3577 15.8434L64.5445 16.1299C64.669 16.3292 64.7811 16.5285 64.9057 16.7153L65.0801 17.0142L65.242 17.2758L65.4288 17.6121L65.7651 18.21L65.927 18.5089C66.0018 18.6708 66.089 18.8203 66.1637 18.9698H66.1762C66.2509 19.1068 66.3132 19.2562 66.3879 19.4057L66.4377 19.4929L66.5996 19.8292C66.6257 19.8766 66.6465 19.9267 66.6619 19.9786C66.7127 20.0759 66.7584 20.1756 66.7989 20.2776C66.8246 20.3165 66.8455 20.3583 66.8612 20.4021C66.9359 20.5516 66.9982 20.7011 67.0605 20.8381L67.2473 21.274L67.2847 21.3488C67.347 21.4982 67.3968 21.6477 67.4591 21.7847C67.5214 21.9217 67.4715 21.8221 67.484 21.8345L67.6335 22.2206C67.6459 22.2705 67.6708 22.3078 67.6833 22.3577L67.7954 22.6441C67.895 22.9057 67.9947 23.1797 68.0818 23.4413C68.1206 23.539 68.1539 23.6388 68.1815 23.7402C68.2562 23.952 68.3185 24.1512 68.3808 24.363C68.4431 24.5747 68.4431 24.5249 68.468 24.6121C68.4913 24.7133 68.5204 24.8131 68.5552 24.911C68.6797 25.3345 68.7918 25.758 68.9039 26.194C68.932 26.275 68.9528 26.3584 68.9662 26.4431L69.0409 26.7295C69.0534 26.7918 69.0783 26.8541 69.0908 26.9288C69.1032 27.0036 69.153 27.2153 69.1779 27.3523L69.29 27.8505C69.3149 28 69.3523 28.137 69.3772 28.2865C69.4021 28.4359 69.4146 28.4858 69.4271 28.5854C69.4508 28.6753 69.4674 28.7669 69.4769 28.8594C69.4893 28.8968 69.4893 28.9342 69.5018 28.9715C69.5142 29.0089 69.5391 29.2331 69.5641 29.3701C69.589 29.5071 69.6263 29.7936 69.6637 30.0053C69.7011 30.2171 69.7011 30.3541 69.726 30.5285C69.7509 30.7028 69.7758 30.8648 69.7883 31.0391V31.1139L69.8256 31.5623C69.8346 31.5818 69.8389 31.6031 69.8381 31.6246L69.8754 32.1477L69.9128 32.6459C69.9253 32.8078 69.9377 32.9698 69.9377 33.1317C69.9377 33.2936 69.9502 33.331 69.9626 33.4306V33.6797C69.9725 33.7373 69.9767 33.7957 69.9751 33.8541V34.2153C69.9854 34.277 69.9896 34.3396 69.9875 34.4021L70 35Z" fill="white"/>
<path d="M65.3158 21.6812V22.2751L50.5316 37.1213L42.9007 29.4644L34.6035 21.1253L32.7806 19.2806L32.5669 19.0784L30.0526 16.5514L30.3543 16.2481L30.5178 16.0839L42.9259 3.61308L43.1019 3.57518C44.676 3.24526 46.286 3.12209 47.8916 3.20876H48.2311L48.4825 3.23403L49.1111 3.29721L49.4128 3.33511L50.0162 3.63835L50.0791 3.67626L50.9591 4.14376L51.2482 4.30801L51.8642 4.66179L52.4174 5.00294L52.7568 5.21774L53.046 5.40726L53.3351 5.59679L53.6242 5.78631L54.19 6.178L54.4414 6.36753L54.8185 6.63286L55.3088 6.99928L55.5728 7.21408L55.7991 7.39097L55.8745 7.45414L56.1134 7.6563L56.3774 7.8711C56.566 8.02272 56.742 8.16171 56.9054 8.31333L57.1694 8.54076L57.4334 8.78082L57.7603 9.08407L58.4391 9.71582C58.5146 9.80427 58.6026 9.88008 58.6906 9.96852L58.9294 10.2086L59.1683 10.4613L59.646 10.9541L59.8849 11.2194L60.1112 11.4721L60.5637 11.9775L60.79 12.2555L61.0163 12.5208L61.2426 12.7861C61.3809 12.963 61.5192 13.1526 61.67 13.3294L62.0849 13.8728L62.2986 14.1634C62.3615 14.2518 62.4369 14.3403 62.4997 14.4413L63.0906 15.2879L63.4803 15.8691L63.6689 16.1597C63.7946 16.3619 63.9078 16.564 64.0335 16.7536L64.2095 17.0568L64.3729 17.3221L64.5615 17.6633L64.9009 18.2698L65.0643 18.573C65.0769 18.6741 65.1021 18.7752 65.1146 18.8636C65.1272 18.9521 65.1272 18.9647 65.1272 19.0026C65.1272 19.0405 65.1649 19.2553 65.1775 19.3816L65.2152 19.6723C65.2113 19.6941 65.2158 19.7167 65.2278 19.7354C65.2278 19.8618 65.2529 19.9881 65.2529 20.1145L65.2906 20.5062C65.2906 20.6325 65.3032 20.7589 65.3032 20.8852C65.3032 21.0116 65.3158 21.1127 65.3158 21.2137V21.6686V21.6812Z" fill="url(#paint0_linear_1212_3275)"/>
<path d="M20.0943 56.6583C19.3779 56.9747 18.0205 56.3798 16.8517 55.2025C15.6829 54.0252 15.0922 52.6454 15.3939 51.9239L15.8463 51.5061L27.8235 40.3031L31.6316 44.1387L20.509 56.2026L20.0943 56.6583Z" fill="url(#paint1_linear_1212_3275)"/>
<path d="M32.0887 44.0382C32.4584 43.6657 31.8275 42.4261 30.6796 41.2695C29.5316 40.1128 28.3014 39.4771 27.9317 39.8496C27.562 40.2221 28.1929 41.4617 29.3409 42.6183C30.4888 43.775 31.7191 44.4106 32.0887 44.0382Z" fill="#DC2A12"/>
<path fill-rule="evenodd" clip-rule="evenodd" d="M25.59 16.7161C25.9556 16.3472 26.5483 16.3472 26.9139 16.7161L50.3048 40.3164C50.4805 40.4937 50.5792 40.7343 50.579 40.9851C50.5787 41.2359 50.4797 41.4763 50.3036 41.6533L46.6465 45.3306C46.3851 45.5934 45.9951 45.6768 45.6505 45.5435L32.9997 40.65L31.295 42.37C30.9294 42.7388 30.3367 42.7388 29.9711 42.37C29.6055 42.0011 29.6055 41.4031 29.9711 41.0342L32.1055 38.8807C32.3668 38.6171 32.7574 38.5332 33.1025 38.6667L45.7544 43.5606L48.3178 40.9831L25.59 18.0518C25.2244 17.683 25.2244 17.085 25.59 16.7161Z" fill="#808080"/>
<path fill-rule="evenodd" clip-rule="evenodd" d="M25.5166 17.1724C25.7844 16.9022 26.2186 16.9022 26.4864 17.1724L49.8518 40.7508C49.9805 40.8808 50.0528 41.057 50.0526 41.2408C50.0525 41.4245 49.9799 41.6006 49.851 41.7303L46.1978 45.4042C46.0063 45.5968 45.7206 45.6579 45.4682 45.5602L32.6801 40.6128L30.8628 42.4466C30.595 42.7169 30.1608 42.7169 29.893 42.4466C29.6252 42.1764 29.6252 41.7383 29.893 41.468L32.025 39.3165C32.2165 39.1233 32.5026 39.0619 32.7554 39.1597L45.5443 44.1074L48.3963 41.2393L25.5166 18.151C25.2488 17.8808 25.2488 17.4427 25.5166 17.1724Z" fill="#999999"/>
<path fill-rule="evenodd" clip-rule="evenodd" d="M25.9698 17.0986C26.1401 16.9268 26.416 16.9268 26.5863 17.0986L49.925 40.6544C50.0069 40.737 50.0528 40.849 50.0527 40.9658C50.0526 41.0826 50.0065 41.1946 49.9245 41.2771L46.2755 44.9474C46.1538 45.0699 45.9722 45.1087 45.8117 45.0466L32.8872 40.0455L30.9576 41.993C30.7874 42.1648 30.5114 42.1648 30.3412 41.993C30.171 41.8212 30.171 41.5427 30.3412 41.3708L32.4708 39.2214C32.5925 39.0986 32.7744 39.0595 32.9351 39.1217L45.8601 44.123L48.9998 40.9649L25.9698 17.7208C25.7996 17.5489 25.7996 17.2704 25.9698 17.0986Z" fill="#B3B3B3"/>
<path fill-rule="evenodd" clip-rule="evenodd" d="M25.8788 17.5369C25.9276 17.4877 26.0068 17.4877 26.0556 17.5369L49.4897 41.1769C49.5132 41.2006 49.5264 41.2327 49.5264 41.2662C49.5263 41.2997 49.5131 41.3318 49.4896 41.3555L45.8257 45.039C45.7908 45.0741 45.7387 45.0852 45.6926 45.0674L32.5258 39.9751L30.4448 42.0743C30.396 42.1236 30.3168 42.1236 30.268 42.0743C30.2192 42.0251 30.2192 41.9452 30.268 41.8959L32.4063 39.7388C32.4412 39.7036 32.4934 39.6924 32.5395 39.7102L45.7065 44.8026L49.2243 41.266L25.8788 17.7153C25.83 17.6661 25.83 17.5862 25.8788 17.5369Z" fill="#BDCCD4"/>
<path d="M20.342 52.8105L20.3202 52.8325C20.1681 52.9662 19.9712 53.0368 19.7694 53.0299C19.5677 53.023 19.376 52.9391 19.2333 52.7953C19.0905 52.6514 19.0073 52.4583 19.0005 52.255C18.9936 52.0516 19.0636 51.8533 19.1964 51.7C19.2022 51.7 19.2077 51.6977 19.2118 51.6935C19.2159 51.6894 19.2182 51.6838 19.2182 51.678C19.2727 51.6244 19.3353 51.5799 19.4037 51.5461C19.5754 51.4467 19.7776 51.4153 19.971 51.4581C20.1119 51.4967 20.24 51.5727 20.342 51.678C20.4491 51.7831 20.5247 51.9164 20.5602 52.0628C20.6031 52.2541 20.5718 52.4547 20.4729 52.6236C20.4394 52.6924 20.3952 52.7555 20.342 52.8105Z" fill="#F4F4F4"/>
<path d="M20.8141 52.6268L20.4156 53.0304C20.4826 52.9609 20.5382 52.881 20.5805 52.7938C20.7051 52.58 20.7444 52.3261 20.6905 52.084C20.6458 51.8987 20.5505 51.7299 20.4156 51.5969C20.2871 51.4635 20.1258 51.3674 19.9483 51.3185C19.7047 51.2644 19.4499 51.3041 19.2336 51.4298C19.1475 51.4727 19.0687 51.529 19 51.5969L19.3986 51.2072C19.4652 51.1273 19.5501 51.0652 19.6459 51.0262C19.834 50.9251 20.0492 50.8881 20.2596 50.9207C20.4701 50.9533 20.6646 51.0538 20.8141 51.2072C20.9637 51.3598 21.0616 51.5566 21.0937 51.7692C21.1258 51.9818 21.0905 52.1992 20.9928 52.3902C20.9411 52.4748 20.8812 52.554 20.8141 52.6268V52.6268Z" fill="#7E1604"/>
<path d="M49.5739 33.9093L32.9017 17.1108C31.3549 15.5522 28.847 15.5522 27.3002 17.1108L25.6066 18.8172C24.0598 20.3758 24.0598 22.9026 25.6066 24.4611L42.2788 41.2597C43.8256 42.8182 46.3335 42.8182 47.8803 41.2597L49.5739 39.5532C51.1207 37.9947 51.1207 35.4678 49.5739 33.9093Z" fill="url(#paint2_linear_1212_3275)"/>
<path d="M50.1582 36.0084C50.1299 35.9859 50.1073 35.9568 50.0922 35.9234C50.0772 35.8901 50.0701 35.8535 50.0715 35.8167C50.1953 35.0626 49.5147 34.8454 49.1558 34.4236C49.0197 34.2575 48.7969 34.0146 48.5247 34.2958C48.4752 34.3597 48.3267 34.3469 48.24 34.2574C48.2258 34.245 48.2149 34.229 48.2082 34.2111C48.2015 34.1931 48.1993 34.1737 48.2018 34.1546C48.2042 34.1355 48.2113 34.1174 48.2223 34.1019C48.2333 34.0864 48.2479 34.0739 48.2648 34.0657C48.6608 33.8485 48.4504 33.6312 48.2524 33.4011C47.8069 33.0944 47.4852 32.6343 47.0892 32.2892C47.0678 32.2579 47.0511 32.2234 47.0397 32.187L46.9902 32.1486H46.8912L46.5075 32.4681L46.5447 32.417C46.5755 32.3455 46.6236 32.2834 46.6842 32.2364C46.7448 32.1894 46.8161 32.1592 46.8912 32.1486L46.9283 32.1103C46.9225 32.1024 46.915 32.0959 46.9065 32.0915C46.8979 32.087 46.8884 32.0847 46.8788 32.0847C46.8853 32.0731 46.8887 32.0598 46.8887 32.0464C46.8887 32.0329 46.8853 32.0197 46.8788 32.008L46.2105 31.369L46.1858 31.3307C45.9507 31.139 45.8517 30.6405 45.4062 30.9472L45.2824 30.8833C45.1372 30.8011 45.0106 30.6878 44.9112 30.551L44.8369 30.4232C44.7503 30.2954 44.6265 30.3465 44.5152 30.321L44.4285 30.2954C44.4594 30.2073 44.5087 30.1273 44.5728 30.061C44.637 29.9948 44.7145 29.9439 44.7998 29.912C44.4947 29.5138 44.1459 29.1535 43.7603 28.8384L43.7108 28.8001L43.5252 28.6212C43.4138 28.9535 43.092 29.0685 42.8569 29.273C42.7986 29.3141 42.7483 29.3661 42.7084 29.4263L42.6218 29.4902C42.6218 29.7714 42.498 29.8992 42.1639 29.9631L42.003 29.9887C42.1144 29.682 42.3867 29.503 42.6218 29.3113C42.6439 29.2466 42.6823 29.1893 42.7332 29.1452C42.9435 28.9151 43.29 28.8384 43.4509 28.5572L43.1168 28.0971L42.498 27.522V27.4964L42.2505 27.1897C42.2172 27.1985 42.1818 27.194 42.1515 27.1769C42.1126 27.1496 42.079 27.1149 42.0525 27.0747C41.904 26.8319 41.6689 26.6529 41.4833 26.4357C41.2977 26.2184 41.1615 26.18 40.9635 26.3717C40.7655 26.5635 40.7655 26.5123 40.6789 26.359C40.5923 26.2056 40.716 26.1673 40.8027 26.1289C41.1244 25.9755 40.8769 25.835 40.7779 25.6944L40.518 25.4771L40.3819 25.426C40.1344 25.3237 39.9364 25.1704 39.9612 24.8381H39.8869V24.8125C39.8327 24.7142 39.7563 24.6309 39.6642 24.5697H39.6394L39.2805 24.1862L39.2558 24.1607C39.1342 24.0479 39.0185 23.9284 38.9093 23.8028L38.835 23.7261C38.7608 23.6495 38.6989 23.56 38.637 23.4833L38.3772 23.2916L38.3029 23.2405C38.2665 23.157 38.2252 23.0759 38.1792 22.9976L38.043 22.9721L37.845 22.8698C37.5595 22.7072 37.3399 22.4442 37.2263 22.1285C37.2139 22.103 37.2139 22.0774 37.2015 22.0519C37.0238 21.7956 36.7908 21.5856 36.5209 21.4384L36.4838 21.4128C36.3229 21.0805 36.0507 20.8633 35.8403 20.5821L35.6052 20.4159C35.4246 20.6814 35.2261 20.9334 35.0112 21.17L34.8255 21.3745C34.677 21.5279 34.3553 21.3873 34.3553 21.7068C34.2955 21.7077 34.2362 21.6946 34.182 21.6684C34.1211 21.629 34.0735 21.5709 34.0459 21.5023C34.2687 21.2978 34.5038 21.0933 34.7142 20.8633C34.926 20.6407 35.0978 20.3811 35.2215 20.0964C35.1713 19.9219 35.067 19.7692 34.9245 19.6619L34.776 19.5468C34.7884 19.3168 34.3182 19.5341 34.479 19.189C34.2563 19.0356 34.1573 18.7417 33.8727 18.6905C33.7365 18.9078 33.5385 18.9461 33.3034 18.9717C33.175 18.9675 33.0466 18.9761 32.9198 18.9973C32.7929 19.0169 32.678 19.0854 32.598 19.189C32.5809 19.2095 32.5595 19.2258 32.5354 19.2365C32.5113 19.2472 32.4851 19.2522 32.4589 19.251C32.4327 19.2497 32.4071 19.2424 32.384 19.2294C32.361 19.2165 32.3411 19.1983 32.3258 19.1762C32.2268 19.0484 32.3134 18.9589 32.4372 18.9078C32.5247 18.8618 32.6158 18.8234 32.7094 18.7928C32.9198 18.7289 33.0559 18.6266 32.994 18.3838C32.9322 18.141 33.0683 18.0515 33.2292 17.962C33.117 17.7718 32.9647 17.6102 32.7837 17.4891C32.4619 17.6936 32.2515 17.3869 32.1154 17.208C32.0487 17.1053 31.9551 17.0244 31.8456 16.9746C31.736 16.9248 31.615 16.9082 31.4967 16.9268C31.1502 16.9524 30.9522 16.8373 30.9893 16.4411C30.9962 16.3806 30.9914 16.3194 30.9751 16.2608C30.9589 16.2023 30.9315 16.1476 30.8947 16.1001C30.8579 16.0525 30.8123 16.013 30.7605 15.9838C30.7088 15.9546 30.6519 15.9362 30.5933 15.9299H30.5314C29.8879 15.9043 29.2073 15.8021 28.7742 16.4795C28.6999 16.6073 28.4772 16.6073 28.4277 16.7862C28.6752 17.323 28.7742 17.8342 28.4524 18.371C28.3534 18.5244 28.6504 18.8439 28.3287 18.9717C28.2297 19.0867 28.0441 19.0612 27.9698 19.2145C27.8956 19.3679 27.9327 19.2657 27.9203 19.2912C27.9046 19.3021 27.8867 19.3091 27.868 19.3117C27.8493 19.3143 27.8302 19.3124 27.8123 19.3063C27.7944 19.3001 27.7781 19.2898 27.7646 19.2761C27.7512 19.2624 27.7409 19.2457 27.7347 19.2273C27.4748 18.7033 27.1902 19.074 26.8932 19.1251C26.9551 19.3296 27.1531 19.1762 27.2397 19.3679C26.8727 19.3409 26.5072 19.4397 26.2002 19.6491C26.0077 19.8017 25.8534 19.9997 25.7501 20.2265C25.6467 20.4533 25.5974 20.7023 25.6062 20.9527C25.6062 21.2467 25.5196 21.5534 25.4824 21.8602C25.4453 22.1669 25.4329 21.988 25.3339 22.0135C24.8513 22.1669 24.6781 22.512 24.9132 22.9721C24.9998 23.151 24.9256 23.1893 24.8389 23.2021H24.7894L24.8884 23.3044C25.0196 23.4059 25.1399 23.5216 25.2473 23.6495C25.3463 23.79 25.4824 23.9178 25.4082 24.1096C25.6557 24.1223 25.7671 24.3652 25.9403 24.493C25.8413 24.3268 25.6928 24.1607 25.6804 23.9434C26.0764 24.0968 26.3239 24.4546 26.2992 24.7997L26.3858 24.8764C26.5027 25.0355 26.6401 25.1774 26.7942 25.2982C26.858 25.218 26.9082 25.1272 26.9427 25.0298C26.9629 24.9583 27.0087 24.8975 27.0707 24.8595C27.1327 24.8216 27.2064 24.8093 27.2768 24.8253C27.4129 24.8508 27.3758 25.017 27.3511 25.0937C27.3263 25.1704 27.3511 25.5027 27.0912 25.4515H26.9427L27.6357 26.2184H27.6481C27.8832 26.0139 27.9203 25.6816 28.0688 25.4388C28.2173 25.1959 28.2544 25.2087 28.4153 25.3365C28.5084 25.4134 28.6078 25.4818 28.7123 25.541C28.9227 25.6305 29.2568 25.6688 28.7866 25.8861C28.6628 25.95 28.6876 26.0139 28.7866 26.065C28.8856 26.1161 28.9474 26.3206 28.8237 26.3334C28.3163 26.3462 28.5762 26.6529 28.6133 26.8702L28.7123 26.9852L28.6875 27.0491C28.6752 27.1641 28.7618 27.2792 28.7618 27.3942L28.8237 27.4325C28.9289 27.5327 29.0281 27.6394 29.1207 27.7521C29.1309 27.7044 29.1504 27.6594 29.1781 27.6199C29.2058 27.5803 29.241 27.547 29.2815 27.522L29.3682 27.4964C29.3897 27.4606 29.4064 27.4219 29.4177 27.3814C29.3682 27.1769 29.5043 27.0747 29.6157 26.9724L29.7147 26.9085C29.7151 26.8856 29.721 26.8631 29.7318 26.8431C29.7426 26.823 29.7579 26.806 29.7765 26.7935L29.8137 26.6657L30.3829 26.1928L30.3458 26.0906L30.42 26.1545L30.3829 26.1928C30.618 26.7935 30.0612 26.6018 29.8632 26.7679C29.9127 26.8446 30.0364 26.9213 29.9622 27.0363C29.8879 27.1514 29.7889 27.0491 29.7147 26.9852C29.7023 27.1641 29.5538 27.2408 29.43 27.3431H29.6528C29.8137 27.3559 29.8384 27.4837 29.8632 27.5987C29.8763 27.6429 29.8736 27.6906 29.8554 27.7329C29.8372 27.7751 29.8048 27.8092 29.7642 27.8287C29.6404 27.8799 29.5909 27.7393 29.5167 27.6882C29.4541 27.6429 29.3996 27.5867 29.3558 27.522C29.3187 27.637 29.2692 27.7521 29.232 27.8543L29.2692 27.8927C29.4053 28.0077 29.5167 28.161 29.6404 28.2889C29.7642 28.4167 29.7023 28.1866 29.8384 28.2377C29.9745 28.2889 29.9993 28.2633 29.9745 28.3655C29.9498 28.4678 29.8632 28.455 29.7889 28.4422L30.2468 28.9023C30.254 28.9089 30.2584 28.918 30.2592 28.9279L30.3087 28.9662C30.519 29.1579 30.6923 29.3752 30.915 29.5414C31.1544 29.0078 31.5311 28.5524 32.004 28.225C32.0574 28.2519 32.104 28.2913 32.1402 28.34C32.2639 28.4806 32.3382 28.6595 32.2639 28.8129C32.1897 28.9662 32.1897 29.3369 32.1649 29.6053C32.1891 29.5694 32.2238 29.5426 32.2639 29.5286H32.301C32.2639 29.1452 32.5857 29.1324 32.8208 29.0301L32.9198 28.979C32.8827 29.5669 32.7342 29.7203 32.3134 29.5925L32.1402 29.7842C32.1773 30.0654 32.3382 29.7714 32.4495 29.8864C32.5609 30.0015 32.0288 30.3082 31.9545 30.6022L32.0412 30.6788C32.2639 30.8833 32.4619 31.1006 32.6723 31.3179C32.7483 31.2208 32.8405 31.1386 32.9445 31.075C32.9569 30.8322 33.1673 30.6916 33.192 30.4232C33.2047 30.2136 33.1708 30.0038 33.093 29.8098L33.1178 29.7842C33.1837 29.849 33.254 29.9088 33.3282 29.9631C33.3405 29.9887 33.3405 30.027 33.3529 30.0654C33.4008 30.4125 33.3165 30.7652 33.1178 31.0495L33.0683 31.1134L33.0435 31.1517C32.9767 31.2655 32.8772 31.3548 32.7589 31.4073C33.3034 31.893 33.7118 32.4937 34.2439 32.9794C34.2439 32.8132 34.3553 32.711 34.5285 32.6471C34.4667 32.4937 34.5533 32.2892 34.5533 32.1103C34.5512 32.0164 34.5554 31.9224 34.5657 31.8291C34.5792 31.9092 34.6042 31.9867 34.6399 32.0592V32.0592C34.7142 32.2125 34.6894 32.3915 34.6894 32.5576C34.6848 32.6554 34.7062 32.7526 34.7513 32.8388C34.4419 32.8516 34.3924 32.8644 34.3429 33.0561L34.38 33.0944C34.6095 33.2953 34.8246 33.5131 35.0235 33.7462L35.0483 33.7718C35.1473 33.6695 35.2339 33.5417 35.37 33.6568C35.5062 33.7718 35.4567 33.9635 35.3577 34.1041L35.3824 34.1296C35.5441 34.2731 35.697 34.4268 35.8403 34.5897H35.8527C36.0259 34.3469 36.2115 34.1296 36.5333 34.0785C36.657 34.053 36.7065 33.9379 36.7065 33.7973C36.7094 33.6988 36.7478 33.6048 36.8142 33.5339C36.8805 33.463 36.9701 33.4202 37.0654 33.4139L37.2263 33.5289C37.2497 33.5487 37.2678 33.5744 37.2787 33.6035C37.2895 33.6327 37.2928 33.6642 37.2882 33.6951C37.2812 33.727 37.2686 33.7573 37.251 33.7846C37.3253 34.1041 36.9417 34.2319 36.9912 34.5386C36.9912 34.5514 36.9417 34.5897 36.9293 34.577C36.5085 34.2958 36.3848 34.7176 36.1497 34.8965C36.4414 35.1701 36.7182 35.4603 36.9788 35.7656C36.9912 35.74 37.0283 35.74 37.0778 35.7784C37.1273 35.8167 37.3253 35.7528 37.449 35.7272C37.5728 35.7017 37.4614 35.6505 37.4614 35.6122C37.4614 35.5739 37.5975 35.331 37.7955 35.3694C37.7955 35.3949 37.8079 35.4205 37.7955 35.4461C37.7832 35.4716 37.6965 35.625 37.5852 35.625V35.6761C37.5693 35.717 37.5485 35.7556 37.5233 35.7911L37.4738 35.855C37.4715 35.9692 37.4371 36.0802 37.3748 36.1746C37.5109 36.2896 37.6347 36.443 37.7708 36.5708C37.7854 36.5151 37.8107 36.4629 37.845 36.4174L37.9069 36.3407L37.9688 36.4174C38.043 36.5708 38.1544 36.7241 38.0307 36.8519C38.2287 37.0564 38.439 37.2226 38.6123 37.4399H38.6247L38.6989 37.5038C38.8365 37.6391 38.9647 37.7844 39.0825 37.9383C39.087 37.9435 39.0904 37.9496 39.0926 37.9561C39.0947 37.9627 39.0955 37.9697 39.0949 37.9766H39.1073C39.3548 37.8616 39.4785 37.6188 39.627 37.4015C39.8127 37.1203 39.9859 37.082 40.1592 37.2354L40.2334 37.2993C40.0973 37.491 40.2953 38.0022 39.7632 37.836C39.7632 38.0917 39.5157 38.1683 39.4043 38.3473L39.4662 38.3984C39.6765 38.5518 39.8498 38.7563 40.0478 38.9224C40.0602 38.9224 40.0602 38.9224 40.0602 38.9352L40.1344 38.9991C40.3279 39.1692 40.5098 39.3528 40.6789 39.5487H40.6913L40.7779 39.472L40.9388 39.3186C40.8893 39.4464 40.8398 39.5742 40.8027 39.6893C41.6194 40.5328 42.4609 41.3507 43.2405 42.2198C43.3047 42.2819 43.3628 42.3504 43.4138 42.4243L43.5375 42.3604C43.8098 42.2454 44.0944 42.1687 44.3172 41.9387C44.5399 41.7086 44.7503 41.8748 44.874 41.9003C45.3072 41.9898 45.6165 41.6319 45.963 41.6958C46.5075 41.7981 46.6684 41.2229 47.0892 41.1846C47.1139 41.0057 47.349 40.8779 47.0768 40.635C46.8045 40.3922 47.2377 40.4433 47.2995 40.2899C47.3744 40.0481 47.5112 39.8317 47.6955 39.6637C47.8402 39.5489 48.0212 39.4942 48.2029 39.5103L49.2672 38.8585C49.3538 38.7051 49.4775 38.5646 49.3043 38.3728C49.2836 38.3513 49.2681 38.3249 49.2592 38.296C49.2503 38.2671 49.2482 38.2363 49.253 38.2064C49.2579 38.1764 49.2695 38.1481 49.287 38.1237C49.3046 38.0993 49.3274 38.0796 49.3538 38.0661C49.428 37.9894 49.5147 37.9383 49.626 38.0278C49.7374 38.1172 49.9849 37.9766 50.022 37.8233C50.0792 37.5387 50.2072 37.2744 50.3933 37.0564C50.3933 37.0309 50.4057 37.0053 50.4057 36.9797C50.4168 36.947 50.421 36.9121 50.418 36.8775C50.4282 36.7907 50.4579 36.7076 50.5047 36.6347L50.5789 36.5324C50.517 36.3407 50.4428 36.1107 50.1582 36.0084ZM30.618 19.7002C30.5838 19.704 30.5494 19.6942 30.5219 19.6729C30.4943 19.6515 30.4756 19.6202 30.4695 19.5852C30.4572 19.5213 30.4943 19.4829 30.5933 19.4702C30.6923 19.4574 30.6923 19.5468 30.717 19.6107C30.7418 19.6746 30.6799 19.7002 30.618 19.7002Z" fill="url(#paint3_linear_1212_3275)"/>
<path fill-rule="evenodd" clip-rule="evenodd" d="M35 67C52.6731 67 67 52.6731 67 35C67 17.3269 52.6731 3 35 3C17.3269 3 3 17.3269 3 35C3 52.6731 17.3269 67 35 67ZM35 70C54.33 70 70 54.33 70 35C70 15.67 54.33 0 35 0C15.67 0 0 15.67 0 35C0 54.33 15.67 70 35 70Z" fill="url(#paint4_linear_1212_3275)"/>
<defs>
<linearGradient id="paint0_linear_1212_3275" x1="30.5789" y1="16.0527" x2="62.9473" y2="29.4737" gradientUnits="userSpaceOnUse">
<stop offset="0.06" stop-color="#0EBDFD"/>
<stop offset="0.13" stop-color="#21BFD5"/>
<stop offset="0.21" stop-color="#35C2A9"/>
<stop offset="0.28" stop-color="#45C489"/>
<stop offset="0.34" stop-color="#4EC576"/>
<stop offset="0.39" stop-color="#51C56F"/>
<stop offset="0.52" stop-color="#FE413F"/>
<stop offset="0.63" stop-color="#FC7C25"/>
<stop offset="0.7" stop-color="#F9C808"/>
<stop offset="0.73" stop-color="#EAB434"/>
<stop offset="0.76" stop-color="#DA9F62"/>
<stop offset="0.8" stop-color="#CC8C8A"/>
<stop offset="0.83" stop-color="#C17DAA"/>
<stop offset="0.87" stop-color="#B872C3"/>
<stop offset="0.91" stop-color="#B269D5"/>
<stop offset="0.95" stop-color="#AE65E0"/>
<stop offset="1" stop-color="#AD63E3"/>
</linearGradient>
<linearGradient id="paint1_linear_1212_3275" x1="20.932" y1="46.3417" x2="25.667" y2="51.0427" gradientUnits="userSpaceOnUse">
<stop stop-color="#DC2A12"/>
<stop offset="0.14" stop-color="#FC5332"/>
<stop offset="0.52" stop-color="#E64828"/>
<stop offset="0.63" stop-color="#D43F21"/>
<stop offset="0.82" stop-color="#AD2C13"/>
<stop offset="1" stop-color="#8E1D08"/>
</linearGradient>
<linearGradient id="paint2_linear_1212_3275" x1="41.2387" y1="25.5056" x2="34.0296" y2="32.6605" gradientUnits="userSpaceOnUse">
<stop stop-color="#F1DECC"/>
<stop offset="0.03" stop-color="#F0DAC2"/>
<stop offset="0.12" stop-color="#EED2AF"/>
<stop offset="0.17" stop-color="#EDCFA8"/>
<stop offset="0.37" stop-color="#BC9776"/>
<stop offset="0.58" stop-color="#9C7045"/>
<stop offset="0.81" stop-color="#9C7045"/>
<stop offset="0.9" stop-color="#A57850"/>
<stop offset="1" stop-color="#A87B53"/>
</linearGradient>
<linearGradient id="paint3_linear_1212_3275" x1="25.2312" y1="17.9126" x2="50.0067" y2="39.4097" gradientUnits="userSpaceOnUse">
<stop offset="0.18" stop-color="#0EBDFD"/>
<stop offset="0.37" stop-color="#4DC577"/>
<stop offset="0.39" stop-color="#51C56F"/>
<stop offset="0.52" stop-color="#FE413F"/>
<stop offset="0.7" stop-color="#F9C808"/>
<stop offset="0.73" stop-color="#EAB434"/>
<stop offset="0.76" stop-color="#DA9F62"/>
<stop offset="0.8" stop-color="#CC8C8A"/>
<stop offset="0.83" stop-color="#C17DAA"/>
<stop offset="0.87" stop-color="#B872C3"/>
<stop offset="0.91" stop-color="#B269D5"/>
<stop offset="0.95" stop-color="#AE65E0"/>
<stop offset="1" stop-color="#AD63E3"/>
</linearGradient>
<linearGradient id="paint4_linear_1212_3275" x1="1.04478" y1="26.546" x2="66.0005" y2="52.4679" gradientUnits="userSpaceOnUse">
<stop offset="0.06" stop-color="#0EBDFD"/>
<stop offset="0.13" stop-color="#21BFD5"/>
<stop offset="0.21" stop-color="#35C2A9"/>
<stop offset="0.28" stop-color="#45C489"/>
<stop offset="0.34" stop-color="#4EC576"/>
<stop offset="0.39" stop-color="#51C56F"/>
<stop offset="0.52" stop-color="#FE413F"/>
<stop offset="0.63" stop-color="#FC7C25"/>
<stop offset="0.7" stop-color="#F9C808"/>
<stop offset="0.73" stop-color="#EAB434"/>
<stop offset="0.76" stop-color="#DA9F62"/>
<stop offset="0.8" stop-color="#CC8C8A"/>
<stop offset="0.83" stop-color="#C17DAA"/>
<stop offset="0.87" stop-color="#B872C3"/>
<stop offset="0.91" stop-color="#B269D5"/>
<stop offset="0.95" stop-color="#AE65E0"/>
<stop offset="1" stop-color="#AD63E3"/>
</linearGradient>
</defs>
</svg>
