<svg width="100" height="100" viewBox="0 0 61 69" fill="none" xmlns="http://www.w3.org/2000/svg">
<path d="M47.1302 24.5666C47.4983 24.5666 47.8581 24.4569 48.1642 24.2512C48.4702 24.0456 48.7088 23.7533 48.8496 23.4114C48.9905 23.0694 49.0273 22.6931 48.9555 22.3301C48.8837 21.9671 48.7065 21.6336 48.4462 21.3719C48.1859 21.1102 47.8543 20.9319 47.4933 20.8597C47.1323 20.7875 46.7581 20.8246 46.418 20.9662C46.0779 21.1079 45.7873 21.3477 45.5828 21.6555C45.3783 21.9633 45.2691 22.3251 45.2691 22.6952C45.2691 23.1915 45.4652 23.6675 45.8142 24.0185C46.1632 24.3695 46.6366 24.5666 47.1302 24.5666Z" fill="#F49E28"/>
<path d="M47.2446 39.4231C47.2446 39.0529 47.1354 38.6911 46.9309 38.3834C46.7264 38.0756 46.4358 37.8357 46.0957 37.6941C45.7556 37.5524 45.3814 37.5154 45.0204 37.5876C44.6594 37.6598 44.3278 37.838 44.0675 38.0998C43.8072 38.3615 43.63 38.6949 43.5582 39.058C43.4863 39.421 43.5232 39.7973 43.6641 40.1392C43.8049 40.4812 44.0435 40.7735 44.3495 40.9791C44.6556 41.1847 45.0154 41.2945 45.3835 41.2945C45.8762 41.2917 46.348 41.0937 46.6964 40.7433C47.0449 40.393 47.2418 39.9185 47.2446 39.4231Z" fill="#F49E28"/>
<path d="M58.0368 15.0631L33.458 0.792173C32.5576 0.273105 31.5378 0 30.5 0C29.4621 0 28.4424 0.273105 27.542 0.792173L2.96318 15.0631C2.06394 15.5864 1.317 16.3378 0.797019 17.2423C0.277034 18.1468 0.00220822 19.1727 2.48923e-06 20.2174V48.7593C-0.000951885 49.8047 0.272542 50.8318 0.792842 51.7368C1.31314 52.6418 2.06181 53.3927 2.96318 53.9136L27.542 68.1845C27.5814 68.2096 27.6232 68.2306 27.6668 68.2472V61.6816L27.4484 61.8698L22.6554 57.05C22.0179 57.4034 21.3038 57.5937 20.5759 57.6041C19.6855 57.6041 18.8151 57.3386 18.0748 56.8412C17.3344 56.3438 16.7574 55.6368 16.4167 54.8096C16.0759 53.9824 15.9868 53.0722 16.1605 52.194C16.3342 51.3159 16.763 50.5092 17.3926 49.8761C18.0222 49.243 18.8243 48.8119 19.6976 48.6372C20.5709 48.4625 21.4761 48.5522 22.2987 48.8948C23.1214 49.2374 23.8245 49.8177 24.3192 50.5621C24.8138 51.3066 25.0779 52.1818 25.0779 53.0772C25.0819 53.6887 24.9579 54.2943 24.714 54.8545L27.7084 57.8655V48.8638L17.5608 38.6808C16.6738 39.0802 15.6822 39.1804 14.734 38.9662C13.7858 38.7521 12.932 38.2352 12.3001 37.4927C11.6682 36.7503 11.2922 35.8222 11.2283 34.8471C11.1643 33.872 11.4159 32.9022 11.9454 32.0828C12.4749 31.2634 13.2539 30.6382 14.1659 30.3008C15.0779 29.9633 16.0741 29.9317 17.0055 30.2106C17.9368 30.4896 18.7535 31.064 19.3333 31.8483C19.9131 32.6325 20.2251 33.5843 20.2224 34.5615C20.2261 35.2651 20.0658 35.9597 19.7546 36.5898L30.5676 47.557H30.6403V69C31.6315 68.9807 32.6014 68.7072 33.458 68.2054L34.165 67.7977V41.7545L15.7725 23.2598C15.18 23.5507 14.5291 23.701 13.8698 23.6989C12.9794 23.6989 12.109 23.4334 11.3686 22.9359C10.6283 22.4385 10.0513 21.7315 9.71051 20.9043C9.36977 20.0771 9.28061 19.1669 9.45432 18.2887C9.62803 17.4106 10.0568 16.604 10.6864 15.9708C11.316 15.3377 12.1182 14.9066 12.9915 14.7319C13.8648 14.5572 14.77 14.6469 15.5926 14.9895C16.4152 15.3322 17.1183 15.9124 17.613 16.6569C18.1077 17.4013 18.3717 18.2766 18.3717 19.1719C18.37 19.866 18.2062 20.55 17.8935 21.1688L24.1317 27.4417V21.6602C23.1252 21.307 22.2756 20.6069 21.7334 19.6839C21.1912 18.761 20.9915 17.6748 21.1696 16.6179C21.3477 15.5611 21.8922 14.6017 22.7066 13.91C23.5209 13.2182 24.5525 12.8387 25.6185 12.8387C26.6846 12.8387 27.7162 13.2182 28.5305 13.91C29.3448 14.6017 29.8893 15.5611 30.0674 16.6179C30.2456 17.6748 30.0458 18.761 29.5036 19.6839C28.9615 20.6069 28.1118 21.307 27.1053 21.6602V30.4423L34.1338 37.5098V18.5864C33.1264 18.2343 32.2756 17.5348 31.7324 16.6119C31.1891 15.6891 30.9884 14.6026 31.166 13.5451C31.3436 12.4876 31.8879 11.5276 32.7024 10.8353C33.5169 10.143 34.5489 9.76313 35.6154 9.76313C36.6819 9.76313 37.7139 10.143 38.5284 10.8353C39.3429 11.5276 39.8872 12.4876 40.0648 13.5451C40.2423 14.6026 40.0417 15.6891 39.4984 16.6119C38.9551 17.5348 38.1043 18.2343 37.097 18.5864V30.7978L43.1169 24.7548C42.7748 24.1116 42.5962 23.3933 42.597 22.6638C42.595 21.7694 42.8565 20.8944 43.3486 20.1492C43.8407 19.4041 44.5412 18.8223 45.3618 18.4771C46.1825 18.132 47.0864 18.039 47.9595 18.21C48.8326 18.381 49.6358 18.8082 50.2677 19.4377C50.8995 20.0673 51.3318 20.8709 51.5098 21.7473C51.6879 22.6237 51.6038 23.5334 51.2681 24.3617C50.9325 25.1901 50.3603 25.8998 49.6239 26.4015C48.8874 26.9031 48.0197 27.1742 47.1302 27.1804C46.4946 27.1808 45.8665 27.0416 45.2899 26.7726L37.1282 35.0215V40.5104L37.1905 40.5731H37.1282V56.7573L43.8551 49.993V43.6573C42.8515 43.3042 42.0046 42.6053 41.4643 41.6844C40.9241 40.7636 40.7254 39.6801 40.9035 38.6261C41.0816 37.572 41.625 36.6154 42.4373 35.9256C43.2497 35.2358 44.2786 34.8573 45.3419 34.8573C46.4051 34.8573 47.4341 35.2358 48.2465 35.9256C49.0588 36.6154 49.6022 37.572 49.7803 38.6261C49.9583 39.6801 49.7597 40.7636 49.2194 41.6844C48.6792 42.6053 47.8323 43.3042 46.8287 43.6573V51.1012H46.6831L46.8495 51.2057L37.1282 60.9706V66.0517L58.0368 53.9136C58.9396 53.3944 59.6894 52.6438 60.2099 51.7384C60.7305 50.833 61.0031 49.8051 61 48.7593V20.2174C60.9999 19.1722 60.7259 18.1455 60.2057 17.2407C59.6855 16.3359 58.9375 15.5848 58.0368 15.0631Z" fill="#F49E28"/>
<path d="M37.5129 14.3313C37.5129 13.9611 37.4037 13.5993 37.1992 13.2916C36.9947 12.9838 36.704 12.7439 36.364 12.6023C36.0239 12.4607 35.6497 12.4236 35.2887 12.4958C34.9277 12.568 34.5961 12.7463 34.3358 13.008C34.0755 13.2697 33.8983 13.6032 33.8264 13.9662C33.7546 14.3292 33.7915 14.7055 33.9324 15.0474C34.0732 15.3894 34.3117 15.6817 34.6178 15.8873C34.9239 16.093 35.2837 16.2027 35.6518 16.2027C36.1445 16.2 36.6163 16.0019 36.9647 15.6515C37.3132 15.3012 37.5101 14.8268 37.5129 14.3313Z" fill="#F49E28"/>
<path d="M18.7148 53.0563C18.7066 53.4298 18.8098 53.7973 19.0111 54.1114C19.2124 54.4255 19.5026 54.6718 19.8443 54.8186C20.186 54.9654 20.5636 55.006 20.9285 54.9351C21.2933 54.8642 21.6287 54.6851 21.8915 54.4209C22.1542 54.1567 22.3323 53.8195 22.4028 53.4526C22.4733 53.0857 22.4329 52.706 22.2869 52.3624C22.1409 52.0188 21.896 51.727 21.5836 51.5246C21.2713 51.3222 20.9058 51.2184 20.5343 51.2267C20.0551 51.2373 19.5984 51.4335 19.2595 51.7743C18.9205 52.1152 18.7254 52.5744 18.7148 53.0563Z" fill="#F49E28"/>
<path d="M13.8594 34.5824C13.8614 34.9521 13.9723 35.3129 14.1781 35.6193C14.3838 35.9257 14.6752 36.1639 15.0154 36.3039C15.3557 36.444 15.7296 36.4796 16.0899 36.4062C16.4502 36.3328 16.7808 36.1537 17.0401 35.8916C17.2993 35.6295 17.4755 35.296 17.5465 34.9333C17.6175 34.5705 17.58 34.1948 17.4389 33.8534C17.2977 33.5121 17.0592 33.2204 16.7533 33.0152C16.4475 32.8101 16.0881 32.7006 15.7205 32.7006C15.4752 32.7006 15.2323 32.7493 15.0059 32.844C14.7794 32.9387 14.5737 33.0775 14.4008 33.2524C14.2278 33.4273 14.091 33.6348 13.9981 33.8631C13.9051 34.0913 13.858 34.3358 13.8594 34.5824Z" fill="#F49E28"/>
<path d="M12.0087 19.1719C12.0087 19.542 12.1178 19.9039 12.3223 20.2116C12.5268 20.5194 12.8175 20.7592 13.1576 20.9009C13.4976 21.0425 13.8718 21.0796 14.2329 21.0074C14.5939 20.9352 14.9255 20.7569 15.1858 20.4952C15.446 20.2335 15.6233 19.9 15.6951 19.537C15.7669 19.174 15.7301 18.7977 15.5892 18.4557C15.4483 18.1138 15.2098 17.8215 14.9037 17.6159C14.5977 17.4102 14.2379 17.3005 13.8698 17.3005C13.3762 17.3005 12.9028 17.4976 12.5538 17.8486C12.2048 18.1996 12.0087 18.6756 12.0087 19.1719Z" fill="#F49E28"/>
<path d="M25.6913 15.5441C25.3232 15.5441 24.9634 15.6538 24.6574 15.8594C24.3513 16.0651 24.1128 16.3574 23.9719 16.6993C23.831 17.0413 23.7942 17.4176 23.866 17.7806C23.9378 18.1436 24.1151 18.4771 24.3753 18.7388C24.6356 19.0005 24.9672 19.1787 25.3282 19.2509C25.6893 19.3232 26.0635 19.2861 26.4035 19.1445C26.7436 19.0028 27.0343 18.7629 27.2388 18.4552C27.4433 18.1474 27.5524 17.7856 27.5524 17.4155C27.5524 16.9191 27.3563 16.4431 27.0073 16.0922C26.6583 15.7412 26.1849 15.5441 25.6913 15.5441Z" fill="#F49E28"/>
</svg>
