<svg xmlns="http://www.w3.org/2000/svg" xmlns:xlink="http://www.w3.org/1999/xlink" width="1024" zoomAndPan="magnify" viewBox="0 0 768 767.999994" height="1024" preserveAspectRatio="xMidYMid meet" version="1.0"><defs><clipPath id="a19078213a"><path d="M 513.3125 288.476562 L 675.800781 288.476562 L 675.800781 453.546875 L 513.3125 453.546875 Z M 513.3125 288.476562 " clip-rule="nonzero"/></clipPath><clipPath id="ed5e31f79d"><path d="M 241.707031 373.101562 L 522.273438 373.101562 L 522.273438 607.859375 L 241.707031 607.859375 Z M 241.707031 373.101562 " clip-rule="nonzero"/></clipPath></defs><path fill="#ffde59" d="M 772.957031 383.996094 C 772.957031 390.363281 772.800781 396.722656 772.492188 403.082031 C 772.179688 409.441406 771.710938 415.785156 771.085938 422.121094 C 770.460938 428.457031 769.683594 434.773438 768.75 441.070312 C 767.816406 447.367188 766.726562 453.636719 765.484375 459.878906 C 764.242188 466.121094 762.847656 472.332031 761.300781 478.507812 C 759.753906 484.679688 758.058594 490.816406 756.210938 496.90625 C 754.363281 502.996094 752.367188 509.039062 750.222656 515.035156 C 748.078125 521.027344 745.785156 526.964844 743.351562 532.847656 C 740.914062 538.726562 738.335938 544.542969 735.613281 550.300781 C 732.890625 556.054688 730.03125 561.738281 727.03125 567.351562 C 724.03125 572.964844 720.894531 578.503906 717.621094 583.964844 C 714.347656 589.421875 710.941406 594.800781 707.40625 600.09375 C 703.871094 605.386719 700.207031 610.589844 696.414062 615.699219 C 692.621094 620.8125 688.707031 625.832031 684.667969 630.75 C 680.628906 635.671875 676.472656 640.492188 672.199219 645.207031 C 667.921875 649.925781 663.535156 654.53125 659.035156 659.035156 C 654.53125 663.535156 649.925781 667.921875 645.207031 672.199219 C 640.492188 676.472656 635.671875 680.628906 630.75 684.667969 C 625.832031 688.707031 620.8125 692.621094 615.699219 696.414062 C 610.585938 700.207031 605.386719 703.871094 600.09375 707.40625 C 594.800781 710.945312 589.421875 714.347656 583.960938 717.621094 C 578.503906 720.894531 572.964844 724.03125 567.351562 727.03125 C 561.738281 730.03125 556.054688 732.890625 550.300781 735.613281 C 544.542969 738.335938 538.726562 740.914062 532.84375 743.351562 C 526.964844 745.785156 521.027344 748.078125 515.035156 750.222656 C 509.039062 752.367188 502.996094 754.363281 496.90625 756.210938 C 490.8125 758.058594 484.679688 759.753906 478.507812 761.300781 C 472.332031 762.847656 466.121094 764.242188 459.878906 765.484375 C 453.636719 766.726562 447.367188 767.816406 441.070312 768.75 C 434.773438 769.683594 428.457031 770.460938 422.121094 771.085938 C 415.785156 771.710938 409.441406 772.179688 403.082031 772.492188 C 396.722656 772.804688 390.363281 772.957031 383.996094 772.957031 C 377.628906 772.957031 371.269531 772.804688 364.910156 772.492188 C 358.550781 772.179688 352.207031 771.710938 345.871094 771.085938 C 339.535156 770.460938 333.21875 769.683594 326.921875 768.75 C 320.625 767.816406 314.355469 766.726562 308.113281 765.484375 C 301.871094 764.242188 295.660156 762.847656 289.484375 761.300781 C 283.3125 759.753906 277.175781 758.058594 271.085938 756.210938 C 264.996094 754.363281 258.953125 752.367188 252.957031 750.222656 C 246.964844 748.078125 241.027344 745.785156 235.144531 743.351562 C 229.265625 740.914062 223.449219 738.335938 217.691406 735.613281 C 211.9375 732.890625 206.253906 730.03125 200.640625 727.03125 C 195.027344 724.03125 189.488281 720.894531 184.027344 717.621094 C 178.570312 714.347656 173.191406 710.945312 167.898438 707.40625 C 162.605469 703.871094 157.402344 700.207031 152.292969 696.414062 C 147.179688 692.621094 142.160156 688.707031 137.242188 684.667969 C 132.320312 680.628906 127.5 676.472656 122.785156 672.199219 C 118.066406 667.921875 113.457031 663.535156 108.957031 659.035156 C 104.457031 654.53125 100.070312 649.925781 95.792969 645.207031 C 91.519531 640.492188 87.363281 635.671875 83.324219 630.75 C 79.285156 625.832031 75.371094 620.8125 71.578125 615.699219 C 67.785156 610.589844 64.121094 605.386719 60.585938 600.09375 C 57.046875 594.800781 53.644531 589.421875 50.371094 583.960938 C 47.097656 578.503906 43.960938 572.964844 40.960938 567.351562 C 37.960938 561.738281 35.097656 556.054688 32.378906 550.300781 C 29.65625 544.542969 27.078125 538.726562 24.640625 532.84375 C 22.207031 526.964844 19.914062 521.027344 17.769531 515.035156 C 15.625 509.039062 13.628906 502.996094 11.78125 496.90625 C 9.933594 490.8125 8.238281 484.679688 6.691406 478.507812 C 5.144531 472.332031 3.75 466.121094 2.507812 459.878906 C 1.265625 453.636719 0.175781 447.367188 -0.757812 441.070312 C -1.691406 434.773438 -2.46875 428.457031 -3.09375 422.121094 C -3.71875 415.785156 -4.1875 409.441406 -4.5 403.082031 C -4.8125 396.722656 -4.96875 390.363281 -4.96875 383.996094 C -4.96875 377.628906 -4.8125 371.269531 -4.5 364.910156 C -4.1875 358.550781 -3.71875 352.207031 -3.09375 345.871094 C -2.46875 339.535156 -1.691406 333.21875 -0.757812 326.921875 C 0.175781 320.625 1.265625 314.355469 2.507812 308.113281 C 3.75 301.871094 5.144531 295.660156 6.691406 289.484375 C 8.238281 283.3125 9.933594 277.175781 11.78125 271.085938 C 13.628906 264.996094 15.625 258.953125 17.769531 252.957031 C 19.914062 246.964844 22.207031 241.027344 24.640625 235.144531 C 27.078125 229.265625 29.65625 223.449219 32.378906 217.691406 C 35.097656 211.9375 37.960938 206.253906 40.960938 200.640625 C 43.960938 195.027344 47.097656 189.488281 50.371094 184.027344 C 53.644531 178.570312 57.046875 173.191406 60.585938 167.898438 C 64.121094 162.605469 67.785156 157.402344 71.578125 152.292969 C 75.371094 147.179688 79.285156 142.160156 83.324219 137.242188 C 87.363281 132.320312 91.519531 127.5 95.792969 122.785156 C 100.070312 118.066406 104.457031 113.460938 108.957031 108.957031 C 113.457031 104.457031 118.066406 100.070312 122.785156 95.792969 C 127.5 91.519531 132.320312 87.363281 137.242188 83.324219 C 142.160156 79.285156 147.179688 75.371094 152.292969 71.578125 C 157.402344 67.785156 162.605469 64.121094 167.898438 60.585938 C 173.191406 57.046875 178.570312 53.644531 184.027344 50.371094 C 189.488281 47.097656 195.027344 43.960938 200.640625 40.960938 C 206.253906 37.960938 211.9375 35.097656 217.691406 32.378906 C 223.449219 29.65625 229.265625 27.078125 235.144531 24.640625 C 241.027344 22.207031 246.964844 19.914062 252.957031 17.769531 C 258.953125 15.625 264.996094 13.628906 271.085938 11.78125 C 277.175781 9.933594 283.3125 8.238281 289.484375 6.691406 C 295.660156 5.144531 301.871094 3.75 308.113281 2.507812 C 314.355469 1.265625 320.625 0.175781 326.921875 -0.757812 C 333.21875 -1.691406 339.535156 -2.46875 345.871094 -3.09375 C 352.207031 -3.71875 358.550781 -4.1875 364.910156 -4.5 C 371.269531 -4.8125 377.628906 -4.964844 383.996094 -4.964844 C 390.363281 -4.964844 396.722656 -4.8125 403.082031 -4.5 C 409.441406 -4.1875 415.785156 -3.71875 422.121094 -3.09375 C 428.457031 -2.46875 434.773438 -1.691406 441.070312 -0.757812 C 447.367188 0.175781 453.636719 1.265625 459.878906 2.507812 C 466.121094 3.75 472.332031 5.144531 478.507812 6.691406 C 484.679688 8.238281 490.8125 9.933594 496.90625 11.78125 C 502.996094 13.628906 509.039062 15.625 515.035156 17.769531 C 521.027344 19.914062 526.964844 22.207031 532.84375 24.640625 C 538.726562 27.078125 544.542969 29.65625 550.300781 32.378906 C 556.054688 35.097656 561.738281 37.960938 567.351562 40.960938 C 572.964844 43.960938 578.503906 47.097656 583.964844 50.371094 C 589.421875 53.644531 594.800781 57.046875 600.09375 60.585938 C 605.386719 64.121094 610.585938 67.785156 615.699219 71.578125 C 620.8125 75.371094 625.832031 79.285156 630.75 83.324219 C 635.671875 87.363281 640.492188 91.519531 645.207031 95.792969 C 649.925781 100.070312 654.53125 104.457031 659.035156 108.957031 C 663.535156 113.460938 667.921875 118.066406 672.199219 122.785156 C 676.472656 127.5 680.628906 132.320312 684.667969 137.242188 C 688.707031 142.160156 692.621094 147.179688 696.414062 152.292969 C 700.207031 157.402344 703.871094 162.605469 707.40625 167.898438 C 710.941406 173.191406 714.347656 178.570312 717.621094 184.027344 C 720.894531 189.488281 724.03125 195.027344 727.03125 200.640625 C 730.03125 206.253906 732.890625 211.9375 735.613281 217.691406 C 738.335938 223.449219 740.914062 229.265625 743.351562 235.144531 C 745.785156 241.027344 748.078125 246.964844 750.222656 252.957031 C 752.367188 258.953125 754.363281 264.996094 756.210938 271.085938 C 758.058594 277.175781 759.753906 283.3125 761.300781 289.484375 C 762.847656 295.660156 764.242188 301.871094 765.484375 308.113281 C 766.726562 314.355469 767.816406 320.625 768.75 326.921875 C 769.683594 333.21875 770.460938 339.535156 771.085938 345.871094 C 771.710938 352.207031 772.179688 358.550781 772.492188 364.910156 C 772.800781 371.269531 772.957031 377.628906 772.957031 383.996094 Z M 772.957031 383.996094 " fill-opacity="1" fill-rule="nonzero"/><path fill="#ffffff" d="M 383.984375 772.78125 C 280.160156 772.78125 182.378906 732.335938 108.929688 658.886719 C 35.476562 585.433594 -4.96875 487.808594 -4.96875 383.984375 C -4.96875 280.160156 35.476562 182.378906 108.929688 108.929688 C 182.378906 35.476562 280.003906 -4.96875 383.984375 -4.96875 C 487.964844 -4.96875 585.433594 35.476562 658.886719 108.929688 C 732.335938 182.378906 772.78125 280.003906 772.78125 383.984375 C 772.78125 487.964844 732.335938 585.433594 658.886719 658.886719 C 585.433594 732.335938 487.808594 772.78125 383.984375 772.78125 Z M 383.984375 18.277344 C 286.359375 18.277344 194.46875 56.242188 125.355469 125.355469 C 56.242188 194.46875 18.277344 286.203125 18.277344 383.984375 C 18.277344 481.765625 56.242188 573.503906 125.355469 642.613281 C 194.46875 711.726562 286.203125 749.691406 383.984375 749.691406 C 481.765625 749.691406 573.503906 711.726562 642.613281 642.613281 C 711.726562 573.503906 749.691406 481.765625 749.691406 383.984375 C 749.691406 286.203125 711.726562 194.46875 642.613281 125.355469 C 573.347656 56.242188 481.609375 18.277344 383.984375 18.277344 Z M 383.984375 18.277344 " fill-opacity="1" fill-rule="nonzero"/><path fill="#ffffff" d="M 376.238281 724.28125 L 375.308594 724.28125 C 371.898438 724.125 369.261719 721.335938 369.417969 718.082031 C 369.574219 714.828125 372.207031 712.191406 375.460938 712.191406 C 375.460938 712.191406 375.617188 712.191406 375.617188 712.191406 L 376.390625 712.191406 C 379.800781 712.347656 382.433594 715.136719 382.28125 718.390625 C 382.28125 721.644531 379.644531 724.28125 376.238281 724.28125 Z M 406.917969 723.503906 C 403.664062 723.503906 401.03125 721.023438 400.875 717.769531 C 400.71875 714.363281 403.199219 711.574219 406.609375 711.261719 L 407.230469 711.261719 C 410.636719 710.953125 413.582031 713.585938 413.738281 716.839844 C 414.046875 720.25 411.414062 723.195312 408.160156 723.347656 L 407.382812 723.347656 C 407.074219 723.503906 406.917969 723.503906 406.917969 723.503906 Z M 345.089844 722.109375 C 344.933594 722.109375 344.625 722.109375 344.316406 722.109375 L 343.539062 721.953125 C 340.128906 721.488281 337.804688 718.546875 338.269531 715.136719 C 338.734375 711.726562 341.679688 709.402344 345.089844 709.867188 L 345.863281 710.023438 C 349.273438 710.332031 351.597656 713.433594 351.289062 716.839844 C 350.667969 719.785156 348.035156 722.109375 345.089844 722.109375 Z M 437.910156 719.941406 C 434.96875 719.941406 432.332031 717.769531 431.867188 714.828125 C 431.246094 711.574219 433.570312 708.316406 436.980469 707.851562 L 437.757812 707.699219 C 441.011719 707.234375 444.265625 709.402344 444.730469 712.8125 C 445.195312 716.222656 443.023438 719.320312 439.617188 719.785156 L 438.839844 719.941406 C 438.6875 719.941406 438.375 719.941406 437.910156 719.941406 Z M 314.097656 716.996094 C 313.632812 716.996094 313.324219 716.996094 312.859375 716.839844 L 312.082031 716.6875 C 308.828125 715.910156 306.660156 712.65625 307.433594 709.402344 C 308.207031 706.148438 311.460938 703.980469 314.71875 704.753906 L 315.492188 704.910156 C 318.746094 705.683594 320.914062 708.78125 320.140625 712.191406 C 319.519531 715.136719 316.886719 716.996094 314.097656 716.996094 Z M 468.59375 713.585938 C 465.804688 713.585938 463.324219 711.726562 462.703125 708.9375 C 461.929688 705.683594 463.789062 702.273438 467.199219 701.5 L 467.820312 701.34375 C 471.074219 700.414062 474.480469 702.429688 475.257812 705.683594 C 476.1875 708.9375 474.171875 712.347656 470.917969 713.121094 L 470.144531 713.277344 C 469.679688 713.433594 469.058594 713.585938 468.59375 713.585938 Z M 283.878906 709.09375 C 283.261719 709.09375 282.640625 708.9375 282.019531 708.78125 L 281.398438 708.628906 C 278.144531 707.542969 276.285156 704.132812 277.371094 700.878906 C 278.457031 697.625 281.710938 695.921875 284.964844 696.851562 L 285.738281 697.007812 C 288.992188 697.9375 290.699219 701.5 289.769531 704.597656 C 288.839844 707.386719 286.359375 709.09375 283.878906 709.09375 Z M 498.5 704.132812 C 496.023438 704.132812 493.695312 702.585938 492.765625 700.105469 C 491.683594 697.007812 493.230469 693.441406 496.488281 692.355469 L 497.105469 692.046875 C 500.207031 690.960938 503.769531 692.511719 505.007812 695.613281 C 506.09375 698.710938 504.542969 702.273438 501.445312 703.515625 L 500.671875 703.824219 C 499.894531 704.132812 499.277344 704.132812 498.5 704.132812 Z M 254.4375 698.402344 C 253.664062 698.402344 252.886719 698.246094 252.113281 697.9375 L 251.339844 697.625 C 248.238281 696.230469 246.84375 692.667969 248.082031 689.566406 C 249.476562 686.46875 253.042969 685.074219 256.140625 686.3125 L 256.761719 686.625 C 259.859375 687.863281 261.410156 691.425781 260.015625 694.683594 C 259.085938 696.851562 256.761719 698.402344 254.4375 698.402344 Z M 527.480469 692.046875 C 525.152344 692.046875 522.984375 690.808594 522.054688 688.636719 C 520.660156 685.539062 521.898438 681.976562 524.84375 680.425781 L 525.617188 680.117188 C 528.71875 678.722656 532.28125 679.960938 533.832031 683.058594 C 535.226562 686.160156 533.988281 689.722656 530.886719 691.117188 L 530.269531 691.425781 C 529.183594 691.890625 528.253906 692.046875 527.480469 692.046875 Z M 226.078125 684.765625 C 225.148438 684.765625 224.066406 684.453125 223.136719 683.988281 L 222.515625 683.679688 C 219.570312 682.128906 218.484375 678.410156 220.035156 675.464844 C 221.585938 672.523438 225.304688 671.4375 228.25 672.988281 L 228.867188 673.296875 C 231.8125 674.847656 232.898438 678.566406 231.347656 681.511719 C 230.417969 683.679688 228.25 684.765625 226.078125 684.765625 Z M 555.0625 677.324219 C 553.046875 677.324219 551.03125 676.242188 549.792969 674.382812 C 548.089844 671.4375 549.019531 667.71875 551.808594 666.015625 L 552.425781 665.550781 C 555.371094 663.84375 559.089844 664.773438 560.796875 667.71875 C 562.5 670.664062 561.570312 674.382812 558.625 676.085938 L 558.007812 676.394531 C 557.230469 677.015625 556.148438 677.324219 555.0625 677.324219 Z M 199.117188 668.648438 C 198.03125 668.648438 196.792969 668.339844 195.707031 667.5625 L 195.085938 667.097656 C 192.296875 665.238281 191.523438 661.519531 193.382812 658.574219 C 195.242188 655.785156 198.960938 655.011719 201.90625 656.871094 L 202.523438 657.335938 C 205.316406 659.195312 206.089844 662.914062 204.230469 665.859375 C 203.144531 667.71875 201.128906 668.648438 199.117188 668.648438 Z M 581.25 659.96875 C 579.390625 659.96875 577.53125 659.039062 576.292969 657.492188 C 574.277344 654.855469 574.898438 650.984375 577.53125 648.96875 L 578.152344 648.503906 C 580.941406 646.488281 584.660156 647.109375 586.671875 649.742188 C 588.6875 652.53125 588.070312 656.25 585.433594 658.265625 L 584.8125 658.730469 C 583.730469 659.660156 582.488281 659.96875 581.25 659.96875 Z M 173.855469 650.207031 C 172.460938 650.207031 171.066406 649.742188 169.984375 648.8125 L 169.363281 648.347656 C 166.730469 646.179688 166.265625 642.460938 168.433594 639.824219 C 170.601562 637.191406 174.320312 636.726562 176.957031 638.894531 L 177.578125 639.359375 C 180.210938 641.53125 180.519531 645.402344 178.507812 647.882812 C 177.421875 649.433594 175.71875 650.207031 173.855469 650.207031 Z M 605.578125 640.289062 C 603.875 640.289062 602.171875 639.671875 601.085938 638.277344 C 598.914062 635.796875 599.070312 631.921875 601.550781 629.753906 L 602.171875 629.289062 C 604.648438 626.964844 608.523438 627.273438 610.847656 629.753906 C 613.171875 632.234375 612.863281 636.105469 610.382812 638.429688 L 609.917969 638.894531 C 608.523438 639.824219 606.972656 640.289062 605.578125 640.289062 Z M 150.457031 629.289062 C 148.910156 629.289062 147.359375 628.667969 146.273438 627.582031 L 145.65625 626.964844 C 143.175781 624.640625 143.175781 620.765625 145.65625 618.285156 C 147.980469 615.804688 151.851562 615.804688 154.332031 618.285156 L 154.796875 618.75 C 157.277344 621.074219 157.277344 624.949219 154.953125 627.429688 C 153.710938 628.824219 152.007812 629.289062 150.457031 629.289062 Z M 628.046875 618.441406 C 626.5 618.441406 625.105469 617.976562 623.863281 616.734375 C 621.386719 614.410156 621.230469 610.539062 623.554688 608.058594 L 624.019531 607.4375 C 626.34375 604.960938 630.21875 604.804688 632.695312 607.128906 C 635.175781 609.453125 635.332031 613.328125 633.007812 615.804688 L 632.542969 616.269531 C 631.300781 617.820312 629.597656 618.441406 628.046875 618.441406 Z M 129.074219 606.507812 C 127.367188 606.507812 125.664062 605.734375 124.425781 604.339844 L 123.960938 603.71875 C 121.789062 601.085938 122.101562 597.367188 124.734375 595.042969 C 127.367188 592.871094 131.089844 593.183594 133.414062 595.816406 L 133.878906 596.4375 C 136.046875 599.070312 135.738281 602.789062 133.101562 605.113281 C 131.863281 606.042969 130.46875 606.507812 129.074219 606.507812 Z M 648.347656 594.578125 C 647.109375 594.578125 645.714844 594.113281 644.628906 593.335938 C 641.996094 591.324219 641.375 587.449219 643.542969 584.8125 L 644.007812 584.195312 C 646.023438 581.558594 649.898438 581.09375 652.53125 583.109375 C 655.167969 585.125 655.632812 589 653.617188 591.632812 L 653.152344 592.253906 C 652.066406 593.800781 650.207031 594.578125 648.347656 594.578125 Z M 110.011719 581.714844 C 108.152344 581.714844 106.140625 580.785156 105.054688 579.082031 L 104.589844 578.460938 C 102.730469 575.671875 103.351562 571.953125 106.140625 569.9375 C 108.929688 568.078125 112.648438 568.699219 114.664062 571.488281 L 115.128906 572.109375 C 116.988281 574.898438 116.367188 578.617188 113.578125 580.628906 C 112.335938 581.25 111.097656 581.714844 110.011719 581.714844 Z M 666.324219 569.007812 C 665.238281 569.007812 664.15625 568.699219 663.070312 568.078125 C 660.28125 566.21875 659.351562 562.5 661.210938 559.710938 L 661.675781 559.089844 C 663.535156 556.300781 667.253906 555.371094 670.042969 557.230469 C 672.832031 559.089844 673.761719 562.808594 671.902344 565.597656 L 671.4375 566.21875 C 670.351562 567.921875 668.339844 569.007812 666.324219 569.007812 Z M 93.121094 555.214844 C 90.953125 555.214844 88.9375 554.132812 87.855469 552.117188 L 87.542969 551.496094 C 85.839844 548.554688 86.925781 544.835938 89.867188 543.128906 C 92.8125 541.425781 96.53125 542.511719 98.234375 545.453125 L 98.546875 546.074219 C 100.25 549.019531 99.167969 552.738281 96.222656 554.441406 C 95.292969 554.90625 94.207031 555.214844 93.121094 555.214844 Z M 681.976562 541.734375 C 681.046875 541.734375 680.117188 541.582031 679.1875 541.117188 C 676.242188 539.566406 675 535.847656 676.550781 532.902344 L 676.859375 532.28125 C 678.410156 529.339844 682.128906 528.097656 685.074219 529.648438 C 688.019531 531.199219 689.257812 534.917969 687.707031 537.859375 L 687.398438 538.480469 C 686.3125 540.496094 684.144531 541.734375 681.976562 541.734375 Z M 79.019531 527.324219 C 76.695312 527.324219 74.527344 525.929688 73.441406 523.757812 L 73.132812 523.140625 C 71.738281 520.039062 73.132812 516.476562 76.230469 515.082031 C 79.332031 513.6875 82.894531 515.082031 84.289062 518.179688 L 84.601562 518.800781 C 85.996094 521.898438 84.601562 525.464844 81.5 526.859375 C 80.726562 527.167969 79.796875 527.324219 79.019531 527.324219 Z M 694.835938 513.222656 C 694.0625 513.222656 693.289062 513.066406 692.667969 512.757812 C 689.566406 511.519531 688.019531 507.953125 689.257812 504.855469 L 689.566406 504.078125 C 690.808594 500.980469 694.371094 499.429688 697.472656 500.671875 C 700.570312 501.910156 702.121094 505.472656 700.878906 508.574219 L 700.570312 509.347656 C 699.484375 511.671875 697.316406 513.222656 694.835938 513.222656 Z M 67.398438 498.191406 C 64.917969 498.191406 62.441406 496.640625 61.664062 494.007812 L 61.355469 493.230469 C 60.269531 489.976562 61.976562 486.570312 65.230469 485.484375 C 68.484375 484.398438 71.894531 486.105469 72.976562 489.359375 L 73.289062 490.132812 C 74.371094 493.386719 72.667969 496.796875 69.570312 497.882812 C 68.792969 498.035156 68.175781 498.191406 67.398438 498.191406 Z M 705.0625 483.625 C 704.445312 483.625 703.980469 483.46875 703.359375 483.316406 C 700.105469 482.386719 698.246094 478.976562 699.175781 475.722656 L 699.332031 474.945312 C 700.261719 471.691406 703.667969 469.832031 706.921875 470.761719 C 710.179688 471.691406 712.039062 475.101562 711.109375 478.355469 L 710.953125 479.128906 C 710.023438 481.765625 707.699219 483.625 705.0625 483.625 Z M 58.722656 467.972656 C 55.933594 467.972656 53.453125 466.113281 52.832031 463.324219 L 52.679688 462.550781 C 51.902344 459.296875 53.917969 456.042969 57.171875 455.265625 C 60.425781 454.492188 63.679688 456.507812 64.453125 459.761719 L 64.609375 460.535156 C 65.382812 463.789062 63.371094 467.042969 60.117188 467.820312 C 59.652344 467.972656 59.1875 467.972656 58.722656 467.972656 Z M 712.347656 453.097656 C 712.039062 453.097656 711.574219 453.097656 711.109375 452.941406 C 707.851562 452.324219 705.683594 449.066406 706.304688 445.8125 L 706.457031 445.039062 C 707.078125 441.785156 710.332031 439.617188 713.585938 440.234375 C 716.839844 440.855469 719.011719 444.109375 718.390625 447.363281 L 718.234375 448.136719 C 717.769531 451.082031 715.136719 453.097656 712.347656 453.097656 Z M 52.832031 437.292969 C 49.886719 437.292969 47.253906 435.121094 46.789062 432.023438 L 46.632812 431.246094 C 46.167969 427.839844 48.492188 424.894531 51.902344 424.429688 C 55.3125 423.964844 58.257812 426.289062 58.722656 429.699219 L 58.875 430.472656 C 59.339844 433.882812 57.015625 436.828125 53.761719 437.445312 C 53.453125 437.292969 53.144531 437.292969 52.832031 437.292969 Z M 716.6875 422.105469 C 716.53125 422.105469 716.222656 422.105469 716.066406 422.105469 C 712.65625 421.796875 710.179688 418.851562 710.644531 415.441406 L 710.644531 414.667969 C 710.953125 411.257812 713.898438 408.777344 717.304688 409.242188 C 720.714844 409.554688 723.195312 412.496094 722.730469 415.90625 L 722.730469 416.679688 C 722.574219 419.78125 719.785156 422.105469 716.6875 422.105469 Z M 50.042969 406.144531 C 46.789062 406.144531 44.15625 403.664062 44 400.253906 L 44 399.480469 C 43.84375 396.070312 46.480469 393.28125 49.734375 393.128906 C 53.144531 392.972656 55.933594 395.605469 56.085938 398.859375 L 56.085938 399.636719 C 56.242188 403.046875 53.609375 405.835938 50.351562 405.988281 C 50.199219 406.144531 50.042969 406.144531 50.042969 406.144531 Z M 718.234375 390.027344 C 714.828125 390.027344 711.882812 388.011719 711.882812 384.605469 L 711.882812 383.984375 C 711.882812 383.984375 711.882812 383.828125 711.882812 383.828125 L 711.882812 383.054688 C 711.882812 379.644531 714.671875 377.011719 718.082031 377.011719 C 721.488281 377.011719 724.28125 379.800781 724.28125 383.054688 L 724.28125 383.675781 C 724.28125 383.675781 724.28125 383.828125 724.28125 383.828125 L 724.28125 384.605469 C 724.28125 388.015625 721.644531 390.027344 718.234375 390.027344 Z M 49.886719 374.6875 C 49.734375 374.6875 49.734375 374.6875 49.578125 374.6875 C 46.167969 374.53125 43.535156 371.742188 43.691406 368.332031 L 43.691406 367.558594 C 43.84375 364.148438 46.789062 361.671875 50.042969 361.824219 C 53.453125 361.980469 56.085938 364.769531 55.777344 368.179688 L 55.777344 368.953125 C 55.933594 372.207031 53.144531 374.6875 49.886719 374.6875 Z M 716.839844 358.726562 C 713.742188 358.726562 711.109375 356.402344 710.796875 353.148438 L 710.796875 352.371094 C 710.488281 348.964844 712.96875 346.019531 716.222656 345.710938 C 719.628906 345.398438 722.574219 347.878906 722.882812 351.132812 L 722.882812 351.90625 C 723.195312 355.316406 720.714844 358.261719 717.304688 358.570312 C 717.152344 358.726562 716.996094 358.726562 716.839844 358.726562 Z M 52.832031 343.539062 C 52.523438 343.539062 52.210938 343.539062 52.058594 343.539062 C 48.648438 343.074219 46.324219 339.976562 46.789062 336.722656 L 46.945312 335.945312 C 47.410156 332.539062 50.507812 330.214844 53.917969 330.832031 C 57.328125 331.296875 59.652344 334.398438 59.03125 337.804688 L 58.875 338.582031 C 58.410156 341.371094 55.777344 343.539062 52.832031 343.539062 Z M 712.503906 327.734375 C 709.558594 327.734375 707.078125 325.71875 706.457031 322.773438 L 706.304688 322 C 705.683594 318.746094 707.851562 315.492188 711.109375 314.871094 C 714.363281 314.253906 717.617188 316.421875 718.234375 319.675781 L 718.390625 320.449219 C 719.011719 323.703125 716.839844 326.957031 713.585938 327.578125 C 713.121094 327.734375 712.8125 327.734375 712.503906 327.734375 Z M 58.566406 312.703125 C 58.101562 312.703125 57.636719 312.703125 57.171875 312.546875 C 53.917969 311.773438 51.902344 308.519531 52.675781 305.265625 L 52.832031 304.488281 C 53.609375 301.234375 56.863281 299.222656 60.117188 299.996094 C 63.371094 300.769531 65.382812 304.023438 64.609375 307.277344 L 64.453125 308.054688 C 63.835938 310.84375 61.355469 312.703125 58.566406 312.703125 Z M 705.21875 297.207031 C 702.585938 297.207031 700.105469 295.5 699.332031 292.710938 L 699.175781 291.9375 C 698.246094 288.683594 700.105469 285.273438 703.359375 284.34375 C 706.613281 283.414062 710.023438 285.273438 710.953125 288.527344 L 711.109375 289.304688 C 712.039062 292.558594 710.179688 295.964844 706.921875 296.898438 C 706.304688 297.207031 705.683594 297.207031 705.21875 297.207031 Z M 67.242188 282.640625 C 66.625 282.640625 66.003906 282.484375 65.230469 282.332031 C 61.976562 281.246094 60.269531 277.835938 61.355469 274.582031 L 61.664062 273.960938 C 62.75 270.707031 66.3125 269.003906 69.414062 270.089844 C 72.667969 271.171875 74.371094 274.582031 73.289062 277.835938 L 72.976562 278.609375 C 72.203125 281.089844 69.722656 282.640625 67.242188 282.640625 Z M 695.148438 267.609375 C 692.667969 267.609375 690.34375 266.058594 689.414062 263.734375 L 689.101562 263.113281 C 687.863281 260.015625 689.414062 256.453125 692.511719 255.210938 C 695.613281 253.972656 699.175781 255.523438 700.414062 258.621094 L 700.726562 259.394531 C 701.964844 262.496094 700.414062 266.058594 697.316406 267.300781 C 696.542969 267.453125 695.921875 267.609375 695.148438 267.609375 Z M 78.710938 253.507812 C 77.9375 253.507812 77.007812 253.351562 76.230469 253.042969 C 73.132812 251.648438 71.738281 248.082031 73.132812 244.984375 L 73.441406 244.210938 C 74.835938 241.109375 78.402344 239.714844 81.5 241.109375 C 84.601562 242.503906 85.996094 246.070312 84.601562 249.167969 L 84.289062 249.789062 C 83.207031 252.113281 81.035156 253.507812 78.710938 253.507812 Z M 682.285156 238.941406 C 680.117188 238.941406 677.945312 237.703125 676.859375 235.53125 L 676.550781 234.910156 C 675 231.96875 676.242188 228.25 679.1875 226.699219 C 682.128906 225.148438 685.847656 226.390625 687.398438 229.332031 L 687.707031 229.953125 C 689.257812 232.898438 688.019531 236.617188 685.074219 238.167969 C 684.144531 238.785156 683.214844 238.941406 682.285156 238.941406 Z M 92.8125 225.460938 C 91.726562 225.460938 90.796875 225.148438 89.867188 224.683594 C 86.925781 222.980469 85.839844 219.261719 87.542969 216.316406 L 87.855469 215.695312 C 89.558594 212.753906 93.277344 211.824219 96.222656 213.371094 C 99.167969 215.078125 100.097656 218.796875 98.546875 221.742188 L 98.234375 222.359375 C 96.996094 224.375 94.980469 225.460938 92.8125 225.460938 Z M 666.789062 211.667969 C 664.773438 211.667969 662.757812 210.582031 661.675781 208.878906 L 661.363281 208.257812 C 659.503906 205.46875 660.433594 201.59375 663.226562 199.890625 C 666.015625 198.03125 669.886719 198.960938 671.59375 201.75 L 672.058594 202.371094 C 673.917969 205.160156 672.988281 209.035156 670.199219 210.738281 C 668.957031 211.511719 667.875 211.667969 666.789062 211.667969 Z M 109.546875 198.960938 C 108.308594 198.960938 107.070312 198.652344 106.140625 197.875 C 103.351562 196.015625 102.730469 192.144531 104.589844 189.351562 L 105.054688 188.734375 C 106.914062 185.945312 110.789062 185.324219 113.578125 187.183594 C 116.367188 189.199219 116.988281 192.917969 115.128906 195.707031 L 114.664062 196.328125 C 113.421875 198.03125 111.40625 198.960938 109.546875 198.960938 Z M 648.8125 186.097656 C 646.953125 186.097656 645.09375 185.324219 644.007812 183.773438 L 643.542969 183.15625 C 641.53125 180.519531 641.996094 176.648438 644.628906 174.632812 C 647.261719 172.617188 651.136719 173.082031 653.152344 175.71875 L 653.617188 176.335938 C 655.632812 178.972656 655.167969 182.84375 652.53125 184.859375 C 651.449219 185.632812 650.207031 186.097656 648.8125 186.097656 Z M 128.609375 174.167969 C 127.214844 174.167969 125.820312 173.703125 124.734375 172.773438 C 122.101562 170.601562 121.789062 166.730469 123.960938 164.25 L 124.425781 163.628906 C 126.59375 160.996094 130.46875 160.839844 133.101562 163.011719 C 135.738281 165.179688 135.890625 169.054688 133.722656 171.6875 L 133.257812 172.308594 C 132.171875 173.390625 130.3125 174.167969 128.609375 174.167969 Z M 628.511719 162.234375 C 626.808594 162.234375 625.257812 161.617188 624.019531 160.222656 L 623.554688 159.757812 C 621.230469 157.277344 621.386719 153.402344 623.863281 151.078125 C 626.34375 148.753906 630.21875 148.910156 632.542969 151.386719 L 633.164062 152.007812 C 635.488281 154.488281 635.332031 158.359375 632.851562 160.6875 C 631.613281 161.617188 630.0625 162.234375 628.511719 162.234375 Z M 149.992188 151.234375 C 148.445312 151.234375 146.894531 150.613281 145.65625 149.375 C 143.328125 146.894531 143.328125 143.175781 145.808594 140.695312 L 146.429688 140.074219 C 148.910156 137.75 152.78125 137.75 155.105469 140.230469 C 157.429688 142.710938 157.429688 146.585938 154.953125 148.910156 L 154.488281 149.375 C 153.09375 150.613281 151.542969 151.234375 149.992188 151.234375 Z M 606.199219 140.230469 C 604.804688 140.230469 603.253906 139.765625 602.171875 138.679688 L 601.703125 138.214844 C 599.226562 136.046875 598.914062 132.171875 601.238281 129.539062 C 603.410156 127.058594 607.285156 126.75 609.917969 129.074219 L 610.539062 129.539062 C 613.015625 131.863281 613.328125 135.582031 611.003906 138.214844 C 609.453125 139.609375 607.902344 140.230469 606.199219 140.230469 Z M 173.390625 130.3125 C 171.6875 130.3125 169.828125 129.539062 168.589844 127.988281 C 166.417969 125.355469 166.882812 121.480469 169.519531 119.464844 L 170.136719 119 C 172.773438 116.832031 176.648438 117.296875 178.660156 119.929688 C 180.832031 122.566406 180.367188 126.4375 177.730469 128.453125 L 177.113281 128.917969 C 176.027344 129.847656 174.789062 130.3125 173.390625 130.3125 Z M 581.871094 120.550781 C 580.628906 120.550781 579.390625 120.242188 578.304688 119.3125 L 577.6875 118.847656 C 574.898438 116.832031 574.433594 113.113281 576.292969 110.324219 C 578.304688 107.535156 582.179688 107.070312 584.8125 108.929688 L 585.433594 109.394531 C 588.222656 111.40625 588.6875 115.28125 586.675781 117.917969 C 585.589844 119.621094 583.730469 120.550781 581.871094 120.550781 Z M 198.652344 111.71875 C 196.636719 111.71875 194.777344 110.789062 193.539062 108.929688 C 191.679688 106.140625 192.453125 102.265625 195.242188 100.40625 L 195.863281 99.941406 C 198.652344 98.082031 202.523438 98.855469 204.382812 101.644531 C 206.246094 104.433594 205.46875 108.308594 202.679688 110.167969 L 202.058594 110.632812 C 200.976562 111.40625 199.734375 111.71875 198.652344 111.71875 Z M 555.679688 103.195312 C 554.597656 103.195312 553.511719 102.886719 552.582031 102.265625 L 551.960938 101.800781 C 549.019531 100.097656 548.089844 96.375 549.792969 93.433594 C 551.496094 90.488281 555.214844 89.558594 558.160156 91.261719 L 558.78125 91.726562 C 561.726562 93.433594 562.65625 97.152344 560.949219 100.097656 C 559.867188 102.109375 557.851562 103.195312 555.679688 103.195312 Z M 225.460938 95.601562 C 223.289062 95.601562 221.121094 94.363281 220.035156 92.347656 C 218.484375 89.402344 219.570312 85.683594 222.515625 84.136719 L 223.136719 83.824219 C 226.078125 82.273438 229.796875 83.359375 231.347656 86.304688 C 232.898438 89.25 231.8125 92.96875 228.867188 94.515625 L 228.25 94.828125 C 227.472656 95.292969 226.390625 95.601562 225.460938 95.601562 Z M 528.097656 88.320312 C 527.167969 88.320312 526.394531 88.164062 525.464844 87.699219 L 524.84375 87.390625 C 521.746094 85.996094 520.503906 82.273438 521.898438 79.175781 C 523.292969 76.078125 527.015625 74.835938 530.113281 76.230469 L 530.734375 76.542969 C 533.832031 77.9375 535.070312 81.65625 533.675781 84.753906 C 532.59375 87.078125 530.421875 88.320312 528.097656 88.320312 Z M 253.664062 81.964844 C 251.339844 81.964844 249.011719 80.570312 248.082031 78.246094 C 246.84375 75.148438 248.238281 71.582031 251.339844 70.1875 L 252.113281 69.878906 C 255.210938 68.640625 258.777344 70.035156 260.171875 73.132812 C 261.410156 76.230469 260.015625 79.796875 256.917969 81.191406 L 256.296875 81.5 C 255.210938 81.808594 254.4375 81.964844 253.664062 81.964844 Z M 499.277344 76.078125 C 498.65625 76.078125 497.882812 75.921875 497.261719 75.765625 L 496.488281 75.457031 C 493.386719 74.371094 491.683594 70.808594 492.921875 67.554688 C 494.007812 64.453125 497.570312 62.75 500.824219 63.988281 L 501.601562 64.300781 C 504.699219 65.382812 506.402344 68.949219 505.320312 72.203125 C 504.078125 74.527344 501.753906 76.078125 499.277344 76.078125 Z M 283.105469 71.117188 C 280.46875 71.117188 278.144531 69.414062 277.214844 66.777344 C 276.132812 63.523438 277.992188 60.117188 281.246094 59.1875 L 282.019531 59.03125 C 285.273438 57.945312 288.683594 59.804688 289.613281 63.058594 C 290.699219 66.3125 288.839844 69.722656 285.585938 70.652344 L 284.808594 70.808594 C 284.34375 71.117188 283.726562 71.117188 283.105469 71.117188 Z M 469.367188 66.777344 C 468.902344 66.777344 468.285156 66.777344 467.820312 66.625 L 467.042969 66.46875 C 463.789062 65.695312 461.773438 62.285156 462.703125 59.03125 C 463.480469 55.777344 466.890625 53.761719 470.144531 54.691406 L 470.917969 54.847656 C 474.171875 55.777344 476.1875 59.03125 475.257812 62.285156 C 474.480469 64.917969 472.003906 66.777344 469.367188 66.777344 Z M 313.324219 63.214844 C 310.53125 63.214844 308.054688 61.199219 307.433594 58.410156 C 306.660156 55.15625 308.828125 51.902344 312.082031 51.128906 L 312.703125 50.972656 C 315.957031 50.199219 319.367188 52.367188 319.984375 55.621094 C 320.761719 58.875 318.589844 62.128906 315.335938 62.90625 L 314.5625 63.058594 C 314.253906 63.058594 313.789062 63.214844 313.324219 63.214844 Z M 438.6875 60.117188 C 438.375 60.117188 438.066406 60.117188 437.757812 59.960938 L 436.980469 59.804688 C 433.726562 59.339844 431.402344 56.085938 431.867188 52.832031 C 432.488281 49.578125 435.585938 47.253906 438.839844 47.71875 L 439.617188 47.875 C 442.871094 48.492188 445.195312 51.59375 444.574219 54.847656 C 444.265625 58.101562 441.628906 60.117188 438.6875 60.117188 Z M 344.316406 58.101562 C 341.214844 58.101562 338.582031 55.777344 338.269531 52.679688 C 337.804688 49.269531 340.285156 46.324219 343.695312 45.859375 L 344.46875 45.703125 C 347.878906 45.238281 350.824219 47.71875 351.289062 51.128906 C 351.753906 54.539062 349.273438 57.480469 345.863281 57.945312 L 345.089844 58.101562 C 344.78125 57.945312 344.46875 58.101562 344.316406 58.101562 Z M 407.539062 56.550781 C 407.382812 56.550781 407.230469 56.550781 407.074219 56.550781 L 406.300781 56.550781 C 402.890625 56.398438 400.410156 53.453125 400.566406 50.042969 C 400.71875 46.632812 403.664062 44.15625 407.074219 44.308594 L 407.847656 44.308594 C 411.257812 44.464844 413.738281 47.410156 413.582031 50.816406 C 413.425781 54.074219 410.792969 56.550781 407.539062 56.550781 Z M 375.460938 55.933594 C 372.207031 55.933594 369.417969 53.296875 369.417969 49.886719 C 369.261719 46.480469 372.050781 43.691406 375.308594 43.535156 L 376.082031 43.535156 C 379.335938 43.378906 382.28125 46.167969 382.28125 49.421875 C 382.433594 52.832031 379.644531 55.621094 376.390625 55.777344 L 375.460938 55.933594 C 375.617188 55.933594 375.617188 55.933594 375.460938 55.933594 Z M 375.460938 55.933594 " fill-opacity="1" fill-rule="nonzero"/><path fill="#ffffff" d="M 284.503906 173.972656 C 391.09375 159.027344 399.707031 349.914062 301.078125 345.292969 C 221.789062 341.582031 191.867188 186.957031 284.503906 173.972656 " fill-opacity="1" fill-rule="evenodd"/><path fill="#ffffff" d="M 455.824219 173.972656 C 573.21875 148.347656 559.515625 356.898438 450.304688 345.292969 C 363.863281 336.105469 380.707031 190.367188 455.824219 173.972656 " fill-opacity="1" fill-rule="evenodd"/><path fill="#ffffff" d="M 245.828125 403.320312 C 204.078125 494.453125 76.855469 430.070312 91.082031 339.761719 C 106.058594 244.640625 276.183594 293.132812 245.828125 403.320312 " fill-opacity="1" fill-rule="evenodd"/><g clip-path="url(#a19078213a)"><path fill="#ffffff" d="M 591.234375 290.03125 C 618.691406 284.710938 653.019531 294.472656 665.835938 317.65625 C 701.183594 381.632812 636.027344 459.820312 571.882812 453.050781 C 536.65625 449.355469 516.304688 419.367188 513.855469 392.269531 C 508.617188 334.226562 550.035156 298.003906 591.234375 290.03125 " fill-opacity="1" fill-rule="evenodd"/></g><g clip-path="url(#ed5e31f79d)"><path fill="#ffffff" d="M 353.585938 375.683594 C 450.40625 358.984375 539.289062 428.753906 519.386719 547.003906 C 515.261719 571.480469 494.191406 606.089844 464.113281 607.796875 C 439.835938 609.183594 411.449219 585.546875 381.226562 585.695312 C 343.691406 585.875 314.109375 619.152344 278.972656 602.277344 C 249.46875 588.089844 237.539062 530.722656 243.0625 488.984375 C 251 428.808594 295.242188 385.746094 353.585938 375.683594 " fill-opacity="1" fill-rule="evenodd"/></g></svg>