<svg width="256" height="256" viewBox="0 0 256 256" fill="none" xmlns="http://www.w3.org/2000/svg">
<circle cx="128" cy="128" r="128" fill="#2CBE29"/>
<path fill-rule="evenodd" clip-rule="evenodd" d="M72 52C66.4772 52 62 56.4772 62 62V195C62 200.523 66.4772 205 72 205H153.5C187.466 205 215 177.466 215 143.5V113.5C215 79.5345 187.466 52 153.5 52H72ZM76.2994 171.181C76.2994 172.705 76.8005 173.707 77.8027 174.188C80.6488 175.671 86.742 177.234 96.0822 178.878C105.462 180.482 114.041 181.283 121.818 181.283C129.595 181.283 136.189 180.862 141.601 180.021C147.012 179.219 151.983 177.916 156.513 176.112C161.043 174.308 164.57 171.763 167.096 168.476C169.661 165.188 170.944 161.1 170.944 156.209C170.944 151.278 168.318 146.187 163.067 140.936C160.742 138.611 158.176 136.326 155.37 134.081C152.564 131.836 149.758 129.712 146.952 127.707C144.146 125.703 141.581 123.819 139.256 122.055C136.931 120.291 135.026 118.568 133.543 116.884C132.1 115.2 131.379 113.817 131.379 112.735C131.379 111.653 131.679 110.43 132.28 109.067C132.882 107.664 133.182 106.622 133.182 105.94C133.182 105.259 132.762 104.658 131.92 104.136C131.078 103.615 129.795 103.355 128.071 103.355C121.818 103.355 115.745 104.317 109.852 106.241C106.565 107.283 103.618 108.586 101.013 110.149C98.4473 111.713 96.3227 113.757 94.6391 116.283C92.9955 118.808 92.1737 121.634 92.1737 124.761C92.1737 129.171 94.6391 133.7 99.5697 138.35C101.734 140.395 104.14 142.439 106.785 144.484C109.431 146.528 112.077 148.472 114.723 150.316C117.368 152.12 119.773 153.844 121.938 155.487C124.143 157.131 125.927 158.734 127.29 160.298C128.653 161.821 129.334 163.204 129.334 164.447C129.334 165.649 128.693 166.852 127.41 168.055C126.127 169.257 124.003 169.859 121.036 169.859C115.063 169.859 108.91 167.974 102.576 164.206C99.9706 162.683 97.5454 161.14 95.3005 159.576C93.0957 158.013 91.1515 156.69 89.4679 155.608C87.7843 154.485 86.5416 153.924 85.7398 153.924C84.3368 153.924 82.4126 156.429 79.9673 161.44C77.5221 166.411 76.2994 169.658 76.2994 171.181ZM157.836 101.37C165.613 104.417 172.127 109.067 177.378 115.321C178.1 115.321 178.641 115.521 179.002 115.922C180.405 115.922 182.088 114.519 184.052 111.713C186.057 108.907 187.76 105.86 189.164 102.573C190.567 99.2859 191.288 96.8607 191.328 95.2973C191.408 93.6938 191.168 92.7317 190.607 92.411C180.585 86.8791 165.733 84.1131 146.05 84.1131C132.741 84.1131 120.275 85.8969 108.649 89.4647C103.558 91.028 98.9885 92.7317 94.9397 94.5757C90.9311 96.3796 87.8444 98.1434 85.6797 99.8672C83.5551 101.591 82.4928 103.074 82.4928 104.317C82.4928 105.84 83.2945 106.602 84.898 106.602C85.6997 106.602 87.0627 106.221 88.9869 105.459C103.298 99.6467 118.17 96.7404 133.603 96.7404C142.022 96.7404 150.099 98.2837 157.836 101.37Z" fill="white"/>
</svg>
