<svg width="70" height="70" viewBox="0 0 70 70" fill="none" xmlns="http://www.w3.org/2000/svg">
<path d="M50 60C50 62.7572 46.1707 65.8588 40.1176 67C37.6471 67 36.4431 67 32.5538 67C18.9931 67 8 63.866 8 60C8 56.134 18.9931 53 32.5538 53C46.1146 53 50 56.134 50 60Z" fill="black"/>
<path d="M68 32.1081C68 49.1842 52.8764 66 35.6964 66C18.5164 66 1 47.995 1 30.9189C1 13.8429 14.9271 0 32.1071 0C49.2871 0 68 15.0321 68 32.1081Z" fill="#F61F7D"/>
<path fill-rule="evenodd" clip-rule="evenodd" d="M55.9616 53.275C61.4174 47.4418 64.8095 39.7244 64.8095 32.1081C64.8095 24.7567 60.7571 17.5462 54.4124 12.0689C48.0735 6.5967 39.8184 3.19355 32.1071 3.19355C16.668 3.19355 4.19048 15.6278 4.19048 30.9189C4.19048 38.4081 8.07407 46.4152 14.1793 52.6225C20.2845 58.8298 28.1857 62.8065 35.6964 62.8065C43.2327 62.8065 50.5086 59.1052 55.9616 53.275ZM35.6964 66C52.8764 66 68 49.1842 68 32.1081C68 15.0321 49.2871 0 32.1071 0C14.9271 0 1 13.8429 1 30.9189C1 47.995 18.5164 66 35.6964 66Z" fill="black"/>
<path d="M70 35.5C70 52.897 55.897 67 38.5 67C21.103 67 7 52.897 7 35.5C7 18.103 21.103 4 38.5 4C55.897 4 70 18.103 70 35.5Z" fill="white"/>
<path fill-rule="evenodd" clip-rule="evenodd" d="M38.5 63.7966C54.1278 63.7966 66.7966 51.1278 66.7966 35.5C66.7966 19.8722 54.1278 7.20339 38.5 7.20339C22.8722 7.20339 10.2034 19.8722 10.2034 35.5C10.2034 51.1278 22.8722 63.7966 38.5 63.7966ZM38.5 67C55.897 67 70 52.897 70 35.5C70 18.103 55.897 4 38.5 4C21.103 4 7 18.103 7 35.5C7 52.897 21.103 67 38.5 67Z" fill="black"/>
<path fill-rule="evenodd" clip-rule="evenodd" d="M8.81771 31L2 25.524L4.18229 23L11 28.476L8.81771 31Z" fill="black"/>
<path d="M17 29H19.8897L20.8023 37.7407L21.962 29.0185H24.2243L25.4411 37.6852L26.3726 29H29.2244L27.3802 44H24.4145L23.1027 34.9444L21.8669 44H18.8631L17 29Z" fill="black"/>
<path d="M31.834 29H38.7541V31.2593H35.237V34.9815H37.9176V37.2778H35.237V41.7593H38.7922V44H31.834V29Z" fill="black"/>
<path d="M42.6945 31.463H40.3371V29H48.455V31.463H46.1166V44H42.6945V31.463Z" fill="black"/>
<path d="M50.7985 29H54.2015V35.0741H56.5779V29H60V44H56.5779V37.4444H54.2015V44H50.7985V29Z" fill="black"/>
</svg>
