<svg id="a" xmlns="http://www.w3.org/2000/svg" viewBox="0 0 32 32"><circle cx="16" cy="16" r="16" style="fill:#fff;"/><path d="m7.91,19.98h.17c2.16,0,3.91,1.75,3.91,3.91v.17c0,2.16,1.75,3.91,3.91,3.91h.17c2.16,0,3.91-1.75,3.91-3.91v-.17c0-2.16-1.75-3.91-3.91-3.91h-.17c-2.16,0-3.91-1.75-3.91-3.91v-.17c0-2.16,1.75-3.91,3.91-3.91h.17c2.16,0,3.91-1.75,3.91-3.91v-.17c0-2.16-1.75-3.91-3.91-3.91h-.17c-2.16,0-3.91,1.75-3.91,3.91v.17c0,2.16-1.75,3.91-3.91,3.91h-.17c-2.16,0-3.91,1.75-3.91,3.91v.17c0,2.16,1.75,3.91,3.91,3.91Z"/><path d="m23.92,19.98h.17c2.16,0,3.91-1.75,3.91-3.91v-.17c0-2.16-1.75-3.91-3.91-3.91h-.17c-2.16,0-3.91,1.75-3.91,3.91v.17c0,2.16,1.75,3.91,3.91,3.91Z"/></svg>