<svg width="410" height="411" viewBox="0 0 410 411" fill="none" xmlns="http://www.w3.org/2000/svg">
<path fill-rule="evenodd" clip-rule="evenodd" d="M404.412 90.6208L334.243 50.0881L274.969 83.9743V42.461L204.908 2.07349L135.066 42.461V84.4102L75.1018 50.0881L5.58594 90.6572V171.396L64.5328 205.609L5.58594 239.822V319.907L75.1018 361.13L134.339 327.062V369.047L204.545 408.926L275.042 369.047L274.896 327.062L334.279 361.13L404.412 319.907V239.822L345.211 205.609L404.412 171.396V90.6208ZM334.243 62.7637L387.959 93.7807L269.557 161.916L239.049 144.229L274.969 123.526V96.6136L334.243 62.7637ZM146.034 55.1002L199.46 86.0083V148.079L192.378 143.974L181.409 137.655L146.034 117.207V55.1002ZM264 117.207L217.148 144.192L210.429 148.079V86.0083L264 55.1002V117.207ZM204.945 76.4925L151.518 45.6208L204.945 14.7127L258.48 45.6208L204.945 76.4925ZM75.1744 62.7637L135.066 97.0494V123.526L170.514 144.011L139.823 161.88L22.0024 93.7807L75.1744 62.7637ZM16.5545 165.076V103.296L128.891 168.236L75.465 199.253L16.5545 165.076ZM69.6538 345.149L16.5545 313.66V252.534L69.6538 283.515V345.149ZM21.9661 242.982L139.86 174.556L193.54 205.028L75.1381 273.999L21.9661 242.982ZM199.061 393.2L145.308 362.692V320.742L199.061 289.834V393.2ZM199.061 277.195L80.6224 345.294V283.515L199.061 214.507V277.195ZM150.828 168.163L181.446 150.33L204.908 163.914L228.117 150.548L258.516 168.163L204.545 198.672L150.828 168.163ZM210.029 393.236V289.834L263.928 320.742L264.037 362.692L210.029 393.236ZM328.758 345.331L210.029 277.159V214.507L328.758 283.515V345.331ZM393.444 313.66L339.727 345.222V283.515L393.444 252.461V313.66ZM387.996 242.982L334.243 273.999L215.55 205.028L269.521 174.556L387.996 242.982ZM393.444 165.076L334.243 199.289L280.526 168.236L393.444 103.26V165.076Z" fill="#0CC2FF"/>
</svg>
