<svg width="70" height="70" viewBox="0 0 70 70" fill="none" xmlns="http://www.w3.org/2000/svg">
<path d="M35 70C54.33 70 70 54.33 70 35C70 15.67 54.33 0 35 0C15.67 0 0 15.67 0 35C0 54.33 15.67 70 35 70Z" fill="#FEC803"/>
<path d="M22.2276 30.0423C16.2363 29.9472 10.1499 30.0423 4.06357 30.0423C3.20767 30.0423 2.92238 30.4227 3.01748 31.1835C3.11258 33.4659 4.82437 35.3678 7.10675 35.9384H19.8501V36.6992H9.19894C9.19894 36.7943 9.29404 36.7943 9.29404 36.8894C9.86464 39.5522 11.3862 41.1689 13.7637 41.9297H19.8501V42.6905H15.4755C15.4755 42.6905 15.4755 42.7856 15.5706 42.7856C16.3314 45.5435 18.5187 47.1602 21.4668 47.2553C26.6021 47.4455 30.8816 43.8317 30.9767 38.7914C31.262 34.3217 27.1727 30.1374 22.2276 30.0423Z" fill="#373737"/>
<path d="M65.7832 30.0423C59.7919 30.0423 53.7056 29.9472 47.6192 30.0423C42.5789 30.1374 38.4896 34.2266 38.7749 38.8865C39.0602 43.9268 43.2446 47.5406 48.2849 47.3504C51.233 47.2553 53.4203 45.6386 54.1811 42.8807C54.1811 42.8807 54.1811 42.7856 54.2762 42.7856H49.9016V42.0248H56.083C58.4605 41.264 59.887 39.6473 60.5527 36.9845C60.5527 36.8894 60.6478 36.8894 60.6478 36.7943H50.0918V36.0335H62.74C65.1175 35.3678 66.7342 33.3708 66.8293 31.2786C66.8293 30.4227 66.544 30.0423 65.7832 30.0423Z" fill="#373737"/>
</svg>
