<svg width="70" height="70" viewBox="0 0 70 70" fill="none" xmlns="http://www.w3.org/2000/svg">
<circle cx="35" cy="35" r="35" fill="#418ACA"/>
<path d="M0.0146172 34.4113C2.49294 43.5599 9.6915 50.8785 17.127 52.3931C23.978 53.7887 32.0131 52.3931 36.6549 47.4311C41.2968 42.4692 38.8958 37.3472 36.6549 34.7862C34.8622 32.7374 31.3194 31.4782 29.7721 31.1047C32.76 30.9447 39.5041 30.8486 42.5773 31.745C46.4189 32.8654 50.1004 37.1871 53.1416 44.8702C55.5749 51.0173 52.475 55.4226 48.351 61.2832C47.3206 62.7475 46.2263 64.3026 45.1384 65.9985C44.2764 67.3421 43.2177 68.3886 42.0131 69.1977C39.617 69.7231 37.1278 70 34.574 70C15.4793 70 0 54.5209 0 35.4264C0 35.0869 0.00489463 34.7485 0.0146172 34.4113Z" fill="#161F42"/>
<path d="M13 62.5C19.4915 67.2102 30.7246 67.6919 38.4135 63.2354C50.3624 56.3098 50.0484 46.6461 47.6901 42.4586C47.3756 45.1966 44.5456 48.0957 42.6589 48.901C44.3884 41.4922 40.9294 34.0834 31.1815 32.4728C23.3831 31.1843 20.3853 33.4391 19.8613 34.7276C19.4201 35.8123 20.2139 37.3558 21 38C15 38 12.6813 33.9223 12 32.4728L13.2578 29.7347C15.8258 28.2852 21.119 25.2572 21.7479 24.7418C22.5339 24.0976 30.7097 22.1649 38.4137 22.0038C46.1178 21.8427 54.2935 26.8356 57.9097 30.379C61.5258 33.9223 62.7836 48.2568 61.5258 53.7328C61.0508 55.801 60.9555 57.7484 60 59.5C53.8326 65.9744 44.4823 70 34.954 70C26.7847 70 18.8589 67.4233 13 62.5Z" fill="#262F71"/>
<path d="M12.1623 29.4723L12 32.4864C15.7333 30.0011 25.5339 26.7967 38 32C36.182 28.8273 33.913 26.1938 32.6145 25.5064C37.4841 25.3477 48.6841 27.1879 54.5275 35.8179C60.3624 44.435 60.6041 54.6719 56.5764 62C59.3971 59.9037 61.8831 57.3992 63.942 54.5767V33.7555L56.8 24.7132L56.4754 23.7613C59.0184 23.8671 64.8835 24.9694 68 27C64.7536 24.0811 58.9643 19.9011 56.4754 18.3676L42.8406 16.6226L41.8667 15.3535L43.6522 14.0844C45.5983 12.8672 48.9443 9.4608 50.6691 3.86534C51.4307 1.39452 52 0 50.6691 0C50 0 49.3633 1.01092 48.5 2.5C48.1236 3.03734 48.2701 2.83262 48.0054 2.7327L40.2435 11.2289L34.7246 11.8635L32.229 14.0844C31.9787 15.565 30.5043 18.5897 26.6087 18.8435C27.1281 19.7319 27.4744 20.6943 27.5826 21.0645L21.9014 26.1409L12.1623 29.4723Z" fill="#161F42"/>
<path fill-rule="evenodd" clip-rule="evenodd" d="M16.7568 23.2644C15.0894 22.8714 15.5276 20.8082 15.9551 19.8258C10.1835 23.5919 8.89683 29.269 10.5 35C18.4539 27.5932 28.5 27 39 30C38.0381 27.5439 34.2319 24.9018 32.3081 23.9193C40.4845 23.5918 48.0196 25.8842 53.3102 31.2877C58.6009 36.6912 63.4105 47.3345 58.7612 58.6327C57.4572 61.8014 55.6153 63.204 52.9999 65C61.0015 60.3627 66.5974 52.7965 68.9999 43.5C67.9394 26.055 54.3283 20.1194 46.4164 19.662C52.8293 19.3346 58.1199 22.1182 59.4025 22.9369C59.4025 22.5439 58.5474 21.2449 58.1199 20.6445C58.3642 20.7693 58.6105 20.8921 58.8617 21.0174C60.9184 22.0434 63.5709 23.2061 67.9999 27C58.2203 15.0468 45.2941 13.7673 43.5306 13.9311C42.248 15.0773 37.759 17.6971 35.9955 18.1884C37.4384 17.2059 38.5606 14.4223 38.7209 13.2761C43.5947 11.9661 47.4852 7.16304 48.8212 4.92523C48.3937 5.14355 47.2821 5.6457 46.2561 5.90769C47.2366 4.86773 48.0748 3.70791 48.7805 2.53728C48.3362 2.34893 47.9533 2.16977 47.4999 2C45.3842 5.23282 41.0748 8.50256 39.0416 9.8375C39.4999 8.5 39.0416 5.90769 37.3174 4.5C36.5158 8.26607 30.2239 11.6387 27.4984 12.6211C24.7729 13.6036 23.4904 15.0773 23.1697 16.8784C22.8491 18.6796 24.292 19.662 26.0555 20.1533C24.6447 20.9392 23.4369 20.0441 23.0094 19.4983C21.6199 20.9174 18.4241 23.6573 16.7568 23.2644ZM33.2701 16.7147C31.6028 18.6796 28.3001 18.9525 26.8572 18.8433C26.5366 16.7147 28.9414 15.241 31.3463 14.9135C33.2701 14.6515 34.9268 13.1669 35.5146 12.4574C35.4612 13.0578 34.9375 14.7498 33.2701 16.7147Z" fill="white"/>
<path d="M15.1647 26.0069C16.4971 26.1157 15.9419 27.5942 15.4978 28.3198C15.4978 28.093 15.3312 27.6395 14.665 27.6395C13.8322 27.6395 13.3325 27.9116 12 29C12.3331 27.7755 13.499 25.8709 15.1647 26.0069Z" fill="#161F42"/>
</svg>
