<svg width="70" height="70" viewBox="0 0 70 70" fill="none" xmlns="http://www.w3.org/2000/svg">
<circle cx="35" cy="35" r="35" fill="#63C0E5"/>
<path fill-rule="evenodd" clip-rule="evenodd" d="M35 0.836282C16.1319 0.836282 0.836282 16.1319 0.836282 35C0.836282 53.8681 16.1319 69.1637 35 69.1637C53.8681 69.1637 69.1637 53.8681 69.1637 35C69.1637 16.1319 53.8681 0.836282 35 0.836282ZM0 35C0 15.67 15.67 0 35 0C54.33 0 70 15.67 70 35C70 54.33 54.33 70 35 70C15.67 70 0 54.33 0 35Z" fill="#122360"/>
<path d="M34.4441 16.7818C34.4441 16.7818 35.3528 13.5533 37.8524 12.0131L39.5422 12.1186C39.5422 12.1186 37.5357 14.7467 38.3849 17.0281" fill="white"/>
<path fill-rule="evenodd" clip-rule="evenodd" d="M37.7616 11.6498L40.2315 11.8041L39.8261 12.3351L39.826 12.3352L39.8259 12.3353L39.8255 12.3358L39.8223 12.3401C39.8193 12.3441 39.8145 12.3506 39.808 12.3595C39.795 12.3772 39.7754 12.4044 39.7505 12.4402C39.7005 12.5119 39.629 12.6181 39.5454 12.753C39.3776 13.0236 39.163 13.4064 38.9743 13.856C38.5916 14.7676 38.3421 15.8898 38.7194 16.9036L38.0504 17.1526C37.5786 15.885 37.9077 14.5525 38.316 13.5797C38.5092 13.1195 38.726 12.7255 38.9021 12.4363L37.9452 12.3765C36.8209 13.102 36.0356 14.1987 35.525 15.1446C35.2641 15.6279 35.0787 16.0649 34.9588 16.3802C34.8989 16.5376 34.8556 16.6643 34.8275 16.7506C34.8134 16.7938 34.8032 16.8268 34.7966 16.8485C34.7933 16.8594 34.7909 16.8674 34.7895 16.8725L34.7879 16.8778L34.7877 16.8787C34.7877 16.8786 34.7877 16.8785 34.4441 16.7818C34.1005 16.6851 34.1006 16.685 34.1006 16.6849L34.1009 16.6837L34.1016 16.6811L34.1041 16.6725C34.1063 16.6653 34.1093 16.655 34.1133 16.6418C34.1212 16.6155 34.133 16.5777 34.1486 16.5295C34.18 16.4333 34.2271 16.2957 34.2915 16.1264C34.4201 15.7882 34.6181 15.3218 34.8968 14.8055C35.4513 13.7783 36.3405 12.5255 37.6651 11.7092L37.7616 11.6498Z" fill="#122360"/>
<path d="M46.1809 17.2314L26.3348 15.9909C25.396 15.9322 24.4575 16.1099 23.605 16.5075C22.7526 16.9052 22.0135 17.5103 21.4553 18.2674L11.1879 32.1924C10.5458 33.0632 10.1684 34.1007 10.101 35.1805C10.0335 36.2603 10.2788 37.3366 10.8074 38.2806L19.261 53.3757C19.7206 54.1964 20.3787 54.8888 21.175 55.3895C21.9712 55.8902 22.8803 56.1833 23.8191 56.242L43.6653 57.4824C44.6041 57.5411 45.5426 57.3635 46.395 56.9658C47.2474 56.5681 47.9865 55.9631 48.5447 55.206L58.8121 41.281C59.4542 40.4102 59.8316 39.3727 59.8991 38.2929C59.9666 37.2131 59.7213 36.1367 59.1926 35.1928L50.739 20.0976C50.2794 19.277 49.6214 18.5846 48.8251 18.0839C48.0288 17.5832 47.1197 17.2901 46.1809 17.2314V17.2314Z" fill="white"/>
<path fill-rule="evenodd" clip-rule="evenodd" d="M23.4541 16.1841C24.3606 15.7612 25.3587 15.5723 26.357 15.6347L46.2032 16.8751L46.1809 17.2321L46.2032 16.8751C47.2015 16.9376 48.1683 17.2492 49.0151 17.7817C49.8619 18.3142 50.5617 19.0505 51.0504 19.9232L59.5041 35.0184C60.0663 36.0222 60.3271 37.1669 60.2553 38.3152C60.1836 39.4635 59.7822 40.5668 59.0994 41.4928L48.832 55.4179C48.2384 56.223 47.4524 56.8664 46.5459 57.2893C45.6394 57.7122 44.6414 57.9011 43.643 57.8387L23.7969 56.5983C22.7985 56.5359 21.8317 56.2242 20.9849 55.6917C20.1382 55.1592 19.4384 54.4229 18.9496 53.5502L10.496 38.455L10.8074 38.2806L10.496 38.455C9.9338 37.4512 9.67295 36.3065 9.74472 35.1582C9.81648 34.0099 10.2178 32.9066 10.9006 31.9806L21.168 18.0555C21.168 18.0555 21.168 18.0555 21.168 18.0555C21.7616 17.2504 22.5476 16.607 23.4541 16.1841ZM26.3125 16.3472C25.4333 16.2922 24.5543 16.4586 23.756 16.831C22.9576 17.2035 22.2654 17.7702 21.7426 18.4792L21.4553 18.2674L21.7426 18.4792L11.4752 32.4043L11.1879 32.1924L11.4752 32.4043C10.8739 33.2198 10.5204 34.1914 10.4572 35.2027C10.394 36.214 10.6237 37.2221 11.1189 38.1062L10.8078 38.2804L11.1189 38.1062L19.5725 53.2013C20.0029 53.97 20.6192 54.6184 21.365 55.0873C22.1107 55.5563 22.9622 55.8308 23.8414 55.8857L43.6876 57.1262L43.6653 57.4824L43.6876 57.1262C44.5668 57.1812 45.4458 57.0148 46.2441 56.6424C47.0424 56.2699 47.7346 55.7033 48.2574 54.9942L48.5447 55.206L48.2574 54.9942L58.5248 41.0691L58.8121 41.281L58.5248 41.0691C59.1262 40.2536 59.4796 39.282 59.5428 38.2707C59.606 37.2594 59.3763 36.2513 58.8812 35.3672L59.1926 35.1928L58.8812 35.3672L50.4276 20.2721C49.9971 19.5035 49.3808 18.855 48.6351 18.3861C47.8893 17.9171 47.0379 17.6426 46.1587 17.5877L26.3125 16.3472L26.3348 15.991L26.3125 16.3472Z" fill="#122360"/>
<path opacity="0.3" d="M43.8324 21.3285L28.1549 20.3486C27.4133 20.3023 26.672 20.4426 25.9986 20.7567C25.3252 21.0709 24.7414 21.5488 24.3004 22.1468L16.1897 33.1469C15.6825 33.8348 15.3844 34.6543 15.3311 35.5073C15.2778 36.3603 15.4715 37.2106 15.8891 37.9562L22.567 49.8806C22.9301 50.5289 23.4499 51.0758 24.0789 51.4714C24.7079 51.8669 25.426 52.0984 26.1676 52.1448L41.8451 53.1246C42.5867 53.171 43.328 53.0307 44.0014 52.7165C44.6748 52.4024 45.2586 51.9245 45.6996 51.3264L53.8103 40.3264C54.3175 39.6385 54.6156 38.819 54.6689 37.966C54.7222 37.113 54.5285 36.2627 54.1109 35.517L47.433 23.5926C47.0699 22.9444 46.5501 22.3974 45.9211 22.0019C45.2921 21.6063 44.574 21.3748 43.8324 21.3285V21.3285Z" fill="#63C0E5"/>
<path d="M43.884 24.2267L27.7429 23.2178C27.0673 23.1756 26.3914 23.2958 25.7718 23.5684C25.1522 23.841 24.6069 24.2581 24.1815 24.7846L16.2873 34.5575C15.1556 35.9585 15.0329 37.9216 15.9813 39.4526L22.5972 50.1324C22.9536 50.7079 23.4428 51.1896 24.0236 51.5372C24.6044 51.8848 25.2601 52.0883 25.9357 52.1305L42.0767 53.1393C42.7523 53.1815 43.4282 53.0613 44.0478 52.7887C44.6674 52.5161 45.2127 52.0991 45.6381 51.5725L53.5323 41.7996C54.664 40.3986 54.7867 38.4355 53.8383 36.9045L47.2224 26.2247C46.866 25.6493 46.3769 25.1676 45.796 24.82C45.2152 24.4724 44.5596 24.269 43.884 24.2267V24.2267Z" fill="white"/>
<path d="M45.3418 39.4082C45.4833 37.1442 44.234 35.2235 42.5514 35.1183C40.8688 35.0132 39.39 36.7633 39.2485 39.0273C39.1069 41.2913 40.3562 43.212 42.0389 43.3172C43.7215 43.4223 45.2002 41.6722 45.3418 39.4082Z" fill="#122360"/>
<path d="M39.6056 12.9394C40.6192 12.9394 41.441 12.1177 41.441 11.104C41.441 10.0904 40.6192 9.26868 39.6056 9.26868C38.592 9.26868 37.7703 10.0904 37.7703 11.104C37.7703 12.1177 38.592 12.9394 39.6056 12.9394Z" fill="#63C0E5"/>
<path fill-rule="evenodd" clip-rule="evenodd" d="M39.6056 9.65558C38.8056 9.65558 38.1571 10.3041 38.1571 11.1041C38.1571 11.904 38.8056 12.5525 39.6056 12.5525C40.4056 12.5525 41.0541 11.904 41.0541 11.1041C41.0541 10.3041 40.4056 9.65558 39.6056 9.65558ZM37.3834 11.1041C37.3834 9.87676 38.3783 8.88184 39.6056 8.88184C40.8329 8.88184 41.8278 9.87676 41.8278 11.1041C41.8278 12.3313 40.8329 13.3263 39.6056 13.3263C38.3783 13.3263 37.3834 12.3313 37.3834 11.1041Z" fill="#122360"/>
<path fill-rule="evenodd" clip-rule="evenodd" d="M19.4865 20.376C19.3133 20.3649 19.1398 20.3928 18.9782 20.4578C18.8165 20.5228 18.6706 20.6233 18.5507 20.7523L12.011 27.788C11.5328 28.3024 11.5801 29.1259 12.1138 29.579L12.6515 30.0354L19.5753 20.3817L19.4865 20.376ZM58.1677 32.96L58.7565 32.576C59.3409 32.1948 59.4876 31.3838 59.0755 30.8121L53.4388 22.9941C53.3354 22.8507 53.2029 22.7323 53.0503 22.6471C52.8978 22.5619 52.729 22.512 52.5558 22.5009L52.4671 22.4952L58.1677 32.96Z" fill="#122360"/>
<path fill-rule="evenodd" clip-rule="evenodd" d="M25.835 20.4062C26.567 20.0647 27.3729 19.9121 28.1791 19.9625L43.8565 20.9424C44.6627 20.9928 45.4433 21.2445 46.1271 21.6744C46.8108 22.1044 47.3759 22.6989 47.7705 23.4036L47.433 23.5927L47.7705 23.4036L54.4485 35.328C54.9024 36.1386 55.113 37.0629 55.0551 37.9901C54.9971 38.9174 54.673 39.8082 54.1217 40.556L46.011 51.5561C45.5316 52.2062 44.897 52.7257 44.165 53.0672C43.433 53.4087 42.6271 53.5612 41.821 53.5108L26.1435 52.531C25.3374 52.4806 24.5567 52.2289 23.873 51.7989C23.1892 51.369 22.6241 50.7744 22.2295 50.0697L15.5515 38.1453L15.8891 37.9563L15.5515 38.1453C15.0976 37.3347 14.887 36.4104 14.945 35.4832C15.0029 34.556 15.327 33.6651 15.8783 32.9173L23.989 21.9173L24.3004 22.1469L23.989 21.9173C24.4684 21.2672 25.1031 20.7476 25.835 20.4062ZM28.1308 20.7348C27.4538 20.6925 26.7769 20.8206 26.1622 21.1073C25.5474 21.3941 25.0144 21.8305 24.6118 22.3765L16.5011 33.3765C16.038 34.0045 15.7659 34.7527 15.7172 35.5315C15.6685 36.3102 15.8454 37.0865 16.2266 37.7673L22.9046 49.6916C23.236 50.2835 23.7106 50.7828 24.2848 51.1439C24.8591 51.505 25.5147 51.7164 26.1918 51.7587L41.8692 52.7386C42.5463 52.7809 43.2231 52.6528 43.8379 52.366C44.4526 52.0792 44.9856 51.6429 45.3882 51.0969L53.4989 40.0968C53.962 39.4688 54.2341 38.7206 54.2828 37.9419C54.3315 37.1631 54.1546 36.3869 53.7734 35.7061L47.0955 23.7817C46.764 23.1899 46.2894 22.6905 45.7152 22.3294C45.1409 21.9683 44.4853 21.7569 43.8083 21.7146L28.1308 20.7348L28.1549 20.3487L28.1308 20.7348Z" fill="#122360"/>
<path fill-rule="evenodd" clip-rule="evenodd" d="M30.2307 36.8252C30.4068 36.7041 30.6476 36.7487 30.7687 36.9248C30.9107 37.1313 30.9915 37.3921 31.0415 37.6328C31.0929 37.8804 31.1186 38.1431 31.1311 38.3778C31.1436 38.6139 31.143 38.8298 31.1394 38.9863C31.1376 39.0648 31.135 39.1289 31.1328 39.1739C31.1317 39.1965 31.1307 39.2142 31.13 39.2266C31.1296 39.2329 31.1293 39.2377 31.1291 39.2412L31.1288 39.2453L31.1287 39.247L31.1287 39.2472C31.1287 39.2473 31.1287 39.2473 30.7427 39.2208L31.1287 39.2473C31.118 39.4036 31.0141 39.538 30.8655 39.5877C30.717 39.6374 30.5532 39.5927 30.4505 39.4743C29.2036 38.0371 27.7363 37.7807 26.5627 37.8806C25.9712 37.9309 25.456 38.0724 25.0881 38.202C24.9047 38.2666 24.7595 38.3277 24.6615 38.372C24.6125 38.394 24.5754 38.4119 24.5515 38.4237C24.5395 38.4297 24.5307 38.4341 24.5254 38.4368C24.5228 38.4382 24.521 38.4391 24.5201 38.4396L24.5195 38.4399L24.5197 38.4398C24.5196 38.4399 24.5195 38.4399 24.5194 38.44C24.3311 38.5402 24.097 38.4691 23.9964 38.2808C23.8957 38.0924 23.9669 37.858 24.1553 37.7573L24.3376 38.0985C24.1553 37.7573 24.1555 37.7572 24.1557 37.7571L24.1561 37.7568L24.1573 37.7562L24.1606 37.7545C24.1632 37.7531 24.1668 37.7512 24.1713 37.7489C24.1802 37.7443 24.1926 37.738 24.2085 37.7302C24.2402 37.7145 24.2855 37.6927 24.3432 37.6667C24.4587 37.6146 24.6244 37.545 24.831 37.4722C25.2431 37.3271 25.824 37.1669 26.4971 37.1096C27.6443 37.012 29.0637 37.2154 30.3504 38.2919C30.3375 38.12 30.3164 37.947 30.2839 37.79C30.2418 37.5874 30.187 37.4445 30.1311 37.3632C30.0101 37.1871 30.0546 36.9462 30.2307 36.8252Z" fill="#122360"/>
</svg>
