<svg width="70" height="70" viewBox="0 0 70 70" fill="none" xmlns="http://www.w3.org/2000/svg">
<circle cx="35" cy="35" r="35" fill="white"/>
<path fill-rule="evenodd" clip-rule="evenodd" d="M2.54506 25.056C4.59609 21.2987 10.2759 16.0712 14.1413 19.3384C14.8425 21.5972 16.2088 26.4971 17.7904 32.1688C20.0521 40.2792 22.7537 49.9677 24.5797 55.7678H26.7885C30.1543 45.6122 36.807 25.8238 37.438 24.3209L37.4474 24.2987C38.237 22.4179 39.5299 19.3384 47.1155 19.3384C51.2964 19.3384 53.1108 24.6476 52.5586 27.4247C52.0064 30.2019 50.0737 35.021 43.2895 34.2042C43.2895 34.2401 43.2894 34.2778 43.2893 34.3168C43.288 34.8462 43.2861 35.637 43.5065 35.9603C43.5632 36.0436 44.026 36.1531 44.709 36.3147C46.875 36.8273 51.2558 37.864 51.9275 40.2485H34.4149C33.0475 45.7211 34.2256 57.0747 46.721 57.0747C59.2165 57.0747 59.3428 47.028 57.8439 42.2089C59.8424 42.4267 64.3757 41.9311 66.5214 38.2065C66.9631 37.5531 67.021 34.3948 66.9947 32.8973C66.311 35.6472 63.5237 40.9673 57.8439 40.2485C57.786 40.1703 57.7277 40.0915 57.669 40.0121C55.8882 37.6032 53.7377 34.6943 51.2175 34.6943C51.5829 34.4644 51.9446 34.2429 52.2996 34.0256C55.8545 31.8494 58.7384 30.0839 57.8439 24.3209C57.134 19.7468 53.9785 17.0513 46.721 17.0513C38 17.0513 35.2037 21.0124 34.4149 23L26 47.5C22.8446 37.4805 18.1388 19.9402 18 19.3382C17 14.9999 6.726 14.0292 3.72835 21.4621C1.33022 27.4084 1.94027 26.3357 2.54506 25.056ZM53.2686 42.6172H40.3313C37.5704 46.6195 40.2525 55.2776 46.3266 55.2776C53.2686 55.2776 54.2152 46.8373 53.2686 42.6172Z" fill="#FF007A"/>
<path fill-rule="evenodd" clip-rule="evenodd" d="M35 67C52.6731 67 67 52.6731 67 35C67 17.3269 52.6731 3 35 3C17.3269 3 3 17.3269 3 35C3 52.6731 17.3269 67 35 67ZM70 35C70 54.33 54.33 70 35 70C15.67 70 0 54.33 0 35C0 15.67 15.67 0 35 0C54.33 0 70 15.67 70 35Z" fill="#FF007A"/>
</svg>
