<svg width="70" height="70" viewBox="0 0 70 70" fill="none" xmlns="http://www.w3.org/2000/svg">
<path fill-rule="evenodd" clip-rule="evenodd" d="M35 1.18004C16.3218 1.18004 1.18004 16.3218 1.18004 35C1.18004 53.6782 16.3218 68.8199 35 68.8199C53.6782 68.8199 68.8199 53.6782 68.8199 35C68.8199 16.3218 53.6782 1.18004 35 1.18004ZM0 35C0 15.67 15.6701 0 35 0C54.3299 0 70 15.67 70 35C70 54.3299 54.3299 70 35 70C15.6701 70 0 54.3299 0 35Z" fill="#231F20"/>
<path d="M35 70C54.33 70 70 54.33 70 35C70 15.67 54.33 0 35 0C15.67 0 0 15.67 0 35C0 54.33 15.67 70 35 70Z" fill="white"/>
<path d="M34.9941 64.7615C51.4341 64.7615 64.7615 51.4341 64.7615 34.9941C64.7615 18.554 51.4341 5.22668 34.9941 5.22668C18.554 5.22668 5.22668 18.554 5.22668 34.9941C5.22668 51.4341 18.554 64.7615 34.9941 64.7615Z" fill="#009F55"/>
<path fill-rule="evenodd" clip-rule="evenodd" d="M34.9941 6.40656C19.2056 6.40656 6.40656 19.2056 6.40656 34.9942C6.40656 50.7826 19.2056 63.5816 34.9941 63.5816C50.7826 63.5816 63.5816 50.7826 63.5816 34.9942C63.5816 19.2056 50.7826 6.40656 34.9941 6.40656ZM4.04688 34.9942C4.04688 17.9024 17.9024 4.04688 34.9941 4.04688C52.0858 4.04688 65.9414 17.9024 65.9414 34.9942C65.9414 52.0858 52.0858 65.9414 34.9941 65.9414C17.9024 65.9414 4.04688 52.0858 4.04688 34.9942Z" fill="#231F20"/>
<path d="M23.4621 48.9524C22.912 48.8761 22.4797 48.7313 22.1654 48.5179C21.9453 48.3654 21.9453 47.5269 22.1654 46.0024C22.3541 44.4778 22.5583 43.6088 22.7783 43.3954C22.967 43.2125 23.6665 42.9152 24.8766 42.5036C26.0555 42.0919 27.022 41.7946 27.7765 41.6117L25.301 39.2106C22.8962 39.8052 21.3403 40.3387 20.6329 40.8114C20.2087 41.162 19.9178 41.4136 19.7607 41.566C19.4934 41.7033 19.1319 41.7643 18.6762 41.7489C18.2204 41.7338 17.906 41.6422 17.7332 41.4745C17.4503 41.2001 17.3559 40.3159 17.4503 38.8218C17.513 37.3279 17.686 36.4741 17.9689 36.2606C19.1477 35.6966 20.1536 35.2849 20.9867 35.0258L17.1438 31.2984C16.075 31.3289 14.7626 31.7175 13.2066 32.4646C12.5464 32.7695 11.8706 33.1354 11.179 33.5623C11.1319 33.5776 11.0926 33.6461 11.0611 33.768C11.0297 33.89 10.9276 34.0349 10.7547 34.2025C10.5503 34.4007 10.1181 34.4846 9.45799 34.4541C8.78214 34.4389 8.38921 34.3474 8.27919 34.1797C8.04343 33.829 7.95698 32.9525 8.01986 31.5499C8.0513 30.1473 8.19275 29.2021 8.44422 28.7143C8.55424 28.4856 9.15936 28.234 10.2596 27.9596C11.4384 27.6395 12.2635 27.2508 12.735 26.7934C13.0965 26.4428 13.4501 25.8863 13.796 25.124C14.126 24.3465 14.3775 23.8586 14.5504 23.6605C14.7075 23.4775 15.0769 23.3022 15.6585 23.1345C16.2243 22.9821 16.5623 22.9591 16.6723 23.066L34.4013 40.2625C34.6057 40.4608 34.4327 41.2382 33.8827 42.5951C33.8041 42.7932 33.3012 43.9671 32.3738 46.1167C30.5663 46.2539 28.8139 46.6275 27.1164 47.2373C26.3934 47.4812 25.7175 47.7708 25.0888 48.1063C25.0417 48.1214 25.0024 48.1443 24.971 48.1748C24.8924 48.251 24.8295 48.3882 24.7823 48.5864C24.7195 48.7694 24.6566 48.8761 24.5937 48.9066C24.358 49.0133 23.9807 49.0286 23.4621 48.9524Z" fill="white"/>
<path d="M45.6009 48.9183C46.1488 48.8423 46.5792 48.6981 46.8923 48.4856C47.1114 48.3337 47.1114 47.4987 46.8923 45.9804C46.7045 44.462 46.501 43.5967 46.2819 43.384C46.094 43.2019 45.3975 42.9058 44.1921 42.4958C43.0181 42.0858 42.0554 41.7899 41.3041 41.6076L43.7695 39.2164C46.1645 39.8085 47.7141 40.3398 48.4184 40.8105C48.8411 41.1597 49.1307 41.4103 49.2873 41.562C49.5534 41.6987 49.9134 41.7595 50.3674 41.7443C50.8212 41.7291 51.1343 41.638 51.3065 41.471C51.5882 41.1976 51.6822 40.3171 51.5882 38.8291C51.5256 37.3411 51.3535 36.491 51.0718 36.2783C49.8977 35.7166 48.896 35.3066 48.0663 35.0486L51.8935 31.3363C52.9579 31.3667 54.265 31.7538 55.8147 32.4978C56.4721 32.8014 57.1452 33.1658 57.8339 33.591C57.8809 33.6062 57.92 33.6744 57.9513 33.796C57.9826 33.9173 58.0843 34.0617 58.2566 34.2286C58.46 34.426 58.8905 34.5096 59.548 34.4792C60.221 34.464 60.6124 34.3729 60.722 34.2059C60.9567 33.8567 61.0428 32.9837 60.9803 31.5867C60.949 30.1899 60.808 29.2486 60.5576 28.7627C60.448 28.535 59.8453 28.2844 58.7496 28.0111C57.5756 27.6923 56.7538 27.3052 56.2842 26.8497C55.9242 26.5005 55.572 25.9463 55.2277 25.1871C54.899 24.4127 54.6484 23.927 54.4763 23.7295C54.3197 23.5474 53.9519 23.3728 53.3727 23.2057C52.8092 23.0539 52.4726 23.0311 52.3632 23.1374L34.7063 40.264C34.5027 40.4613 34.675 41.2357 35.2228 42.5869C35.3011 42.7843 35.802 43.9534 36.7255 46.0942C38.5256 46.2309 40.271 46.6029 41.9616 47.2103C42.6816 47.4532 43.3547 47.7416 43.9808 48.0756C44.0278 48.0908 44.0669 48.1135 44.0982 48.1439C44.1765 48.2199 44.2391 48.3566 44.2861 48.5539C44.3486 48.7362 44.4112 48.8423 44.4739 48.8727C44.7087 48.979 45.0843 48.9942 45.6009 48.9183Z" fill="white"/>
<path fill-rule="evenodd" clip-rule="evenodd" d="M17.634 22.2381C17.4951 22.0986 17.3289 22.0441 17.2099 22.021C17.0871 21.9973 16.9626 21.9966 16.85 22.0045C16.6246 22.0203 16.3562 22.0773 16.0596 22.1601L16.0546 22.1615L16.0496 22.1629C15.742 22.2547 15.4721 22.354 15.2491 22.4635C15.0355 22.5686 14.821 22.7039 14.6669 22.8888C14.5339 23.0472 14.4032 23.2765 14.2751 23.5338C14.1416 23.8017 13.9917 24.1402 13.8253 24.5456C13.4935 25.3016 13.1766 25.7986 12.8906 26.0858C12.5283 26.4496 11.8252 26.8172 10.6811 27.1395C10.1241 27.2836 9.66831 27.4273 9.32814 27.5738C9.15787 27.6471 8.99955 27.7282 8.86683 27.8204C8.74545 27.9048 8.59261 28.0344 8.50128 28.225C8.33658 28.5582 8.22847 28.9976 8.15509 29.5052C8.08021 30.0232 8.03616 30.6523 8.02006 31.3874C7.98846 32.1216 7.99351 32.7375 8.04005 33.2262C8.08419 33.6894 8.17216 34.1284 8.37079 34.4359C8.5555 34.7244 8.88007 34.8337 9.09773 34.8861C9.34945 34.9468 9.65987 34.976 10.0115 34.9845C10.364 35.001 10.6853 34.9878 10.9622 34.9322C11.2348 34.8775 11.519 34.7706 11.7337 34.5551C11.9104 34.3776 12.0911 34.1571 12.1732 33.9005C12.8048 33.5025 13.4198 33.1608 14.0182 32.8747L14.0221 32.8728L14.0261 32.8709C15.4173 32.1795 16.5599 31.818 17.4696 31.741L20.4724 34.7564C19.8104 35.0153 19.0732 35.3467 18.2623 35.7484L18.2096 35.7746L18.1631 35.8108C17.9774 35.9559 17.8657 36.16 17.7929 36.3361C17.7161 36.5223 17.6571 36.7422 17.61 36.9834C17.5156 37.4653 17.4554 38.1031 17.4235 38.8834C17.376 39.6652 17.3743 40.3129 17.4258 40.8139C17.4517 41.065 17.4925 41.2957 17.5554 41.4956C17.6161 41.6885 17.7111 41.898 17.8742 42.0617C18.209 42.3978 18.7152 42.4978 19.2033 42.5147C19.7114 42.5322 20.1853 42.466 20.5752 42.2587L20.6521 42.2178L20.7134 42.1561C20.8493 42.0196 21.1154 41.7802 21.5255 41.4289C21.8173 41.2328 22.3164 40.9989 23.0597 40.7349C23.7447 40.4918 24.6083 40.2331 25.6536 39.9592L27.1889 41.5009C26.6083 41.6779 25.9489 41.9 25.2121 42.1664C24.604 42.3805 24.1132 42.5688 23.7457 42.7306C23.5619 42.8114 23.4012 42.8889 23.2686 42.9632C23.1454 43.0322 23.0097 43.1181 22.9048 43.2236C22.7607 43.3683 22.6717 43.5611 22.6116 43.7198C22.5456 43.8943 22.4867 44.1048 22.4325 44.3429C22.3244 44.8192 22.2238 45.458 22.1291 46.2502C22.0187 47.0431 21.9597 47.6823 21.9597 48.1546C21.9597 48.3891 21.974 48.6076 22.0138 48.7931C22.0469 48.9475 22.1252 49.2213 22.3663 49.3941L22.3686 49.3957L22.3709 49.3973C22.7839 49.6876 23.3112 49.8583 23.911 49.9446C24.4459 50.0257 24.969 50.0361 25.3681 49.8491L25.3752 49.8459L25.3823 49.8422C25.569 49.7486 25.6712 49.59 25.7198 49.5048C25.7774 49.4034 25.8228 49.2888 25.8603 49.1761L25.869 49.15L25.8751 49.123C25.8879 49.0672 25.9004 49.0261 25.911 48.9972C26.5034 48.6712 27.1425 48.3879 27.8289 48.1481L27.8344 48.1463L27.8397 48.1442C29.4822 47.5335 31.1771 47.1594 32.9262 47.022L33.2781 46.9942L33.4145 46.6672C34.3329 44.4631 34.8394 43.2398 34.9244 43.0185C34.9708 42.8999 35.0149 42.7847 35.0566 42.673C35.0973 42.7817 35.1402 42.8938 35.1854 43.0091C35.2699 43.2293 35.7743 44.4477 36.6891 46.6431L36.8248 46.9687L37.1754 46.9963C38.9173 47.1331 40.6054 47.5057 42.2411 48.1141L42.2464 48.1161L42.2519 48.118C42.9357 48.3568 43.5721 48.6388 44.1621 48.9635C44.1725 48.9923 44.185 49.0332 44.1977 49.0888L44.204 49.1156L44.2125 49.1418C44.2499 49.2539 44.295 49.3681 44.3525 49.4691C44.4008 49.554 44.5026 49.7118 44.6886 49.8052L44.6956 49.8087L44.7027 49.8119C45.1002 49.9983 45.6212 49.9879 46.1536 49.9071C46.7512 49.8212 47.2763 49.6511 47.6878 49.3621L47.6899 49.3605L47.6922 49.3588C47.9324 49.1866 48.0103 48.9141 48.0433 48.7602C48.0829 48.5755 48.0972 48.3578 48.0972 48.1243C48.0972 47.654 48.0385 47.0174 47.9285 46.2278C47.8342 45.4388 47.7339 44.8025 47.6262 44.3283C47.5723 44.0911 47.5137 43.8814 47.4479 43.7077C47.388 43.5496 47.2996 43.3575 47.156 43.2133C47.0515 43.1084 46.9164 43.0228 46.7937 42.9542C46.6615 42.8802 46.5015 42.8029 46.3186 42.7223C45.9525 42.5613 45.4637 42.3738 44.858 42.1606C44.1242 41.8953 43.4676 41.674 42.8892 41.4978L44.4184 39.9624C45.4594 40.2351 46.3194 40.4928 47.0017 40.735C47.7419 40.9978 48.239 41.2307 48.5296 41.4261C48.938 41.776 49.2031 42.0144 49.3384 42.1503L49.3995 42.2118L49.4761 42.2525C49.8644 42.459 50.3363 42.525 50.8422 42.5074C51.3285 42.4906 51.8327 42.3911 52.166 42.0563C52.3284 41.8932 52.423 41.6847 52.4835 41.4924C52.5461 41.2934 52.5868 41.0636 52.6125 40.8136C52.6639 40.3148 52.6622 39.6697 52.6149 38.891C52.5832 38.1139 52.5231 37.4787 52.4293 36.9987C52.3822 36.7585 52.3235 36.5394 52.2469 36.354C52.1746 36.1786 52.0633 35.9754 51.8783 35.8308L51.832 35.7948L51.7796 35.7688C50.9719 35.3686 50.2377 35.0386 49.5785 34.7807L52.569 31.7777C53.475 31.8543 54.6129 32.2143 55.9985 32.9029L56.0024 32.9049L56.0064 32.9068C56.6022 33.1917 57.2148 33.5319 57.8438 33.9283C57.9256 34.1839 58.1055 34.4035 58.2816 34.5803C58.4953 34.795 58.7784 34.9014 59.05 34.9559C59.3257 35.0112 59.6455 35.0244 59.9968 35.0079C60.3469 34.9994 60.656 34.9704 60.9068 34.9101C61.1235 34.8578 61.4468 34.7489 61.6307 34.4615C61.8286 34.1553 61.9162 33.7181 61.9601 33.2567C62.0065 32.77 62.0114 32.1568 61.9801 31.4255C61.9639 30.6934 61.9202 30.0668 61.8456 29.551C61.7724 29.0456 61.6649 28.6079 61.5009 28.2761C61.4099 28.0862 61.2576 27.957 61.1367 27.873C61.0046 27.7811 60.8468 27.7004 60.6772 27.6274C60.3385 27.4816 59.8845 27.3383 59.3298 27.1949C58.1904 26.874 57.4902 26.5079 57.1294 26.1455C56.8445 25.8596 56.5288 25.3646 56.1984 24.6116C56.0328 24.2078 55.8834 23.8707 55.7506 23.604C55.6229 23.3476 55.4928 23.1193 55.3602 22.9616C55.2068 22.7774 54.9933 22.6425 54.7804 22.538C54.5583 22.4289 54.2896 22.3301 53.9832 22.2386L53.9782 22.2371L53.9732 22.2358C53.6779 22.1534 53.4106 22.0966 53.1861 22.0809C53.074 22.073 52.9499 22.0736 52.8277 22.0972C52.709 22.1203 52.5437 22.1745 52.4053 22.3135L35.0572 39.7341L17.634 22.2381ZM15.7574 23.5065C15.9018 23.4356 16.1044 23.3581 16.3741 23.2775C16.6311 23.206 16.8087 23.1727 16.9204 23.1637L34.4068 40.7231C34.4043 40.7873 34.3923 40.8878 34.3611 41.0331C34.2849 41.3882 34.1181 41.9045 33.8476 42.5953L33.8468 42.5973L33.846 42.5995C33.7752 42.784 33.3235 43.8764 32.4827 45.8952C30.7538 46.0614 29.0737 46.4476 27.4435 47.0533C26.7097 47.3099 26.0196 47.6148 25.3743 47.9684C25.2735 48.0102 25.1761 48.0716 25.091 48.1571C24.9036 48.3453 24.8108 48.6039 24.7565 48.8275C24.6318 48.8448 24.4184 48.8474 24.082 48.7962L24.0795 48.7958L24.0771 48.7955C23.6548 48.735 23.3501 48.633 23.1373 48.5114C23.1254 48.4372 23.1161 48.3217 23.1161 48.1546C23.1161 47.7622 23.1665 47.1838 23.275 46.4055L23.2758 46.3999L23.2765 46.3943C23.3696 45.6154 23.4646 45.0207 23.5599 44.6011C23.6077 44.3907 23.6526 44.2374 23.6924 44.1325C23.7115 44.082 23.7259 44.0522 23.7338 44.0374C23.7495 44.0264 23.7801 44.0063 23.8317 43.9773C23.9205 43.9276 24.0449 43.8667 24.2098 43.794C24.5391 43.649 24.9997 43.4717 25.5971 43.2613L25.5994 43.2605L25.6017 43.2597C26.7683 42.8379 27.7117 42.5382 28.4374 42.356L29.428 42.1073L26.0051 38.67L25.6861 38.7516C24.4779 39.0609 23.4724 39.357 22.6742 39.6402C21.8861 39.92 21.2634 40.2 20.8465 40.4885L20.8221 40.5054L20.7995 40.5247C20.4312 40.8397 20.1514 41.0876 19.9697 41.2625C19.8211 41.3234 19.5895 41.3662 19.2432 41.3542C19.0479 41.3475 18.9083 41.3243 18.8135 41.2957C18.7437 41.2747 18.7105 41.2545 18.698 41.2455C18.6921 41.235 18.6768 41.2056 18.6581 41.1458C18.6268 41.0466 18.5972 40.8998 18.576 40.6945C18.5337 40.2837 18.5318 39.706 18.578 38.9484L18.5784 38.9425L18.5787 38.9366C18.6095 38.1773 18.6667 37.6054 18.7446 37.2072C18.7835 37.0077 18.8245 36.8695 18.8612 36.7804C18.8687 36.7626 18.8752 36.7483 18.8807 36.737C19.995 36.1893 20.9344 35.7949 21.7036 35.5472L22.6059 35.2566L17.9277 30.5589L17.6783 30.5663C16.4945 30.6013 15.1005 31.0416 13.5171 31.8282C12.8465 32.149 12.1638 32.5314 11.4688 32.9739C11.3067 33.0589 11.2187 33.1928 11.1779 33.2665C11.126 33.3605 11.094 33.4595 11.0725 33.5435C11.07 33.5485 11.0643 33.5588 11.0533 33.5747C11.0284 33.6113 10.9859 33.6637 10.9179 33.7322C10.9178 33.7322 10.9175 33.7324 10.9169 33.7328C10.91 33.7374 10.864 33.7677 10.7354 33.7936C10.5831 33.8242 10.3623 33.8389 10.0594 33.8242L10.0524 33.824L10.0454 33.8238C9.72596 33.8163 9.506 33.7905 9.36759 33.7571C9.3445 33.7515 9.32575 33.7463 9.31083 33.7416C9.27329 33.6455 9.22329 33.4532 9.19113 33.1155C9.15161 32.7007 9.14481 32.1423 9.17558 31.4316L9.17585 31.4253L9.17599 31.419C9.19137 30.7089 9.23346 30.1284 9.29942 29.6721C9.36163 29.2417 9.44076 28.9543 9.51917 28.7792L9.52503 28.775C9.57057 28.7434 9.65223 28.6976 9.78364 28.641C10.0456 28.5283 10.4379 28.4013 10.9752 28.2625L10.9811 28.261L10.9871 28.2593C12.1903 27.921 13.1309 27.4867 13.7083 26.9069C14.1424 26.4709 14.5297 25.8212 14.8864 25.0069L14.8892 25.0006L14.8919 24.9942C15.0536 24.5998 15.1926 24.2875 15.3093 24.0532C15.4314 23.8078 15.512 23.6836 15.5509 23.6374L15.5523 23.6358L15.5535 23.6343C15.5535 23.6343 15.5653 23.6212 15.5988 23.5975C15.634 23.5727 15.6854 23.5418 15.7574 23.5065ZM34.406 40.6643C34.4054 40.6579 34.4047 40.6551 34.4046 40.6552C34.4045 40.6553 34.4046 40.6564 34.4049 40.6584C34.4051 40.6599 34.4055 40.6619 34.406 40.6643ZM23.1558 48.5897C23.1556 48.5901 23.1541 48.5866 23.1515 48.5782C23.1548 48.5851 23.156 48.5894 23.1558 48.5897ZM9.50045 28.7938C9.49845 28.7955 9.49758 28.7964 9.49765 28.7964C9.49768 28.7964 9.49721 28.7967 9.49765 28.7964C9.49812 28.7959 9.49954 28.7947 9.50045 28.7938ZM35.7008 40.7232L53.1159 23.2352C53.2271 23.2442 53.404 23.2774 53.66 23.3486C53.9286 23.429 54.1304 23.506 54.2742 23.5766C54.3459 23.6119 54.3971 23.6427 54.4322 23.6674C54.4656 23.6908 54.4772 23.704 54.4773 23.704L54.4785 23.7054L54.4799 23.707C54.5186 23.753 54.5988 23.8768 54.7205 24.1211C54.8367 24.3545 54.9751 24.6656 55.1362 25.0583L55.1389 25.0648L55.1415 25.0711C55.4969 25.8818 55.8826 26.5291 56.3149 26.9632C56.89 27.5407 57.8268 27.9732 59.0251 28.3101L59.031 28.3119L59.037 28.3134C59.572 28.4515 59.9627 28.5781 60.2236 28.6903C60.3545 28.7467 60.4358 28.7923 60.4812 28.8238L60.4871 28.8279C60.5651 29.0023 60.6439 29.2885 60.7059 29.7172C60.7716 30.1716 60.8135 30.7497 60.8288 31.4569L60.829 31.4632L60.8292 31.4695C60.8599 32.1774 60.8531 32.7335 60.8137 33.1465C60.7817 33.4828 60.7319 33.6744 60.6946 33.7701C60.6796 33.7746 60.6609 33.78 60.638 33.7855C60.5001 33.8187 60.281 33.8446 59.963 33.852L59.9559 33.8521L59.949 33.8525C59.6474 33.867 59.4273 33.8524 59.2757 33.8219C59.1468 33.7961 59.1012 33.7655 59.0948 33.7612C59.0943 33.7609 59.0948 33.7612 59.0948 33.7612C59.0271 33.693 58.9839 33.6404 58.9591 33.6039C58.9483 33.588 58.9425 33.5776 58.94 33.5728C58.9186 33.4892 58.8867 33.3904 58.8351 33.297C58.7944 33.2236 58.7067 33.0903 58.5453 33.0054C57.8532 32.5648 57.1733 32.1841 56.5054 31.8645C54.9284 31.0812 53.5403 30.6426 52.3611 30.6078L52.1128 30.6004L47.4537 35.279L48.3522 35.5683C49.1182 35.8151 50.0539 36.2078 51.1637 36.7533C51.1692 36.7644 51.1757 36.7788 51.183 36.7966C51.2196 36.8853 51.2603 37.0229 51.2993 37.2215C51.3768 37.6181 51.4338 38.1877 51.4645 38.9439L51.4647 38.9498L51.4651 38.9557C51.5111 39.7103 51.5092 40.2856 51.467 40.6946C51.4461 40.8991 51.4164 41.0454 51.3853 41.1442C51.3667 41.2037 51.3514 41.233 51.3456 41.2435C51.3332 41.2524 51.3001 41.2725 51.2305 41.2934C51.1361 41.3218 50.9971 41.3449 50.8026 41.3517C50.4577 41.3637 50.2271 41.3209 50.079 41.2603C49.8981 41.0863 49.6194 40.8393 49.2527 40.5254L49.2302 40.5063L49.2059 40.4895C48.7906 40.2022 48.1706 39.9234 47.3855 39.6448C46.5907 39.3625 45.5893 39.0677 44.386 38.7596L44.0684 38.6784L40.6593 42.1018L41.6459 42.3494C42.3685 42.5308 43.3082 42.8294 44.4702 43.2494L44.4723 43.2502L44.4746 43.251C45.0696 43.4606 45.5283 43.6372 45.8563 43.7815C46.0206 43.8539 46.1444 43.9147 46.2328 43.9642C46.2841 43.993 46.3147 44.013 46.3303 44.0239C46.3381 44.0388 46.3525 44.0683 46.3716 44.1187C46.4111 44.2232 46.4559 44.3758 46.5034 44.5854C46.5984 45.0033 46.693 45.5956 46.7858 46.3712L46.7864 46.3768L46.7872 46.3824C46.8953 47.1575 46.9455 47.7336 46.9455 48.1243C46.9455 48.2907 46.9363 48.4058 46.9244 48.4798C46.7124 48.6008 46.4089 48.7024 45.9884 48.7627L45.986 48.7629L45.9836 48.7633C45.6485 48.8142 45.4361 48.8117 45.3118 48.7947C45.2577 48.5718 45.1653 48.3143 44.9786 48.1268C44.8939 48.0417 44.7969 47.9806 44.6965 47.9391C44.0538 47.5868 43.3666 47.2832 42.6357 47.0276C41.0121 46.4243 39.3388 46.0398 37.6171 45.8742C36.7797 43.8637 36.3297 42.7757 36.2594 42.5918L36.2586 42.5898L36.2578 42.5878C35.9883 41.8997 35.8223 41.3855 35.7463 41.0319C35.7153 40.8871 35.7033 40.787 35.7008 40.7232ZM60.5084 28.8451L60.5056 28.8424C60.5076 28.8442 60.5085 28.8451 60.5084 28.8451ZM46.906 48.5578C46.9057 48.5574 46.9071 48.5532 46.9102 48.5462C46.9078 48.5545 46.9062 48.558 46.906 48.5578Z" fill="#231F20"/>
</svg>
