<svg width="70" height="70" viewBox="0 0 70 70" fill="none" xmlns="http://www.w3.org/2000/svg">
<path d="M59.6392 59.9399C56.3788 63.201 52.4967 65.7717 48.224 67.4989C43.9513 69.2261 39.3754 70.0744 34.7686 69.9935C30.1907 70.0836 25.6425 69.2378 21.4019 67.5078C17.1612 65.7777 13.3173 63.1997 10.1048 59.9313C6.81669 56.7242 4.22329 52.8731 2.48623 48.6179C0.749174 44.3627 -0.0943081 39.7947 0.00836463 35.1986C0.00836463 25.1422 3.37958 16.7627 10.122 10.0604C13.3365 6.79283 17.1823 4.21608 21.4244 2.48752C25.6665 0.758947 30.2158 -0.0851533 34.7945 0.00677779C39.4003 -0.0713788 43.9748 0.779138 48.2459 2.50775C52.517 4.23635 56.3975 6.80774 59.6565 10.069C66.5482 16.7771 69.9941 25.1594 69.9941 35.2159C70.0812 39.832 69.2051 44.4155 67.4221 48.6729C65.639 52.9303 62.9881 56.7679 59.6392 59.9399Z" fill="white"/>
<path d="M30.402 43.8424L31.1895 40.6728C31.1895 40.5764 31.1433 40.4801 31.0509 40.4801H16.1386C16.0443 40.4801 16 40.3837 16 40.2874L23.6872 11.0963C23.6872 11.0491 23.7815 11 23.8258 11H32.1147C37.7176 11 41.2373 12.5607 43.4139 14.7842C44.4837 15.9257 45.3146 17.2778 45.856 18.7581C46.3974 20.2384 46.638 21.8158 46.5629 23.3942C46.5685 25.1634 46.2868 26.9214 45.7292 28.5965C45.2728 30.0339 44.6012 31.3904 43.7383 32.6178C43.6921 32.7141 43.7383 32.8548 43.8327 32.8548H54.8556C54.8837 32.8516 54.9121 32.8579 54.9365 32.8727C54.9608 32.8875 54.9798 32.91 54.9904 32.9368C55.0011 32.9637 55.0029 32.9933 54.9956 33.0212C54.9883 33.0492 54.9722 33.074 54.9499 33.0918L26.0911 61.9611C26.0689 61.9824 26.0404 61.9958 26.01 61.9992C25.9797 62.0025 25.949 61.9957 25.9228 61.9797C25.8966 61.9637 25.8762 61.9394 25.8647 61.9104C25.8532 61.8815 25.8512 61.8496 25.8591 61.8194L30.402 43.8424Z" fill="url(#paint0_radial_1220_3268)"/>
<defs>
<radialGradient id="paint0_radial_1220_3268" cx="0" cy="0" r="1" gradientUnits="userSpaceOnUse" gradientTransform="translate(30.102 44.303) scale(40.1856 41.055)">
<stop stop-color="#41BEF0"/>
<stop offset="1" stop-color="#CD4B64"/>
</radialGradient>
</defs>
</svg>
