<svg width="70" height="70" viewBox="0 0 70 70" fill="none" xmlns="http://www.w3.org/2000/svg">
<circle cx="35" cy="35" r="35" fill="url(#paint0_linear_42_31)"/>
<path fill-rule="evenodd" clip-rule="evenodd" d="M22.024 21.2698C21.4236 18.024 23.8904 15.0254 27.1608 15.0254C30.0468 15.0254 32.3864 17.3875 32.3864 20.3013V26.8056C33.1083 26.7542 33.8418 26.7278 34.5846 26.7278C35.2984 26.7278 36.0035 26.7521 36.6979 26.7997V20.3013C36.6979 17.3875 39.0374 15.0254 41.9235 15.0254C45.1939 15.0254 47.6606 18.024 47.0603 21.2698L45.6462 28.9153C50.4995 31.0546 54.1694 34.7701 54.1694 39.4391V42.2637C54.1694 46.1032 51.6536 49.3178 48.1363 51.4879C44.5917 53.6748 39.7965 54.9749 34.5846 54.9749C29.3729 54.9749 24.5777 53.6748 21.033 51.4879C17.5159 49.3178 15 46.1032 15 42.2637V39.4391C15 34.7948 18.6322 31.0935 23.4446 28.95L22.024 21.2698ZM43.8339 29.9197L45.4888 20.9735C45.9054 18.7207 44.1934 16.6395 41.9235 16.6395C39.9205 16.6395 38.2966 18.2789 38.2966 20.3013V28.5785C37.7718 28.5106 37.2386 28.4567 36.6979 28.4177C36.0048 28.3676 35.2997 28.3419 34.5846 28.3419C33.8405 28.3419 33.1069 28.3698 32.3864 28.424C31.8458 28.4646 31.3125 28.5201 30.7877 28.5897V20.3013C30.7877 18.2789 29.1639 16.6395 27.1608 16.6395C24.8909 16.6395 23.1789 18.7207 23.5956 20.9735L25.2558 29.9494C20.0656 31.8959 16.5988 35.4177 16.5988 39.4391V42.2637C16.5988 48.3925 24.6513 53.3608 34.5846 53.3608C44.5181 53.3608 52.5707 48.3925 52.5707 42.2637V39.4391C52.5707 35.3971 49.0683 31.86 43.8339 29.9197Z" fill="#633001"/>
<path d="M52.5704 42.264C52.5704 48.3928 44.5177 53.3611 34.5843 53.3611C24.651 53.3611 16.5984 48.3928 16.5984 42.264V39.4392H52.5704V42.264Z" fill="#FEDC90"/>
<path fill-rule="evenodd" clip-rule="evenodd" d="M23.5952 20.9731C23.1785 18.7204 24.8906 16.6392 27.1604 16.6392C29.1635 16.6392 30.7873 18.2786 30.7873 20.3009V28.5893C32.0113 28.427 33.2817 28.3416 34.5843 28.3416C35.8569 28.3416 37.0985 28.4231 38.2963 28.5781V20.3009C38.2963 18.2786 39.9201 16.6392 41.9231 16.6392C44.1931 16.6392 45.9051 18.7204 45.4884 20.9731L43.8335 29.9194C49.0679 31.8597 52.5704 35.3969 52.5704 39.4387C52.5704 45.5675 44.5177 50.5358 34.5843 50.5358C24.651 50.5358 16.5984 45.5675 16.5984 39.4387C16.5984 35.4174 20.0652 31.8955 25.2554 29.9491L23.5952 20.9731Z" fill="#D1884F"/>
<path d="M29.589 38.6321C29.589 40.3037 28.6943 41.6587 27.5906 41.6587C26.4869 41.6587 25.5922 40.3037 25.5922 38.6321C25.5922 36.9607 26.4869 35.6057 27.5906 35.6057C28.6943 35.6057 29.589 36.9607 29.589 38.6321Z" fill="#633001"/>
<path d="M43.378 38.6321C43.378 40.3037 42.4833 41.6587 41.3796 41.6587C40.2759 41.6587 39.3812 40.3037 39.3812 38.6321C39.3812 36.9607 40.2759 35.6057 41.3796 35.6057C42.4833 35.6057 43.378 36.9607 43.378 38.6321Z" fill="#633001"/>
<defs>
<linearGradient id="paint0_linear_42_31" x1="35" y1="0" x2="35" y2="70" gradientUnits="userSpaceOnUse">
<stop stop-color="#54DADE"/>
<stop offset="1" stop-color="#24C7D6"/>
</linearGradient>
</defs>
</svg>
