<svg width="70" height="70" viewBox="0 0 70 70" fill="none" xmlns="http://www.w3.org/2000/svg">
<circle cx="35" cy="35" r="35" fill="white"/>
<path d="M17.92 26.42C18.2806 26.5914 18.6169 26.81 18.92 27.07C19.6902 27.6205 20.6133 27.9164 21.56 27.9164C22.5067 27.9164 23.4298 27.6205 24.2 27.07L24.44 26.88C24.8176 27.2811 25.2831 27.5892 25.8 27.78C26.0311 27.8547 26.2766 27.8737 26.5164 27.8355C26.7562 27.7973 26.9836 27.7028 27.18 27.56C28.1491 26.8521 29.1799 26.233 30.26 25.71C31.7666 24.9888 33.3596 24.4645 35 24.15C35.2497 24.1357 35.4927 24.0638 35.71 23.94C36.5133 24.0776 37.3383 24.0123 38.11 23.75C38.1712 23.773 38.2388 23.773 38.3 23.75C39.1446 23.7079 39.9913 23.7414 40.83 23.85C41.1382 23.9067 41.4553 23.892 41.7569 23.8071C42.0586 23.7222 42.3367 23.5692 42.57 23.36C42.8824 23.1086 43.1345 22.7903 43.3075 22.4286C43.4806 22.0669 43.5703 21.6709 43.57 21.27C43.5231 20.6041 43.5231 19.9358 43.57 19.27C43.7533 17.4129 44.6278 15.6925 46.02 14.45C46.4532 14.0774 46.9575 13.7966 47.5024 13.6247C48.0473 13.4528 48.6214 13.3934 49.19 13.45C49.868 13.5238 50.5376 13.6611 51.19 13.86C51.5249 14.1562 51.797 14.5166 51.99 14.92C52.3429 15.5768 52.5602 16.2978 52.6293 17.0402C52.6983 17.7826 52.6176 18.5313 52.3919 19.2419C52.1662 19.9525 51.8002 20.6106 51.3154 21.1771C50.8307 21.7436 50.2372 22.2071 49.57 22.54C48.544 23.0124 47.6894 23.7909 47.1236 24.7685C46.5578 25.7462 46.3085 26.875 46.41 28C46.4124 28.901 46.719 29.7749 47.28 30.48C48.9659 32.7196 50.0627 35.3465 50.47 38.12C50.6599 39.5928 50.68 41.0825 50.53 42.56C50.481 43.236 50.5933 43.9139 50.8575 44.5381C51.1218 45.1622 51.5305 45.7147 52.05 46.15C52.4778 46.5188 52.9692 46.8069 53.5 47C54.3681 47.331 55.1001 47.9437 55.5786 48.7401C56.0572 49.5365 56.2547 50.4705 56.1394 51.3924C56.0242 52.3143 55.6029 53.1709 54.943 53.825C54.2832 54.4791 53.4229 54.8928 52.5 55C51.545 55.1182 50.5782 54.9065 49.76 54.4L36.56 46.78L25.2 40.2L14 33.7C13.9429 33.6691 13.8893 33.6322 13.84 33.59C13.81 33.1304 13.81 32.6695 13.84 32.21C13.9765 30.5424 14.7159 28.9817 15.92 27.82C16.5093 27.2515 17.1842 26.779 17.92 26.42V26.42ZM34.09 27.12C32.1164 27.1081 30.1653 27.5387 28.38 28.38C27.2231 28.9365 26.1842 29.7106 25.32 30.66C25.123 30.857 24.9951 31.1126 24.9555 31.3884C24.9158 31.6642 24.9665 31.9454 25.1 32.19C25.2184 32.4372 25.4064 32.6445 25.6408 32.7866C25.8753 32.9287 26.146 32.9994 26.42 32.99C26.6147 32.9825 26.8054 32.932 26.9783 32.8421C27.1512 32.7521 27.302 32.6251 27.42 32.47C27.9944 31.8601 28.6713 31.3558 29.42 30.98C31.3915 29.9457 33.6629 29.6344 35.84 30.1C36.2431 30.2037 36.6694 30.1685 37.05 30C37.3005 29.8667 37.5068 29.6633 37.6435 29.4146C37.7803 29.166 37.8416 28.8829 37.82 28.6C37.7977 28.3223 37.6894 28.0584 37.5102 27.8451C37.331 27.6319 37.0897 27.4797 36.82 27.41C35.9256 27.2003 35.0085 27.1029 34.09 27.12Z" fill="#E9A93D"/>
<path d="M31.51 55.85C29.756 55.8436 28.0285 55.4219 26.4687 54.6196C24.909 53.8173 23.5614 52.657 22.5362 51.2339C21.511 49.8107 20.8374 48.165 20.5704 46.4314C20.3033 44.6979 20.4506 42.9258 21 41.26C21.06 41.06 21.13 41.06 21.29 41.15C22.19 41.6834 23.09 42.2034 23.99 42.71C24.15 42.8 24.17 42.88 24.13 43.05C23.7645 44.6294 23.9143 46.2842 24.5574 47.7722C25.2005 49.2602 26.3031 50.5033 27.7038 51.3193C29.1045 52.1353 30.7296 52.4815 32.3412 52.3071C33.9529 52.1327 35.4663 51.4468 36.66 50.35C36.6855 50.315 36.718 50.2855 36.7553 50.2634C36.7926 50.2413 36.8341 50.2269 36.8771 50.2213C36.9201 50.2157 36.9638 50.2189 37.0056 50.2307C37.0473 50.2425 37.0863 50.2627 37.12 50.29C37.99 50.81 38.86 51.29 39.74 51.81C39.95 51.93 39.94 51.99 39.74 52.16C38.1205 53.9671 35.9531 55.193 33.57 55.65C32.8914 55.7829 32.2015 55.8499 31.51 55.85Z" fill="#EBE2DB"/>
<path d="M51.25 13.9999C50.5976 13.8011 49.928 13.6638 49.25 13.5899C48.6814 13.5333 48.1073 13.5928 47.5624 13.7647C47.0175 13.9366 46.5132 14.2173 46.08 14.5899C44.6877 15.8325 43.8133 17.5529 43.63 19.4099C43.5831 20.0758 43.5831 20.7441 43.63 21.4099C43.6303 21.8109 43.5406 22.2069 43.3675 22.5686C43.1944 22.9303 42.9424 23.2486 42.63 23.4999C42.3967 23.7092 42.1185 23.8621 41.8169 23.9471C41.5153 24.032 41.1982 24.0467 40.89 23.9899C40.0513 23.8814 39.2046 23.8479 38.36 23.8899C38.2987 23.913 38.2312 23.913 38.17 23.8899C39.1958 23.5025 40.085 22.8218 40.7269 21.9328C41.3688 21.0438 41.735 19.9856 41.78 18.8899C41.78 18.5899 41.78 18.2799 41.78 17.9699C41.7551 16.8912 42.0452 15.8286 42.6148 14.9122C43.1845 13.9957 44.0089 13.2652 44.9872 12.81C45.9655 12.3548 47.0553 12.1947 48.1232 12.3492C49.1911 12.5037 50.1908 12.9661 51 13.6799C51.1204 13.7516 51.2096 13.8657 51.25 13.9999V13.9999Z" fill="#FEFDFE"/>
<path d="M35.23 49.24C34.7139 49.6845 34.1161 50.0242 33.47 50.24C32.3051 50.6545 31.0379 50.6839 29.855 50.3239C28.6722 49.9638 27.6363 49.2333 26.9 48.24C26.4396 47.6434 26.1018 46.9616 25.9062 46.2339C25.7105 45.5062 25.6608 44.747 25.76 44C25.76 43.83 25.76 43.75 26 43.86C29.06 45.64 32.13 47.4 35.19 49.17L35.23 49.24Z" fill="#EBE2DB"/>
<path d="M17.92 26.42C17.163 26.7736 16.4675 27.2463 15.86 27.82C14.656 28.9818 13.9165 30.5424 13.78 32.21C13.75 32.6695 13.75 33.1305 13.78 33.59C13.016 33.0876 12.4398 32.3465 12.1414 31.4822C11.8429 30.6179 11.839 29.6791 12.1302 28.8124C12.4214 27.9456 12.9913 27.1996 13.7511 26.6909C14.5109 26.1821 15.4177 25.9392 16.33 26C16.8854 26.0147 17.4298 26.1585 17.92 26.42V26.42Z" fill="#FEFDFE"/>
<path d="M35.66 23.94C35.4427 24.0639 35.1997 24.1358 34.95 24.15C33.3194 24.4702 31.7366 24.9978 30.24 25.72C29.1599 26.243 28.1291 26.8622 27.16 27.57C26.9636 27.7129 26.7362 27.8073 26.4964 27.8455C26.2565 27.8838 26.0111 27.8648 25.78 27.79C25.2631 27.5993 24.7976 27.2912 24.42 26.89C26.4516 25.4584 28.7789 24.5015 31.23 24.09C32.6921 23.8302 34.1837 23.7797 35.66 23.94V23.94Z" fill="#FEFDFE"/>
<path d="M34.09 27.12C34.9964 27.116 35.8998 27.2235 36.78 27.44C37.0497 27.5098 37.2909 27.6619 37.4701 27.8751C37.6494 28.0884 37.7577 28.3523 37.78 28.63C37.8016 28.9129 37.7402 29.196 37.6035 29.4446C37.4667 29.6933 37.2605 29.8967 37.01 30.03C36.6141 30.1979 36.1721 30.2226 35.76 30.1C33.5829 29.6344 31.3115 29.9457 29.34 30.98C28.5913 31.3558 27.9143 31.8601 27.34 32.47C27.222 32.6251 27.0712 32.7521 26.8983 32.8421C26.7254 32.932 26.5347 32.9825 26.34 32.99C26.066 32.9994 25.7952 32.9287 25.5608 32.7866C25.3263 32.6445 25.1384 32.4372 25.02 32.19C24.8865 31.9454 24.8358 31.6642 24.8754 31.3884C24.9151 31.1126 25.043 30.857 25.24 30.66C26.1042 29.7106 27.1431 28.9365 28.3 28.38C30.1097 27.5269 32.0895 27.0961 34.09 27.12Z" fill="#492504"/>
<path d="M47.89 53.4C48.1647 53.3883 48.4295 53.2942 48.65 53.13C49.5808 52.6057 50.3793 51.8753 50.9842 50.9947C51.5891 50.1142 51.9845 49.1069 52.14 48.05C52.24 47.4441 52.24 46.8259 52.14 46.22C52.7593 46.6722 53.4308 47.0483 54.14 47.34C55.0004 47.8024 55.6722 48.5509 56.0393 49.4562C56.4064 50.3614 56.4456 51.3664 56.1503 52.2975C55.8549 53.2286 55.2436 54.0273 54.4218 54.5554C53.6001 55.0836 52.6197 55.308 51.65 55.19C51.2626 55.1598 50.8834 55.0616 50.53 54.9C49.61 54.46 48.76 53.92 47.89 53.4Z" fill="#E38432"/>
<path d="M50.7 43.7C50.6256 43.4746 50.605 43.2349 50.64 43C50.6432 42.8982 50.6253 42.7967 50.5874 42.7021C50.5496 42.6074 50.4926 42.5216 50.42 42.45C49.6042 41.5692 48.5989 40.8853 47.48 40.45C47.34 40.45 47.22 40.32 47.09 40.26C46.758 39.9979 46.5107 39.6437 46.3791 39.2417C46.2475 38.8397 46.2373 38.4078 46.35 38C46.54 36.79 46.78 35.59 47 34.39C47.2 33.1514 47.2 31.8887 47 30.65L46.79 29.17C48.4558 31.2875 49.6523 33.7349 50.3 36.35C50.7642 38.2564 50.9061 40.2269 50.72 42.18C50.67 42.69 50.7 43.19 50.7 43.7Z" fill="#E38432"/>
<path d="M38.85 17.88C38.8025 15.7984 39.5373 13.7747 40.9091 12.2084C42.281 10.6421 44.1903 9.64718 46.26 9.41998C48.379 9.15941 50.5149 9.74912 52.2 11.06C53.2393 11.8109 54.0808 12.8029 54.6521 13.9508C55.2235 15.0986 55.5076 16.3681 55.48 17.65C55.5264 19.2479 55.0929 20.8231 54.2356 22.1724C53.3783 23.5217 52.1363 24.5832 50.67 25.22C50.1015 25.529 49.6585 26.0267 49.4176 26.6273C49.1766 27.2279 49.1527 27.8937 49.35 28.51C49.5764 28.9096 49.8338 29.2908 50.12 29.65C51.8603 32.2577 52.9508 35.2444 53.3 38.36C53.46 39.7119 53.46 41.078 53.3 42.43C53.2284 42.8585 53.316 43.2983 53.5462 43.6667C53.7765 44.0351 54.1335 44.3066 54.55 44.43C55.5659 44.8311 56.4724 45.4669 57.1955 46.2855C57.9185 47.1042 58.4375 48.0823 58.71 49.14C59.0269 50.3961 58.9891 51.7155 58.6007 52.9513C58.2123 54.1872 57.4885 55.291 56.51 56.14C55.7355 56.8104 54.8204 57.2986 53.8322 57.5686C52.844 57.8386 51.8078 57.8835 50.8 57.7C49.7053 57.4647 48.6642 57.0272 47.73 56.41C46.04 55.41 44.33 54.41 42.64 53.41C42.6101 53.3846 42.5748 53.3663 42.5368 53.3564C42.4988 53.3466 42.4591 53.3455 42.4206 53.3531C42.3821 53.3608 42.3459 53.3772 42.3146 53.4009C42.2833 53.4246 42.2578 53.455 42.24 53.49C40.1523 56.0954 37.1677 57.8284 33.87 58.35C31.8881 58.7169 29.8495 58.638 27.9019 58.1191C25.9543 57.6002 24.1466 56.6543 22.61 55.35C21.4083 54.3276 20.3785 53.1189 19.56 51.77C19.1515 51.0978 18.8162 50.3837 18.56 49.64C18.1092 48.4143 17.8299 47.1321 17.73 45.83C17.5598 43.7661 17.8607 41.6905 18.61 39.76C18.68 39.57 18.61 39.53 18.46 39.47L13.53 36.62C12.762 36.2265 12.0351 35.7575 11.36 35.22C10.8013 34.7255 10.3253 34.1448 9.95 33.5C9.56728 32.8394 9.30964 32.114 9.19 31.36C9.00865 30.3633 9.04963 29.339 9.31 28.36C9.57682 27.2327 10.1318 26.1939 10.9206 25.3455C11.7094 24.4971 12.7051 23.8681 13.81 23.52C14.9107 23.1314 16.0931 23.034 17.2426 23.2373C18.392 23.4405 19.4693 23.9375 20.37 24.68C20.6491 24.9364 21.0042 25.0946 21.3814 25.1307C21.7587 25.1668 22.1374 25.0788 22.46 24.88C22.93 24.54 23.4 24.22 23.89 23.93C25.9437 22.6675 28.2166 21.8025 30.59 21.38C32.4305 21.0422 34.3108 20.9782 36.17 21.19C36.7703 21.2347 37.3669 21.064 37.8526 20.7084C38.3383 20.3528 38.6813 19.8357 38.82 19.25C38.8923 19.0308 38.9262 18.8007 38.92 18.57C38.88 18.35 38.87 18.11 38.85 17.88ZM51.25 14C51.2084 13.88 51.1273 13.7778 51.02 13.71C50.225 12.9512 49.2225 12.4455 48.1398 12.257C47.057 12.0686 45.9427 12.2058 44.938 12.6514C43.9334 13.097 43.0836 13.8308 42.4965 14.7598C41.9093 15.6889 41.6113 16.7713 41.64 17.87C41.64 18.18 41.64 18.49 41.64 18.79C41.595 19.8856 41.2288 20.9438 40.5869 21.8328C39.945 22.7219 39.0558 23.4025 38.03 23.79C37.2583 24.0523 36.4333 24.1177 35.63 23.98C34.1537 23.8197 32.6621 23.8702 31.2 24.13C28.7489 24.5414 26.4216 25.4983 24.39 26.93L24.15 27.12C23.3798 27.6705 22.4567 27.9665 21.51 27.9665C20.5633 27.9665 19.6402 27.6705 18.87 27.12C18.5669 26.86 18.2306 26.6414 17.87 26.47C17.399 26.1984 16.8724 26.0377 16.33 26C15.4035 25.9207 14.4773 26.1557 13.7006 26.6671C12.9239 27.1785 12.342 27.9364 12.0487 28.8188C11.7553 29.7012 11.7675 30.6567 12.0834 31.5313C12.3993 32.4059 13.0005 33.1487 13.79 33.64C13.8393 33.6823 13.8929 33.7191 13.95 33.75L25.2 40.2L36.59 46.78L49.79 54.4C50.6082 54.9065 51.575 55.1182 52.53 55C53.4529 54.8928 54.3132 54.4791 54.973 53.825C55.6329 53.1709 56.0542 52.3143 56.1694 51.3924C56.2847 50.4705 56.0872 49.5365 55.6086 48.7402C55.1301 47.9438 54.3981 47.331 53.53 47C52.9969 46.7978 52.5054 46.4995 52.08 46.12C51.5605 45.6847 51.1518 45.1322 50.8875 44.5081C50.6233 43.884 50.511 43.206 50.56 42.53C50.71 41.0526 50.6899 39.5628 50.5 38.09C50.0927 35.3165 48.9959 32.6896 47.31 30.45C46.7445 29.7569 46.4276 28.8943 46.41 28C46.341 26.8895 46.6122 25.7844 47.1875 24.8321C47.7628 23.8797 48.6149 23.1255 49.63 22.67C50.3038 22.3374 50.9033 21.8719 51.3925 21.3016C51.8816 20.7313 52.2504 20.0679 52.4764 19.3513C52.7025 18.6347 52.7813 17.8799 52.708 17.1321C52.6347 16.3843 52.4109 15.659 52.05 15C51.8503 14.6182 51.5787 14.2786 51.25 14V14ZM31.51 55.85C32.2215 55.8538 32.9317 55.7868 33.63 55.65C36.0131 55.193 38.1805 53.967 39.8 52.16C39.95 51.99 39.96 51.93 39.8 51.81C38.92 51.32 38.05 50.81 37.18 50.29C37.1463 50.2627 37.1074 50.2425 37.0656 50.2307C37.0239 50.2189 36.9802 50.2157 36.9371 50.2213C36.8941 50.2269 36.8527 50.2412 36.8153 50.2633C36.778 50.2854 36.7456 50.3149 36.72 50.35C35.5263 51.4468 34.0129 52.1326 32.4013 52.307C30.7896 52.4814 29.1645 52.1353 27.7638 51.3192C26.3631 50.5032 25.2605 49.2602 24.6174 47.7722C23.9743 46.2841 23.8246 44.6293 24.19 43.05C24.19 42.88 24.19 42.8 24.05 42.71C23.15 42.2033 22.25 41.6833 21.35 41.15C21.19 41.06 21.12 41.06 21.06 41.26C20.5108 42.9249 20.3635 44.6961 20.63 46.4289C20.8965 48.1617 21.5693 49.8068 22.5933 51.2298C23.6174 52.6527 24.9637 53.8131 26.5221 54.6162C28.0805 55.4192 29.8069 55.842 31.56 55.85H31.51ZM35.23 49.24V49.18C32.17 47.41 29.1 45.65 26.04 43.87C25.85 43.76 25.82 43.87 25.8 44.01C25.6981 44.7602 25.7464 45.5231 25.9421 46.2545C26.1379 46.9858 26.4771 47.6709 26.94 48.27C27.6763 49.2633 28.7122 49.9938 29.895 50.3539C31.0779 50.714 32.3451 50.6846 33.51 50.27C34.1443 50.0406 34.7283 49.6908 35.23 49.24V49.24Z" fill="#492504"/>
</svg>
