<svg width="70" height="70" viewBox="0 0 70 70" fill="none" xmlns="http://www.w3.org/2000/svg">
<path d="M69.3 35C69.3 53.9434 53.9434 69.3 35 69.3C16.0566 69.3 0.7 53.9434 0.7 35C0.7 16.0566 16.0566 0.7 35 0.7C53.9434 0.7 69.3 16.0566 69.3 35Z" fill="black" stroke="#44C4E4" stroke-width="1.4"/>
<g filter="url(#filter0_f_1198_3828)">
<circle cx="28" cy="40" r="10" fill="url(#paint0_radial_1198_3828)"/>
</g>
<path d="M58.8062 50.4482C53.2544 56.0301 43.7199 55.5172 37.5648 49.3319C32.7975 44.5948 32.0131 37.5043 35.3924 32.7069C35.6373 32.3351 35.9096 31.9821 36.207 31.6508C35.9007 31.9732 35.5562 32.2569 35.1812 32.4957C32.8494 34.1925 29.9894 35.003 27.1141 34.7818C24.2387 34.5606 21.5363 33.3222 19.4915 31.2888V31.2888C18.1632 29.9681 17.1092 28.3979 16.3899 26.6684C15.6706 24.9389 15.3003 23.0843 15.3003 21.2112C15.3003 19.3381 15.6706 17.4835 16.3899 15.754C17.1092 14.0245 18.1632 12.4543 19.4915 11.1336V11.1336C22.8251 7.80938 27.0148 5.47431 31.5955 4.38774C36.1761 3.30116 40.9683 3.50563 45.4398 4.97842C40.1581 3.03579 34.4307 2.64559 28.9344 3.85393C23.438 5.06227 18.4024 7.81865 14.4225 11.7974L12.1898 14.0301C10.825 15.3922 9.74222 17.01 9.00344 18.791C8.26467 20.5721 7.8844 22.4813 7.8844 24.4095C7.8844 26.3376 8.26467 28.2469 9.00344 30.0279C9.74222 31.8089 10.825 33.4267 12.1898 34.7888V34.7888C13.5581 36.1645 15.1848 37.2562 16.9764 38.0011C18.768 38.7461 20.6891 39.1296 22.6294 39.1296C24.5697 39.1296 26.4909 38.7461 28.2825 38.0011C30.0741 37.2562 31.7008 36.1645 33.0691 34.7888C27.3062 40.5819 27.8191 50.4482 34.2458 56.8448C40.6122 63.2112 50.4182 63.7241 56.151 57.9914L58.3837 55.7586C66.7717 47.3707 68.4915 34.6379 63.8751 23.4138C67.4355 32.8879 65.8062 43.4482 58.8062 50.4482Z" fill="#C5252B"/>
<path d="M63.8751 23.4137C62.0779 19.0628 59.4315 15.1138 56.0906 11.7974L56.8147 12.5215C59.9165 15.6084 62.3236 19.3219 63.8751 23.4137V23.4137Z" fill="#0000FF"/>
<path d="M45.4396 4.97845C40.9682 3.50566 36.176 3.30119 31.5954 4.38776C27.0147 5.47434 22.8249 7.80941 19.4914 11.1336V11.1336C18.1631 12.4543 17.109 14.0245 16.3897 15.754C15.6705 17.4835 15.3002 19.3381 15.3002 21.2112C15.3002 23.0843 15.6705 24.9389 16.3897 26.6684C17.109 28.3979 18.1631 29.9681 19.4914 31.2888V31.2888C21.5362 33.3223 24.2386 34.5607 27.1139 34.7818C29.9892 35.003 32.8493 34.1925 35.181 32.4957C33.9973 33.2621 32.5854 33.5965 31.1837 33.4426C29.7819 33.2887 28.4763 32.6558 27.4871 31.6509C26.3248 30.4906 25.4027 29.1126 24.7736 27.5957C24.1445 26.0787 23.8206 24.4526 23.8206 22.8103C23.8206 21.1681 24.1445 19.542 24.7736 18.025C25.4027 16.5081 26.3248 15.13 27.4871 13.9698L29.6595 11.7974C31.3941 10.0604 33.4541 8.68238 35.7218 7.74218C37.9894 6.80198 40.4202 6.31804 42.875 6.31804C45.3298 6.31804 47.7606 6.80198 50.0282 7.74218C52.2958 8.68238 54.3559 10.0604 56.0905 11.7974V11.7974C53.0753 8.78066 49.4414 6.45414 45.4396 4.97845V4.97845Z" fill="#44C4E4"/>
<path d="M57.5389 39.7069L55.3665 41.8491C50.5087 46.737 42.1208 46.3146 36.6898 40.8836C34.3665 38.5603 33.9139 35.1508 35.3924 32.7069C32.013 37.5043 32.7975 44.5948 37.5648 49.3319C43.7199 55.5172 53.2544 56.0301 58.8061 50.4482C65.8061 43.4482 67.4355 32.8879 63.8751 23.4137C62.0779 19.0628 59.4316 15.1138 56.0906 11.7974V11.7974C64.207 19.9137 64.8406 32.4051 57.5389 39.7069Z" fill="#44C4E4"/>
<path d="M36.2068 31.6508L36.599 31.2887C36.1563 31.7255 35.7525 32.2 35.3922 32.7068C35.6371 32.335 35.9094 31.9821 36.2068 31.6508V31.6508Z" fill="#0000FF"/>
<path d="M29.6596 11.7974L27.4872 13.9698C26.325 15.13 25.4029 16.508 24.7738 18.025C24.1446 19.5419 23.8208 21.1681 23.8208 22.8103C23.8208 24.4525 24.1446 26.0787 24.7738 27.5956C25.4029 29.1126 26.325 30.4906 27.4872 31.6508C28.4764 32.6558 29.7821 33.2887 31.1838 33.4426C32.5856 33.5965 33.9975 33.262 35.1812 32.4956C35.682 32.1276 36.1559 31.7243 36.5993 31.2887C36.1566 31.7255 35.7528 32.2 35.3924 32.7069C33.914 35.1508 34.3665 38.5603 36.6898 40.8836C42.1208 46.3146 50.5088 46.737 55.3665 41.8491L57.539 39.7069C64.8407 32.4051 64.2071 19.9137 56.0907 11.7974C54.356 10.0603 52.296 8.68233 50.0284 7.74213C47.7607 6.80193 45.33 6.31799 42.8752 6.31799C40.4203 6.31799 37.9896 6.80193 35.722 7.74213C33.4543 8.68233 31.3943 10.0603 29.6596 11.7974V11.7974Z" fill="#C7F2F9"/>
<path d="M22.9651 15.5418C24.8362 11.932 25.7294 8.6824 24.9601 8.28363C24.1908 7.88486 22.0503 10.4879 20.1792 14.0977C18.308 17.7076 17.4148 20.9572 18.1841 21.3559C18.9534 21.7547 21.0939 19.1516 22.9651 15.5418Z" fill="#B00E12"/>
<path d="M24.9527 8.26723C24.1683 7.87499 22.0562 10.4698 20.1855 14.0905C18.3148 17.7112 17.4096 20.9698 18.164 21.3621L20.2458 14.3017L24.9527 8.26723Z" fill="#F99651"/>
<path d="M55.2402 49.1043C58.8501 47.2331 61.4531 45.0926 61.0544 44.3233C60.6556 43.554 57.406 44.4472 53.7962 46.3184C50.1863 48.1896 47.5833 50.3301 47.982 51.0994C48.3808 51.8687 51.6304 50.9755 55.2402 49.1043Z" fill="#B00E12"/>
<path d="M47.9741 51.1422C48.3965 51.987 51.6853 51.1723 55.306 49.3016C58.9267 47.431 61.4913 45.2284 61.0387 44.3835L55.1853 49.2413L47.9741 51.1422Z" fill="#F99651"/>
<path d="M21.3621 19.7026L21.8146 13.3362C22.7198 15.0258 26.3707 21.2112 33.7931 22.7198C35.6223 23.0748 37.4964 23.1359 39.3448 22.9008L46.0129 29.5689C45.7305 31.1625 45.6796 32.7885 45.8621 34.3965C46.7974 42.0603 54.9741 46.6767 56.5129 47.5517L50.6896 48.125C48.5172 45.9827 45.0776 43.7198 43.6293 42.5733C39.1034 38.9526 37.3534 38.4698 36.5991 38.2888C34.0948 37.7155 31.2888 37.4741 29.8707 37.8664C30.2026 36.3577 31.0776 34.5172 30.3534 31.7112C30.1724 30.987 29.7198 29.5086 28.0302 26.9741C26.1905 24.225 23.9419 21.7729 21.3621 19.7026Z" fill="black"/>
<path d="M44.2932 19.4009C42.8751 19.9138 41.457 20.3664 40.0992 20.819C39.2343 21.7242 38.3593 22.7199 37.4742 23.8061C34.1335 28.0627 31.5233 32.8447 29.7501 37.9569C34.9988 36.4151 39.9186 33.9194 44.263 30.5949C45.3794 29.75 46.3751 28.875 47.3104 28.0302C47.6725 26.5819 48.0949 25.1337 48.5475 23.6552C49.2414 21.3018 49.9957 19.0388 50.7802 16.9268C48.7285 17.7716 46.5561 18.6164 44.2932 19.4009Z" fill="#841E25"/>
<path d="M44.2932 19.4009C42.8751 19.9138 41.457 20.3664 40.0992 20.819C39.2343 21.7242 38.3593 22.7199 37.4742 23.8061C34.1335 28.0627 31.5233 32.8447 29.7501 37.9569C34.9988 36.4151 39.9186 33.9194 44.263 30.5949C45.3794 29.75 46.3751 28.875 47.3104 28.0302C47.6725 26.5819 48.0949 25.1337 48.5475 23.6552C49.2414 21.3018 49.9957 19.0388 50.7802 16.9268C48.7285 17.7716 46.5561 18.6164 44.2932 19.4009Z" fill="#C2272D"/>
<path d="M50.7802 16.9267C49.9957 19.0387 49.2414 21.3017 48.5475 23.6551C48.0949 25.1336 47.6725 26.5818 47.3104 28.0301C46.3751 28.8749 45.3794 29.7499 44.263 30.5948C39.9186 33.9193 34.9988 36.415 29.7501 37.9568H29.7802L50.7501 16.987C50.742 16.983 50.736 16.976 50.7331 16.9675C50.7303 16.959 50.731 16.9497 50.735 16.9417C50.739 16.9337 50.746 16.9277 50.7545 16.9248C50.763 16.922 50.7722 16.9227 50.7802 16.9267V16.9267Z" fill="#831E24"/>
<path d="M39.5259 21.4224L39.0432 25.0732L29.7501 37.9568C31.5233 32.8447 34.1335 28.0626 37.4742 23.806C38.1682 22.9612 38.832 22.1767 39.5259 21.4224Z" fill="#C2272D"/>
<path d="M39.5259 21.4224C39.0222 22.2175 38.6646 23.0963 38.4699 24.0172C38.3085 24.7398 38.2375 25.4797 38.2587 26.2198C37.4139 27.0043 36.5389 27.8491 35.6639 28.8146C33.2363 31.5414 31.2418 34.6247 29.7501 37.9568C31.5268 32.8462 34.1368 28.0647 37.4742 23.806C38.1682 22.9612 38.832 22.1767 39.5259 21.4224Z" fill="#F8914F"/>
<path d="M40.2801 21.0302L39.2542 28.8146L47.0387 27.7888L41.2758 26.7931L40.2801 21.0302Z" fill="#4A1019"/>
<path d="M41.0647 24.6207V21.0302L49.0905 17.8018C47.4914 18.888 46.1337 19.8535 45.0776 20.6078C43.4884 21.6677 42.1246 23.0315 41.0647 24.6207V24.6207Z" fill="#F8914F"/>
<defs>
<filter id="filter0_f_1198_3828" x="8" y="20" width="40" height="40" filterUnits="userSpaceOnUse" color-interpolation-filters="sRGB">
<feFlood flood-opacity="0" result="BackgroundImageFix"/>
<feBlend mode="normal" in="SourceGraphic" in2="BackgroundImageFix" result="shape"/>
<feGaussianBlur stdDeviation="5" result="effect1_foregroundBlur_1198_3828"/>
</filter>
<radialGradient id="paint0_radial_1198_3828" cx="0" cy="0" r="1" gradientUnits="userSpaceOnUse" gradientTransform="translate(28 40) rotate(90) scale(10)">
<stop stop-color="#E89548"/>
<stop offset="0.50868" stop-color="#E18343"/>
<stop offset="1" stop-color="#731E1D"/>
</radialGradient>
</defs>
</svg>
