<svg width="70" height="70" viewBox="0 0 70 70" fill="none" xmlns="http://www.w3.org/2000/svg">
<path d="M70 35C70 15.67 54.33 0 35 0C15.67 0 0 15.67 0 35C0 54.33 15.67 70 35 70C54.33 70 70 54.33 70 35Z" fill="#3B52FF"/>
<path d="M36.4297 16.3185C35.6867 16.0268 34.8694 15.9825 34.0992 16.1922C32.2845 16.8314 31.4285 18.5084 30.5774 20.1759C30.1628 20.9882 29.7494 21.7982 29.2268 22.4849C26.874 26.6259 24.4885 30.7493 22.1034 34.8721C21.0413 36.708 19.9793 38.5438 18.9203 40.3809C18.6204 41.0829 18.1855 41.7515 17.7495 42.4218C16.8972 43.7321 16.0409 45.0487 16.181 46.633C16.2744 47.3575 16.5811 48.0379 17.062 48.5877C17.543 49.1375 18.1765 49.5319 18.8821 49.7209C19.5877 49.9098 20.3336 49.8847 21.0249 49.6488C21.7162 49.4129 22.3218 48.9768 22.7647 48.3959C24.3727 45.7255 25.9244 43.0196 27.4764 40.3133C29.027 37.6094 30.5778 34.905 32.1853 32.2351C32.517 31.7726 32.954 31.3955 33.4601 31.135C33.9662 30.8745 34.527 30.738 35.0962 30.7367C35.6654 30.7354 36.2267 30.8695 36.734 31.1278C37.2412 31.386 37.6799 31.7612 38.0137 32.2222C39.6353 34.9786 41.2328 37.7492 42.8303 40.5199C44.285 43.043 45.7399 45.5663 47.2132 48.0791C47.59 48.7215 48.1561 49.232 48.834 49.5406C49.5119 49.8492 50.2685 49.9409 51.0005 49.8033C51.5756 49.7046 52.1188 49.4697 52.5845 49.1181C53.0503 48.7666 53.4251 48.3086 53.6776 47.7825C53.93 47.2564 54.0529 46.6776 54.0358 46.0943C54.0188 45.511 53.8623 44.9403 53.5795 44.4299C48.4842 35.5435 43.3656 26.6707 38.2237 17.8114C37.8019 17.1338 37.1727 16.6102 36.4297 16.3185Z" fill="white"/>
<path d="M36.7018 37.7501C35.9536 37.4017 35.1118 37.3086 34.3056 37.4851C33.677 37.6308 33.0928 37.9261 32.6027 38.3459C32.1127 38.7657 31.7313 39.2976 31.4908 39.8964C31.2639 40.3497 30.9858 40.7895 30.7066 41.2309C30.0543 42.2623 29.3967 43.3019 29.3761 44.5404C29.3912 45.4754 29.747 46.3728 30.3769 47.064C31.0068 47.7552 31.8673 48.1928 32.7969 48.2946C33.7252 48.3032 34.6535 48.3003 35.5823 48.2975C36.0469 48.296 36.5117 48.2946 36.9766 48.2946C37.9581 48.3103 38.9069 47.9417 39.6204 47.2675C40.3339 46.5932 40.7555 45.6667 40.7953 44.6859C40.814 43.318 40.0958 42.1789 39.3816 41.0462C39.0426 40.5085 38.7046 39.9723 38.4466 39.4138C38.063 38.6831 37.4499 38.0986 36.7018 37.7501Z" fill="white"/>
</svg>
