<svg width="70" height="70" viewBox="0 0 70 70" fill="none" xmlns="http://www.w3.org/2000/svg">
<path d="M59.6392 59.9399C56.3788 63.201 52.4967 65.7717 48.224 67.4989C43.9513 69.2261 39.3754 70.0744 34.7686 69.9935C30.1907 70.0836 25.6425 69.2378 21.4019 67.5078C17.1612 65.7777 13.3173 63.1997 10.1048 59.9313C6.81669 56.7242 4.22329 52.8731 2.48623 48.6179C0.749174 44.3627 -0.0943081 39.7947 0.00836463 35.1986C0.00836463 25.1422 3.37958 16.7627 10.122 10.0604C13.3365 6.79283 17.1823 4.21609 21.4244 2.48752C25.6665 0.758947 30.2158 -0.0851533 34.7945 0.00677779C39.4003 -0.0713788 43.9748 0.779138 48.2459 2.50775C52.517 4.23635 56.3975 6.80774 59.6565 10.069C66.5482 16.7771 69.9941 25.1594 69.9941 35.2159C70.0812 39.832 69.2051 44.4155 67.4221 48.6729C65.639 52.9303 62.9881 56.7679 59.6392 59.9399Z" fill="#021159"/>
<path d="M26.5 28C29.5376 28 32 25.5376 32 22.5C32 19.4624 29.5376 17 26.5 17C23.4624 17 21 19.4624 21 22.5C21 25.5376 23.4624 28 26.5 28Z" fill="white"/>
<path d="M51.2991 28H43.7007C42.7681 28 42 27.232 42 26.2993V18.7008C42 17.7681 42.7681 17 43.7007 17H51.2991C52.2319 17 53 17.7681 53 18.7008V26.2993C53 27.2594 52.2319 28 51.2991 28Z" fill="#00FFB9"/>
<path d="M31.6595 33H31.3405H23.2595C22.0101 33 21 34.0436 21 35.3345V44.0137V52.6654C21 53.9562 22.0101 55 23.2595 55H29.4C30.6493 55 31.6595 53.9562 31.6595 52.6654V46.3484C31.6595 45.0574 32.6696 44.0137 33.9189 44.0137H39.7405C40.9898 44.0137 42 42.97 42 41.6791V35.3345C42 34.0436 40.9898 33 39.7405 33H31.6595Z" fill="#00DAFF"/>
</svg>
