<svg width="70" height="70" viewBox="0 0 70 70" fill="none" xmlns="http://www.w3.org/2000/svg">
<g clip-path="url(#clip0_1220_3302)">
<path d="M59.6392 59.9399C56.3788 63.201 52.4967 65.7717 48.224 67.4989C43.9513 69.2261 39.3754 70.0744 34.7686 69.9935C30.1907 70.0836 25.6425 69.2378 21.4019 67.5078C17.1612 65.7777 13.3173 63.1997 10.1048 59.9313C6.81669 56.7242 4.22329 52.8731 2.48623 48.6179C0.749174 44.3627 -0.0943081 39.7947 0.00836463 35.1986C0.00836463 25.1422 3.37958 16.7627 10.122 10.0604C13.3365 6.79283 17.1823 4.21608 21.4244 2.48752C25.6665 0.758947 30.2158 -0.0851533 34.7945 0.00677779C39.4003 -0.0713788 43.9748 0.779138 48.2459 2.50775C52.517 4.23635 56.3975 6.80774 59.6565 10.069C66.5482 16.7771 69.9941 25.1594 69.9941 35.2159C70.0812 39.832 69.2051 44.4155 67.4221 48.6729C65.639 52.9303 62.9881 56.7679 59.6392 59.9399Z" fill="white"/>
<path d="M16.1541 34.2364C15.028 33.6068 13.9966 32.8058 13.0939 31.8594C11.6983 30.4416 10.7047 28.6461 10.2233 26.6721C9.55156 23.7597 10.42 20.6933 12.4991 18.6376C13.7302 17.2296 15.5364 16.5355 17.3437 16.7759C19.5936 17.0922 21.5419 18.8454 22.9038 20.5084L20.3608 24.3764C19.7064 23.2943 18.8286 22.3799 17.7921 21.7013C17.2661 21.392 16.6399 21.3304 16.0681 21.532C15.4965 21.7333 15.0329 22.1791 14.7922 22.7586C13.3955 25.5244 15.387 28.38 17.5937 29.8802L16.1541 34.2364Z" fill="#C03A2B"/>
<path d="M49.9889 37.5979C47.9198 39.2519 44.9546 40.2458 41.1703 40.0382C38.4204 39.8844 36.8429 39.2338 35.9378 38.2488C33.4551 35.5645 36.0241 30.4673 33.3863 26.7618C31.3402 24.034 28.1136 22.5807 24.8175 22.903C24.0675 20.978 23.8952 19.4506 24.4126 18.5558C24.4126 18.5468 24.4126 18.5468 24.4211 18.5377V18.5287C24.4861 18.4245 24.5613 18.3276 24.6451 18.2395C26.8349 15.944 35.1534 20.9509 43.2394 29.419C45.6828 31.9627 47.9391 34.697 49.9889 37.5979Z" fill="#BDC3C7"/>
<g filter="url(#filter0_d_1220_3302)">
<path d="M53.6005 49.1574C50.1954 52.2302 33.2391 66.2295 20.6795 53.0617C15.0331 47.1512 14.6279 40.3008 16.1538 34.2365C16.5297 32.7489 17.0108 31.293 17.5933 29.8803C18.384 27.9763 19.3088 26.1365 20.3604 24.3765C21.2571 22.8584 22.1535 21.5387 22.9035 20.5085C23.5242 19.6589 24.0414 18.9993 24.4119 18.5564C23.8947 19.4512 24.0671 20.9785 24.8171 22.9036C26.317 26.7805 30.1359 32.3025 35.3081 37.7252C35.4977 37.9239 35.6873 38.1137 35.8769 38.3124C43.4458 46.0846 51.0918 50.7481 53.6005 49.1574Z" fill="#F3F2F2"/>
</g>
<path d="M49.9889 37.5979C47.9391 34.697 45.6828 31.9627 43.2394 29.419C35.1534 20.9509 26.8349 15.944 24.6451 18.2395C24.5613 18.3276 24.4861 18.4245 24.4211 18.5287V18.5377C24.4126 18.5468 24.4126 18.5468 24.4126 18.5558C23.8952 19.4506 24.0675 20.978 24.8175 22.903C26.3174 26.7799 30.1364 32.302 35.3086 37.7246C35.4982 37.9233 35.6878 38.1131 35.8774 38.3119C43.4461 46.0841 51.0921 50.7476 53.6008 49.1569L49.9889 37.5979Z" fill="#BDC3C7"/>
<path d="M49.327 17.9211C50.3366 16.8624 49.791 14.5739 48.108 12.8094C46.4251 11.045 44.2422 10.4728 43.2326 11.5315C42.2226 12.5902 42.7685 14.8787 44.4515 16.6431C46.1342 18.4076 48.3171 18.9797 49.327 17.9211Z" fill="#4A2B17"/>
<path d="M31.6458 49.2473C29.2407 51.7778 25.9308 52.492 23.8101 51.0914C25.3273 49.4192 24.1721 48.1539 25.7669 46.4908C27.3876 44.783 28.6031 46.0571 30.2322 44.3581C31.8182 42.6862 30.6631 41.43 32.189 39.7581C32.4319 39.9219 32.6573 40.1129 32.8614 40.3275C34.87 42.4423 34.3353 46.4367 31.6458 49.2473Z" fill="#640808"/>
<path d="M32.1878 39.7582C30.6622 41.4301 31.8171 42.6864 30.2311 44.3584C28.6019 46.0574 27.3864 44.783 25.7658 46.4914C24.171 48.1539 25.3261 49.4191 23.809 51.0913C23.5661 50.9273 23.3407 50.7362 23.1367 50.522C21.1195 48.4072 21.6627 44.4125 24.3522 41.6018C26.7573 39.0713 30.0672 38.3573 32.1878 39.7582Z" fill="#9C2222"/>
<path d="M35.9371 38.2489L35.8768 38.312C35.6871 38.1133 35.4976 37.9235 35.3079 37.7247C30.1358 32.3021 26.3168 26.78 24.8169 22.9031C28.1129 22.5809 31.3396 24.0342 33.3856 26.7619C36.0235 30.4675 33.4545 35.5646 35.9371 38.2489Z" fill="#4A2B17"/>
<path d="M49.9889 37.5979C47.9391 34.697 45.6828 31.9627 43.2394 29.419C35.1534 20.9509 26.8349 15.944 24.6451 18.2395C24.5613 18.3276 24.4861 18.4245 24.4211 18.5287V18.5377C24.4126 18.5468 24.4126 18.5468 24.4126 18.5558C23.8952 19.4506 24.0675 20.978 24.8175 22.903C26.3174 26.7799 30.1364 32.302 35.3086 37.7246C35.4982 37.9233 35.6878 38.1131 35.8774 38.3119C43.4461 46.0841 51.0921 50.7476 53.6008 49.1569C54.4878 48.4838 53.1958 46.1838 53.1958 46.1838L49.9889 37.5979ZM37.0845 37.0196L36.5241 36.4502C35.9121 35.8085 35.3258 35.1668 34.7398 34.5162C31.076 30.3861 28.1277 26.1475 26.7054 22.939C26.6021 22.6951 26.4986 22.4601 26.4125 22.225C26.0257 21.4152 25.8333 20.5186 25.8522 19.6131L25.9727 19.5048C26.047 19.4924 26.1218 19.4864 26.197 19.4866C28.6796 19.4866 35.0671 23.418 42.0238 30.7024C44.337 33.115 46.4808 35.7005 48.437 38.4386L48.4892 38.5921L51.2646 47.4762C48.8854 46.7982 44.7737 44.2224 40.11 39.9478C39.1188 39.0529 38.1101 38.0679 37.0845 37.0196Z" fill="#ECF0F1"/>
<path d="M59.9702 34.191C59.8508 37.976 58.8533 41.6735 57.065 44.9638C56.163 46.5434 54.5638 47.5416 52.8091 47.6201H52.7791C52.2192 47.6544 51.6573 47.5905 51.1173 47.431C50.0679 47.0752 49.0567 46.6057 48.1002 46.0301C47.4706 45.66 46.7981 45.2351 46.083 44.7469C43.9862 43.297 41.99 41.6934 40.1089 39.948C40.4453 39.984 40.7985 40.0203 41.1693 40.0385C44.9534 40.2461 47.9189 39.2522 49.9877 37.5982C53.5102 34.9309 54.4598 29.859 52.1602 25.9939C48.5653 19.6767 60.6772 19.5863 59.9702 34.191Z" fill="#4A2B17"/>
<path d="M53.7655 42.0178C52.2785 43.8908 50.3144 45.2823 48.1021 46.0304C47.4728 45.6599 46.8004 45.2353 46.0849 44.7468C48.5629 44.2486 50.8045 42.8772 52.4379 40.8609C52.7425 40.4767 53.2868 40.424 53.6536 40.7434C54.0201 41.0628 54.07 41.6333 53.7655 42.0178Z" fill="#805333"/>
</g>
<defs>
<filter id="filter0_d_1220_3302" x="11.39" y="18.5564" width="46.2105" height="48.054" filterUnits="userSpaceOnUse" color-interpolation-filters="sRGB">
<feFlood flood-opacity="0" result="BackgroundImageFix"/>
<feColorMatrix in="SourceAlpha" type="matrix" values="0 0 0 0 0 0 0 0 0 0 0 0 0 0 0 0 0 0 127 0" result="hardAlpha"/>
<feOffset dy="4"/>
<feGaussianBlur stdDeviation="2"/>
<feColorMatrix type="matrix" values="0 0 0 0 0 0 0 0 0 0 0 0 0 0 0 0 0 0 0.25 0"/>
<feBlend mode="normal" in2="BackgroundImageFix" result="effect1_dropShadow_1220_3302"/>
<feBlend mode="normal" in="SourceGraphic" in2="effect1_dropShadow_1220_3302" result="shape"/>
</filter>
<clipPath id="clip0_1220_3302">
<rect width="69.9576" height="70" fill="white"/>
</clipPath>
</defs>
</svg>
