<svg width="70" height="70" viewBox="0 0 70 70" fill="none" xmlns="http://www.w3.org/2000/svg">
<circle cx="35" cy="35" r="35" fill="white"/>
<path d="M24.1913 36.4121C23.0639 36.1282 21.9525 35.7848 20.8617 35.3832L20.7265 35.33L20.8225 35.2946C21.9223 35.7333 23.0472 36.1064 24.1913 36.4121V36.4121Z" fill="#FFC31A"/>
<path d="M49.37 34.6737C49.2881 34.7056 49.2028 34.7376 49.1209 34.7624L49.5478 34.9008C49.4825 34.83 49.423 34.7541 49.37 34.6737V34.6737ZM20.8261 35.2945L20.73 35.33L20.8652 35.3832C21.956 35.7847 23.0675 36.1282 24.1949 36.412C23.0507 36.1064 21.9258 35.7332 20.8261 35.2945V35.2945Z" fill="#FFC31A"/>
<path d="M49.37 34.6738C49.2881 34.7057 49.2028 34.7376 49.1209 34.7625L49.5478 34.9008C49.4825 34.8301 49.423 34.7541 49.37 34.6738V34.6738ZM57.5802 27.6743H57.4664C57.4622 27.7647 57.4527 27.8547 57.4379 27.944H57.6158C57.598 27.8446 57.5873 27.7524 57.5802 27.6637V27.6743Z" fill="#FCCD35"/>
<path d="M37.9012 27.9333L37.1897 26.5142H57.3561C56.8652 24.4566 54.7095 22.4522 51.2874 20.909C47.1502 19.0324 41.6293 18 35.7668 18C29.9044 18 24.3834 19.0324 20.2463 20.909C16.4079 22.6403 14.1597 24.9533 14.0672 27.2522C14.0672 27.3125 14.0672 27.355 14.0672 27.4012C14.0678 27.5792 14.0809 27.757 14.1063 27.9333C14.4229 30.2676 16.913 32.5452 20.9968 34.2196C21.4546 34.4089 21.9289 34.5862 22.4198 34.7518C26.2368 36.0928 30.9111 36.8023 35.7668 36.8023C37.8859 36.8046 40.0027 36.6624 42.1024 36.3766L40.4767 33.1128L37.9012 27.9333ZM35.8557 31.4809C35.8557 31.8711 35.2581 32.1904 34.5217 32.1904C33.7854 32.1904 33.1878 31.8711 33.1878 31.4809C33.1878 31.0907 33.7854 30.7714 34.5217 30.7714C35.2581 30.7714 35.8557 31.0907 35.8557 31.4809ZM43.415 21.9024C44.8878 21.9024 46.083 22.5374 46.083 23.3214C46.083 24.1054 44.8878 24.7404 43.415 24.7404C41.9423 24.7404 40.747 24.1054 40.747 23.3214C40.747 22.5374 41.9423 21.9024 43.415 21.9024ZM35.9447 23.3214C36.681 23.3214 37.2787 23.6407 37.2787 24.0309C37.2787 24.4212 36.681 24.7404 35.9447 24.7404C35.2083 24.7404 34.6107 24.4212 34.6107 24.0309C34.6107 23.6407 35.2083 23.3214 35.9447 23.3214ZM28.1186 20.4833C29.5913 20.4833 30.7866 21.1183 30.7866 21.9024C30.7866 22.6864 29.5913 23.3214 28.1186 23.3214C26.6459 23.3214 25.4506 22.6864 25.4506 21.9024C25.4506 21.1183 26.6459 20.4833 28.1186 20.4833ZM20.1146 28.6428C20.1199 28.5061 20.1544 28.3721 20.2157 28.2498C20.277 28.1274 20.3639 28.0195 20.4704 27.9333C21.1309 27.4332 21.9473 27.182 22.7755 27.2238C23.6085 27.1786 24.4306 27.43 25.0949 27.9333C25.2014 28.0195 25.2882 28.1274 25.3495 28.2498C25.4109 28.3721 25.4453 28.5061 25.4506 28.6428C25.4506 29.4268 24.2553 30.0619 22.7826 30.0619C21.3099 30.0619 20.1146 29.4268 20.1146 28.6428Z" fill="#FFD538"/>
<path d="M57.5802 27.6637H57.4664C57.4622 27.754 57.4527 27.8441 57.4379 27.9333H57.6158C57.598 27.8446 57.5873 27.7524 57.5802 27.6637ZM49.37 34.6738C49.2881 34.7057 49.2028 34.7376 49.1209 34.7625L49.5478 34.9008C49.4825 34.8301 49.423 34.7541 49.37 34.6738V34.6738Z" fill="#FCCD35"/>
<path d="M57.5802 27.6637H57.4664C57.4622 27.754 57.4527 27.8441 57.4379 27.9333H57.6158C57.598 27.8446 57.5873 27.7524 57.5802 27.6637ZM49.37 34.6738C49.2881 34.7057 49.2028 34.7376 49.1209 34.7625L49.5478 34.9008C49.4825 34.8301 49.423 34.7541 49.37 34.6738V34.6738Z" fill="#FFD538"/>
<path d="M57.9929 35.3833C57.9929 33.7726 57.9182 32.1585 57.815 30.5514C57.815 30.3953 57.7937 30.2357 57.7794 30.076C57.7332 29.3665 57.6727 28.657 57.6051 27.9475H57.4273C57.442 27.8582 57.4515 27.7682 57.4557 27.6779H38.9684L39.1036 27.9475L41.7466 33.2689L43.2372 36.2098L43.4755 36.6852L43.7352 37.2103L43.7565 37.2493V37.2848L43.5858 37.565V44.8766H57.5731C57.8506 42.0386 57.9929 39.1366 57.9929 36.2702C58 35.9757 58 35.6777 57.9929 35.3833ZM47.5059 40.7047C47.1541 40.7047 46.8103 40.6006 46.5178 40.4057C46.2253 40.2108 45.9973 39.9338 45.8627 39.6097C45.728 39.2855 45.6928 38.9289 45.7615 38.5848C45.8301 38.2407 45.9995 37.9247 46.2482 37.6766C46.497 37.4285 46.8139 37.2596 47.1589 37.1911C47.504 37.1227 47.8616 37.1578 48.1866 37.2921C48.5116 37.4263 48.7894 37.6537 48.9848 37.9454C49.1803 38.2371 49.2846 38.58 49.2846 38.9309C49.2846 39.4013 49.0972 39.8525 48.7636 40.1851C48.4301 40.5178 47.9777 40.7047 47.5059 40.7047V40.7047ZM52.6996 35.3833C52.3137 35.6171 51.8705 35.7398 51.419 35.738C51.0983 35.7383 50.7807 35.6769 50.4834 35.5571L50.2806 35.4648L49.5478 34.8901L49.121 34.7518C49.2028 34.7269 49.2881 34.695 49.37 34.6631C49.0808 34.2503 48.9267 33.7583 48.9289 33.2547C48.9289 32.5961 49.1912 31.9644 49.6582 31.4987C50.1252 31.033 50.7586 30.7714 51.419 30.7714C52.0794 30.7714 52.7128 31.033 53.1798 31.4987C53.6467 31.9644 53.9091 32.5961 53.9091 33.2547C53.9089 33.4215 53.8922 33.5878 53.8593 33.7514V33.7514C53.8353 33.8647 53.8032 33.9761 53.7632 34.0848C53.5725 34.6287 53.196 35.0883 52.6996 35.3833ZM54.2648 39.6404C54.0538 39.6404 53.8474 39.578 53.6719 39.461C53.4964 39.3441 53.3596 39.1779 53.2789 38.9834C53.1981 38.7889 53.177 38.5749 53.2181 38.3685C53.2593 38.162 53.361 37.9724 53.5102 37.8235C53.6595 37.6747 53.8496 37.5733 54.0566 37.5323C54.2636 37.4912 54.4782 37.5123 54.6732 37.5928C54.8682 37.6734 55.0349 37.8098 55.1522 37.9848C55.2694 38.1598 55.332 38.3656 55.332 38.5761C55.332 38.8584 55.2196 39.1291 55.0194 39.3287C54.8193 39.5283 54.5479 39.6404 54.2648 39.6404Z" fill="#FFD538"/>
<path d="M43.5929 37.4267V51.9719C41.2698 52.2667 38.9303 52.4137 36.5885 52.4118C31.0249 52.4118 25.9166 51.6136 21.8755 50.2833C16.4648 48.5095 13 45.7423 13 42.6559V27.9333H13.032C13.3557 30.8176 16.2016 33.3931 20.5877 35.2024L20.8225 35.2946L20.7265 35.3301L20.8617 35.3833C21.9525 35.7848 23.0639 36.1283 24.1913 36.4121L24.2767 36.437C28.1701 37.3794 32.1623 37.8558 36.1688 37.856H36.5885C38.5014 37.8584 40.4131 37.7613 42.3158 37.5651C42.7462 37.5296 43.1731 37.48 43.5929 37.4267Z" fill="#FFC31A"/>
</svg>
