<svg width="70" height="70" viewBox="0 0 70 70" fill="none" xmlns="http://www.w3.org/2000/svg">
<path d="M13.3376 41.2476C11.934 42.0927 10.0893 42.6513 8.09746 42.3106C7.79001 42.2561 7.48257 42.1881 7.17509 42.0927C5.57097 41.5883 3.88661 40.4712 2.29586 38.427C-1.60751 33.3851 -0.310869 25.3046 4.50153 23.4104C6.69386 22.5385 8.44502 22.9472 9.71495 23.6421C9.76844 23.6695 9.8219 23.6966 9.87539 23.7375C11.279 24.5553 12.0276 25.7133 12.0276 25.7133L12.6559 33.2352L13.2842 40.7435L13.3376 41.2476Z" fill="#A16552"/>
<path d="M11.7329 27.2943C11.7329 27.2943 9.5807 23.9828 5.79765 25.4819C2.01457 26.9807 0.985249 33.3445 4.05983 37.296C7.13441 41.2479 10.61 40.8254 12.7489 39.531L11.7329 27.2943Z" fill="#F5DCB4"/>
<path d="M57.9591 25.6997C57.9591 25.6997 60.686 21.5029 65.4986 23.3968C70.3109 25.291 71.6075 33.3715 67.704 38.4134C63.8008 43.4554 59.3894 42.8965 56.6625 41.2479L57.9591 25.6997Z" fill="#A16552"/>
<path d="M58.2532 27.2943C58.2532 27.2943 60.4056 23.9828 64.1884 25.4819C67.9715 26.9807 69.001 33.3445 65.9262 37.296C62.8517 41.2479 59.3761 40.8254 57.2374 39.531L58.2532 27.2943Z" fill="#F5DCB4"/>
<path d="M63.32 46.4939C63.32 59.4803 50.634 70 34.9936 70C34.8869 70 34.7932 70 34.6865 70C33.3762 69.9862 32.0796 69.9046 30.823 69.7409C28.2831 69.4276 25.8637 68.8416 23.5909 68.0104C13.6187 64.3721 6.66748 56.1008 6.66748 46.4804C6.66748 45.0767 6.81452 43.7004 7.10862 42.3515C7.13537 42.2561 7.14874 42.1607 7.17545 42.0789C7.21557 41.8745 7.26903 41.6702 7.32252 41.4794C7.44281 41.0297 7.54976 40.5666 7.65671 40.1031C8.23152 37.5413 8.55234 34.9386 8.52559 32.3089C8.52559 32.1587 8.52559 32.0088 8.52559 31.8589C8.52559 29.7062 8.81969 27.5531 9.3945 25.4271C9.3945 25.4136 9.3945 25.4136 9.3945 25.4C9.54157 24.8415 9.71535 24.269 9.90247 23.7105C10.2099 22.7838 10.5709 21.8572 10.9719 20.9579C11.266 20.3036 11.5868 19.6496 11.9344 19.0092C15.4367 12.482 21.3185 7.05859 28.0694 4.76932C28.2431 4.71482 28.4035 4.66031 28.5773 4.60581C29.3793 4.36053 30.1814 4.14252 30.9967 3.99261C31.1975 3.95174 31.4113 3.91087 31.625 3.8836C32.5742 3.72009 33.5499 3.62469 34.5261 3.61108C34.6865 3.61108 34.8469 3.61108 35.0206 3.61108C35.3281 3.61108 35.6356 3.61109 35.9427 3.63832H35.9564C36.2772 3.65195 36.598 3.67919 36.9322 3.70646C37.1059 3.72009 37.2797 3.74733 37.4534 3.76096C38.8037 3.92447 40.1404 4.21066 41.4503 4.61945C41.6241 4.67395 41.7978 4.72845 41.9582 4.78296C48.7091 7.07223 54.6042 12.4955 58.1065 19.0227C58.4543 19.6632 58.7752 20.3036 59.0693 20.9714C59.4702 21.8707 59.831 22.7974 60.1518 23.724C60.3256 24.2555 60.486 24.7867 60.633 25.332C60.6467 25.3591 60.6467 25.3865 60.66 25.4136C61.2213 27.5392 61.5288 29.7062 61.5288 31.8589C61.5288 32.0088 61.5288 32.1587 61.5288 32.3089C61.5021 34.9386 61.8096 37.5413 62.3979 40.1031C62.5046 40.5666 62.6116 41.0162 62.732 41.4794C62.7854 41.6837 62.8387 41.888 62.8791 42.0927C62.9058 42.1881 62.9191 42.2835 62.9458 42.3651C63.1729 43.7004 63.32 45.0767 63.32 46.4939Z" fill="#A16552"/>
<path d="M54.8443 38.8496C55.4592 37.4733 55.8067 35.9607 55.8067 34.38C55.8067 28.1935 50.647 23.179 44.2703 23.179C42.1183 23.179 40.113 23.7511 38.3885 24.7322C36.2765 25.9451 33.7233 25.9451 31.5977 24.7322C29.8732 23.7375 27.8682 23.179 25.7159 23.179C19.3395 23.179 14.1796 28.1935 14.1796 34.38C14.1796 35.9742 14.5271 37.4868 15.142 38.8496C15.3559 39.3127 15.5832 39.7624 15.8505 40.1849C16.96 41.9699 17.2675 44.1639 16.5991 46.1806C16.0911 47.6933 15.65 49.4102 15.65 50.6772C15.65 59.9844 24.3122 67.5333 34.9799 67.5333C45.6473 67.5333 54.3097 59.9844 54.3097 50.6772C54.3097 49.4102 53.8551 47.6933 53.3606 46.1806C52.6919 44.1774 52.9994 41.9699 54.1089 40.1849C54.3897 39.7624 54.6305 39.3127 54.8443 38.8496Z" fill="#F5DCB4"/>
<path d="M25.1416 52.7622C24.4733 52.7622 23.952 53.3617 24.0457 54.0431C24.7274 59.0306 29.3792 62.8868 34.9939 62.8868C40.6215 62.8868 45.2604 59.0306 45.942 54.0431C46.0354 53.3617 45.5142 52.7622 44.8459 52.7622H25.1416Z" fill="#4E3F3F"/>
<path d="M28.6302 61.0335C30.4348 62.2054 32.6138 62.8868 34.9932 62.8868C37.3727 62.8868 39.5517 62.1919 41.3562 61.0335C40.5542 58.2129 38.001 58.8669 34.9932 58.8669C31.9855 58.8669 29.4323 58.2129 28.6302 61.0335Z" fill="#E6646E"/>
<path d="M41.9849 6.21375L34.4587 7.54913L33.1754 7.78077L29.8202 5.90033L28.0423 4.90557L28.0023 4.87833C28.0023 4.87833 28.0157 4.85106 28.0423 4.78293C28.3632 4.14249 30.3818 0.367921 34.4587 0.0272341C34.6728 0.013633 34.8866 0 35.1007 0L35.2878 0.817583L35.9294 3.62469L35.9961 3.91084L36.1432 4.53764L37.0523 3.97898L37.4264 3.74733L41.7978 1.0765L41.9315 4.78293V4.90557L41.9849 6.21375Z" fill="#A16552"/>
<path d="M34.0178 46.1532C33.8037 46.6302 33.2558 46.8346 32.7879 46.6167L30.6356 45.6217C30.1677 45.4038 29.9673 44.8452 30.181 44.3682C30.3951 43.8912 30.9431 43.6868 31.4109 43.9047L33.5633 44.8997C34.0312 45.1176 34.2316 45.6765 34.0178 46.1532Z" fill="#4E3F3F"/>
<path d="M35.9697 46.1532C36.1835 46.6302 36.7318 46.8346 37.1996 46.6167L39.352 45.6217C39.8195 45.4038 40.0203 44.8452 39.8062 44.3682C39.5924 43.8912 39.0445 43.6868 38.5766 43.9047L36.4243 44.8997C35.9564 45.1176 35.756 45.6765 35.9697 46.1532Z" fill="#4E3F3F"/>
<path d="M25.0612 38.8493C23.23 38.8493 21.746 37.4185 21.746 35.6471V34.5844C21.746 32.813 23.23 31.3822 25.0612 31.3822C26.8927 31.3822 28.3764 32.813 28.3764 34.5844V35.6471C28.3764 37.4185 26.8927 38.8493 25.0612 38.8493Z" fill="#4E3F3F"/>
<path d="M25.0619 31.3822V35.1156C25.0619 36.0016 25.7969 36.7101 26.7193 36.7101C27.6418 36.7101 28.3771 35.9878 28.3771 35.1156V34.5844C28.3771 32.813 26.8931 31.3822 25.0619 31.3822Z" fill="#5D5360"/>
<path d="M25.0613 34.5844C25.674 34.5844 26.1708 34.1083 26.1708 33.5214C26.1708 32.9344 25.674 32.4584 25.0613 32.4584C24.4486 32.4584 23.9518 32.9344 23.9518 33.5214C23.9518 34.1083 24.4486 34.5844 25.0613 34.5844Z" fill="white"/>
<path d="M44.9259 38.8493C43.0944 38.8493 41.6107 37.4185 41.6107 35.6471V34.5844C41.6107 32.813 43.0944 31.3822 44.9259 31.3822C46.7572 31.3822 48.2412 32.813 48.2412 34.5844V35.6471C48.2412 37.4185 46.7572 38.8493 44.9259 38.8493Z" fill="#4E3F3F"/>
<path d="M44.9259 31.3822V35.1156C44.9259 36.0016 45.6609 36.7101 46.5834 36.7101C47.5058 36.7101 48.2411 35.9878 48.2411 35.1156V34.5844C48.2411 32.813 46.7571 31.3822 44.9259 31.3822Z" fill="#5D5360"/>
<path d="M44.9256 34.5844C45.5386 34.5844 46.0351 34.1083 46.0351 33.5214C46.0351 32.9344 45.5386 32.4584 44.9256 32.4584C44.3129 32.4584 43.816 32.9344 43.816 33.5214C43.816 34.1083 44.3129 34.5844 44.9256 34.5844Z" fill="white"/>
<path opacity="0.35" d="M35.289 0.831288C34.5537 0.749517 32.9229 1.94866 30.9847 4.00628C30.5035 4.52408 29.9955 5.08278 29.474 5.70962C25.6642 10.2609 21.2529 17.4421 19.7423 24.8006C17.2025 37.1597 16.1731 51.5085 20.6513 59.4665C24.4479 66.2116 30.8243 69.7409 30.8243 69.7409C28.2844 69.4276 25.8646 68.8417 23.5922 68.0104C13.6199 64.3721 6.66863 56.1009 6.66863 46.4804C6.66863 45.0767 6.8157 43.7005 7.10977 42.3516C7.13652 42.2562 7.14989 42.1608 7.17664 42.0789C5.57248 41.5748 3.88816 40.4573 2.29737 38.4135C-1.606 33.3851 -0.309322 25.3047 4.50308 23.4104C6.69538 22.5521 8.44657 22.9473 9.7165 23.6422C9.76996 23.6696 9.82345 23.6966 9.87691 23.7376C10.1844 22.8109 10.5453 21.8843 10.9463 20.985C11.2404 20.331 11.5612 19.6767 11.9088 19.0363C15.4112 12.5094 21.293 7.0859 28.0436 4.79663C28.3645 4.15619 30.3831 0.381595 34.4603 0.0409412C34.6741 0.0273071 34.8879 0.0136719 35.102 0.0136719L35.289 0.831288Z" fill="#4E3F3F"/>
</svg>
