<svg width="70" height="70" viewBox="0 0 70 70" fill="none" xmlns="http://www.w3.org/2000/svg">
<g clip-path="url(#clip0_1220_3285)">
<circle cx="35" cy="35" r="35" fill="#17252A"/>
<path d="M47.0121 37.3785L48.8522 38.0145C48.9155 38.0195 48.9767 38.0399 49.0303 38.0739C48.9942 38.1271 48.9515 38.1756 48.9031 38.218C48.6607 38.7617 48.4168 39.3054 48.1728 39.8497C47.8192 40.6382 47.465 41.4278 47.1139 42.2204C47.0642 42.298 47.0297 42.3844 47.0121 42.4748C46.8849 42.5003 46.8849 42.5851 46.8849 42.6529C46.5457 43.3906 46.215 44.1284 45.8843 44.8661L44.553 47.8425C44.5021 47.9018 44.5021 47.9612 44.5021 48.0375C44.4461 48.1073 44.4056 48.1882 44.3834 48.2749C44.3371 48.4173 44.2745 48.5539 44.1969 48.682C44.1686 48.747 44.1413 48.8129 44.114 48.8789C44.0593 49.0108 44.0047 49.1427 43.9425 49.2671V49.3603C43.8469 49.6276 43.7336 49.8883 43.6033 50.1405C43.0661 51.3508 42.5239 52.5562 41.9806 53.7642C41.8121 54.1389 41.6435 54.5137 41.4749 54.8891C41.3986 54.9654 41.3986 55.0418 41.3986 55.1181C41.3927 55.1644 41.3772 55.2089 41.3529 55.2487C41.3287 55.2886 41.2962 55.3228 41.2578 55.3493C41.2194 55.3757 41.1758 55.3937 41.1299 55.4021C41.084 55.4104 41.0368 55.409 40.9915 55.3979C40.9152 55.3986 40.8412 55.3714 40.7834 55.3215C40.7257 55.2715 40.6881 55.2022 40.6778 55.1265C40.594 54.8534 40.4832 54.5892 40.3471 54.3379C39.7983 53.0895 39.244 51.8521 38.6886 50.6124C38.5574 50.3196 38.4262 50.0267 38.295 49.7335L36.7262 46.2313C36.5615 45.8332 36.4023 45.4907 36.2397 45.1408C36.2014 45.0584 36.163 44.9756 36.1242 44.8915C36.1205 44.8577 36.1205 44.8236 36.1242 44.7898C36.0013 44.5655 35.8937 44.3332 35.802 44.0944C35.4628 43.3482 35.1575 42.6614 34.7844 41.8134C34.4113 40.9654 34.0297 40.1175 33.6481 39.2695C33.4574 38.8366 33.2605 38.4006 33.063 37.9634C32.9356 37.6812 32.8078 37.3984 32.6814 37.1156C32.4067 36.5306 32.1503 35.9455 31.8938 35.3604C31.7229 34.9703 31.5519 34.5802 31.3755 34.1901L27.0339 24.4894C26.8728 24.1332 26.7138 23.7749 26.5548 23.4167C26.3958 23.0584 26.2368 22.7001 26.0757 22.344L24.931 19.8001C24.7741 19.4439 24.6151 19.0899 24.4561 18.7359C24.2971 18.3818 24.1381 18.0278 23.9812 17.6717C23.6907 17.046 23.4113 16.4203 23.1307 15.7922C22.9855 15.4669 22.8399 15.1409 22.6923 14.814L22.6414 14.6614C22.707 14.6366 22.7794 14.6366 22.845 14.6614H28.7808C30.3454 14.6552 31.862 15.2017 33.063 16.2047C33.8894 16.8857 34.5358 17.7593 34.9455 18.7486L36.0394 21.2501C36.1421 21.4596 36.2327 21.6747 36.3107 21.8946L37.7268 24.9557L37.7993 25.12C38.2477 26.1368 38.6762 27.1086 39.143 28.195C39.4465 28.9014 39.7532 29.5981 40.0592 30.2931C40.249 30.7244 40.4386 31.155 40.6269 31.5869C40.7287 31.8328 40.8389 32.0787 40.9491 32.3161C40.973 32.3912 41.0073 32.4625 41.0509 32.5281C41.1035 32.5281 41.1103 32.4931 41.1153 32.4671C41.1191 32.4469 41.122 32.4322 41.1442 32.4433C41.195 32.4688 41.195 32.5366 41.195 32.5366C41.6776 33.7067 42.4617 34.7278 43.4676 35.496L43.5948 35.6147L44.2223 36.0557C45.097 36.6048 46.0334 37.0488 47.0121 37.3785Z" fill="#38ABA5"/>
<path d="M51.256 31.7801C51.4231 31.8336 51.5862 31.8858 51.7523 31.9261L52.8801 29.4076C52.98 29.1877 53.077 28.9649 53.1745 28.7408C53.2425 28.5847 53.3107 28.428 53.3804 28.2713C53.4689 28.0189 53.5737 27.7725 53.6941 27.5336L55.7038 23.0648C55.7134 23.0456 55.725 23.0264 55.7368 23.007C55.7665 22.9579 55.7971 22.9075 55.7971 22.8528C55.8056 22.8345 55.8186 22.8187 55.8349 22.8068C55.8512 22.7949 55.8703 22.7874 55.8903 22.785C55.8985 22.7223 55.9187 22.6619 55.9497 22.6069L58.0187 17.9939C58.0696 17.943 58.0696 17.8837 58.0696 17.8074H52.2271C51.5761 17.7911 50.9266 17.8769 50.3022 18.0618C49.3895 18.3408 48.5472 18.8121 47.832 19.444C47.1167 20.0759 46.5451 20.8537 46.1556 21.725C46.0987 21.8701 46.0277 22.0092 45.9437 22.1405C45.9407 22.163 45.9407 22.1858 45.9437 22.2083C45.8843 23.0298 45.8843 23.8545 45.9437 24.6759C45.9825 25.4556 46.0904 26.2303 46.2659 26.9909C46.4314 27.7451 46.6936 28.4747 47.046 29.1617C47.5256 30.075 48.326 30.7787 49.2931 31.1375C49.8274 31.3325 50.3616 31.5106 50.9043 31.6717C51.025 31.7062 51.1414 31.7435 51.256 31.7801Z" fill="#38ABA5"/>
<path d="M28.5433 30.6797C28.5924 30.7207 28.6255 30.7778 28.6366 30.8408C30.2477 34.3966 31.8617 37.9496 33.4785 41.4998C33.5038 41.5482 33.517 41.6021 33.517 41.6567C33.517 41.7113 33.5038 41.7651 33.4785 41.8136C31.4095 46.1891 29.363 50.5703 27.3392 54.9571C27.3114 55.0285 27.2623 55.0895 27.1986 55.132C27.1348 55.1745 27.0596 55.1963 26.983 55.1945C26.9071 55.1975 26.8324 55.1748 26.7709 55.1302C26.7094 55.0856 26.6647 55.0217 26.6439 54.9486L24.0151 49.3012C18.6447 37.8196 13.2883 26.3353 7.9461 14.8481L7.86978 14.67C7.9171 14.6582 7.96661 14.6582 8.01394 14.67H14.4076C15.7312 14.6816 17.024 15.0708 18.1341 15.7918C19.2442 16.5129 20.1254 17.5357 20.6741 18.7403C22.7036 23.1723 24.7274 27.6044 26.7456 32.0365C26.7963 32.1675 26.8558 32.295 26.9237 32.418C27.1044 32.7275 27.2604 33.0507 27.3901 33.3847L28.5433 30.6797Z" fill="#DEF0F3"/>
<path d="M41.1442 32.4689C40.9159 31.8423 40.7649 31.1902 40.6947 30.527C40.61 29.8144 40.61 29.0943 40.6947 28.3817C40.7955 27.3111 41.133 26.2764 41.683 25.3524C42.233 24.4284 42.9816 23.6384 43.8746 23.0394C44.4856 22.6266 45.1467 22.2932 45.8419 22.0473C45.8841 22.0179 45.9347 22.0031 45.9861 22.0049C46.0143 22.0049 46.0049 22.0426 45.9955 22.0803C45.9908 22.0991 45.9861 22.118 45.9861 22.1321C45.9831 22.1546 45.9831 22.1774 45.9861 22.1999C45.9267 23.0214 45.9267 23.8461 45.9861 24.6675C46.025 25.4472 46.1328 26.2219 46.3083 26.9825C46.4739 27.7367 46.7361 28.4663 47.0884 29.1533C47.5681 30.0666 48.3684 30.7703 49.3356 31.1291C49.8698 31.3241 50.404 31.5022 50.9467 31.6633C51.0209 31.6865 51.095 31.7109 51.1699 31.7356C51.3689 31.8012 51.5728 31.8684 51.7947 31.9177C52.0102 31.9656 52.2552 32.0599 52.4971 32.1531C52.5978 32.1919 52.698 32.2304 52.7953 32.2654C53.9098 32.615 54.9887 33.0693 56.0176 33.6221C56.8352 34.0545 57.5839 34.606 58.2393 35.2587C59.2141 36.252 59.8493 37.5284 60.0539 38.905C60.2806 40.2414 60.2257 41.6104 59.8928 42.9244C59.6414 43.9794 59.1535 44.9634 58.466 45.8022C57.7786 46.6411 56.9094 47.3126 55.9243 47.7663C54.9735 48.2175 53.9624 48.5288 52.9225 48.6906C51.6728 48.8939 50.4048 48.9622 49.1405 48.8941C47.622 48.8166 46.1212 48.5312 44.6802 48.0461H44.5445C44.5445 47.9698 44.5445 47.9104 44.5954 47.8511L45.9267 44.8747L45.9272 44.8736C46.2578 44.1362 46.5883 43.3989 46.9273 42.6615C46.9273 42.5936 46.9273 42.5088 47.0545 42.4834H47.1478C48.4197 42.973 49.8033 43.0964 51.1417 42.8396C51.5428 42.7628 51.9274 42.6164 52.278 42.4071C52.5198 42.2469 52.72 42.0316 52.8623 41.7789C53.0046 41.5262 53.0848 41.2433 53.0964 40.9535C53.108 40.6637 53.0506 40.3753 52.929 40.1121C52.8073 39.8488 52.6249 39.6182 52.3967 39.4392C52.1398 39.2644 51.8639 39.1193 51.5742 39.0067C50.8111 38.6862 50.0479 38.4275 49.2847 38.1688L49.0303 38.0824C48.9893 38.0542 48.9432 38.034 48.8946 38.0231L47.0545 37.3871C46.0758 37.0574 45.1394 36.6134 44.2647 36.0643L43.5948 35.6148L43.4676 35.4961C42.46 34.7297 41.6754 33.708 41.195 32.5367C41.195 32.5367 41.1781 32.4943 41.1442 32.4689Z" fill="#DEF0F3"/>
<path d="M53.6941 27.5338C53.5738 27.7727 53.469 28.0191 53.3804 28.2715L53.5415 28.3733C53.8398 28.6007 54.123 28.8471 54.3895 29.111C54.4314 29.17 54.4907 29.2145 54.5591 29.2382L54.6608 29.1195L57.51 26.1261L58.5191 25.0407C58.5995 24.9604 58.596 24.9562 58.5304 24.8765C58.5268 24.8721 58.5231 24.8675 58.5191 24.8627C58.4428 24.7694 58.358 24.6761 58.2732 24.5913C57.5816 23.8554 56.7773 23.2342 55.8904 22.7512C55.8703 22.7537 55.8513 22.7612 55.835 22.7731C55.8186 22.7849 55.8056 22.8008 55.7971 22.8191C55.7856 22.8449 55.7712 22.8697 55.7572 22.8939C55.7298 22.9413 55.7038 22.9862 55.7038 23.0311L53.6941 27.5338Z" fill="#DEF0F3"/>
</g>
<defs>
<clipPath id="clip0_1220_3285">
<rect width="69.9576" height="70" fill="white"/>
</clipPath>
</defs>
</svg>
