<svg width="70" height="70" viewBox="0 0 70 70" fill="none" xmlns="http://www.w3.org/2000/svg">
<circle cx="35" cy="35" r="35" fill="white"/>
<path d="M58 27L49 18L40 27L46.5 27V43C46.5 45.4853 44.4853 47.5 42 47.5C39.5147 47.5 37.5 45.4853 37.5 43V27.5C37.5 22.5294 33.4706 18.5 28.5 18.5C23.5294 18.5 19.5 22.5294 19.5 27.5V43H13L22 52L31 43H24.5V27.5C24.5 25.2909 26.2909 23.5 28.5 23.5C30.7091 23.5 32.5 25.2909 32.5 27.5V43C32.5 48.2467 36.7533 52.5 42 52.5C47.2467 52.5 51.5 48.2467 51.5 43V27L58 27Z" fill="#2C2F81"/>
</svg>
